<?xml version="1.0" encoding="UTF-8"?>
<svg id="Layer_2" data-name="Layer 2" xmlns="http://www.w3.org/2000/svg" viewBox="0 0 233.03 93.37">
  <defs>
    <style>
      .cls-1 {
        fill: #ffeed3;
      }
    </style>
  </defs>
  <g id="Layer_1-2" data-name="Layer 1">
    <g>
      <g>
        <path class="cls-1" d="M37.28,50.07c2.04-.43,22.11-.56,24.08-.25,3.89.68,4.32,3.27,4.57,5.56.43,4.51-1.11,9.39-7.35,9.02-3.27-.19-5.19-1.17-6.05-2.9-.8-1.73-1.92-1.85-2.96-1.91-.99,0-3.15.06-3.21,3.58-.06,5.74.12,6.85-.06,13.59-.06,2.9,0,5.99,2.78,5.93.74,0,3.21.43,3.58-1.73.43-2.72,3.89-2.96,6.48-3.09,5-.25,6.48,2.47,6.85,6.24.25,2.22.93,7.1-2.9,8.03-2.16.56-18.4,1.61-25.07.19-2.78-.62-4.01-2.22-4.38-3.95-.99-5.06-2.16-33.72,1.05-36.93.62-.62,1.54-1.17,2.59-1.36Z"/>
        <path class="cls-1" d="M90.7,86.14v-8.95c0-.68-.31-1.11-1.17-.93-.43.06-.87.37-1.3.49-2.1.93-3.71.74-3.58,3.15.06,3.27.43,8.21-1.61,10.99-1.3,1.79-3.4,2.41-5.5,2.47-3.21.06-5.74-.31-6.48-4.26-1.23-6.24-1.36-22.23-.18-31.37.56-4.08.74-7.72,6.61-7.9,1.17-.06,2.35.12,3.27.43,2.9,1.17,3.21,6.73,3.33,9.39,0,.86,0,1.61-.06,2.47,0,2.1.68,2.41,2.28,1.61,3.4-1.67,8.95-3.03,12.72-2.16,2.28.56,4.14,1.98,4.57,5.06.62,4.45.93,17.78-.19,22.97-.68,2.9-3.03,3.64-6.24,3.58-4.94-.06-6.42-2.16-6.48-7.04Z"/>
        <path class="cls-1" d="M109.04,86.14c-.31-5.5-.49-11.79-.49-16.61,0-4.38,1.3-8.21,7.04-8.27,3.83-.06,5.93,2.04,6.36,5.37.49,3.64.86,13.4.31,19.64-.37,4.01-.43,6.73-5.99,7.04-4.88.25-7.16-2.28-7.22-7.16ZM113.92,60.39c-2.1-.12-3.83-1.17-4.51-2.41-1.61-2.59.87-5.87,4.94-6.61,2.1-.37,4.45.25,5.8,1.42,1.85,1.3,2.53,3.27,1.61,4.94-.74,1.36-2.59,2.53-4.82,2.78-.99.12-2.04-.06-3.03-.12Z"/>
        <path class="cls-1" d="M133.86,50.07c4.75-.12,5.74,3.03,6.05,6.24.49,3.64.99,9.69.99,15.62,0,6.3-.56,12.41-.99,15.38-.37,2.9-2.04,5.87-5.99,5.87-3.15,0-5.37-1.42-6.05-5.56-1.24-7.6-.99-24.15-.25-31.18.37-3.4,1.36-6.3,6.24-6.36Z"/>
        <path class="cls-1" d="M152.2,50.07c4.76-.12,5.74,3.03,6.05,6.24.49,3.64.99,9.69.99,15.62,0,6.3-.56,12.41-.99,15.38-.37,2.9-2.04,5.87-5.99,5.87-3.15,0-5.37-1.42-6.05-5.56-1.24-7.6-.99-24.15-.25-31.18.37-3.4,1.36-6.3,6.24-6.36Z"/>
        <path class="cls-1" d="M164.68,63.9c.37-.93,1.3-1.85,2.59-2.28,1.79-.62,23.47-.62,25.26,0,1.36.43,2.29,1.36,2.66,2.28,1.42,3.33,1.73,26.86-1.54,28.41-1.36.68-2.96.86-4.51.74-5.8.31-12.54.31-18.46,0-1.54.12-3.15-.06-4.51-.74-3.27-1.54-2.9-25.07-1.48-28.41ZM171.16,57.73c-.43-.86-.43-1.67-.12-2.47.93-2.47,9.2-10.19,11.61-10.87,1.3-.37,2.9-.25,4.14.31,4.75,2.16.99,7.23-2.66,10.62-1.79,1.67-5.19,4.63-7.84,4.82-1.91.12-4.51-.93-5.12-2.41ZM176.84,80.7c0,.8-.06,2.22,1.3,2.35.31.06,1.92,0,2.41,0,2.84,0,2.59-1.54,2.47-3.58-.06-2.47.06-2.35.06-4.82,0-1.48-.93-3.09-3.21-3.15-4.01-.12-2.96,3.77-3.03,9.2Z"/>
        <path class="cls-1" d="M201.05,86.14c-.31-5.5-.49-11.79-.49-16.61,0-4.38,1.3-8.21,7.1-8.27,1.85,0,3.58.43,4.88,1.91,1.73,2.04,1.98.56,5.37-.37,2.59-.68,7.47-1.85,10-1.24,2.29.56,4.14,1.98,4.51,5.06.62,4.45,1.05,17.78-.12,22.97-.68,2.9-2.96,3.64-6.24,3.58-4.94-.06-6.48-2.16-6.48-7.04,0-2.78-.06-6.98-.06-8.21.06-1.3.31-2.29-1.54-1.54-.74.31-1.42.62-2.16.93-1.36.56-1.24,1.23-1.24,2.47-.06,2.28-.12,4.14-.31,6.48-.37,4.01-.37,6.73-5.93,7.04-4.94.25-7.23-2.28-7.29-7.16Z"/>
      </g>
      <g>
        <path class="cls-1" d="M.7,37.6C0,24.69-.24,14.95.29,4.45c.06-1.64.59-3.05,3.29-3.58C7.33.16,24.41-.19,27.87.4c3.29.59,3.35,3.87,3.17,6.87-.23,4.87-3.05,6.22-5.81,6.51-3.58.35-5.81-.59-6.28-2.76-.41-1.76-1.53-1.82-3.17-1.64-2.41.23-2.7,1.23-2.58,3.7.06.94.18,2.46,1.76,2.41.29-.06.59-.06,1.64-.12,4.23-.18,5.34,1.88,5.63,3.7.53,3.93-2.29,5.05-5.87,5.75-1.47.23-2.29.65-2.35,2.17q-.06.76,0,1.47c0,2.52,0,3.29,3.05,3.23,1.41,0,2.23.18,2.82-1.35,1-2.35,3.52-3.34,5.93-3.17,6.63.65,8.04,10.09,5.05,12.27-2.76,2.17-21.54,2.11-25.41,1.88-2.52-.23-4.7-1.88-4.75-3.7Z"/>
        <path class="cls-1" d="M42.07.4c4.52-.12,5.46,2.88,5.75,5.93.47,3.46.94,9.21.94,14.85,0,5.99-.53,11.8-.94,14.61-.35,2.76-1.94,5.58-5.69,5.58-2.99,0-5.11-1.35-5.75-5.28-1.17-7.22-.94-22.95-.24-29.64.35-3.23,1.29-5.99,5.93-6.04Z"/>
        <path class="cls-1" d="M68.71.4c1.94-.41,21.01-.53,22.89-.24,3.7.65,4.11,3.11,4.34,5.28.41,4.28-1.06,8.92-6.98,8.57-3.11-.18-4.93-1.11-5.75-2.76-.76-1.64-1.82-1.76-2.82-1.82-.94,0-2.99.06-3.05,3.4-.06,5.46.12,6.51-.06,12.91-.06,2.76,0,5.69,2.64,5.63.7,0,3.05.41,3.4-1.64.41-2.58,3.7-2.82,6.16-2.93,4.75-.24,6.16,2.35,6.51,5.93.24,2.11.88,6.75-2.76,7.63-2.05.53-17.49,1.53-23.83.18-2.64-.59-3.81-2.11-4.17-3.76-.94-4.81-2.05-32.04,1-35.09.59-.59,1.47-1.12,2.46-1.29Z"/>
        <path class="cls-1" d="M119.46,34.67v-8.51c0-.65-.29-1.06-1.12-.88-.41.06-.82.35-1.23.47-1.99.88-3.52.7-3.4,2.99.06,3.11.41,7.8-1.53,10.45-1.23,1.7-3.23,2.29-5.22,2.35-3.05.06-5.46-.29-6.16-4.05-1.17-5.93-1.29-21.13-.18-29.81.53-3.87.71-7.33,6.28-7.51,1.12-.06,2.23.12,3.11.41,2.76,1.12,3.05,6.4,3.17,8.92,0,.82,0,1.53-.06,2.35,0,2,.65,2.29,2.17,1.53,3.23-1.58,8.51-2.88,12.09-2.05,2.17.53,3.93,1.88,4.34,4.81.59,4.23.88,16.9-.18,21.83-.65,2.76-2.88,3.46-5.93,3.4-4.7-.06-6.1-2.05-6.16-6.69Z"/>
        <path class="cls-1" d="M136.89,34.67c-.29-5.22-.47-11.21-.47-15.79,0-4.17,1.23-7.8,6.69-7.86,3.64-.06,5.63,1.94,6.04,5.11.47,3.46.82,12.73.29,18.66-.35,3.81-.41,6.4-5.69,6.69-4.63.24-6.81-2.17-6.87-6.81ZM141.52,10.2c-1.99-.12-3.64-1.11-4.28-2.29-1.53-2.46.82-5.58,4.7-6.28,1.99-.35,4.22.23,5.52,1.35,1.76,1.23,2.41,3.11,1.53,4.69-.7,1.29-2.46,2.41-4.58,2.64-.94.12-1.94-.06-2.88-.12Z"/>
        <path class="cls-1" d="M160.48.4c4.52-.12,5.46,2.88,5.75,5.93.47,3.46.94,9.21.94,14.85,0,5.99-.53,11.8-.94,14.61-.35,2.76-1.94,5.58-5.69,5.58-2.99,0-5.11-1.35-5.75-5.28-1.17-7.22-.94-22.95-.23-29.64.35-3.23,1.29-5.99,5.93-6.04Z"/>
        <path class="cls-1" d="M178.02,11.14c5.46-.29,13.56-.06,18.84-.06,3.81-.18,5.22,2.64,5.34,5.46.23,3.7-.59,8.04-1.12,9.16-.53,1.06-1.7,1.76-3.05,2.23-3.93,1.41-7.92,2-11.97,2.93-1.7.41-3.11.65-3.05,1.12.12.94.23.76,1.06.7,1.64-.06,5.28-.23,5.75-.23,1.82-.06,1.47-.59,2.7-1.23.29-.24.7-.35,1.06-.47.64-.18,1.29-.29,1.94-.35,4.58-.35,6.28,1.82,6.46,4.93.06,1.23-.12,2.46-.53,3.52-.71,1.35-1.94,2.35-4.17,2.35-3.4.18-20.6.47-22.54-.18-1.23-.41-2.11-1.23-2.41-2.17-1.35-3.17-1.76-25.53,1.47-27,1.17-.65,2.76-.82,4.22-.7ZM184.54,19.82c-.47.06-.59.12-.59.65,0,.18.06.41.06.59.06.12.23.23.53.29,1,.12,3.52-.41,4.58-.65.76-.12.94-.23.94-.7,0-.35,0-.53-.59-.59-.47,0-1.41.06-1.99.06-.41.06-.76.12-1.23.12-.59.06-1.17.12-1.7.24Z"/>
      </g>
    </g>
  </g>
</svg>