<?xml version="1.0" encoding="UTF-8"?>
<svg id="Layer_2" data-name="Layer 2" xmlns="http://www.w3.org/2000/svg" viewBox="0 0 502.63 193.18">
  <defs>
    <style>
      .cls-1 {
        fill: #9eba1d;
      }

      .cls-2 {
        fill: #4483b9;
      }

      .cls-3 {
        fill: #d4bf88;
      }

      .cls-4 {
        fill: #d3bd85;
      }

      .cls-5 {
        fill: #664e32;
      }
    </style>
  </defs>
  <g id="Layer_1-2" data-name="Layer 1">
    <g>
      <path class="cls-4" d="M283.81,125.29c-.17-.06-.34-.1-.51-.12-4.23-.73-65.85-10.92-138.04-1.2-74.82,10.07-103.9,32.14-103.9,32.14,0,0-2.45,2.08,2.43,1.06,4.88-1.02,88.09-26.43,182.54-27.46,0,0,26.81-.69,44.3-.55,0,0,4.44.18,7.57-1.12,4.54-1.88,7.15-2.23,5.62-2.75Z"/>
      <g>
        <path class="cls-1" d="M273.75,146.83c.57-2.52,1.88-4.81,3.65-6.68,6.91-7.29,20.11-12.6,20.11-12.6,9.44-3.56,19.63-5.65,29.41-8.11.85-.61,5.03-17.64,5.86-20.13,1.43-4.28,1.67-5.64,1.65-6.07,0-.1-.13-.15-.21-.08-1.26,1.14-2,2.85-3.01,4.2-6.27,8.36-17.81,15.16-24.04,2.74-5.2,8.35-21.04,11.26-22.43-1.42-.82-7.48,4.71-17.68,7.1-24.87.56-1.7,1.36-3.65,1.28-5.43,0-.2-.19-.35-.38-.29-2.79.78-8.97,9.99-10.39,12.25-4.06,6.46-7.28,13.5-9.18,20.92-.34,1.32-.57,5.84-1.61,6.2-2.94,1.01-10.48-3.12-10.68-6.41-.12-2.03,1.19-5.06,1.15-7.21-4.9,5.64-15.2,15.19-23.19,10.1-4.59-2.93-4.71-6.64-4.95-11.47-.02-.44.26-1.07-.39-.97-6.27,9.63-24.48,21.49-33.79,8.96-.75-1.01-1.7-2.64-1.79-3.88-3.71,4.03-7.75,8.45-13.83,7.77-5.94-.66-8.1-6.15-8.05-11.29,0-.72.15-2.64-.09-3.05-.04-.07-.15-.06-.18.01-.35.87-.34,1.23-1.29,3.04-4.06,7.65-11.48,15.8-20.29,10.32-2.92-1.81-3.39-3.55-4.32-6.63-.08-.28.12-.88-.59-.57-.75.32-3.64,3.78-4.71,4.68-7.1,5.95-19.1,10.48-27.28,4.24-9.19-7.01-7.2-23.19-2.15-32.17-.31-.24-6.94,1.1-7.26,1.32-.54.37-2.57,11.27-2.85,12.87-1.46,8.32-4.02,22.4.35,29.89,1.08,1.86,3.88,3.49.98,5.04-.79.42-2.09.72-2.99.92-18.9,4.1-18.5-12.79-17.21-26.2.61-6.4,2.17-12.69,3.51-18.96l-22.96,4.96-.49.41c-5.45,18.24-12.76,43.37-30.87,52.87-22.86,11.98-44.55-4-27.68-27.49,7.06-9.83,20.57-19.24,31.45-24.44,1.8-.86,10.94-4.24,11.43-4.98,3.86-15.7,8.27-31.8,10.86-47.76.79-4.89,2.57-15.6.71-20.01-1.78-4.21-6.82-1.86-9.95-.57-13.11,5.36-29.93,20.13-35.52,33.26-2.41,5.65-3.43,10.31-.52,16.04,1.6,3.14,6.27,5.84.39,7.67-12.21,3.79-18.75-7.14-15.83-18.18C5.93,29.78,46.03,1.24,65.84.04c3.92-.24,9.07.54,11.5,3.93,4.32,6.02,1.36,23.19.1,30.53-2.31,13.38-6.21,26.49-8.86,39.79l23.79-4.74c4-13.1,7.88-26.35,12.55-39.24,2.49-6.87,8.26-22.81,14.1-26.94,3.63-2.57,12.63-2.58,12.85,2.75.09,2.08-4.76,10.92-5.91,13.57-6.58,15.23-12.24,30.86-16.35,46.96l9.78-.38c3.64-4.91,7.54-9.45,13.02-12.38,11.36-6.07,22.12-2.13,16.36,12.06-3.22,7.94-11.6,14.94-18.95,18.96-4.31,2.35-5.53.62-4.95,7.15.95,10.7,10.43,9.36,16.99,4.1,1.74-1.39,6.71-6.67,7.44-8.58.87-2.26,1.13-5.89,2.03-8.52,2.88-8.47,9.76-18.26,17.82-22.43,5.33-2.76,14.19-4.52,19.04-.13.73.66,1.19,1.74,1.74,2.17,1.03.82,3.43,1.05,3.96,2.71.64,2-1.35,3.73-1.71,5.38-1.59,7.3-4.54,15.56-5.16,22.98-1,11.87,5.94,5.46,9.3-.11-1.41-16.48,3.55-33.8,10.29-48.7,4.92-10.88,13.34-26.14,25.74-29.17,0,0,13.6-4.03,8.21,18.76-4.49,18.96-16.16,37.82-30.4,50.69-.26,4.6-.95,15.69,5.6,16.15,6.62.47,13.69-8.36,18.03-14.45,1.25-1.76,2.24-3.69,2.93-5.73l7.4-21.8c-1.69-1.11-8.11.63-8.94-2.07-.46-1.5-.08-3.69,1.69-4.02,1.55-.29,9.48.32,9.91-.06,1.95-5.18,3.94-10.42,6.23-15.46.65-1.44,2.74-6.59,3.6-7.34,2.04-1.78,10.89-1.13,11.25,1.63l-7.74,21.61,13.41.41c6.77-14.98,18.68-35.64,35.34-40.96,10.85-3.46,19.88,1.62,14.36,13.58-4.41,9.57-17.16,20.79-26.02,26.35-1.77,1.11-10.22,5.15-10.7,5.71,0,0-.91.75-1.32,1.9s-5.92,18.03-5.92,18.03c-.23.56-.48,1.1-.43,1.35.02.11.14.19.25.15.17-.07.3-.18.38-.33,1.51-2.82,2.93-4.68,2.93-4.68,3.13-3.91,10.28-11.05,15.45-11.34,4.26-.24,7.11,3.12,7.24,7.23.29,8.99-7.64,19.85-8.58,28.96-.77,7.45,4.46,4,7.39.75,3.8-4.21,2.81-5.82,4.09-10.76,1.6-6.13,4.08-12.9,6.77-18.63.92-1.97,3.13-7.17,4.87-8.03,2.07-1.01,10.84-1.43,11.23,1.47.23,1.74-6.46,15.19-7.62,18.17s-2.5,6.09-3.22,9.29c-1.59,7.04-1.99,15.39,6.34,6.73s12.01-20.55,17.24-30.67c.3-.58.8-1.05,1.41-1.3,3.24-1.33,10.5-.36,10.05,3.58-4.46,16.16-7.66,32.66-12.48,48.71,5.3-1.57,10.05-4.45,14.33-7.87.79-.63,1.87-.83,2.8-.45,1.83.74,1.93,3.04.07,5.01-4.75,5.05-13.5,8.41-19.86,10.82-4.48,19.14-24.24,36.17-44.4,36.97-21.57.86-22.98-7.62-21.76-13ZM289.01,48.11c10.06-4.65,20.56-13.49,25.48-23.57,2.39-4.91,5.2-15.14-3.99-10.24-4.95,2.64-9.38,10.72-12.18,15.57-3.38,5.87-6.53,12.09-9.31,18.24ZM229.1,45.96c3.31-7.15,5.7-14.51,6.32-21.16.17-1.88.51-5.28-.73-6.62-1.51-.75-4.86,4.17-5.63,5.33-9,13.6-15.15,32.31-18.61,48.12-.1.47-.1,1.1-.05,1.75.03.34.46.61.69.35,9.54-10.47,18.01-27.78,18.01-27.78ZM271.81,54.76l-13.49.38-.78.39c-3.26,9.26-6.84,18.52-8.99,28.14-.79,3.53-4.16,15.17,2.69,12.07,3.26-1.47,11.29-9.77,12.83-12.96,1.51-3.12,2.51-10.57,3.55-14.43,1.24-4.58,2.78-9.07,4.19-13.59ZM126.43,80.94c.19.21,2.09-1.01,2.46-1.24,5.41-3.5,12.59-11.23,14.01-17.65,1.71-7.74-3.01-6.15-6.71-2.02-4.73,5.27-8.17,14.09-9.76,20.92ZM177.91,60.32c-9.56,1.78-19.64,25.98-16.6,34.39,1.53,4.22,4.92,1.67,6.92-.69,6.57-7.74,8.17-18.95,12.45-27.42.92-1.83,3.41-2.7,2.37-4.56s-3.17-2.1-5.14-1.73ZM48.25,87.59c-11.91,4.38-28.46,14.53-33.95,26.43-5.88,12.76,1.36,22.44,13.6,12.82,10.56-8.31,16.09-26.95,20.35-39.24ZM324.18,126.28c-8.72,1.86-17.78,3.8-25.93,7.48-3.49,1.58-8.67,4.32-11.2,7.17-4.94,5.56-3.86,11.94,4.16,12.66,14.64,1.32,28.17-14.99,32.98-27.31Z"/>
        <path class="cls-2" d="M443.2,104.79c-6.04,6.69-14.56,12.57-23.83,13.29-15.7,1.24-19.1-9.23-16.89-22.75,2.18-13.35,12.82-29.24,26.45-32.76,0,0,9.83-2.27,13.49,2.73,3.11,4.23,1.71,13.02-2.94,15.64-.23.13-.54.31-.78.39-1.92.61-4.78.14-5.07-2.19-.45-3.58,3.61-3.71,4.21-6.3,1.26-5.52-2.79-6.19-6.77-3.64-8.2,5.25-17.25,27.12-14.46,36.36,2.73,9.07,14.23,3.03,18.97-.98,1.78-1.5,7.04-6.69,7.72-8.69,8.23-24.35,24.71-30.2,24.71-30.2,7.44-2.94,19.5-2.28,20.68,6.87,1.74,13.48-19.96,21.07-30.37,22.53-3.48,17.35,9.38,21.33,22.56,12.98,3.17-2.01,7.12-5.51,9.8-8.18,1.68-1.66,6.02-9.04,9.18-9.14,6.32-.21.07,7.71-1.37,9.52-9.41,11.85-22.96,19.85-38.29,19.36-19.73-.63-17-14.84-17-14.84ZM459.81,89.93c6.27-.89,13.6-4.59,17.58-9.58,2.68-3.36,6.15-11.44-1.33-10.32-6.75,1.01-14.35,13.81-16.24,19.9Z"/>
        <path class="cls-2" d="M420.72,18.02c.26.02.53-.04.78,0,2.61.37,4.87,2.31,3.91,5.08-.33.25-.73.76-.78.78-.25.12-.54.28-.78.39-.78.34-1.83.36-2.74.78-8.95,4.17-10.69,14.13-13.18,22.98-3.89,13.86-6.66,28.05-10.95,41.81-3.74,11.99-9.13,28.07-21.4,33.71-2.91,1.34-11.2,3.39-12.53-.77-1.05-3.3,2.02-3.05,4.25-4.39,7.98-4.8,13.14-24.34,15.7-33.15,5.12-17.58,8.73-35.62,14.66-52.95.01-.85-7.03,1.14-7.64,1.35-4.26,1.43-10.32,4.78-11.82,9.29-1.04,3.15.64,4.97-2.69,7.08-3.59,2.28-8.21.92-8.36-3.66-.47-14.53,29.89-24.22,41.05-26.76,1.02-.23,2.27-.62,3.13-.78,2.73-.51,6.65-.98,9.38-.78Z"/>
      </g>
      <path class="cls-3" d="M442.22,128.64c.87-.08,13.14-2.7,19.14-.65,6,2.04,5.14,9.53-6.65,12.72-11.79,3.19-21.84,4.51-41.43,3.9-19.59-.62-44.42-2.73-62.85-7.91,0,0-4.74-1.21-2.88-4.45,0,0,1.08-1.97,7.24-1.35,6.15.62,35.57,1.78,52.18.81,16.61-.97,35.27-3.05,35.27-3.05Z"/>
      <g>
        <path class="cls-5" d="M126.93,158.49c1.5.33,2.72.86,3.68,1.59.95.73,1.62,1.63,2,2.69.38,1.06.42,2.25.14,3.57-.29,1.32-.82,2.38-1.61,3.19-.78.81-1.76,1.35-2.93,1.62-1.17.27-2.51.24-4-.08l-4.1-.89-1.5,6.91-4.08-.89,4.24-19.49,8.18,1.78ZM124.27,167.72c1.22.27,2.19.2,2.92-.19.72-.39,1.19-1.09,1.41-2.09.22-1.02.08-1.86-.41-2.5-.5-.64-1.36-1.1-2.58-1.37l-3.48-.76-1.34,6.14,3.48.76Z"/>
        <path class="cls-5" d="M145.41,162.12c2.22.4,3.87,1.26,4.94,2.56,1.07,1.3,1.45,2.85,1.12,4.66-.35,1.92-1.25,3.28-2.71,4.07-1.45.79-3.28.99-5.48.58l-.46.16-4.22-.77-1.37,7.52-4.04-.74,3.57-19.62,8.65,1.57ZM143.3,171.02c1.15.21,2.05.13,2.7-.23.65-.36,1.06-1.03,1.24-2,.18-.97.02-1.74-.46-2.31-.48-.57-1.3-.96-2.44-1.17l-4.13-.75-1.04,5.71,4.13.75ZM145.55,172.32l4.58,10.94-4.61-.84-3.7-9.55,3.72-.55Z"/>
        <path class="cls-5" d="M164.32,164.94c1.95.29,3.57.96,4.87,1.99,1.29,1.03,2.21,2.36,2.75,3.99.54,1.63.65,3.5.33,5.61-.32,2.11-.97,3.87-1.97,5.27-1,1.4-2.26,2.4-3.8,3-1.54.6-3.28.76-5.24.47-1.95-.29-3.58-.96-4.88-1.99-1.3-1.03-2.22-2.36-2.76-3.99-.54-1.63-.65-3.5-.33-5.61.32-2.11.97-3.87,1.97-5.27.99-1.4,2.27-2.4,3.81-3,1.55-.6,3.3-.76,5.25-.46ZM163.81,168.31c-1.12-.17-2.1-.05-2.96.35-.86.4-1.56,1.07-2.12,2.02-.56.94-.95,2.15-1.17,3.63-.22,1.45-.2,2.72.05,3.8.26,1.08.73,1.93,1.43,2.57.7.64,1.61,1.04,2.72,1.2,1.1.16,2.07.05,2.93-.35.86-.4,1.56-1.08,2.12-2.03.56-.95.95-2.16,1.17-3.61.22-1.47.2-2.75-.05-3.81-.26-1.07-.74-1.92-1.43-2.55-.7-.63-1.6-1.03-2.69-1.2Z"/>
        <path class="cls-5" d="M191.85,168.88l-.41,3.33-6.63-.81-2.02,16.47-4.14-.51,2.02-16.47-6.66-.82.41-3.33,17.43,2.14Z"/>
        <path class="cls-5" d="M192.4,188.98l1.92-19.85,14.89,1.44-.32,3.34-10.74-1.04-.48,4.93,8.45.82-.31,3.19-8.45-.82-.49,5.05,11.16,1.08-.32,3.34-15.31-1.48Z"/>
        <path class="cls-5" d="M216.74,171.12l-1.53,19.89-4.16-.32,1.53-19.89,4.16.32Z"/>
        <path class="cls-5" d="M238.18,172.41l-1.09,19.92-4.77-.26-6.33-12.09-1.54-3.35h-.03s-.07,3.45-.07,3.45l-.63,11.53-3.74-.2,1.09-19.92,4.74.26,6.33,12.06,1.54,3.38h.06s.07-3.44.07-3.44l.63-11.53,3.74.2Z"/>
        <path class="cls-5" d="M255.28,172.85l-.37,19.94-4.17-.08.37-19.94,4.17.08Z"/>
        <path class="cls-5" d="M276.91,187.36c-.38,1.29-.98,2.37-1.81,3.24-.83.87-1.8,1.51-2.93,1.94-1.13.43-2.37.64-3.72.64-1.97,0-3.68-.41-5.12-1.23-1.44-.82-2.55-2-3.33-3.53-.78-1.53-1.17-3.36-1.17-5.5,0-2.14.38-3.97,1.15-5.5.77-1.53,1.88-2.71,3.32-3.54,1.44-.83,3.13-1.24,5.06-1.25,1.37,0,2.61.18,3.72.55,1.11.37,2.05.94,2.83,1.7.78.76,1.35,1.73,1.71,2.9l-3.78,1.61c-.35-1.21-.87-2.07-1.58-2.58-.71-.51-1.61-.77-2.72-.77-1.09,0-2.04.27-2.85.79-.82.53-1.44,1.3-1.89,2.32-.44,1.02-.66,2.27-.66,3.76,0,1.47.21,2.72.63,3.75.41,1.03,1.03,1.8,1.83,2.32.81.52,1.79.78,2.96.78,1.09,0,2.03-.3,2.82-.88.79-.59,1.35-1.47,1.67-2.66l3.84,1.14Z"/>
        <path class="cls-5" d="M280.05,192.78l-.54-19.94,14.95-.4.09,3.35-10.79.29.13,4.95,8.49-.23.09,3.2-8.49.23.14,5.08,11.21-.3.09,3.35-15.38.41Z"/>
        <path class="cls-5" d="M324.32,185.24c-.3,1.31-.84,2.43-1.61,3.34-.77.92-1.7,1.62-2.8,2.12-1.1.49-2.32.78-3.67.87-1.97.12-3.7-.18-5.19-.91-1.49-.73-2.67-1.84-3.54-3.32-.87-1.48-1.37-3.28-1.51-5.42-.13-2.13.14-3.99.81-5.56.68-1.58,1.71-2.82,3.09-3.74,1.39-.92,3.04-1.43,4.97-1.56,1.37-.09,2.62.02,3.75.32,1.13.3,2.11.81,2.93,1.53.82.72,1.45,1.64,1.89,2.79l-3.67,1.84c-.42-1.18-1-2.01-1.73-2.48-.74-.47-1.66-.67-2.76-.6-1.09.07-2.02.39-2.8.96-.78.57-1.36,1.38-1.74,2.43-.38,1.04-.52,2.31-.43,3.8.09,1.47.38,2.7.85,3.7.48,1,1.13,1.74,1.97,2.21.84.47,1.84.67,3.01.6,1.09-.07,2.01-.42,2.76-1.05.76-.63,1.26-1.55,1.51-2.76l3.9.9Z"/>
        <path class="cls-5" d="M334.79,169.82c2.25-.2,4.06.19,5.44,1.15,1.38.97,2.15,2.37,2.31,4.19.17,1.95-.34,3.49-1.53,4.64-1.19,1.15-2.9,1.82-5.13,2.02l-.4.28-4.27.38.68,7.62-4.09.36-1.77-19.87,8.76-.78ZM335.12,178.96c1.16-.1,2.01-.42,2.54-.94.53-.52.75-1.28.66-2.26-.09-.98-.44-1.69-1.05-2.11-.61-.42-1.5-.58-2.67-.48l-4.18.37.51,5.78,4.18-.37ZM337.63,179.61l7.32,9.33-4.67.41-6.1-8.23,3.45-1.52Z"/>
        <path class="cls-5" d="M347.84,188.62l-2.26-19.82,14.86-1.7.38,3.33-10.72,1.22.56,4.92,8.44-.96.36,3.18-8.44.96.58,5.04,11.14-1.27.38,3.33-15.28,1.75Z"/>
        <path class="cls-5" d="M383.56,184.03l-4.28.6-2.32-4.59-7.57,1.07-.97,5.05-4.22.59,4.43-20.77,4.94-.7,10,18.74ZM369.88,177.93l5.72-.81-4.09-8.21-1.63,9.02Z"/>
        <path class="cls-5" d="M403.87,160.22l3.51,19.64-3.72.66-1.83-10.23-.82-5.78h-.06s-2.59,16.96-2.59,16.96l-3.36.6-8.27-15.01h-.06s1.23,5.72,1.23,5.72l1.83,10.23-3.72.66-3.51-19.64,5.95-1.06,5.45,10.08,2.04,4.21h.06s.49-4.64.49-4.64l1.59-11.37,5.77-1.03Z"/>
      </g>
    </g>
  </g>
</svg>