<?xml version="1.0" encoding="UTF-8"?>
<svg id="Layer_2" data-name="Layer 2" xmlns="http://www.w3.org/2000/svg" viewBox="0 0 385.33 129.6">
  <defs>
    <style>
      .cls-1 {
        fill: #fff;
      }

      .cls-2 {
        fill: #9fffff;
      }
    </style>
  </defs>
  <g id="Layer_1-2" data-name="Layer 1">
    <g>
      <g>
        <path class="cls-2" d="M83.44,129.35c-.05-.05-.08-.12-.08-.21v-12.88c0-.09.03-.16.08-.21s.12-.08.21-.08h1.27c.09,0,.16.02.21.08s.08.12.08.21v11.48c0,.06.03.1.1.1h6.52c.09,0,.16.02.21.08s.08.12.08.21v1.02c0,.09-.03.16-.08.21-.05.05-.12.08-.21.08h-8.17c-.09,0-.16-.02-.21-.08Z"/>
        <path class="cls-2" d="M94.4,129.35c-.05-.05-.08-.12-.08-.21v-12.88c0-.09.03-.16.08-.21s.12-.08.21-.08h1.27c.09,0,.16.02.21.08s.08.12.08.21v12.88c0,.09-.03.16-.08.21-.05.05-.12.08-.21.08h-1.27c-.09,0-.16-.02-.21-.08Z"/>
        <path class="cls-2" d="M99.42,129.35c-.05-.05-.08-.12-.08-.21v-12.88c0-.09.03-.16.08-.21s.12-.08.21-.08h1.29c.15,0,.27.06.34.19l3.23,5.15c.04.08.08.08.11,0l3.25-5.15c.08-.13.19-.19.35-.19h1.29c.09,0,.16.02.21.08s.08.12.08.21v12.88c0,.09-.03.16-.08.21-.05.05-.12.08-.21.08h-1.27c-.09,0-.16-.02-.21-.08-.05-.05-.08-.12-.08-.21v-9.77s-.01-.08-.04-.09-.05.01-.08.05l-2.61,4.27c-.08.13-.19.19-.34.19h-.62c-.15,0-.27-.06-.35-.19l-2.59-4.27s-.05-.05-.08-.05-.04.04-.04.09v9.77c0,.09-.03.16-.08.21-.05.05-.12.08-.21.08h-1.27c-.09,0-.16-.02-.21-.08Z"/>
        <path class="cls-2" d="M120.05,116.44c.6.32,1.06.79,1.38,1.37.33.59.49,1.27.49,2.04s-.17,1.44-.5,2.02-.8,1.02-1.41,1.34c-.61.32-1.31.48-2.1.48h-3.36c-.06,0-.1.03-.1.1v5.35c0,.09-.03.16-.08.21-.05.05-.12.08-.21.08h-1.27c-.09,0-.16-.02-.21-.08-.05-.05-.08-.12-.08-.21v-12.9c0-.09.03-.16.08-.21.05-.05.12-.08.21-.08h5.09c.78,0,1.47.16,2.07.49ZM119.44,121.56c.43-.42.65-.98.65-1.67s-.22-1.27-.65-1.7c-.43-.43-1-.65-1.7-.65h-3.19c-.06,0-.1.03-.1.1v4.46c0,.06.03.1.1.1h3.19c.7,0,1.27-.21,1.7-.63Z"/>
        <path class="cls-2" d="M124.19,129.35c-.05-.05-.08-.12-.08-.21v-12.88c0-.09.03-.16.08-.21s.12-.08.21-.08h1.27c.09,0,.16.02.21.08s.08.12.08.21v12.88c0,.09-.03.16-.08.21-.05.05-.12.08-.21.08h-1.27c-.09,0-.16-.02-.21-.08Z"/>
        <path class="cls-2" d="M137.98,117.49c-.05.05-.12.08-.21.08h-6.71c-.06,0-.1.03-.1.1v4.1c0,.06.03.1.1.1h4.58c.09,0,.16.03.21.08s.08.12.08.21v1.02c0,.09-.03.16-.08.21s-.12.08-.21.08h-4.58c-.06,0-.1.03-.1.1v4.19c0,.06.03.1.1.1h6.71c.09,0,.16.02.21.08s.08.12.08.21v1.02c0,.09-.03.16-.08.21-.05.05-.12.08-.21.08h-8.36c-.09,0-.16-.02-.21-.08-.05-.05-.08-.12-.08-.21v-12.88c0-.09.03-.16.08-.21s.12-.08.21-.08h8.36c.09,0,.16.02.21.08s.08.12.08.21v1.02c0,.09-.03.16-.08.21Z"/>
        <path class="cls-2" d="M139.9,129.35c-.05-.05-.08-.12-.08-.21v-1.19c0-.11.04-.23.11-.34l6.67-9.92s.03-.05.02-.08c-.01-.02-.04-.04-.08-.04h-6.44c-.09,0-.16-.02-.21-.08s-.08-.12-.08-.21v-1.02c0-.09.03-.16.08-.21s.12-.08.21-.08h8.34c.09,0,.16.02.21.08s.08.12.08.21v1.19c0,.12-.04.23-.11.35l-6.71,9.92s-.03.05-.02.08c.01.03.04.04.08.04h6.48c.09,0,.16.02.21.08s.08.12.08.21v1.02c0,.09-.03.16-.08.21-.05.05-.12.08-.21.08h-8.34c-.09,0-.16-.02-.21-.08Z"/>
        <path class="cls-2" d="M159.12,129.19l-.67-2.15c-.03-.05-.06-.08-.1-.08h-5.36s-.07.03-.1.08l-.67,2.15c-.05.15-.16.23-.33.23h-1.37c-.22,0-.29-.11-.23-.33l4.15-12.9c.05-.15.16-.23.33-.23h1.77c.17,0,.27.08.33.23l4.19,12.9s.02.06.02.12c0,.14-.08.21-.25.21h-1.38c-.17,0-.28-.08-.33-.23ZM153.47,125.5h4.4c.08,0,.1-.04.08-.12l-2.23-7.17c-.01-.05-.03-.08-.06-.08s-.05.03-.06.08l-2.21,7.17c-.01.08.01.12.08.12Z"/>
        <path class="cls-2" d="M176.02,117.49c-.05.05-.12.08-.21.08h-6.71c-.06,0-.1.03-.1.1v4.1c0,.06.03.1.1.1h4.58c.09,0,.16.03.21.08s.08.12.08.21v1.02c0,.09-.03.16-.08.21s-.12.08-.21.08h-4.58c-.06,0-.1.03-.1.1v4.19c0,.06.03.1.1.1h6.71c.09,0,.16.02.21.08s.08.12.08.21v1.02c0,.09-.03.16-.08.21-.05.05-.12.08-.21.08h-8.36c-.09,0-.16-.02-.21-.08-.05-.05-.08-.12-.08-.21v-12.88c0-.09.03-.16.08-.21s.12-.08.21-.08h8.36c.09,0,.16.02.21.08s.08.12.08.21v1.02c0,.09-.03.16-.08.21Z"/>
        <path class="cls-2" d="M180.29,129.12c-.72-.31-1.27-.74-1.66-1.31s-.59-1.23-.59-1.98v-.46c0-.09.03-.16.08-.21s.12-.08.21-.08h1.23c.09,0,.16.03.21.08s.08.12.08.21v.37c0,.65.28,1.19.85,1.61.56.42,1.31.63,2.25.63.88,0,1.55-.19,2-.56s.67-.86.67-1.46c0-.4-.11-.74-.35-1.02-.23-.28-.57-.54-1.01-.78-.44-.24-1.09-.52-1.93-.86-.94-.36-1.68-.69-2.22-.98-.54-.3-1-.68-1.36-1.16s-.54-1.09-.54-1.82c0-1.1.39-1.97,1.18-2.59s1.86-.94,3.2-.94c.95,0,1.78.16,2.5.48.72.32,1.27.77,1.66,1.35s.59,1.24.59,2v.29c0,.09-.03.16-.08.21s-.12.08-.21.08h-1.25c-.09,0-.16-.02-.21-.06-.05-.05-.08-.11-.08-.18v-.23c0-.67-.27-1.22-.8-1.66-.53-.44-1.26-.66-2.2-.66-.8,0-1.41.16-1.85.49-.44.32-.65.8-.65,1.41,0,.42.11.77.33,1.04.22.27.54.51.97.72.43.21,1.09.48,1.97.82.91.36,1.65.69,2.21.99.56.3,1.03.7,1.4,1.19.37.49.56,1.11.56,1.84s-.19,1.37-.56,1.93c-.37.55-.91.98-1.61,1.29s-1.53.46-2.48.46-1.8-.15-2.52-.46Z"/>
        <path class="cls-2" d="M197.29,116.44c.59.32,1.06.79,1.39,1.37.33.59.49,1.27.49,2.04s-.17,1.44-.51,2.02c-.33.58-.8,1.02-1.41,1.34-.61.32-1.31.48-2.1.48h-3.36c-.06,0-.1.03-.1.1v5.35c0,.09-.03.16-.08.21-.05.05-.12.08-.21.08h-1.27c-.09,0-.16-.02-.21-.08-.05-.05-.08-.12-.08-.21v-12.9c0-.09.03-.16.08-.21.05-.05.12-.08.21-.08h5.09c.78,0,1.47.16,2.07.49ZM196.68,121.56c.43-.42.64-.98.64-1.67s-.21-1.27-.64-1.7-1-.65-1.7-.65h-3.19c-.06,0-.1.03-.1.1v4.46c0,.06.03.1.1.1h3.19c.7,0,1.27-.21,1.7-.63Z"/>
        <path class="cls-2" d="M210.22,117.49c-.05.05-.12.08-.21.08h-6.71c-.06,0-.1.03-.1.1v4.1c0,.06.03.1.1.1h4.57c.09,0,.16.03.21.08s.08.12.08.21v1.02c0,.09-.03.16-.08.21s-.12.08-.21.08h-4.57c-.06,0-.1.03-.1.1v4.19c0,.06.03.1.1.1h6.71c.09,0,.16.02.21.08s.08.12.08.21v1.02c0,.09-.03.16-.08.21-.05.05-.12.08-.21.08h-8.36c-.09,0-.16-.02-.21-.08-.05-.05-.08-.12-.08-.21v-12.88c0-.09.02-.16.08-.21s.12-.08.21-.08h8.36c.09,0,.16.02.21.08s.08.12.08.21v1.02c0,.09-.03.16-.08.21Z"/>
        <path class="cls-2" d="M214.73,129.05c-.71-.37-1.26-.88-1.65-1.56-.39-.67-.59-1.44-.59-2.32v-4.98c0-.87.19-1.64.59-2.3.39-.66.94-1.17,1.65-1.54s1.53-.55,2.45-.55,1.74.17,2.44.53c.71.35,1.25.85,1.65,1.49.39.64.59,1.38.59,2.23,0,.13-.1.2-.29.23l-1.27.08h-.08c-.06,0-.12-.01-.15-.04-.04-.02-.06-.05-.06-.08v-.12c0-.82-.26-1.48-.77-1.98-.52-.5-1.2-.75-2.06-.75s-1.55.25-2.07.75c-.52.5-.78,1.16-.78,1.98v5.11c0,.82.26,1.48.78,1.98s1.2.75,2.07.75,1.54-.25,2.06-.75c.51-.5.77-1.16.77-1.98,0-.08.02-.14.08-.17s.12-.05.21-.04l1.27.08c.19.03.29.06.29.1v.1c0,.85-.2,1.59-.59,2.24-.39.65-.94,1.15-1.65,1.51-.7.36-1.52.54-2.44.54s-1.74-.18-2.45-.55Z"/>
        <path class="cls-2" d="M224.6,129.35c-.05-.05-.08-.12-.08-.21v-12.88c0-.09.02-.16.08-.21s.12-.08.21-.08h1.27c.09,0,.16.02.21.08s.08.12.08.21v12.88c0,.09-.02.16-.08.21-.05.05-.12.08-.21.08h-1.27c-.09,0-.16-.02-.21-.08Z"/>
        <path class="cls-2" d="M237.44,129.19l-.67-2.15c-.02-.05-.06-.08-.1-.08h-5.36s-.07.03-.1.08l-.67,2.15c-.05.15-.16.23-.32.23h-1.37c-.22,0-.3-.11-.23-.33l4.15-12.9c.05-.15.16-.23.32-.23h1.77c.16,0,.27.08.32.23l4.19,12.9s.02.06.02.12c0,.14-.09.21-.25.21h-1.38c-.17,0-.28-.08-.33-.23ZM231.79,125.5h4.4c.08,0,.1-.04.08-.12l-2.23-7.17c-.01-.05-.03-.08-.06-.08-.02,0-.04.03-.05.08l-2.21,7.17c-.01.08.01.12.08.12Z"/>
        <path class="cls-2" d="M241.71,129.35c-.05-.05-.08-.12-.08-.21v-12.88c0-.09.02-.16.08-.21s.12-.08.21-.08h1.27c.09,0,.16.02.21.08s.08.12.08.21v11.48c0,.06.03.1.1.1h6.52c.09,0,.16.02.21.08s.08.12.08.21v1.02c0,.09-.02.16-.08.21-.05.05-.12.08-.21.08h-8.17c-.09,0-.16-.02-.21-.08Z"/>
        <path class="cls-2" d="M252.67,129.35c-.05-.05-.08-.12-.08-.21v-12.88c0-.09.02-.16.08-.21s.12-.08.21-.08h1.27c.09,0,.16.02.21.08s.08.12.08.21v12.88c0,.09-.02.16-.08.21-.05.05-.12.08-.21.08h-1.27c-.09,0-.16-.02-.21-.08Z"/>
        <path class="cls-2" d="M256.87,129.35c-.05-.05-.08-.12-.08-.21v-1.19c0-.11.04-.23.12-.34l6.67-9.92s.03-.05.02-.08c-.01-.02-.04-.04-.08-.04h-6.44c-.09,0-.16-.02-.21-.08s-.08-.12-.08-.21v-1.02c0-.09.02-.16.08-.21s.12-.08.21-.08h8.35c.09,0,.16.02.21.08s.08.12.08.21v1.19c0,.12-.04.23-.12.35l-6.71,9.92s-.03.05-.02.08c.01.03.04.04.08.04h6.48c.09,0,.16.02.21.08s.08.12.08.21v1.02c0,.09-.02.16-.08.21-.05.05-.12.08-.21.08h-8.35c-.09,0-.16-.02-.21-.08Z"/>
        <path class="cls-2" d="M276.1,129.19l-.67-2.15c-.02-.05-.06-.08-.1-.08h-5.36s-.07.03-.1.08l-.67,2.15c-.05.15-.16.23-.32.23h-1.37c-.22,0-.3-.11-.23-.33l4.15-12.9c.05-.15.16-.23.32-.23h1.77c.16,0,.27.08.32.23l4.19,12.9s.02.06.02.12c0,.14-.09.21-.25.21h-1.38c-.17,0-.28-.08-.33-.23ZM270.45,125.5h4.4c.08,0,.1-.04.08-.12l-2.23-7.17c-.01-.05-.03-.08-.06-.08-.02,0-.04.03-.05.08l-2.21,7.17c-.01.08.01.12.08.12Z"/>
        <path class="cls-2" d="M280.37,129.35c-.05-.05-.08-.12-.08-.21v-12.88c0-.09.02-.16.08-.21s.12-.08.21-.08h4.56c1.33,0,2.4.35,3.19,1.05.8.7,1.19,1.63,1.19,2.8v5.77c0,1.16-.4,2.1-1.19,2.8s-1.86,1.05-3.19,1.05h-4.56c-.09,0-.16-.02-.21-.08ZM282.23,127.83h2.98c.74,0,1.33-.23,1.78-.68.44-.46.67-1.07.68-1.84v-5.23c0-.77-.22-1.38-.67-1.84-.44-.45-1.04-.68-1.8-.68h-2.98c-.06,0-.1.03-.1.1v10.07c0,.06.03.1.1.1Z"/>
        <path class="cls-2" d="M299.53,129.19l-.67-2.15c-.02-.05-.06-.08-.1-.08h-5.36s-.07.03-.1.08l-.67,2.15c-.05.15-.16.23-.32.23h-1.37c-.22,0-.3-.11-.23-.33l4.15-12.9c.05-.15.16-.23.32-.23h1.77c.16,0,.27.08.32.23l4.19,12.9s.02.06.02.12c0,.14-.09.21-.25.21h-1.38c-.17,0-.28-.08-.33-.23ZM293.88,125.5h4.4c.08,0,.1-.04.08-.12l-2.23-7.17c-.01-.05-.03-.08-.06-.08-.02,0-.04.03-.05.08l-2.21,7.17c-.01.08.01.12.08.12Z"/>
      </g>
      <path class="cls-2" d="M43.49,120.91h0c1.43,1.43,3.69,1.58,5.3.35l41.79-26.24c9.69-7.42,9.69-22.02,0-29.45L5.99.77C4.51-.37,2.41-.23,1.09,1.09h0c-1.45,1.45-1.45,3.81,0,5.27l60.42,60.42c7.25,7.25,7.25,19,0,26.24l-18.02,22.19c-1.57,1.57-1.57,4.12,0,5.69Z"/>
      <g>
        <g>
          <path class="cls-1" d="M167.49,56.37V5.83c0-1.37,1.11-2.48,2.48-2.48h2.67c1.36,0,2.47,1.11,2.47,2.47v16.12c0,.16.05.27.16.32s.19.03.24-.08c2.22-2.81,5.56-4.21,10.01-4.21s7.79,1.26,10.33,3.77c2.54,2.52,3.81,5.92,3.81,10.21v24.42c0,1.39-1.12,2.51-2.51,2.51h-2.6c-1.39,0-2.51-1.12-2.51-2.51v-22.91c0-2.65-.77-4.79-2.3-6.43-1.54-1.64-3.57-2.46-6.12-2.46-2.28,0-4.2.68-5.76,2.03-1.56,1.35-2.48,3.17-2.74,5.44v24.34c0,1.39-1.12,2.51-2.51,2.51h-2.6c-1.39,0-2.51-1.12-2.51-2.51Z"/>
          <path class="cls-1" d="M211.23,11.1c-.98-.93-1.47-2.13-1.47-3.62s.49-2.69,1.47-3.61c.98-.93,2.24-1.39,3.78-1.39s2.78.46,3.73,1.39c.95.93,1.43,2.13,1.43,3.61s-.48,2.69-1.43,3.62c-.95.93-2.2,1.39-3.73,1.39s-2.8-.46-3.78-1.39ZM218.82,20.82v35.56c0,1.39-1.12,2.51-2.51,2.51h-2.61c-1.39,0-2.51-1.12-2.51-2.51V20.82c0-1.34,1.09-2.43,2.43-2.43h2.76c1.34,0,2.43,1.09,2.43,2.43Z"/>
          <path class="cls-1" d="M240.74,5.83v12.29c0,.22.18.4.4.4h8.1c.37,0,.66.11.87.32s.32.5.32.87v3.89c0,.37-.11.66-.32.87-.21.21-.5.32-.87.32h-8.1c-.22,0-.4.18-.4.4v20.74c0,2.28.49,3.89,1.47,4.85.98.95,2.55,1.43,4.73,1.43h1.91c.37,0,.66.11.87.32.21.21.32.5.32.87v4.13c0,.74-.4,1.16-1.19,1.27l-3.26.08c-4.08,0-7.12-.71-9.14-2.15-2.01-1.43-3.02-4.1-3.02-8.02v-23.52c0-.26-.13-.4-.4-.4h-4.37c-.37,0-.66-.11-.87-.32-.21-.21-.32-.5-.32-.87v-3.89c0-.37.11-.66.32-.87s.5-.32.87-.32h4.37c.26,0,.4-.13.4-.4V5.83c0-1.37,1.11-2.49,2.49-2.49h2.34c1.37,0,2.49,1.11,2.49,2.49Z"/>
        </g>
        <path class="cls-1" d="M123.26,30.97l-10.24,23.6c-.51,1.18-1.2,2.11-2.07,2.79-.87.68-1.94,1.02-3.21,1.02-1.44,0-2.53-.34-3.28-1.02-.74-.68-1.34-1.61-1.81-2.79l-12.49-32.16c-.63-1.62.57-3.37,2.31-3.37h3.07c1.75,0,3.32,1.08,3.95,2.71l8.88,23.08,9.85-22.89c.59-1.27,1.26-2.25,2-2.93.74-.68,1.81-1.03,3.21-1.03s2.41.32,3.18.95c.76.64,1.42,1.64,1.97,3l9.35,22.89,15.82-38.82c.65-1.6,2.21-2.65,3.94-2.65h2.91c1.74,0,2.92,1.76,2.26,3.37l-19.53,47.86c-.47,1.08-1.13,1.99-2,2.72-.87.73-1.94,1.1-3.21,1.1s-2.28-.37-3.15-1.1c-.87-.73-1.54-1.64-2-2.72l-9.73-23.6Z"/>
        <path class="cls-1" d="M265.17,42.66v1.9c0,1.27.07,2.28.22,3.04s.41,1.36.79,1.78c.38.43.89.72,1.53.87.64.15,1.43.23,2.38.23h12.18c1.35,0,2.44,1.09,2.44,2.44v3.7c0,1.35-1.09,2.44-2.44,2.44h-12.18c-4.7,0-8.06-1.24-10.06-3.72-2.01-2.48-3.01-6.46-3.01-11.93v-9.5c0-2.99.21-5.51.63-7.56.42-2.05,1.15-3.7,2.19-4.94s2.42-2.14,4.13-2.7c1.71-.56,3.88-.84,6.51-.84h14.33c2.12,0,3.87.28,5.28.84,1.4.56,2.52,1.33,3.34,2.32.82.99,1.4,2.18,1.72,3.57.33,1.39.49,2.9.49,4.52v8.56c0,2.74-2.22,4.97-4.97,4.97h-25.5ZM267.81,35.36h17.16c1.39,0,2.52-1.13,2.52-2.52v-2.8c0-1.37-.25-2.28-.74-2.74-.49-.46-1.36-.68-2.6-.68h-13.57c-1.02,0-1.88.07-2.57.19s-1.25.42-1.67.87c-.42.46-.72,1.11-.9,1.98l-.15,3.06c-.07,1.44,1.08,2.64,2.51,2.64Z"/>
      </g>
      <g>
        <path class="cls-1" d="M118.27,104.48c-2.63-1.87-4.42-4.41-5.4-7.62-.73-2.23-1.09-5.18-1.09-8.82,0-3.36.36-6.29,1.09-8.82.97-3.11,2.78-5.59,5.43-7.43,2.65-1.85,5.79-2.77,9.44-2.77s6.83.92,9.55,2.77c2.72,1.85,4.49,4.18,5.32,7,.24.63.41,1.31.51,2.04v.15c0,.58-.32.92-.95,1.02l-4.74.66h-.22c-.54,0-.87-.27-1.02-.8l-.22-.95c-.39-1.65-1.34-3.04-2.84-4.16s-3.33-1.68-5.47-1.68-3.86.56-5.32,1.68-2.41,2.6-2.84,4.45c-.44,1.75-.66,4.05-.66,6.92s.22,5.1.66,6.85c.49,1.94,1.45,3.47,2.88,4.59,1.43,1.12,3.2,1.68,5.28,1.68s3.89-.55,5.4-1.64c1.5-1.1,2.48-2.49,2.92-4.19l.07-.29v-.07c.05-.24.19-.47.44-.69.24-.22.51-.3.8-.25l4.74.8c.68.14.99.53.95,1.16-.05.19-.17.66-.37,1.39-.83,2.96-2.6,5.35-5.32,7.14-2.72,1.8-5.91,2.7-9.55,2.7s-6.85-.94-9.48-2.81Z"/>
        <path class="cls-1" d="M151.29,103.94v-45.8c0-1.53,1.24-2.77,2.77-2.77h1.47c1.53,0,2.77,1.24,2.77,2.77v45.8c0,1.53-1.24,2.77-2.77,2.77h-1.47c-1.53,0-2.77-1.24-2.77-2.77Z"/>
        <path class="cls-1" d="M251.33,72.45v.28c0,.15.05.25.15.29.1.05.17.03.22-.07,2.04-2.57,5.1-3.86,9.18-3.86s7.14,1.16,9.48,3.46c2.33,2.31,3.5,5.43,3.5,9.37v22.03c0,1.52-1.23,2.75-2.75,2.75h-1.49c-1.52,0-2.75-1.23-2.75-2.75v-20.65c0-2.43-.7-4.4-2.11-5.9-1.41-1.51-3.28-2.26-5.61-2.26-2.09,0-3.85.62-5.28,1.86-1.43,1.24-2.27,2.9-2.52,4.99v21.96c0,1.52-1.23,2.75-2.75,2.75h-1.49c-1.52,0-2.75-1.23-2.75-2.75v-31.47c0-1.51,1.23-2.74,2.74-2.74h1.9s2.36,0,2.36,2.71Z"/>
        <path class="cls-1" d="M172.29,91.58v1.68c0,1.12.06,2.01.19,2.68s.36,1.19.7,1.57c.34.38.79.64,1.35.77.56.13,1.26.2,2.1.2h10.74c1.19,0,2.15.96,2.15,2.15v3.26c0,1.19-.96,2.15-2.15,2.15h-10.74c-4.15,0-7.11-1.09-8.87-3.28-1.77-2.19-2.65-5.7-2.65-10.52v-8.37c0-2.64.19-4.86.55-6.67.37-1.81,1.01-3.26,1.93-4.35.92-1.09,2.13-1.89,3.64-2.38,1.51-.49,3.42-.74,5.74-.74h12.63c1.86,0,3.42.25,4.65.74,1.24.49,2.22,1.17,2.94,2.04.72.87,1.23,1.92,1.52,3.15.29,1.23.43,2.56.43,3.99v7.54c0,2.42-1.96,4.38-4.38,4.38h-22.48ZM174.62,85.15h15.13c1.23,0,2.22-.99,2.22-2.22v-2.47c0-1.21-.22-2.01-.65-2.41-.43-.4-1.2-.6-2.29-.6h-11.96c-.9,0-1.66.06-2.27.17s-1.1.37-1.47.77c-.37.4-.63.98-.79,1.74l-.13,2.7c-.06,1.27.95,2.33,2.22,2.33Z"/>
        <path class="cls-1" d="M230.33,84.21v-1.68c0-1.12-.06-2.01-.19-2.68-.13-.67-.36-1.19-.7-1.57-.34-.38-.79-.64-1.35-.77-.56-.13-1.26-.2-2.1-.2h-10.74c-1.19,0-2.15-.96-2.15-2.15v-3.26c0-1.19.96-2.15,2.15-2.15h10.74c4.15,0,7.11,1.09,8.87,3.28,1.77,2.19,2.65,5.7,2.65,10.52v8.37c0,2.64-.19,4.86-.55,6.67-.37,1.81-1.01,3.26-1.93,4.35-.92,1.09-2.13,1.89-3.64,2.38-1.51.49-3.42.74-5.74.74h-12.63c-1.86,0-3.42-.25-4.65-.74-1.24-.49-2.22-1.17-2.94-2.04-.72-.87-1.23-1.92-1.52-3.15-.29-1.23-.43-2.56-.43-3.99v-7.54c0-2.42,1.96-4.38,4.38-4.38h22.48ZM228,90.64h-15.13c-1.23,0-2.22.99-2.22,2.22v2.47c0,1.21.22,2.01.65,2.41.43.4,1.2.6,2.29.6h11.96c.9,0,1.66-.06,2.27-.17s1.1-.37,1.47-.77c.37-.4.63-.98.79-1.74l.13-2.7c.06-1.27-.95-2.33-2.22-2.33Z"/>
      </g>
      <path class="cls-2" d="M341.84,120.91h0c-1.43,1.43-3.69,1.58-5.3.35l-41.79-26.24c-9.69-7.42-9.69-22.02,0-29.45L379.34.77c1.48-1.14,3.58-1,4.9.32h0c1.45,1.45,1.45,3.81,0,5.27l-60.42,60.42c-7.25,7.25-7.25,19,0,26.24l18.02,22.19c1.57,1.57,1.57,4.12,0,5.69Z"/>
    </g>
  </g>
</svg>