<?xml version="1.0" encoding="UTF-8"?>
<svg id="Layer_2" data-name="Layer 2" xmlns="http://www.w3.org/2000/svg" viewBox="0 0 275.55 180">
  <defs>
    <style>
      .cls-1 {
        fill: #fff;
      }

      .cls-2 {
        fill: #34374b;
      }

      .cls-3 {
        fill: #f6a707;
      }
    </style>
  </defs>
  <g id="Layer_1-2" data-name="Layer 1">
    <g>
      <g>
        <path class="cls-1" d="M28.45,139.96c-.29-.99-.69-1.87-1.2-2.64-.52-.77-1.15-1.42-1.89-1.96-.74-.54-1.59-.95-2.53-1.23-.95-.29-1.99-.43-3.13-.43-2.14,0-4.01.53-5.62,1.59-1.61,1.06-2.87,2.6-3.76,4.62-.9,2.02-1.35,4.49-1.35,7.4s.44,5.39,1.33,7.43c.88,2.04,2.14,3.6,3.76,4.66,1.62,1.07,3.53,1.6,5.73,1.6,2,0,3.71-.36,5.13-1.07s2.51-1.72,3.27-3.03c.76-1.31,1.13-2.85,1.13-4.63l1.8.27h-10.78v-6.65h17.49v5.27c0,3.67-.78,6.83-2.33,9.46s-3.69,4.66-6.41,6.08c-2.72,1.42-5.84,2.13-9.35,2.13-3.92,0-7.36-.87-10.33-2.6-2.97-1.73-5.28-4.2-6.93-7.41-1.65-3.2-2.48-7.01-2.48-11.42,0-3.39.49-6.41,1.48-9.07.99-2.66,2.37-4.91,4.15-6.77,1.78-1.85,3.86-3.26,6.22-4.22s4.93-1.45,7.69-1.45c2.37,0,4.57.34,6.61,1.03,2.04.69,3.85,1.66,5.44,2.91,1.58,1.25,2.88,2.74,3.89,4.46,1.01,1.72,1.65,3.62,1.94,5.68h-8.98Z"/>
        <path class="cls-1" d="M43.14,168.25v-31.35h8.43v5.47h.33c.57-1.95,1.53-3.42,2.88-4.42s2.9-1.5,4.65-1.5c.44,0,.9.03,1.41.08s.94.13,1.33.22v7.71c-.41-.12-.97-.23-1.69-.33s-1.38-.14-1.98-.14c-1.28,0-2.42.28-3.42.83-1,.55-1.79,1.32-2.37,2.3-.58.98-.87,2.11-.87,3.39v17.73h-8.69Z"/>
        <path class="cls-1" d="M85.58,154.9v-18h8.69v31.35h-8.35v-5.69h-.33c-.71,1.84-1.88,3.31-3.52,4.43-1.64,1.12-3.64,1.67-5.99,1.67-2.09,0-3.94-.48-5.53-1.43-1.59-.95-2.83-2.31-3.72-4.06-.89-1.76-1.34-3.86-1.36-6.31v-19.96h8.69v18.41c.01,1.85.51,3.31,1.49,4.39.98,1.07,2.29,1.61,3.94,1.61,1.05,0,2.03-.24,2.94-.72.91-.48,1.65-1.2,2.21-2.15s.84-2.13.83-3.53Z"/>
        <path class="cls-1" d="M100.06,180v-43.1h8.57v5.27h.39c.38-.84.94-1.7,1.66-2.58.73-.88,1.68-1.61,2.86-2.2,1.18-.59,2.64-.89,4.4-.89,2.29,0,4.39.6,6.33,1.79,1.93,1.19,3.48,2.98,4.63,5.37,1.16,2.39,1.73,5.38,1.73,8.97s-.56,6.45-1.68,8.85c-1.12,2.4-2.65,4.22-4.57,5.45-1.93,1.23-4.08,1.85-6.46,1.85-1.69,0-3.12-.28-4.3-.84-1.18-.56-2.14-1.26-2.89-2.11-.75-.85-1.32-1.71-1.71-2.58h-.26v16.77h-8.69ZM108.57,152.57c0,1.86.26,3.49.78,4.88.52,1.39,1.27,2.47,2.25,3.24.98.77,2.17,1.15,3.57,1.15s2.61-.39,3.59-1.17c.98-.78,1.73-1.87,2.23-3.27.51-1.39.77-3,.77-4.83s-.25-3.4-.75-4.78-1.24-2.45-2.22-3.22c-.98-.78-2.18-1.16-3.61-1.16s-2.61.37-3.58,1.12-1.72,1.81-2.23,3.18c-.52,1.37-.78,2.99-.78,4.86Z"/>
        <path class="cls-1" d="M149.42,168.86c-3.17,0-5.91-.68-8.21-2.03-2.31-1.35-4.09-3.24-5.34-5.67-1.25-2.43-1.88-5.25-1.88-8.46s.63-6.07,1.88-8.5c1.25-2.43,3.03-4.32,5.34-5.67,2.31-1.35,5.04-2.03,8.21-2.03s5.91.68,8.21,2.03c2.31,1.35,4.08,3.25,5.34,5.67,1.25,2.43,1.88,5.26,1.88,8.5s-.63,6.03-1.88,8.46c-1.25,2.43-3.03,4.32-5.34,5.67-2.31,1.35-5.04,2.03-8.21,2.03ZM149.46,162.12c1.44,0,2.65-.41,3.61-1.23.97-.82,1.7-1.95,2.19-3.38.5-1.43.75-3.05.75-4.88s-.25-3.45-.75-4.88c-.5-1.43-1.23-2.56-2.19-3.39-.97-.83-2.17-1.24-3.61-1.24s-2.68.41-3.66,1.24c-.99.83-1.73,1.96-2.22,3.39-.5,1.43-.75,3.05-.75,4.88s.25,3.45.75,4.88c.5,1.43,1.24,2.55,2.22,3.38.99.82,2.21,1.23,3.66,1.23Z"/>
        <path class="cls-3" d="M197.25,139.96c-.29-.99-.69-1.87-1.2-2.64-.52-.77-1.15-1.42-1.89-1.96-.74-.54-1.58-.95-2.53-1.23-.94-.29-1.99-.43-3.13-.43-2.14,0-4.01.53-5.62,1.59-1.61,1.06-2.87,2.6-3.76,4.62-.9,2.02-1.35,4.49-1.35,7.4s.44,5.39,1.33,7.43c.88,2.04,2.14,3.6,3.76,4.66,1.62,1.07,3.53,1.6,5.73,1.6,2,0,3.71-.36,5.13-1.07s2.51-1.72,3.27-3.03c.75-1.31,1.13-2.85,1.13-4.63l1.8.27h-10.77v-6.65h17.49v5.27c0,3.67-.78,6.83-2.33,9.46s-3.69,4.66-6.41,6.08c-2.72,1.42-5.84,2.13-9.35,2.13-3.92,0-7.36-.87-10.33-2.6-2.97-1.73-5.27-4.2-6.93-7.41-1.65-3.2-2.48-7.01-2.48-11.42,0-3.39.49-6.41,1.48-9.07.99-2.66,2.37-4.91,4.15-6.77,1.78-1.85,3.86-3.26,6.22-4.22,2.37-.97,4.93-1.45,7.69-1.45,2.37,0,4.57.34,6.61,1.03,2.04.69,3.85,1.66,5.44,2.91,1.58,1.25,2.88,2.74,3.89,4.46,1.01,1.72,1.65,3.62,1.94,5.68h-8.98Z"/>
        <path class="cls-3" d="M220.87,168.84c-2,0-3.78-.35-5.35-1.05-1.57-.7-2.8-1.74-3.7-3.12-.9-1.38-1.36-3.11-1.36-5.17,0-1.74.32-3.2.96-4.39.64-1.18,1.51-2.14,2.61-2.86,1.1-.72,2.36-1.26,3.77-1.63,1.41-.37,2.89-.63,4.44-.78,1.82-.19,3.29-.37,4.41-.54,1.12-.17,1.92-.42,2.43-.77.5-.34.75-.84.75-1.51v-.12c0-1.29-.4-2.29-1.21-3-.81-.71-1.96-1.06-3.44-1.06-1.56,0-2.81.34-3.73,1.03-.93.69-1.54,1.55-1.84,2.58l-8.04-.65c.41-1.9,1.21-3.55,2.41-4.95,1.2-1.39,2.75-2.47,4.64-3.22,1.9-.75,4.1-1.13,6.6-1.13,1.74,0,3.41.2,5.01.61,1.6.41,3.02,1.04,4.27,1.9,1.24.86,2.23,1.96,2.95,3.3s1.08,2.94,1.08,4.81v21.14h-8.24v-4.35h-.25c-.5.98-1.18,1.84-2.02,2.58s-1.86,1.32-3.04,1.73c-1.18.41-2.55.62-4.1.62ZM223.36,162.84c1.28,0,2.41-.26,3.39-.77.98-.51,1.75-1.2,2.31-2.07.56-.87.84-1.86.84-2.96v-3.33c-.27.18-.64.34-1.11.48s-1,.27-1.58.39c-.58.12-1.17.22-1.75.31-.59.09-1.12.17-1.59.23-1.02.15-1.91.39-2.67.71s-1.35.77-1.77,1.32c-.42.55-.63,1.23-.63,2.05,0,1.18.43,2.09,1.3,2.7s1.96.93,3.3.93Z"/>
        <path class="cls-3" d="M244.13,168.25v-31.35h8.43v5.47h.33c.57-1.95,1.53-3.42,2.88-4.42,1.35-1,2.9-1.5,4.65-1.5.44,0,.9.03,1.41.08s.95.13,1.33.22v7.71c-.41-.12-.97-.23-1.69-.33-.72-.09-1.38-.14-1.98-.14-1.28,0-2.42.28-3.42.83s-1.79,1.32-2.37,2.3c-.58.98-.87,2.11-.87,3.39v17.73h-8.69Z"/>
        <path class="cls-3" d="M270.86,132.86c-1.29,0-2.4-.43-3.33-1.29-.93-.86-1.39-1.89-1.39-3.1s.46-2.25,1.39-3.11c.92-.86,2.03-1.3,3.31-1.3s2.42.43,3.34,1.29,1.38,1.89,1.38,3.1-.46,2.25-1.38,3.11c-.92.86-2.02,1.3-3.32,1.3ZM266.47,168.25v-31.35h8.69v31.35h-8.69Z"/>
      </g>
      <g>
        <path class="cls-3" d="M122.26,118.61H56.6c-1.88,0-3.05-2.03-2.11-3.66l32.83-56.87L120.15,1.22c.94-1.62,3.28-1.62,4.22,0l32.83,56.87,32.83,56.87c.94,1.62-.23,3.66-2.11,3.66h-65.67Z"/>
        <path class="cls-2" d="M122.32,114.29h-57.9c-1.7,0-2.77-1.84-1.91-3.32l28.95-50.14,28.95-50.14c.85-1.47,2.98-1.47,3.83,0l28.95,50.14,28.95,50.14c.85,1.47-.21,3.32-1.91,3.32h-57.9Z"/>
        <path class="cls-1" d="M130.16,69.71c-.29-.99-.69-1.87-1.2-2.64-.52-.77-1.15-1.42-1.89-1.96-.74-.54-1.59-.95-2.53-1.23-.95-.29-1.99-.43-3.13-.43-2.14,0-4.01.53-5.62,1.59-1.61,1.06-2.87,2.6-3.76,4.62-.9,2.02-1.35,4.49-1.35,7.4s.44,5.39,1.33,7.43c.88,2.04,2.14,3.59,3.76,4.66,1.62,1.07,3.53,1.6,5.73,1.6,2,0,3.71-.36,5.13-1.07,1.42-.71,2.51-1.72,3.27-3.03.75-1.31,1.13-2.85,1.13-4.63l1.8.27h-10.77v-6.65h17.49v5.27c0,3.67-.78,6.83-2.33,9.46-1.55,2.63-3.69,4.66-6.41,6.08-2.72,1.42-5.84,2.13-9.35,2.13-3.92,0-7.36-.87-10.33-2.6-2.97-1.73-5.28-4.2-6.93-7.41-1.65-3.2-2.48-7.01-2.48-11.42,0-3.39.49-6.41,1.48-9.07.99-2.66,2.37-4.92,4.15-6.77,1.78-1.85,3.86-3.26,6.22-4.22,2.37-.97,4.93-1.45,7.69-1.45,2.37,0,4.57.34,6.61,1.03,2.04.69,3.85,1.66,5.44,2.91s2.88,2.74,3.89,4.46c1.01,1.72,1.65,3.62,1.94,5.68h-8.98Z"/>
        <path class="cls-3" d="M171.33,107.94h-47.76c-1.76,0-2.86-1.9-1.98-3.43l23.88-41.36,23.88-41.36c.88-1.52,3.08-1.52,3.96,0l23.88,41.36,23.88,41.36c.88,1.52-.22,3.43-1.98,3.43h-47.76Z"/>
        <path class="cls-2" d="M180.35,70.21c-.29-.99-.69-1.87-1.2-2.64-.52-.77-1.15-1.42-1.89-1.96-.74-.54-1.59-.95-2.53-1.23-.95-.29-1.99-.43-3.13-.43-2.14,0-4.01.53-5.62,1.59-1.61,1.06-2.87,2.6-3.76,4.62s-1.35,4.49-1.35,7.4.44,5.39,1.33,7.43c.88,2.04,2.14,3.59,3.76,4.66,1.62,1.07,3.53,1.6,5.73,1.6,2,0,3.71-.36,5.13-1.07,1.42-.71,2.51-1.72,3.27-3.03.75-1.31,1.13-2.85,1.13-4.63l1.8.27h-10.77v-6.65h17.49v5.27c0,3.67-.78,6.83-2.33,9.46-1.55,2.63-3.69,4.66-6.41,6.08-2.72,1.42-5.84,2.13-9.35,2.13-3.92,0-7.36-.87-10.33-2.6-2.97-1.73-5.28-4.2-6.93-7.41-1.65-3.2-2.48-7.01-2.48-11.42,0-3.39.49-6.41,1.48-9.07.99-2.66,2.37-4.92,4.15-6.77,1.78-1.85,3.86-3.26,6.22-4.22,2.37-.97,4.93-1.45,7.69-1.45,2.37,0,4.57.34,6.61,1.03s3.85,1.66,5.44,2.91,2.88,2.74,3.89,4.46c1.01,1.72,1.65,3.62,1.94,5.68h-8.98Z"/>
      </g>
    </g>
  </g>
</svg>