<?xml version="1.0" encoding="UTF-8"?>
<svg id="Layer_2" data-name="Layer 2" xmlns="http://www.w3.org/2000/svg" viewBox="0 0 396 105.65">
  <defs>
    <style>
      .cls-1 {
        fill: #00e200;
      }

      .cls-2 {
        fill: #74ff4a;
      }

      .cls-3 {
        fill: #fff;
      }

      .cls-4 {
        fill: #d8ff9e;
      }
    </style>
  </defs>
  <g id="Layer_1-2" data-name="Layer 1">
    <g>
      <g>
        <g>
          <path class="cls-3" d="M106.97,101.52v-12.08h2.51v4.75h4.92v-4.75h2.51v12.08h-2.51v-5.28h-4.92v5.28h-2.51Z"/>
          <path class="cls-3" d="M123,101.52v-12.08h9.23v2.04h-6.71v2.68h6.25v2.04h-6.25v3.29h6.95v2.04h-9.47Z"/>
          <path class="cls-3" d="M149.29,101.52h-2.73l-1.09-2.74h-4.97l-1.03,2.74h-2.67l4.85-12.08h2.66l4.98,12.08ZM144.67,96.74l-1.71-4.48-1.68,4.48h3.4Z"/>
          <path class="cls-3" d="M154.17,101.52v-11.98h2.51v9.95h6.25v2.04h-8.76Z"/>
          <path class="cls-3" d="M169.71,101.52v-10.04h-3.69v-2.04h9.89v2.04h-3.68v10.04h-2.51Z"/>
          <path class="cls-3" d="M181.01,101.52v-12.08h2.51v4.75h4.92v-4.75h2.51v12.08h-2.51v-5.28h-4.92v5.28h-2.51Z"/>
          <path class="cls-3" d="M216.36,100.04l-1.44,1.79c-.71-.33-1.39-.8-2.04-1.38-.5.44-1.04.76-1.6.97-.57.21-1.24.31-2.02.31-1.55,0-2.72-.42-3.5-1.27-.61-.65-.91-1.41-.91-2.26,0-.77.24-1.47.71-2.09s1.19-1.15,2.13-1.61c-.42-.49-.74-.95-.96-1.4-.21-.44-.32-.86-.32-1.26,0-.73.3-1.35.9-1.86.6-.51,1.46-.76,2.58-.76s1.92.27,2.52.8c.61.53.91,1.18.91,1.95,0,.49-.15.95-.45,1.39-.3.44-.91.94-1.82,1.49l1.73,2.22c.2-.35.38-.81.53-1.38l2.16.48c-.22.74-.4,1.28-.56,1.63-.16.34-.33.63-.51.86.27.24.61.51,1.03.8.42.29.73.48.93.57ZM208.93,95.99c-.55.27-.96.59-1.23.97s-.41.77-.41,1.16c0,.5.17.91.51,1.22.34.32.79.47,1.35.47.37,0,.73-.07,1.08-.21.35-.14.72-.38,1.13-.71l-2.43-2.91ZM209.86,93.47l.65-.48c.48-.36.71-.71.71-1.06,0-.3-.11-.55-.34-.76-.23-.21-.54-.31-.93-.31s-.68.09-.89.28c-.22.18-.32.4-.32.64,0,.29.18.63.54,1.04l.59.66Z"/>
          <path class="cls-3" d="M232.49,101.52v-10.04h-3.69v-2.04h9.89v2.04h-3.68v10.04h-2.51Z"/>
          <path class="cls-3" d="M243.79,101.52v-12.08h5.29c1.33,0,2.3.11,2.9.33.6.22,1.09.6,1.45,1.16.36.55.54,1.19.54,1.9,0,.91-.27,1.66-.82,2.25-.55.59-1.37.96-2.46,1.12.54.31.99.65,1.35,1.01.35.37.83,1.02,1.43,1.96l1.52,2.36h-3.01l-1.82-2.63c-.65-.94-1.09-1.53-1.32-1.78-.24-.24-.49-.41-.76-.5-.27-.09-.69-.14-1.27-.14h-.51v5.04h-2.51ZM246.3,94.55h1.86c1.21,0,1.96-.05,2.26-.15.3-.1.53-.27.7-.51s.25-.54.25-.91c0-.41-.11-.73-.34-.98s-.54-.41-.95-.47c-.2-.03-.81-.04-1.83-.04h-1.96v3.07Z"/>
          <path class="cls-3" d="M271.04,101.52h-2.73l-1.09-2.74h-4.97l-1.03,2.74h-2.67l4.85-12.08h2.66l4.98,12.08ZM266.41,96.74l-1.71-4.48-1.68,4.48h3.4Z"/>
          <path class="cls-3" d="M275.77,101.52v-12.08h2.51v12.08h-2.51Z"/>
          <path class="cls-3" d="M284.18,101.52v-12.08h2.44l5.09,8.07v-8.07h2.33v12.08h-2.52l-5.02-7.88v7.88h-2.33Z"/>
          <path class="cls-3" d="M316.46,97.08l2.44.75c-.37,1.32-.99,2.3-1.86,2.94-.87.64-1.97.96-3.31.96-1.65,0-3.01-.55-4.07-1.64s-1.6-2.59-1.6-4.49c0-2.01.53-3.57,1.6-4.68s2.48-1.67,4.22-1.67c1.52,0,2.76.44,3.71,1.31.57.52.99,1.26,1.27,2.22l-2.49.58c-.15-.63-.45-1.12-.92-1.48s-1.03-.54-1.7-.54c-.92,0-1.67.32-2.25.96-.57.64-.86,1.68-.86,3.12,0,1.53.28,2.61.85,3.26.57.65,1.3.97,2.21.97.67,0,1.24-.21,1.72-.62.48-.41.83-1.06,1.04-1.94Z"/>
          <path class="cls-3" d="M324.53,101.52v-12.08h9.23v2.04h-6.71v2.68h6.25v2.04h-6.25v3.29h6.95v2.04h-9.47Z"/>
          <path class="cls-3" d="M339.63,101.52v-12.08h2.44l5.09,8.07v-8.07h2.33v12.08h-2.52l-5.02-7.88v7.88h-2.33Z"/>
          <path class="cls-3" d="M358.43,101.52v-10.04h-3.69v-2.04h9.89v2.04h-3.68v10.04h-2.51Z"/>
          <path class="cls-3" d="M369.73,101.52v-12.08h9.23v2.04h-6.71v2.68h6.25v2.04h-6.25v3.29h6.95v2.04h-9.47Z"/>
          <path class="cls-3" d="M384.81,101.52v-12.08h5.29c1.33,0,2.3.11,2.9.33.6.22,1.09.6,1.45,1.16.36.55.54,1.19.54,1.9,0,.91-.27,1.66-.82,2.25-.55.59-1.37.96-2.46,1.12.54.31.99.65,1.35,1.01.35.37.83,1.02,1.43,1.96l1.52,2.36h-3.01l-1.82-2.63c-.65-.94-1.09-1.53-1.32-1.78-.24-.24-.49-.41-.76-.5-.27-.09-.69-.14-1.27-.14h-.51v5.04h-2.51ZM387.32,94.55h1.86c1.21,0,1.96-.05,2.26-.15.3-.1.53-.27.7-.51s.25-.54.25-.91c0-.41-.11-.73-.34-.98s-.54-.41-.95-.47c-.2-.03-.81-.04-1.83-.04h-1.96v3.07Z"/>
        </g>
        <g>
          <path class="cls-3" d="M182.4,78.37h-6.91l-10.1-16.47v16.91h-7.8v-29.12h8.24l13.31,21.48,13.34-21.48h8v29.12h-8.01v-16.91s-10.08,16.47-10.08,16.47Z"/>
          <g>
            <path class="cls-3" d="M296.53,67.1h13.86c3.74,0,7.06-2.39,8.26-5.93h0l-30.11-.02v.02h0v17.63s30.55,0,30.55,0l2.19-6.48h-24.74v-5.22Z"/>
            <path class="cls-3" d="M319.81,56.17l2.19-6.47h-33.46c0,3.58,2.9,6.47,6.47,6.47h24.81Z"/>
            <path class="cls-3" d="M143.61,78.81h7.96v-29.12h0c-4.39,0-7.96,3.56-7.96,7.96v21.16Z"/>
          </g>
          <path class="cls-3" d="M251.8,49.69h-28.85c-3.59,0-6.5,2.9-6.51,6.48h13.09v22.64s8.02,0,8.02,0v-22.64h7.74c3.58,0,6.5-2.9,6.51-6.48h0Z"/>
          <path class="cls-3" d="M351.01,61.53h-18.15c-1.32-.09-2.35-1.13-2.35-2.62,0-1.82,1.53-2.56,2.41-2.56h14.88c4.24,0,8.03-2.66,9.47-6.65h-25.96c-4.33,0-8.45,4.02-8.45,8.96,0,7.05,6.13,9.23,8.6,9.23h17.98c1.92,0,2.41,1.62,2.41,2.25,0,1.38-1.02,2.37-2.2,2.37h-24.23l-2.21,6.3h27.53c6.29,0,8.46-5.64,8.46-8.22,0-4.96-3.47-9.05-8.21-9.05Z"/>
          <path class="cls-3" d="M387.79,61.53h-18.15c-1.32-.09-2.35-1.13-2.35-2.62,0-1.82,1.53-2.56,2.41-2.56h14.88c4.24,0,8.03-2.66,9.47-6.65h-25.96c-4.33,0-8.45,4.02-8.45,8.96,0,7.05,6.13,9.23,8.6,9.23h17.98c1.92,0,2.41,1.62,2.41,2.25,0,1.38-1.02,2.37-2.2,2.37h-24.23l-2.21,6.3h27.53c6.29,0,8.46-5.64,8.46-8.22,0-4.96-3.47-9.05-8.21-9.05Z"/>
          <path class="cls-3" d="M115,72.23v-22.54h-8.03v22.54h0v.34h0c.17,3.47,3.05,6.24,6.57,6.24h23.05l2.26-6.58h-23.86Z"/>
          <path class="cls-3" d="M204.84,78.81h7.96v-29.12h0c-4.39,0-7.96,3.56-7.96,7.96v21.16Z"/>
          <path class="cls-3" d="M261.49,72.23v-22.54h-8.03v22.54h0v.34h0c.17,3.47,3.05,6.24,6.57,6.24h23.05l2.26-6.58h-23.86Z"/>
        </g>
      </g>
      <g>
        <g>
          <path class="cls-1" d="M63.36,83.36c5.87,6.99,11.74,13.97,17.61,20.96,2.52,3,7.49.48,7.49-3.1v-48.38c0-3.28-3.74-5.52-6.6-3.79-8.97,5.45-17.95,10.9-26.92,16.34-4.82,2.93-.42,10.52,4.43,7.58,8.97-5.45,17.95-10.9,26.92-16.34l-6.6-3.79v48.38l7.49-3.1c-5.87-6.99-11.74-13.97-17.61-20.96-3.64-4.33-9.82,1.91-6.2,6.2h0Z"/>
          <path class="cls-1" d="M47.9,51.38C36.12,36.79,24.33,22.2,12.55,7.61c-1.69-2.09-3.37-4.17-5.06-6.26C5.01-1.72,0,.92,0,4.45v96.76c0,3.28,3.74,5.52,6.6,3.79,15.41-9.35,30.81-18.71,46.22-28.06,2.18-1.32,4.36-2.65,6.54-3.97,4.82-2.93.42-10.52-4.43-7.58-15.41,9.35-30.81,18.71-46.22,28.06-2.18,1.32-4.36,2.65-6.54,3.97l6.6,3.79V4.45L1.28,7.56c11.78,14.59,23.57,29.18,35.35,43.76,1.69,2.09,3.37,4.17,5.06,6.26,1.5,1.86,4.64,1.53,6.2,0,1.84-1.8,1.48-4.37,0-6.2h0Z"/>
        </g>
        <g>
          <path class="cls-2" d="M64.14,82.58c5.87,6.99,11.74,13.97,17.61,20.96,1.89,2.25,5.62.36,5.62-2.33v-48.38c0-2.46-2.81-4.14-4.95-2.84-8.97,5.45-17.95,10.9-26.92,16.34-3.61,2.19-.31,7.89,3.32,5.68,8.97-5.45,17.95-10.9,26.92-16.34l-4.95-2.84v48.38l5.62-2.33c-5.87-6.99-11.74-13.97-17.61-20.96-2.73-3.25-7.36,1.43-4.65,4.65h0Z"/>
          <path class="cls-2" d="M47.13,52.15c-11.78-14.59-23.57-29.18-35.35-43.76-1.69-2.09-3.37-4.17-5.06-6.26C4.85-.17,1.1,1.81,1.1,4.45v96.76c0,2.46,2.81,4.14,4.95,2.84,15.41-9.35,30.81-18.71,46.22-28.06,2.18-1.32,4.36-2.65,6.54-3.97,3.61-2.19.31-7.89-3.32-5.68-15.41,9.35-30.81,18.71-46.22,28.06-2.18,1.32-4.36,2.65-6.54,3.97l4.95,2.84V4.45l-5.62,2.33c11.78,14.59,23.57,29.18,35.35,43.76,1.69,2.09,3.37,4.17,5.06,6.26,2.66,3.29,7.29-1.39,4.65-4.65h0Z"/>
        </g>
        <g>
          <path class="cls-4" d="M65.69,81.03c5.87,6.99,11.74,13.97,17.61,20.96.63.75,1.87.12,1.87-.78v-48.38c0-.82-.94-1.38-1.65-.95-8.97,5.45-17.95,10.9-26.92,16.34-1.2.73-.1,2.63,1.11,1.89,8.97-5.45,17.95-10.9,26.92-16.34l-1.65-.95v48.38l1.87-.78c-5.87-6.99-11.74-13.97-17.61-20.96-.91-1.08-2.45.48-1.55,1.55h0Z"/>
          <path class="cls-4" d="M45.57,53.7c-11.78-14.59-23.57-29.18-35.35-43.76L5.16,3.68c-.62-.77-1.87-.11-1.87.78v96.76c0,.82.94,1.38,1.65.95,15.41-9.35,30.81-18.71,46.22-28.06,2.18-1.32,4.36-2.65,6.54-3.97,1.2-.73.1-2.63-1.11-1.89-15.41,9.35-30.81,18.71-46.22,28.06-2.18,1.32-4.36,2.65-6.54,3.97l1.65.95V4.45l-1.87.78c11.78,14.59,23.57,29.18,35.35,43.76,1.69,2.09,3.37,4.17,5.06,6.26.89,1.1,2.43-.46,1.55-1.55h0Z"/>
        </g>
      </g>
    </g>
  </g>
</svg>