<?xml version="1.0" encoding="UTF-8"?>
<svg id="Layer_2" data-name="Layer 2" xmlns="http://www.w3.org/2000/svg" viewBox="0 0 367.2 135.62">
  <defs>
    <style>
      .cls-1 {
        fill: #fefdfd;
      }

      .cls-2 {
        fill: #fff;
      }

      .cls-3 {
        fill: #f70f10;
      }

      .cls-4 {
        fill: #ffbc00;
      }

      .cls-5 {
        fill: red;
      }
    </style>
  </defs>
  <g id="Layer_1-2" data-name="Layer 1">
    <g>
      <path class="cls-5" d="M59.02,86.62c-.99,2.6-2.91,4.95-4.47,7.23-1.86,2.72-3.8,5.4-5.79,8.03-3.41,4.49-6.98,8.91-11.12,12.76-4.12,3.83-8.86,7-14.01,9.29-5.16,2.28-11.64,4.12-17.33,3.49-1.95-.21-5.35-1.3-6.09-3.35-.8-2.22.91-5.78,1.7-7.84,1.58-4.13,4.36-10.95,9.19-11.9,2.48-.49,5.08-.2,7.59-.49,3.07-.35,6.19-1.33,9.02-2.54,1.33-.57,2.61-1.24,3.84-2,.62-.38,2.6-1.17,2.76-1.94.18-.87-.99-2.22-1.42-2.96-.91-1.57-1.8-3.16-2.67-4.75-6.11-11.14-11.46-22.77-15.03-34.99-3.42-11.73-6.05-24.49-5.69-36.78.08-2.69.35-5.66,1.74-8.03,1.27-2.17,3.48-3.45,5.64-4.59,2.5-1.32,5.23-2.35,7.86-3.37,2.73-1.07,6.19-2.35,9.16-1.72,2.09.44,2.96,1.96,3.36,3.94.68,3.37.5,6.93.91,10.35.73,6.2,1.38,12.36,1.96,18.58.17,1.79.37,3.57.6,5.35.18,1.41.73,2.96,0,4.24-1.42,2.51-3.21,4.81-4.58,7.39-2.97,5.61-4.74,11.91-4.03,18.26.6,5.42,3.27,10.11,7.9,13.06,5.83,3.71,12.25,4.69,18.99,5.29Z"/>
      <path class="cls-4" d="M59.02,86.62c-9.36-.84-20.99-2.91-25.36-12.49-4.53-9.92.06-20.58,5.28-29.07,4.74-7.72,13.64-14.14,22.33-17.09,4.77-1.62,9.98-2.35,15.01-1.64,1.77.25,4.76.35,4.16,2.82-.49,1.99-5.25,1.8-6.6,2.01,1.97,1.31,5.16.94,7.43,1.92,2.86,1.23,5.75,3.07,7.67,5.53,4.56,5.84,5.02,13.66,3.67,20.68-3.02,15.7-17.75,26.73-33.6,27.34ZM66.05,50.97c.93-1.28,1.18-2.78,1.37-4.3.3-.2.24-.52.23-.8-.07-2.37-.21-4.7-1.64-6.76-.61-.88-1.25-1.46-2.36-1.41-1.05.04-1.75.71-2.21,1.49-1.61,2.73-1.67,5.76-1.29,8.77.22,1.72.87,3.35,2.33,4.53.73.59,1.55.64,2.25.29.65-.33,1.45-.8,1.31-1.81ZM54.64,51.55c-.26,1.21-.57,2.32-.74,3.45-.65,4.43-1.41,8.82.47,13.22,1.52,3.56,3.44,6.57,7.48,7.51,1.77.41,3.51.36,5.25-.33,2.33-.92,3.84-2.79,5.52-4.46.53-.52.21-1.22-.51-1.32-2.98-.39-5.82-1.09-8.3-2.96-2.43-1.83-4.76-3.62-6.11-6.53-1.13-2.43-2.25-4.79-2.47-7.49-.03-.36-.19-.7-.58-1.09ZM85.14,44.46c.18-2.58-.22-5.04-1.68-7.28-1.39-2.12-3.87-2.13-5.24-.02-1.91,2.94-1.94,6.19-1.7,9.48.16,2.22.84,4.28,2.52,5.87.93.88,2.04,1.04,2.99.45,1.01-.63,1.75-1.52,2.2-2.62.77-1.88,1.09-3.84.9-5.89Z"/>
      <path class="cls-4" d="M345.17,57.1c-.18,5.71-1.43,11.32-1.52,17.05-.04,2.72.25,5.35.85,8.01.45,1.99,1.48,4.24-.08,5.98-3.1,3.44-8.44,1.99-11.28-.9-3.54-3.6-3.61-8.63-3.34-13.37.06-1.02,1-5.65-.41-5.64-.4,0-1.79,1.58-2.11,1.86-1.09.97-2.1,2.04-3.11,3.1-1.66,1.75-3.32,3.49-5,5.22s-3.59,3.87-5.96,4.48c-4.75,1.24-7.16-3.85-6.64-7.73.34-2.49,1.32-4.88,2.21-7.22.23-.59,1.38-2.55.19-2.7-.65-.08-1.84,1.84-2.22,2.27-3.46,3.85-14.85,22.09-20.43,12.4-2.37-4.12-.37-10.17,1.01-14.33,1.49-4.48,3.07-9.02,5.06-13.31,1.68-3.61,4.34-8.09,8.92-7.72,6.33.52,4.17,6.95,2.82,10.99-.42,1.24-.73,2.52-1.19,3.74-.19.52-1.15,1.89-.89,2.44.49,1.04,4.06-3.52,4.46-4.04,2.98-3.93,5.89-7.91,9.77-11.05,1.96-1.59,4.3-3.02,6.91-2.23,2.25.69,3.59,2.71,4.04,4.93.56,2.77-.66,5.4-1.47,7.99-.46,1.48-1.09,2.85-1.63,4.29-.24.63-.79,1.61.2,1.61.74,0,2.69-2.26,3.25-2.77,1.12-1.04,2.2-2.12,3.25-3.24,1.84-1.95,3.42-4.25,5.48-5.98s4.09-2.41,6.42-1c2.6,1.58,2.45,4.13,2.45,6.85Z"/>
      <path class="cls-4" d="M117.57,65.19c-3.93,2.39-6.67,7.17-9.6,10.6-2.45,2.87-6.45,8.27-10.85,6.43-4.75-1.99-3.61-8.45-2.65-12.35,1.26-5.1,3.2-10.35,5.33-15.15,1.51-3.39,3.89-9.4,8.08-10.04,2.08-.32,4.4-.03,5.61,1.91,1.32,2.12.31,4.77-.32,6.95-.35,1.22-.75,2.42-1.16,3.62-.32.93-1.18,2.49-1.2,3.48-.02.91-.06,1.21.85.5s1.48-2,2.18-2.88c2.85-3.54,5.78-7.52,9.3-10.42,3.29-2.7,8.14-5.32,11.16-.82,1.29,1.92,1.23,4.11.76,6.28-.52,2.4-1.08,4.92-1.94,7.22-.2.54-1.08,2.17.12,1.93.58-.12,1.35-1.33,1.79-1.78,1.87-1.89,3.96-3.55,5.85-5.42,2.65-2.61,7.3-8.2,11.12-3.85,2.9,3.31.84,9.8.4,13.62-.62,5.37-.98,10.88-.06,16.22.3,1.73,1.34,3.83.76,5.59-.54,1.65-2.47,2.54-4.04,2.89-4.38.97-8.61-2.97-9.99-6.84-1-2.8-.86-6.15-.74-9.07.06-1.49.22-2.97.36-4.46.08-.81.44-1.99-.75-1.73-.79.18-2.32,2.48-2.93,3.1-1.03,1.04-2.08,2.05-3.1,3.11-1.98,2.05-3.98,4.09-6.01,6.09-1.65,1.63-3.39,3.18-5.87,3.05-1.92-.11-3.59-1.23-4.51-2.9-1.32-2.41-.73-5.05-.03-7.55.38-1.37.84-2.69,1.35-4.01.38-1,1.17-2.21.74-3.29Z"/>
      <path class="cls-3" d="M196.64,97.18c-1.61.08-4.08-.29-4.58-2.12s.93-4.57,1.8-6.14c.8-1.45,1.88-3.63,3.51-4.25,1.87-.72,4.21-.21,6.18-.63s4.02-1.25,5.81-2.31c.8-.47,1.36-.7,1.24-1.64-.12-1.04-1.38-2.45-1.88-3.34-2.33-4.16-4.44-8.45-6.17-12.9-1.73-4.45-3-9.04-4-13.71s-2.15-10.24-1.31-15.1c.72-4.2,5.6-5.9,9.19-7.02,1.4-.43,3.53-1.12,4.92-.29,1.59.96,1.28,4,1.43,5.54.95,9.9,1.55,20.02,3.99,29.7.31,1.24.67,2.47,1.04,3.69.14.47.32,1.88.84,2.06,1.1.39,2.77-4.58,3.15-5.42,2.07-4.55,4.01-9.16,5.77-13.84,1.65-4.4,2.98-8.99,5.93-12.75,2.42-3.09,6.23-6.54,10.16-7.5,2.19-.53,2.82.97,2.18,2.77-.84,2.38-1.92,4.71-2.96,7.02-2.09,4.66-4.32,9.25-6.58,13.83-4.82,9.8-9.82,19.76-16.26,28.62-5.81,7.99-13,15.21-23.43,15.74Z"/>
      <path class="cls-4" d="M265.43,47.2c1.15.35,2.12.05,3.26-.09,1.37-.17,2.68-.03,4.01.31,2.05.52,3.99,1.32,5.5,2.85,2.87,2.89,4.12,7.85,3.69,11.82-.51,4.76-2.28,9.58-5.57,13.11s-7.89,5.72-12.28,7.29-10.38.72-14.61-1.07c-4.01-1.7-7.4-4.34-8.41-8.77-2.2-9.6,3.62-20.2,11.71-25.31,5.09-3.22,10.19-5.05,16.27-4.89,1.07.03,6.28.52,3.58,2.64-.83.65-2.59.42-3.6.62-1.34.26-2.38.82-3.56,1.49Z"/>
      <path class="cls-3" d="M70.06,26.18c1.06-.55,1.52-2.46,2.04-3.47,1.47-2.85,3.24-5.54,5.41-7.91,4.27-4.68,9.72-8.51,15.55-11.01,2.27-.97,5.78-1.05,5.56,2.14s-2.04,6.71-3.3,9.74c-2.81,6.77-5.81,13.57-9.18,20.08-.8.18-2.11-1.24-2.75-1.63-1.04-.63-1.78-.93-2.93-1.32-1.92-.66-4.16-.17-6.62-1.66,1.77-.27,5.08.03,6.24-1.54,1.37-1.85-.67-2.63-2.18-2.97-2.3-.51-4.98-.37-7.33-.46"/>
      <path class="cls-4" d="M157.35,71.45c-.18-6.41,2.4-13.21,4.77-19.06,1.45-3.59,6.03-11.45,10.26-5.83,1.84,2.45,1.67,6.05,1.47,8.94-.24,3.38-.9,6.74-1.64,10.04s-1.7,6.42-2.72,9.6c-.8,2.48-1.22,6.17-3.66,7.62-2.69,1.6-5.66-.43-7.06-2.79-1.52-2.57-1.41-5.64-1.41-8.52Z"/>
      <path class="cls-4" d="M365.55,53.02c.19,6.43-1.65,13-3.53,19.1-1.11,3.58-3.25,13.6-9.01,10.23-5.33-3.13-4.11-11.44-3.22-16.44,1.04-5.87,2.7-12.39,5.79-17.55,1.55-2.57,4.26-4.82,7.18-2.86,2.71,1.82,2.78,4.54,2.78,7.52Z"/>
      <path class="cls-4" d="M175.35,31.51c-.1,3.75-1.27,7.73-4.39,10.09-1.46,1.11-3.27,1.32-4.81.19s-1.77-3.1-1.59-4.92c.31-3.09,1.9-7.74,4.84-9.28,1.23-.64,3.14-.81,4.4-.13,1.54.83,1.56,2.54,1.56,4.05Z"/>
      <path class="cls-4" d="M367.14,30.94c-.08,3.69-1.04,8.06-4.2,10.39-3,2.21-6.39.7-6.73-2.91-.29-3.08,1.61-8.63,4.25-10.45,2.16-1.49,7.35-.58,6.68,2.96Z"/>
      <path class="cls-1" d="M54.64,51.55c.39.39.55.73.58,1.09.23,2.7,1.34,5.07,2.47,7.49,1.36,2.91,3.68,4.7,6.11,6.53,2.48,1.87,5.32,2.57,8.3,2.96.71.09,1.03.79.51,1.32-1.68,1.67-3.19,3.54-5.52,4.46-1.75.69-3.49.75-5.25.33-4.04-.95-5.96-3.95-7.48-7.51-1.88-4.4-1.11-8.79-.47-13.22.17-1.13.47-2.24.74-3.45Z"/>
      <path class="cls-1" d="M85.14,44.46c.18,2.05-.14,4.01-.9,5.89-.45,1.1-1.18,1.99-2.2,2.62-.95.59-2.06.43-2.99-.45-1.68-1.59-2.35-3.65-2.52-5.87-.24-3.29-.22-6.55,1.7-9.48,1.37-2.11,3.85-2.11,5.24.02,1.46,2.24,1.86,4.7,1.68,7.28ZM84.76,47.06c.11-1.02-.3-1.95-.5-2.9-.25-1.19-1.47-2.26-2.49-2.35-1.09-.1-2.01.64-2.63,1.94-1.13,2.35-.82,4.6.4,6.8.72,1.29,2.29,1.56,3.45.67,1.39-1.06,1.64-2.59,1.77-4.16Z"/>
      <path class="cls-1" d="M66.05,50.97c.13,1.01-.66,1.48-1.31,1.81-.7.35-1.52.3-2.25-.29-1.46-1.18-2.11-2.81-2.33-4.53-.38-3.01-.32-6.04,1.29-8.77.46-.78,1.16-1.44,2.21-1.49,1.11-.05,1.75.54,2.36,1.41,1.43,2.06,1.57,4.39,1.64,6.76,0,.28.07.6-.23.8-.2-.89-.54-1.73-.97-2.52-.74-1.35-2.58-1.48-3.57-.3-1.34,1.59-1.5,4.18-.4,6.26.85,1.61,2.12,1.91,3.56.86Z"/>
      <path d="M66.05,50.97c-1.44,1.05-2.71.75-3.56-.86-1.1-2.08-.94-4.67.4-6.26.99-1.18,2.83-1.05,3.57.3.43.79.76,1.63.97,2.52-.19,1.52-.44,3.02-1.37,4.3ZM64.94,45.82c.48-.1.75-.43.79-.9.04-.49-.23-.87-.72-.94-.49-.07-.71.28-.77.73-.08.55.17.91.7,1.11Z"/>
      <path d="M84.76,47.06c-.14,1.57-.38,3.09-1.77,4.16-1.16.88-2.73.62-3.45-.67-1.22-2.2-1.53-4.45-.4-6.8.62-1.3,1.55-2.03,2.63-1.94,1.02.09,2.24,1.16,2.49,2.35.2.95.6,1.88.5,2.9ZM81.11,43.91c.01.47.13.91.69.92.58.01.83-.37.84-.91,0-.49-.25-.93-.7-.94-.49-.01-.83.37-.83.93Z"/>
      <path class="cls-1" d="M64.94,45.82c-.53-.2-.78-.56-.7-1.11.06-.45.28-.8.77-.73.49.07.76.45.72.94-.04.46-.31.8-.79.9Z"/>
      <path class="cls-1" d="M81.11,43.91c0-.56.34-.94.83-.93.45.01.71.44.7.94-.01.54-.26.92-.84.91-.56-.01-.68-.44-.69-.92Z"/>
      <g>
        <path class="cls-2" d="M275.8,132.09c-.07.46-.09.92-.03,1.4-.06-.48-.04-.95.03-1.4Z"/>
        <path class="cls-2" d="M262.25,132.19c-.17-.3-.3-.62-.4-.94.1.33.23.64.4.94Z"/>
        <path class="cls-2" d="M277.49,134.23c-.09.09-.19.15-.31.2.11-.05.22-.11.31-.2Z"/>
        <path class="cls-2" d="M285.44,134.37c-.24,0-.42-.09-.56-.22.14.13.32.21.56.22Z"/>
        <path class="cls-2" d="M284.52,132.65c.17-1.03.35-2.05.51-3.08-.16,1.03-.33,2.05-.51,3.08Z"/>
        <path class="cls-2" d="M293.2,126.2c-.04-.06-.09-.12-.15-.17.06.05.11.11.15.17Z"/>
        <path class="cls-2" d="M278.09,132.77c-.04.2-.09.4-.14.59.06-.19.1-.39.14-.59Z"/>
        <path class="cls-2" d="M229.09,124.49c-.67.51-1.22,1.09-1.65,1.72.44-.63.98-1.21,1.65-1.72Z"/>
        <path class="cls-2" d="M255.4,134.65c-.11,0-.23-.04-.37-.1.14.07.26.1.37.1Z"/>
        <path class="cls-2" d="M255.02,134.55c-.14-.07-.24-.15-.31-.23.07.08.17.16.31.23Z"/>
        <path class="cls-2" d="M253.85,124.06c.18-.06.38-.09.57-.1-.19.01-.39.04-.57.1Z"/>
        <path class="cls-2" d="M311.94,125.94c-.36.04-.64.07-.88.12.24-.05.52-.09.88-.12Z"/>
        <path class="cls-2" d="M321.71,119.55c-.07.21-.19.39-.34.55.16-.15.27-.34.34-.55Z"/>
        <path class="cls-2" d="M311.44,121.02c-.04.18-.08.38-.14.6.06-.22.1-.42.14-.6Z"/>
        <path class="cls-2" d="M319.12,119.56c-.03-.12-.05-.25-.05-.39,0,.14.03.27.05.39Z"/>
        <path class="cls-2" d="M319.07,119.17c-.01-.22.02-.43.08-.62-.06.19-.09.4-.08.62Z"/>
        <path class="cls-2" d="M299.01,119.86c-.08-.2-.13-.44-.16-.69.04.25.08.48.16.69Z"/>
        <path class="cls-2" d="M299,126c0,.14-.04.28-.07.41.03-.13.06-.27.07-.41Z"/>
        <path class="cls-2" d="M328.36,129.87c.09.18.17.32.25.43-.08-.11-.17-.25-.25-.43Z"/>
        <path class="cls-2" d="M328.07,129.25c.1.24.2.45.29.63-.09-.18-.18-.38-.29-.63Z"/>
        <path class="cls-2" d="M57.77,115.25c-.67-.14-.98.33-1.22.87-.22.48-.23,1-.26,1.51-.1,1.39-.29,2.77-.7,4.11-.75,2.49-.88,2.57-3.46,2.12-2.41-.42-2.41-.48-1.91-2.92.31-1.5.43-3.04.6-4.57.07-.61-.05-1.22-.76-1.4-.69-.18-.94.42-1.25.86-.28.4-.32.88-.39,1.36-.3,1.84-.43,3.71-.87,5.53-.2.83-.54,1.31-1.47,1.25-.56-.04-1,.21-1.07.85-.07.6.39.8.8.87.75.12.87.53.74,1.16-.23,1.15-.48,2.29-.67,3.45-.22,1.41-.65,2.78-.68,4.22-.01.54.2.94.74,1.07.55.13.91-.13,1.09-.67.09-.28.19-.55.29-.83.82-2.28,1.26-4.66,1.92-6.98.16-.58.45-.89,1.08-.85.4.03.81,0,1.21,0h0c.15,0,.29-.01.44,0,2.29.02,2.36.16,1.78,2.4-.39,1.52-.67,3.07-.92,4.62-.08.47-.29,1.15.58,1.29.78.13,1.14-.25,1.33-.95,1.37-5,3.13-9.91,3.66-15.12.07-.65.28-1.3.31-1.95.03-.62-.27-1.17-.93-1.31Z"/>
        <path class="cls-2" d="M75.56,131.28c-1.07-2.45-1.69-5.06-2.5-7.6-.25-.78-.62-1.01-1.36-.71-.17.07-.35.14-.52.15-1.17.06-3.65,1.88-3.99,3.04-.61,2.03-1.09,4.08-.76,6.25.33,2.22,2.22,3.35,4.24,2.39.82-.39,1.45-.99,1.83-1.82.31-.69.59-1.4.96-2.28.63.94.84,1.84,1.24,2.65.22.44.38,1.24,1.12.83.59-.33.73-.96.36-1.63-.23-.41-.42-.85-.61-1.28ZM70.28,132.73c-.2.21-.4.43-.63.61-.66.5-1.18.38-1.37-.46-.15-.67-.18-1.37-.23-1.75.02-2.24.55-4,1.69-5.56.3-.41.65-.91,1.21-.84.63.08.48.76.57,1.17.55,2.44.59,4.81-1.24,6.82Z"/>
        <path class="cls-2" d="M99,129.51c.07.01.14.04.21.05,1.62.38,2.86-.32,3.91-1.44.94-1,.38-2.05-.03-3.07-.71-1.76-2.39-2.36-4.1-1.46-1.12.59-2.03,1.43-2.74,2.47-.28.42-.56.68-1.13.7-.74.02-1.06.76-.48,1.17.93.68.74,1.48.59,2.34-.45,2.72.95,4.33,3.76,4.31,1.12,0,3.01-.47,4.03-.97.31-.15.62-.33.55-.72-.08-.41-.31-.78-.79-.78-.4,0-.79.1-1.19.17-1.04.19-2.06.61-3.13.51-.67-.06-1.43-.11-1.62-1.01-.41-1.96.26-2.67,2.17-2.3ZM100.18,125.16c.39.07.78.22,1.12.42.74.45.7,1.2-.08,1.62-.55.3-1.16.43-1.85.49-.38-.26-1.25.28-1.32-.66-.06-.78,1.38-2.02,2.13-1.88Z"/>
        <path class="cls-2" d="M282.68,123.84c-.09-.03-.18-.05-.26-.07-.07-.02-.14-.03-.22-.04s-.15-.02-.22-.03c-.07,0-.15,0-.22,0-.07,0-.15,0-.22.01-.07,0-.13.01-.19.02-.06,0-.11,0-.17,0-.16,0-.28-.04-.38-.09-.1-.05-.17-.12-.22-.2-.03-.06-.06-.12-.07-.19-.02-.11-.02-.23,0-.36.01-.09.03-.18.05-.28.01-.05.03-.1.04-.15.03-.11.07-.21.1-.31s.07-.21.11-.31c.04-.11.07-.22.1-.33.09-.32.14-.59.16-.84.03-.41-.03-.74-.21-1.03-.11-.17-.26-.33-.45-.48-.06-.05-.13-.1-.21-.15-.15-.1-.32-.19-.51-.29-.1-.05-.2-.1-.31-.15-.06-.03-.11-.05-.17-.07-.11-.04-.21-.07-.31-.09-.05,0-.1-.01-.14-.02-.09,0-.18,0-.26.02-.04,0-.08.02-.12.03-.07.03-.14.07-.2.12-.12.1-.21.25-.26.44-.04.14-.06.31-.06.5,0,.53.03,1.06.07,1.59.04.53.09,1.06.13,1.59,0,.08.01.15.02.23.01.21.02.4,0,.55-.02.21-.07.37-.17.5-.12.16-.3.28-.58.37-.17.06-.37.1-.6.15-.17.03-.34.06-.51.09-.17.03-.34.05-.52.07-.35.04-.69.08-1.04.14-.05,0-.1.01-.15.02s-.1.02-.15.03c-.1.02-.2.04-.28.08-.17.08-.3.22-.33.48-.02.16.01.31.07.44.04.09.09.17.16.24.03.04.07.07.1.11.07.07.16.14.24.2.07.05.13.09.2.12.12.06.25.1.38.13.36.08.74.03,1.12.02,1.07-.07,1.46-.08,1.44.33,0,.03,0,.06,0,.09-.03.23-.15.57-.33,1.05-.16.44-.35.86-.53,1.3-.06.14-.11.29-.16.44-.15.44-.31.88-.43,1.33-.04.15-.08.3-.11.45-.03.15-.06.3-.09.45-.07.46-.09.92-.03,1.4.01.11.03.22.04.33s.05.21.09.3c.09.18.23.33.52.37.28.05.54.03.77-.07.11-.05.22-.11.31-.2.09-.09.17-.19.24-.32.09-.17.16-.36.22-.56.06-.19.1-.39.14-.59.13-.62.26-1.24.39-1.85.09-.41.18-.82.28-1.23.1-.41.21-.81.34-1.22.06-.2.13-.4.2-.6.49-1.37.42-1.94,1.53-1.99.09,0,.18,0,.28,0,.1,0,.21,0,.32.02.12,0,.24.02.38.03.09,0,.18,0,.27,0s.18-.03.26-.05c.17-.05.34-.14.49-.27.05-.04.09-.08.13-.12.16-.17.24-.36.27-.57.02-.16.02-.32-.01-.49-.06-.34-.28-.48-.53-.57Z"/>
        <path class="cls-2" d="M278.18,118.57c.06-.05.13-.09.2-.12-.07.03-.14.07-.2.12Z"/>
        <path class="cls-2" d="M280.81,123.64c.1.05.22.08.38.09-.16,0-.28-.04-.38-.09Z"/>
        <path class="cls-2" d="M276,131.19c.12-.45.28-.89.43-1.33-.15.44-.31.88-.43,1.33Z"/>
        <path class="cls-2" d="M276.02,126.66c-.38.01-.75.05-1.12-.02.36.08.74.03,1.12.02,1.07-.07,1.46-.09,1.44.33.01-.41-.38-.4-1.44-.33Z"/>
        <path class="cls-2" d="M274.9,126.64c-.13-.03-.25-.07-.38-.13.12.06.25.1.38.13Z"/>
        <path class="cls-2" d="M313.58,124.23c-.07-.13-.17-.23-.29-.3-.08-.05-.17-.08-.27-.11-.05-.01-.1-.03-.15-.04-.16-.03-.32-.05-.49-.06-.17,0-.33,0-.49,0-.06,0-.11,0-.16,0-.05,0-.1,0-.15,0-.05,0-.09,0-.13-.02-.08-.01-.15-.04-.21-.06-.06-.03-.11-.06-.15-.11-.06-.06-.1-.14-.12-.24s-.03-.2-.01-.32c.01-.12.04-.25.09-.4.1-.31.19-.63.27-.95.06-.22.1-.42.14-.6.04-.18.06-.34.07-.48.06-.65-.13-.99-.74-1.38-.1-.07-.21-.13-.34-.2-.12-.07-.26-.14-.41-.22-.07-.04-.14-.07-.21-.1-.13-.06-.26-.11-.38-.14-.06-.02-.11-.03-.17-.04-.05,0-.1-.01-.15-.01s-.09,0-.14,0c-.44.07-.65.5-.63,1.33,0,.26,0,.51.02.77.02.77.04,1.54.1,2.3.02.19,0,.36-.02.51s-.08.29-.16.4c-.15.24-.4.42-.77.57-.28.12-.56.18-.84.22-.12.02-.24.03-.35.04-.35.04-.71.07-1.05.16-.08.02-.16.03-.25.05-.23.03-.48.07-.63.22-.06.06-.1.13-.12.24-.02.07-.02.14-.02.24,0,.16.04.31.09.43.11.25.3.42.54.55.12.06.25.11.39.15.2.06.41.08.61.07.07,0,.14,0,.21,0s.14-.01.21-.02c.21-.02.41-.05.62-.06.13-.01.25-.02.36-.02.05,0,.1,0,.15,0,.05,0,.09,0,.13,0,.08,0,.14.02.2.05.27.11.24.4.05,1.03-.13.42-.31.82-.47,1.23-.53,1.29-1.09,2.56-1.14,3.6,0,.22,0,.41.01.59.01.18.03.34.06.49.01.07.03.14.05.21.06.19.13.35.22.47.06.08.13.14.2.19.11.07.24.1.38.1.14,0,.3-.04.47-.11.06-.03.12-.06.18-.09.11-.07.21-.14.29-.23.17-.17.28-.39.36-.65.02-.06.04-.13.05-.2.36-1.68.78-3.34,1.17-5.02.18-.78.3-1.28.5-1.61.13-.22.29-.36.53-.46.12-.05.25-.09.41-.12.24-.05.52-.09.88-.12.12-.01.24-.02.38-.04.13-.01.25-.03.38-.06.06-.01.12-.03.19-.05.06-.02.12-.04.18-.07.06-.03.12-.06.17-.09.31-.21.42-.53.43-.9,0-.06,0-.13,0-.19,0-.13-.04-.23-.08-.32Z"/>
        <path class="cls-2" d="M304.35,125.92c-.05-.12-.08-.27-.09-.43,0,.16.04.31.09.43Z"/>
        <path class="cls-2" d="M305.28,124.75c.35-.09.7-.12,1.05-.16-.35.04-.71.07-1.05.16Z"/>
        <path class="cls-2" d="M311.51,120.54c.06-.65-.13-.99-.74-1.38.6.39.8.73.74,1.38Z"/>
        <path class="cls-2" d="M310.03,118.73c.15.08.29.15.41.22-.12-.07-.26-.14-.41-.22Z"/>
        <path class="cls-2" d="M89.75,129.94c-1.01.59-1.94,1.31-2.96,1.87-1.4.77-2.96.17-3.22-1.28-.34-1.91-.16-3.79.9-5.5.58-.94,1.24-1.6,2.48-1.28.55.14,1.07-.08,1.16-.7.08-.57-.28-.93-.8-1.16-1.46-.64-2.67-.36-3.76,1.03-1.36,1.74-2.29,3.66-2.04,5.96-.03.58-.08,1.17-.08,1.75.02,2.87,2.71,4.66,5.36,3.56,1.47-.61,2.62-1.73,3.97-2.52.68-.4,1.11-.9.66-1.69-.5-.9-1.15-.35-1.68-.04Z"/>
        <path class="cls-2" d="M189.87,129.91c-1.1.65-2.14,1.41-3.28,1.99-1.33.68-2.61.04-2.98-1.4-.12-.46-.15-.94-.2-1.31.09-1.78.43-3.36,1.48-4.74.44-.57.88-.92,1.67-.65.64.22,1.33.06,1.54-.65.22-.73-.31-1.12-.96-1.36-1.51-.56-2.72-.07-3.85,1.45-1.57,2.09-1.77,4.49-1.78,6.98-.01,3.26,2.93,5.15,5.87,3.65,1.23-.63,2.32-1.52,3.5-2.24.72-.43,1.03-1,.61-1.72-.46-.79-1.09-.32-1.61-.02Z"/>
        <path class="cls-2" d="M335.41,125.58c-.69.21-1.36.5-1.96.95-.41.31-.78.65-1.14,1-.24.24-.47.48-.7.73-.34.37-.68.74-1.03,1.11-.2.21-.38.4-.54.56-.16.16-.3.29-.43.39-.13.1-.24.18-.34.22-.05.02-.1.04-.15.04s-.09,0-.14,0c-.13-.03-.25-.12-.37-.29-.08-.11-.17-.25-.25-.43-.09-.18-.18-.38-.29-.63-.05-.12-.11-.25-.17-.39-.05-.13-.1-.26-.15-.4-.09-.27-.17-.54-.25-.81-.08-.27-.15-.55-.24-.81-.13-.4-.29-.8-.52-1.16-.06-.1-.13-.21-.21-.32-.05-.07-.1-.14-.15-.21-.05-.07-.11-.13-.17-.19-.06-.06-.12-.11-.19-.15-.1-.07-.2-.11-.32-.14-.04,0-.08-.01-.12-.01-.04,0-.08,0-.12,0-.08,0-.17.03-.26.07-.09.04-.17.08-.22.13-.06.05-.09.11-.12.16-.04.09-.05.19-.04.29,0,.07.02.14.04.21.03.11.07.22.1.33.02.07.04.15.06.22s.03.14.03.21c0,.07.02.13.05.19.04.11.1.21.13.32.14.5.29,1,.43,1.5.43,1.5.84,3.01.96,4.59,0,.12.01.24.02.35,0,.08,0,.16.02.23.02.15.04.3.09.44.03.07.06.13.1.19.04.06.09.12.15.17.09.08.2.14.34.19.19.07.38.09.56.08.09,0,.17-.02.26-.04.17-.04.32-.11.47-.2.21-.14.4-.33.54-.55.1-.15.2-.29.31-.43.21-.28.43-.54.67-.79s.48-.48.73-.7c.25-.22.51-.43.78-.63.13-.1.27-.2.41-.29.27-.19.55-.37.84-.55s.58-.34.87-.51c.59-.33,1.19-.64,1.79-.95.18-.09.34-.2.47-.32.09-.08.17-.16.24-.25.25-.31.41-.66.54-1.02.07-.2.13-.41.18-.61-.01-.35-.12-.63-.29-.84-.28-.35-.75-.47-1.29-.31Z"/>
        <path class="cls-2" d="M327.9,134.55c-.18,0-.36-.02-.56-.08.19.07.38.09.56.08Z"/>
        <path class="cls-2" d="M329.27,130.55c.1-.04.22-.12.34-.22-.13.1-.24.18-.34.22Z"/>
        <path class="cls-2" d="M325.71,124.67c.11.02.22.07.32.14-.1-.07-.2-.11-.32-.14Z"/>
        <path class="cls-2" d="M325.11,126.49c-.02-.06-.04-.13-.05-.19,0,.07.02.13.05.19Z"/>
        <path class="cls-2" d="M257.18,125.08c-.4-.37-.88-.68-1.39-.88-.26-.1-.52-.17-.78-.21-.07,0-.13-.02-.2-.02-.07,0-.13,0-.2,0-.07,0-.13,0-.19,0-.19.01-.38.04-.57.1-.44.13-.73.23-.96.25-.04,0-.09,0-.12,0-.19,0-.32-.1-.43-.29-.11-.19-.22-.49-.36-.92-.02-.05-.04-.09-.06-.14-.13-.26-.33-.42-.61-.47-.05,0-.09-.01-.15-.01-.09,0-.17.02-.22.05-.03.02-.06.03-.08.06-.05.04-.08.1-.11.16-.04.1-.07.21-.1.32-.66,2.61-.89,5.34-2.02,7.83-.03.06-.05.12-.07.18-.04.12-.06.25-.07.38,0,.06-.01.13-.01.19,0,.12-.02.24-.02.36,0,.12,0,.24.01.35.02.11.06.22.12.31.03.05.08.09.13.13.05.04.11.07.18.1.08.03.15.05.22.06.03,0,.07,0,.1,0,.06,0,.13,0,.18-.03.17-.05.32-.17.44-.31.04-.05.08-.1.12-.15.06-.08.12-.16.17-.23.07-.09.14-.19.2-.29.12-.2.22-.41.3-.63.04-.11.07-.23.1-.35.14-.58.3-1.15.53-1.69.15-.36.32-.71.52-1.04.3-.5.68-.96,1.14-1.36.18-.15.36-.32.56-.48.1-.08.2-.15.3-.22.2-.14.41-.26.63-.33.16-.05.33-.08.5-.08.11,0,.23.02.35.06.06.02.12.04.18.07.16.08.29.18.39.3.1.12.17.26.23.4.04.1.06.2.09.31.03.16.05.33.06.51s0,.35,0,.52c0,.12,0,.23,0,.34,0,.13,0,.26-.01.38s-.03.26-.05.38c-.13.69-.33,1.35-.56,2.01-.12.33-.24.65-.36.98-.06.16-.12.32-.19.49-.06.16-.12.33-.18.49-.07.2-.17.41-.23.62-.03.1-.04.21-.04.3,0,.07.01.13.04.19s.06.12.1.18c.07.08.17.16.31.23.14.07.26.1.37.1.04,0,.07,0,.11,0,.07,0,.13-.03.19-.06.09-.04.17-.11.24-.18.05-.05.1-.11.14-.16.11-.15.21-.31.3-.46.23-.36.43-.74.6-1.12.11-.25.22-.51.31-.77.14-.39.25-.79.35-1.2.06-.27.12-.54.17-.82.05-.28.09-.55.13-.83.04-.28.07-.56.1-.84.03-.28.06-.57.09-.85.13-.66-.16-1.37-.68-1.97-.09-.1-.18-.2-.28-.29Z"/>
        <path class="cls-2" d="M254.61,134.14c-.02-.06-.03-.13-.04-.19,0,.07.01.13.04.19Z"/>
        <path class="cls-2" d="M252.77,124.31c-.19,0-.32-.1-.43-.29.11.19.24.28.43.29Z"/>
        <path class="cls-2" d="M255.82,126.21c-.1-.12-.23-.22-.39-.3.16.08.29.18.39.3Z"/>
        <path class="cls-2" d="M249.12,132.96c-.07,0-.14-.03-.22-.06.08.03.15.05.22.06Z"/>
        <path class="cls-2" d="M250.94,122.53c.06-.03.13-.05.22-.05-.09,0-.17.02-.22.05Z"/>
        <path class="cls-2" d="M273.4,132.36c-.23-.2-.6-.23-.96-.22-.11,0-.22.02-.32.04-.11.02-.21.05-.32.09-.08.03-.17.05-.25.07-.16.04-.33.07-.48.07-.16,0-.31-.01-.46-.06-.06-.02-.11-.04-.16-.06-.16-.08-.32-.19-.46-.35-.2-.23-.31-.46-.36-.7-.05-.24-.04-.49.01-.74.03-.17.08-.34.14-.51.06-.17.12-.34.18-.52.12-.35.23-.69.32-1.05.05-.18.09-.35.12-.53.01-.07.02-.14.02-.22,0-.21-.03-.41-.12-.58-.06-.11-.15-.21-.26-.28-.11-.08-.25-.13-.42-.16-.09-.01-.16-.02-.23-.01-.13.01-.23.06-.3.13-.07.07-.12.17-.16.28-.04.11-.06.23-.09.35-.01.06-.02.12-.04.17-.08.33-.18.65-.3.97-.17.47-.38.93-.61,1.38-.16.3-.32.59-.5.88-.09.14-.18.29-.27.43-.08.12-.16.22-.25.31s-.18.17-.28.23c-.19.13-.4.21-.62.27-.11.03-.22.04-.34.05-.11.01-.23.01-.35.01-.12,0-.24,0-.36-.02-.12,0-.24-.02-.36-.03-.18-.02-.32-.06-.44-.13-.08-.04-.15-.09-.22-.15s-.12-.12-.17-.19c-.05-.07-.09-.14-.13-.22-.05-.12-.1-.24-.14-.38-.04-.13-.07-.27-.11-.4-.01-.04-.02-.09-.04-.13-.19-.67-.39-1.33-.59-1.99-.1-.33-.2-.66-.31-.99-.11-.33-.21-.66-.32-.99-.03-.08-.06-.15-.09-.22-.07-.14-.16-.25-.26-.34-.1-.09-.22-.16-.35-.2-.2-.06-.42-.05-.67.03-.79.26-.4.88-.22,1.27.38.83.69,1.68.93,2.56.15.55.25,1.11.42,1.66.1.33.23.64.4.94.12.2.26.39.42.56.16.17.33.31.52.44.19.12.39.23.61.31.21.08.44.15.67.19.93.16,1.97-.02,2.93-.58.1-.06.2-.13.3-.2.05-.04.1-.07.16-.1.08-.05.16-.09.24-.12.05-.02.11-.03.16-.03.14,0,.27.04.41.17.16.15.33.28.51.38.23.13.48.22.72.28.12.03.25.05.38.07.25.04.51.06.78.07.2.01.39.02.59.04.15,0,.29,0,.44,0,.15,0,.29,0,.44,0,.06,0,.13,0,.2,0,.07,0,.13,0,.2,0,.06,0,.13-.01.19-.02.24-.04.45-.15.51-.43.02-.07.03-.15.02-.24,0-.09-.01-.18-.03-.25-.04-.15-.11-.26-.2-.34Z"/>
        <path class="cls-2" d="M269.98,131.93c.15.16.3.28.46.35-.16-.08-.32-.19-.46-.35Z"/>
        <path class="cls-2" d="M271.07,132.41c.16,0,.32-.03.48-.07-.16.04-.33.07-.48.07Z"/>
        <path class="cls-2" d="M221.53,117.86c0-.08-.02-.16-.03-.23-.04-.23-.12-.43-.24-.59-.17-.21-.42-.34-.79-.31-.59.04-.56.46-.55.85,0,.09,0,.18,0,.26-.04.46-.08.93-.12,1.39-.07.93-.13,1.86-.19,2.79-.09,1.4-.19,2.79-.34,4.18-.1.93-.22,1.85-.38,2.78-.03.16-.05.33-.07.49-.04.33-.07.66-.09.98-.02.33-.02.66-.02.99,0,.49.04.99.09,1.48.01.14.04.27.09.39.07.17.17.31.32.41.1.06.22.1.37.11.07,0,.15,0,.23,0,.22-.02.4-.07.55-.16.05-.03.09-.06.13-.1.08-.08.14-.17.19-.29.05-.12.08-.25.09-.41.25-2.48.26-4.97.35-7.46.04-1.11.09-2.21.18-3.31.07-.83.16-1.65.28-2.48,0-.15,0-.29,0-.44,0-.29.01-.59,0-.88,0-.15-.01-.29-.02-.44Z"/>
        <path class="cls-2" d="M219.55,133.83c-.14-.01-.27-.05-.37-.11.1.06.22.1.37.11Z"/>
        <path class="cls-2" d="M218.87,133.31c-.04-.12-.07-.25-.09-.39.01.14.04.27.09.39Z"/>
        <path class="cls-2" d="M143.82,124.99c-1.37,1.32-1.45,3-.26,4.39.66.77,1.28,1.59,1.91,2.39.15.19.35.44.08.67-.21.18-.42,0-.6-.11-.28-.17-.54-.37-.8-.57-.83-.63-1.69-1.17-2.77-1.16-.43,0-1.04-.23-1.21.42-.16.61.23,1.06.73,1.35.63.37,1.3.66,1.94,1.02.96.53,1.89,1.14,2.91,1.07,1.36.02,1.93-.52,1.89-1.71-.03-1.16-.62-2.08-1.32-2.94-.51-.62-1.07-1.2-1.54-1.85-.32-.44-.33-1.01.01-1.45.33-.41.82-.61,1.38-.41.31.11.64.17.93.31.41.19.83.48,1.13-.08.24-.43.06-.85-.29-1.18-1.15-1.07-3.08-1.14-4.1-.16Z"/>
        <path class="cls-2" d="M168.57,125.65c-1.58-1.06-3.13-.57-4.68.07-.52.21-.96.58-1.61.18-.44-.27-.84.06-.92.6-.28,1.99-.47,3.98-.91,5.85.04.47.03.84.11,1.2.11.53.37,1,1,.96.61-.05.53-.58.59-1.01.11-.83.21-1.67.34-2.5.53-3.2,2.26-4.41,5.49-3.85.42.07.92.28,1.17-.24.29-.59-.14-.96-.59-1.25Z"/>
        <path class="cls-2" d="M293.05,126.04c-.07-.06-.14-.12-.21-.17-.07-.06-.14-.11-.22-.17-.15-.11-.3-.21-.46-.29-.28-.14-.56-.23-.84-.29-.18-.04-.37-.06-.55-.07-.09,0-.18,0-.27,0-.09,0-.18,0-.27.01-.09,0-.18.02-.27.03-.18.03-.36.06-.54.1-.53.13-1.06.33-1.59.55-.03.01-.06.03-.09.04-.09.04-.18.08-.26.13-.06.03-.12.05-.17.08-.09.03-.17.06-.26.08-.06.01-.12.02-.18.01-.16,0-.33-.06-.52-.18-.11-.07-.22-.1-.32-.1-.16,0-.31.07-.42.18-.04.04-.07.08-.1.13-.06.1-.1.22-.11.35-.02.26-.05.52-.07.78-.08.78-.19,1.55-.3,2.32-.16,1.03-.33,2.05-.51,3.08,0,.09,0,.18,0,.27,0,.09,0,.18,0,.27,0,.15.03.3.07.43.04.14.09.26.16.37.04.05.08.1.12.15.14.13.32.21.56.22.11,0,.21-.01.28-.05.08-.04.14-.09.2-.15.07-.09.12-.19.16-.31.04-.12.06-.24.09-.36.01-.06.02-.12.03-.18.05-.32.09-.65.13-.98.03-.33.07-.66.11-.98.03-.2.06-.38.09-.57.07-.36.16-.7.26-1.01.05-.16.11-.3.17-.45.25-.57.57-1.03.96-1.39.2-.18.41-.33.65-.46.35-.19.75-.33,1.19-.4s.93-.1,1.46-.06c.1,0,.2.02.3.04.2.04.39.09.59.13.1.02.2.04.3.06.05,0,.09.01.13.01.09,0,.17,0,.24-.03.11-.03.21-.1.29-.19.06-.06.1-.13.15-.21.12-.23.11-.44-.01-.62-.04-.06-.09-.12-.15-.17Z"/>
        <path class="cls-2" d="M284.75,134c-.07-.11-.13-.23-.16-.37.04.14.09.26.16.37Z"/>
        <path class="cls-2" d="M285.6,125.98c.11-.12.26-.18.42-.18-.16,0-.31.07-.42.18Z"/>
        <path class="cls-2" d="M285.92,134.17c-.05.06-.12.12-.2.15.08-.04.14-.09.2-.15Z"/>
        <path class="cls-2" d="M292.17,125.41c.16.08.31.18.46.29-.15-.11-.3-.21-.46-.29Z"/>
        <path class="cls-2" d="M286.43,131.36c-.04.33-.08.65-.11.98.03-.33.07-.66.11-.98Z"/>
        <path class="cls-2" d="M298.64,125.49c-.06-.01-.11-.03-.17-.04s-.11-.02-.17-.03-.11-.01-.17-.02-.11,0-.17,0c-.11,0-.22.03-.33.08-.11.05-.21.12-.31.23-.13.14-.24.28-.32.44-.14.26-.21.54-.24.84-.07.71-.25,1.4-.45,2.08-.1.34-.21.68-.32,1.02-.05.17-.11.34-.16.51-.05.17-.1.34-.15.51-.05.18-.1.37-.15.55-.05.18-.1.35-.15.52-.05.17-.09.33-.13.47-.04.15-.08.28-.11.4-.02.4.02.71.13.94.11.23.29.37.55.45.55.16.88-.22,1.13-.65.07-.12.11-.25.15-.38.01-.04.03-.09.04-.13.09-.28.18-.56.27-.85s.17-.57.25-.85c.16-.57.32-1.14.46-1.71.15-.57.29-1.15.42-1.72.14-.57.27-1.15.4-1.73.03-.13.06-.27.07-.41,0-.09,0-.18-.03-.26-.05-.12-.14-.21-.33-.25Z"/>
        <path class="cls-2" d="M174.31,125.39c-.59-.18-1.09.02-1.4.57-.12.21-.16.48-.21.73-.25,1.29-.62,2.54-1.01,3.79-.29.93-.69,1.85-.76,2.84-.02.52.19.96.7,1.1.52.14.94-.15,1.13-.64.24-.64.45-1.31.63-1.97.46-1.76.9-3.53,1.31-5.31.09-.4.19-.94-.39-1.11Z"/>
        <path class="cls-2" d="M321.65,118.54c-.04-.09-.09-.17-.15-.26-.22-.33-.56-.59-.9-.68-.09-.02-.17-.04-.26-.04-.3,0-.59.13-.82.37-.13.13-.24.3-.32.48-.02.05-.04.09-.05.14-.06.19-.09.4-.08.62,0,.14.03.27.05.39.12.56.45.95,1.19.95.41,0,.78-.16,1.05-.42.16-.15.27-.34.34-.55.05-.15.08-.3.08-.46,0-.09-.02-.18-.04-.28-.02-.09-.06-.18-.1-.27Z"/>
        <path class="cls-2" d="M321.79,119.09c0,.16-.03.31-.08.46.05-.15.08-.3.08-.46Z"/>
        <path class="cls-2" d="M321.79,119.09c0-.09-.02-.18-.04-.28.02.09.04.18.04.28Z"/>
        <path class="cls-2" d="M319.12,119.56c.12.56.45.95,1.19.95.41,0,.79-.16,1.05-.42-.27.26-.64.42-1.05.42-.73,0-1.07-.39-1.19-.95Z"/>
        <path class="cls-2" d="M300.07,117.58c-.25,0-.45.05-.6.13-.11.07-.2.15-.27.25-.16.23-.23.54-.31.83-.02.08-.05.16-.07.24,0,.05.01.1.02.14.04.25.08.48.16.69.03.07.06.13.09.19.06.1.14.19.23.27.06.05.13.09.21.13.12.05.26.09.43.1.7.05,1.28-.44,1.42-1.12.02-.1.03-.2.03-.3,0-.42-.14-.8-.39-1.09-.24-.28-.58-.46-.97-.46Z"/>
        <path class="cls-2" d="M318.88,125.49c-.44-.11-.92-.19-1.32.22-.35.37-.5.8-.55,1.28-.15,1.43-.69,2.75-1.08,4.12-.21.73-.42,1.47-.55,1.94-.05.81.16,1.24.67,1.39.55.16.88-.22,1.13-.65.09-.15.14-.34.19-.51.73-2.25,1.28-4.55,1.8-6.86.08-.34.2-.8-.29-.92Z"/>
        <path class="cls-2" d="M175.93,117.59c-.95.02-1.18.74-1.23,1.5-.05.75.18,1.38,1.09,1.43.84.03,1.48-.55,1.5-1.38.02-.78-.64-1.57-1.37-1.55Z"/>
        <path class="cls-2" d="M233.82,125.89c-.04-.15-.09-.3-.15-.44s-.12-.28-.19-.41c-.14-.26-.32-.5-.52-.71-.2-.21-.43-.4-.69-.57s-.54-.3-.84-.41c-.2-.07-.39-.11-.56-.11-.06,0-.11,0-.17,0-.11,0-.21.03-.31.06-.35.11-.64.36-.89.67-.11.14-.21.28-.31.44,0,.01-.02.02-.04.03-.02,0-.03.02-.05.03-.67.51-1.22,1.09-1.65,1.72-.17.25-.33.51-.47.78-.14.27-.27.54-.38.83-.17.42-.31.86-.42,1.32-.15.6-.25,1.23-.32,1.88,0,.07.01.15.01.22,0,.07,0,.15,0,.22,0,.15,0,.3.02.44.02.29.05.58.13.86.07.22.14.43.23.64.04.1.09.2.15.3.05.1.11.19.18.27.1.13.21.24.35.33.09.06.19.11.3.16.11.04.23.07.36.09.07,0,.14.02.21.02.75.04,1.51-.09,2.23-.34.43-.15.84-.35,1.23-.59.26-.16.5-.34.74-.53s.45-.4.65-.63c.1-.11.2-.23.29-.35.27-.36.5-.75.68-1.16.26-.62.43-1.25.5-1.88.03-.21.04-.42.05-.64.01-.42,0-.85-.06-1.28s-.14-.85-.25-1.27ZM229.3,132.73c-.95.22-1.38-.07-1.51-1.03-.25-1.75.33-3.3,1.18-4.79.19-.34.48-.55.88-.56.89-.02,1.6-.21,1.14-1.5,2.48,2.56,1.37,7.16-1.68,7.87Z"/>
        <path class="cls-2" d="M233.58,130.96c-.18.41-.4.8-.68,1.16.27-.36.5-.75.68-1.16Z"/>
        <path class="cls-2" d="M201.06,123.36c-1.07-.38-1.72.23-2.24,1.07-.02.03-.06.04-.09.06-2.15,1.64-2.97,3.93-3.25,6.52.05.58,0,1.2.17,1.74.28.86.61,1.76,1.77,1.81,2.41.11,4.86-1.39,5.8-3.6.7-1.65.69-3.38.24-5.07-.32-1.21-1.18-2.11-2.4-2.53ZM198.94,132.73c-.95.22-1.38-.07-1.51-1.03-.25-1.75.33-3.3,1.18-4.79.19-.34.48-.55.88-.56.89-.02,1.6-.21,1.14-1.5,2.48,2.56,1.37,7.16-1.68,7.87Z"/>
        <path class="cls-2" d="M133.81,123.43c-1.07-.38-1.72.23-2.24,1.07-.02.03-.06.04-.09.06-2.15,1.64-2.97,3.93-3.25,6.52.05.58,0,1.2.17,1.74.28.86.61,1.76,1.77,1.81,2.41.11,4.86-1.39,5.8-3.6.7-1.65.69-3.38.24-5.07-.32-1.21-1.18-2.11-2.4-2.53ZM131.68,132.81c-.95.22-1.38-.07-1.51-1.03-.25-1.75.33-3.3,1.18-4.79.19-.34.48-.55.88-.56.89-.02,1.6-.21,1.14-1.5,2.48,2.56,1.37,7.16-1.68,7.87Z"/>
        <path class="cls-2" d="M345.4,123.29c-1.07-.38-1.72.23-2.24,1.07-.02.03-.06.04-.09.06-2.15,1.64-2.97,3.93-3.25,6.52.05.58,0,1.2.17,1.74.28.86.61,1.76,1.77,1.81,2.41.11,4.86-1.39,5.8-3.6.7-1.65.69-3.38.24-5.07-.32-1.21-1.18-2.11-2.4-2.53ZM343.27,132.66c-.95.22-1.38-.07-1.51-1.03-.25-1.75.33-3.3,1.18-4.79.19-.34.48-.55.88-.56.89-.02,1.6-.21,1.14-1.5,2.48,2.56,1.37,7.16-1.68,7.87Z"/>
        <path class="cls-2" d="M120.38,124.97c-1.84.58-1.28-.31-2.66-1.1-1.33-.75-3.54.07-4.8.56-.71.28-1.19.53-1.95.53-.5,0-.87-.35-1.4-.15-.78.29-1.19,1.61-1.46,2.31-.54,1.39-1.32,2.79-1.79,4.19-.02.89.14,1.84,1.14,1.32.55-.28,1.1-1.87,1.37-2.45.75-1.6,1.54-2.67,3.1-3.56,1.22-.69,2.82-1.71,4.25-1.22,1.87.64,1.55,1.72.73,3.05-.62,1.01-2.18,2.4-1.78,3.71.41,1.36,1.41.57,2.06-.18,1.3-1.49,1.48-4.15,3.13-5.3.78-.54,2.52-.78,3.16.12.66.94-.55,2.95-.96,3.77-.24.49-2.12,3.6-1.22,4.11.63.36,1.66-1.36,1.95-1.8,1.19-1.82,3.41-5.02,1.5-7.17-1.1-1.24-2.96-1.19-4.37-.74Z"/>
      </g>
    </g>
  </g>
</svg>