<?xml version="1.0" encoding="UTF-8"?>
<svg id="Layer_2" data-name="Layer 2" xmlns="http://www.w3.org/2000/svg" viewBox="0 0 396 88.53">
  <defs>
    <style>
      .cls-1 {
        fill: #d02c2f;
      }

      .cls-2 {
        fill: #fff;
      }
    </style>
  </defs>
  <g id="Layer_1-2" data-name="Layer 1">
    <g>
      <path class="cls-2" d="M141.17,70.05c.12,9.84-7.69,16.59-15.74,16.59-11.6,0-13.01-6.75-13.01-24.41,0-16.24,1.77-24.41,12.18-24.41,9.83,0,16.57,9.72,16.57,18.37v13.87ZM141.17,87.11h18.11v-1.91h-8.16V0c-2.37,2.72-6.16,2.96-9.94,2.96h-9.47v1.9h9.47v43.13h-.24c-2.13-5.57-7.81-12.08-16.33-12.08-14.2,0-23.55,14.69-23.55,26.31,0,13.87,9.59,26.31,24.37,26.31,8.17,0,13.73-6.05,15.5-10.08h.24v8.66Z"/>
      <path class="cls-2" d="M193.01,61.16v15.52c0,2.37-3.91,9.01-12.79,9.01-7.57,0-8.64-4.98-8.64-11.61,0-12.68,10.77-12.92,19.41-12.92h2.01ZM202.95,49.66c0-9.12-10.65-13.75-19.65-13.75-11.83,0-18.23,6.63-18.23,12.68,0,4.03,1.89,6.64,5.21,6.64,3.08,0,5.44-2.13,5.44-4.98,0-5.33-3.91-4.04-3.91-6.88,0-4.27,8.05-5.56,11.48-5.56,4.5,0,9.71,1.3,9.71,6.87v14.58h-2.25c-12.19,0-29.82,3.32-29.82,16.59,0,8.06,5.56,12.68,14.79,12.68,7.8,0,13.13-2.02,17.16-7.35h.24c.83,4.15,4.85,7.35,10.42,7.35,5.09,0,8.17-2.49,10.41-6.4l-1.3-.95c-1.78,2.49-3.43,4.75-6.16,4.75-3.19,0-3.55-2.97-3.55-5.22v-31.05Z"/>
      <path class="cls-2" d="M222.12,4.86h-9.47v-1.9h9.47c3.78,0,7.57-.23,9.95-2.96v85.21h9.46v1.9h-28.88v-1.9h9.47V4.86Z"/>
      <g>
        <path class="cls-2" d="M290.41,20.62c3.32,0,6.04-2.73,6.04-6.04s-2.72-6.05-6.04-6.05-6.03,2.73-6.03,6.05,2.72,6.04,6.03,6.04Z"/>
        <path class="cls-2" d="M323.78,85.21V0c-2.37,2.73-6.16,2.96-9.95,2.96h-9.47v1.9h9.47v80.35h-8.99s-9.47,0-9.47,0v-49.3c-2.36,2.37-6.15,2.61-9.94,2.61h-8.64s-16.33,0-16.33,0v-16.59h-1.42c-2.01,11.61-6.51,16.83-18.82,16.59v1.89h10.3v37.57c0,7.82,5.45,10.55,13.72,10.55,8.76,0,12.19-6.16,13.02-9l-1.77-.36c-.71,2.02-3.32,7.47-9.23,7.47-3.79,0-5.8-1.54-5.8-6.4v-39.83h15.5s9.47,0,9.47,0v44.8h-9.47v1.91h57.28v-1.9h-9.46Z"/>
      </g>
      <path class="cls-2" d="M367.21,54.88c0,.48-.24.83-.83.83h-19.76v-3.32c0-7.59,2.48-14.58,10.76-14.58,7.81,0,9.83,6.99,9.83,14.58v2.49ZM346.62,57.6h30.89c.71,0,1.06-.35,1.06-1.06,0-4.98-7.22-20.62-21.19-20.62-12.9,0-22.13,14.81-22.13,26.31,0,15.64,9.71,26.31,23.55,26.31,10.89,0,18.94-7.35,20.83-18.25h-1.89c-1.65,9.72-9,16.35-18.94,16.35-11.13,0-12.31-9.48-12.19-17.9v-11.14Z"/>
      <path class="cls-2" d="M385.25,24.77c5.06,0,9.17,4.33,9.17,9.36s-4.12,9.37-9.17,9.37-9.17-4.3-9.17-9.37,4.12-9.36,9.17-9.36M385.25,23.37c-5.93,0-10.75,4.86-10.75,10.77s4.82,10.77,10.75,10.77,10.75-4.82,10.75-10.77-4.79-10.77-10.75-10.77M380.13,39.75h5.03v-.47h-.67c-.7,0-.88-.17-.88-1.52v-3.14h1.55c2.31,3.14,3.04,5.12,4.12,5.12h1.9v-.47c-.73,0-1.66-1.32-2.54-2.43l-1.64-2.43c1.49-.37,2.4-1.54,2.4-3.21,0-2.12-1.82-2.96-3.74-2.96h-5.52v.47h.68c.7,0,.87.17.87,1.52v7.52c0,1.34-.17,1.52-.87,1.52h-.68v.47ZM383.61,28.72h1.4c1.29,0,2.46.67,2.46,2.46s-.79,2.99-2.37,2.99h-1.49v-5.45Z"/>
      <rect class="cls-1" y=".85" width="81.57" height="87.68"/>
      <path class="cls-2" d="M81.57,61.75l-6.38,3.65L39.37,2.75c-.78,3.11-3.76,5.05-6.84,6.81l-7.7,4.42.8,1.39,7.7-4.42,18.14,31.72-.19.11c-4.07-3.1-11.43-5.24-18.37-1.27-11.55,6.63-12.98,21.79-8.1,30.33,5.83,10.2,18.86,14.87,30.9,7.97,6.64-3.81,8.62-10.85,8.38-14.64l.19-.11,3.64,6.36,13.67-7.84v-1.85ZM54.9,78.43c-9.43,5.41-13.43,1.11-20.85-11.88-6.83-11.94-8.82-18.78-.35-23.64,7.99-4.58,17.56-.58,21.2,5.78l5.83,10.2c4.23,7.17.72,15.79-5.83,19.54"/>
    </g>
  </g>
</svg>