<?xml version="1.0" encoding="UTF-8"?>
<svg id="Layer_2" data-name="Layer 2" xmlns="http://www.w3.org/2000/svg" viewBox="0 0 396 115.51">
  <defs>
    <style>
      .cls-1 {
        fill: lime;
      }

      .cls-2 {
        fill: #fff;
      }
    </style>
  </defs>
  <g id="Layer_1-2" data-name="Layer 1">
    <g>
      <g>
        <path class="cls-2" d="M273.95,61.58l3.09-7.66h23.74c3.48,0,6.36-.83,8.63-2.49,2.27-1.66,3.4-3.82,3.4-6.47,0-1.33-.3-2.54-.91-3.65-.61-1.11-1.44-2.06-2.49-2.86-1.05-.8-2.32-1.42-3.82-1.87-1.49-.44-3.1-.66-4.81-.66h-5.14c-2.66,0-5.12-.43-7.38-1.29-2.27-.86-4.23-2.07-5.89-3.65-1.66-1.58-2.96-3.43-3.9-5.56-.94-2.13-1.41-4.49-1.41-7.09s.48-4.9,1.45-7.05c.97-2.16,2.34-4.04,4.11-5.64,1.77-1.6,3.9-2.86,6.39-3.78,2.49-.91,5.23-1.37,8.21-1.37h26.3l-3.29,9.53c-.36,1.05-1.35,1.76-2.46,1.76h-21.13c-2.38,0-4.26.65-5.64,1.95-1.38,1.3-2.07,2.86-2.07,4.69,0,1.99.71,3.65,2.12,4.98,1.41,1.33,3.28,1.99,5.6,1.99h6.39c2.87,0,5.53.48,7.97,1.45,2.43.97,4.53,2.34,6.3,4.11,1.77,1.77,3.15,3.87,4.15,6.31,1,2.43,1.49,5.09,1.49,7.96s-.53,5.61-1.58,8.05c-1.05,2.43-2.56,4.54-4.52,6.3-1.96,1.77-4.3,3.15-7.01,4.15-2.71.99-5.72,1.49-9.04,1.49h-24.38c-1.87,0-3.15-1.89-2.45-3.63Z"/>
        <path class="cls-1" d="M326.67,61.61l3.1-7.68h23.74c3.48,0,6.36-.83,8.63-2.49,2.27-1.66,3.4-3.82,3.4-6.47,0-1.33-.3-2.54-.91-3.65-.61-1.11-1.44-2.06-2.49-2.86-1.05-.8-2.32-1.42-3.82-1.87-1.49-.44-3.1-.66-4.81-.66h-5.14c-2.66,0-5.12-.43-7.38-1.29-2.27-.86-4.23-2.07-5.89-3.65-1.66-1.58-2.96-3.43-3.9-5.56-.94-2.13-1.41-4.49-1.41-7.09s.48-4.9,1.45-7.05c.97-2.16,2.34-4.04,4.11-5.64,1.77-1.6,3.9-2.86,6.39-3.78,2.49-.91,5.23-1.37,8.21-1.37h26.3l-3.29,9.52c-.36,1.05-1.36,1.76-2.47,1.76h-21.12c-2.38,0-4.26.65-5.64,1.95-1.38,1.3-2.07,2.86-2.07,4.69,0,1.99.71,3.65,2.12,4.98,1.41,1.33,3.28,1.99,5.6,1.99h6.39c2.87,0,5.53.48,7.97,1.45,2.43.97,4.53,2.34,6.3,4.11,1.77,1.77,3.15,3.87,4.15,6.31,1,2.43,1.49,5.09,1.49,7.96s-.53,5.61-1.58,8.05-2.56,4.54-4.52,6.3c-1.96,1.77-4.3,3.15-7.01,4.15-2.71.99-5.72,1.49-9.04,1.49h-24.41c-1.86,0-3.12-1.88-2.43-3.6Z"/>
        <path class="cls-1" d="M384.72,62.99V.87h7.16c2.28,0,4.13,1.85,4.13,4.13v60.59h-8.68c-1.44,0-2.6-1.16-2.6-2.6Z"/>
        <polygon class="cls-1" points="53.44 13.75 36.43 13.75 29.63 38.24 36.45 38.24 30.65 59.11 32.69 59.11 52.42 34.62 42.43 34.62 53.44 13.75"/>
        <path class="cls-2" d="M190.72,3.37c.76-1.2,1.71-2.06,2.83-2.58,1.12-.52,2.31-.78,3.57-.78,1.42,0,2.56.51,3.41,1.52s1.28,2.37,1.28,4.06v58.91h-11.08V21.25l-27.4,43.24h-13.29L190.72,3.37Z"/>
        <path class="cls-2" d="M223.18,20.1v44.39h-10.74V6.07c0-1.7.46-3.05,1.4-4.06.93-1.01,2.26-1.52,4.02-1.52,1.09,0,2.12.23,3.07.7.96.46,1.93,1.33,2.92,2.58l31.26,41.11V.49h10.67v58.5c0,4.1-1.4,6.16-4.19,6.16-1.37,0-2.57-.32-3.61-.94-1.03-.63-2.18-1.6-3.45-2.91l-31.34-41.19Z"/>
        <path class="cls-2" d="M113.58,41.52v23.63h-13.94V23.8c0-3.94.38-7.29,1.16-10.06.77-2.77,2.08-5,3.92-6.69s4.31-2.92,7.38-3.69c3.08-.77,6.92-1.16,11.54-1.16h25.26v12.09h-24.89c-3.88,0-6.58.8-8.13,2.4-1.54,1.6-2.3,4.25-2.3,7.94v4.98h48.66l-7.3,11.91h-41.36Z"/>
        <path class="cls-2" d="M68.01,23.28c-.89-5.31-3.53-10.16-7.55-13.84-4.47-4.09-10.28-6.35-16.34-6.35-4.68,0-9.23,1.34-13.14,3.87-3.25,2.1-5.95,4.94-7.86,8.27-.83-.15-1.69-.24-2.55-.24-7.31,0-13.26,5.95-13.26,13.26,0,.95.1,1.86.28,2.75-4.73,3.44-7.6,8.98-7.6,14.87,0,4.76,1.77,9.39,5,13.05,3.32,3.75,7.7,5.97,12.38,6.22h14.93s.06-.02.09-.02h31.83c5.24-.38,10.15-2.79,13.79-6.81,3.63-3.99,5.61-9.11,5.61-14.44-.02-9.65-6.6-18.23-15.61-20.6ZM63.97,60.49H26.57s-.06.02-.09.02h-8.89c-7.03-.43-12.95-7.12-12.95-14.65,0-4.87,2.61-9.41,6.83-11.87.98-.57,1.39-1.75,1.01-2.82-.34-.93-.52-1.91-.52-2.96,0-4.75,3.87-8.62,8.62-8.62,1.01,0,2.01.17,2.94.52,1.13.41,2.39-.1,2.91-1.19,3.22-6.83,10.16-11.23,17.71-11.23,10.15,0,18.52,7.6,19.48,17.68.1,1.05.89,1.89,1.93,2.06,7.65,1.31,13.43,8.37,13.43,16.44,0,8.55-6.72,15.98-15.01,16.61Z"/>
      </g>
      <g>
        <path class="cls-2" d="M125.11,84.09h2.64c.23,0,.35.12.35.35v23.61c0,.23-.12.35-.35.35h-2.64c-.23,0-.35-.12-.35-.35v-10.24c0-.09-.05-.14-.14-.14h-5.24c-.09,0-.14.05-.14.14v10.24c0,.23-.12.35-.35.35h-2.64c-.23,0-.35-.12-.35-.35v-23.61c0-.23.12-.35.35-.35h2.64c.23,0,.35.12.35.35v10.21c0,.09.05.14.14.14h5.24c.09,0,.14-.05.14-.14v-10.21c0-.23.12-.35.35-.35Z"/>
        <path class="cls-2" d="M141.9,92.04c1.08,1.06,1.61,2.46,1.61,4.2v11.81c0,.23-.12.35-.35.35h-2.64c-.23,0-.35-.12-.35-.35v-.76s-.02-.08-.05-.1c-.03-.02-.08-.01-.12.03-.81.97-2,1.46-3.58,1.46-1.32,0-2.48-.38-3.49-1.13-1.01-.75-1.51-2.09-1.51-4.01s.61-3.49,1.82-4.43c1.22-.94,2.81-1.41,4.77-1.41h2.01c.09,0,.14-.05.14-.14v-1.01c0-.97-.23-1.75-.69-2.34-.46-.59-1.06-.89-1.81-.89-.58,0-1.06.2-1.46.59-.39.39-.62.9-.69,1.53,0,.23-.12.35-.35.35h-2.81c-.23,0-.35-.12-.35-.35.12-1.48.71-2.68,1.77-3.61,1.06-.92,2.38-1.39,3.96-1.39,1.69,0,3.07.53,4.15,1.6ZM139.28,104.99c.6-.51.9-1.23.9-2.15v-2.36c0-.09-.05-.14-.14-.14h-2.12c-.93,0-1.67.25-2.22.75-.56.5-.83,1.22-.83,2.17,0,.83.21,1.46.62,1.88.42.42.97.62,1.67.62.81,0,1.52-.25,2.12-.76Z"/>
        <path class="cls-2" d="M155.15,90.72h2.64c.23,0,.35.12.35.35v16.8c0,2.43-.56,4.31-1.67,5.64s-3.02,2-5.73,2l-.94-.03c-.23-.02-.35-.15-.35-.38v-2.22c0-.23.13-.35.38-.35,1.9.07,3.2-.31,3.91-1.13.71-.82,1.06-2.1,1.06-3.84v-.73s-.02-.08-.05-.09-.08,0-.12.05c-.79,1.06-1.91,1.6-3.37,1.6s-2.7-.49-3.52-1.48c-.82-.98-1.23-2.32-1.23-4.01v-6.94c0-1.71.42-3.06,1.25-4.05.83-.98,2-1.48,3.51-1.48s2.63.53,3.37,1.6c.05.05.09.06.12.03s.05-.06.05-.1v-.9c0-.23.12-.35.35-.35ZM154.12,104.73c.45-.52.68-1.2.68-2.03v-6.53c0-.83-.23-1.52-.68-2.05-.45-.53-1.05-.8-1.79-.8s-1.34.27-1.81.8c-.46.53-.69,1.22-.69,2.05v6.53c0,.83.23,1.51.69,2.03.46.52,1.06.78,1.81.78s1.34-.26,1.79-.78Z"/>
        <path class="cls-2" d="M171.34,92.04c1.08,1.06,1.61,2.46,1.61,4.2v11.81c0,.23-.12.35-.35.35h-2.64c-.23,0-.35-.12-.35-.35v-.76s-.02-.08-.05-.1c-.03-.02-.08-.01-.12.03-.81.97-2,1.46-3.58,1.46-1.32,0-2.48-.38-3.49-1.13-1.01-.75-1.51-2.09-1.51-4.01s.61-3.49,1.82-4.43c1.22-.94,2.81-1.41,4.77-1.41h2.01c.09,0,.14-.05.14-.14v-1.01c0-.97-.23-1.75-.69-2.34-.46-.59-1.06-.89-1.81-.89-.58,0-1.06.2-1.46.59-.39.39-.62.9-.69,1.53,0,.23-.12.35-.35.35h-2.81c-.23,0-.35-.12-.35-.35.12-1.48.71-2.68,1.77-3.61,1.06-.92,2.38-1.39,3.96-1.39,1.69,0,3.07.53,4.15,1.6ZM168.72,104.99c.6-.51.9-1.23.9-2.15v-2.36c0-.09-.05-.14-.14-.14h-2.12c-.93,0-1.67.25-2.22.75-.56.5-.83,1.22-.83,2.17,0,.83.21,1.46.62,1.88.42.42.97.62,1.67.62.81,0,1.52-.25,2.12-.76ZM165.28,88.38c-.05-.08-.03-.18.03-.3l2.15-3.75c.12-.16.25-.24.42-.24h2.12c.14,0,.23.04.28.12.05.08.03.18-.03.29l-2.57,3.79c-.09.14-.23.21-.42.21h-1.7c-.14,0-.23-.04-.28-.12Z"/>
        <path class="cls-2" d="M194.36,92.02c.77,1.03,1.16,2.47,1.16,4.32v11.7c0,.23-.12.35-.35.35h-2.6c-.23,0-.35-.12-.35-.35v-11.46c0-1.02-.21-1.81-.63-2.38s-.97-.85-1.67-.85c-.74,0-1.33.28-1.77.85-.44.57-.66,1.35-.66,2.34v11.49c0,.23-.12.35-.35.35h-2.6c-.23,0-.35-.12-.35-.35v-11.46c0-1.02-.21-1.81-.63-2.38s-.97-.85-1.67-.85c-.74,0-1.33.28-1.77.85-.44.57-.66,1.35-.66,2.34v11.49c0,.23-.12.35-.35.35h-2.6c-.23,0-.35-.12-.35-.35v-16.98c0-.23.12-.35.35-.35h2.6c.23,0,.35.12.35.35v.87s.02.08.05.1.07.01.12-.03c.46-.51.99-.89,1.6-1.15.6-.25,1.2-.38,1.81-.38,1.76,0,3.02.78,3.78,2.33.02.05.06.06.1.05.05-.01.08-.06.1-.16.46-.79,1.05-1.35,1.77-1.7.72-.35,1.46-.52,2.22-.52,1.43,0,2.54.52,3.32,1.54Z"/>
        <path class="cls-2" d="M200.26,107.16c-1.05-1.01-1.58-2.34-1.58-4.01v-7.19c0-1.64.53-2.97,1.6-3.99,1.06-1.02,2.49-1.53,4.27-1.53s3.24.51,4.31,1.53c1.06,1.02,1.6,2.35,1.6,3.99v7.19c0,1.67-.53,3-1.6,4.01-1.06,1.01-2.5,1.51-4.31,1.51s-3.23-.5-4.29-1.51ZM206.39,104.97c.49-.52.73-1.21.73-2.07v-6.74c0-.83-.24-1.52-.73-2.05-.49-.53-1.1-.8-1.84-.8s-1.35.27-1.82.8c-.47.53-.71,1.22-.71,2.05v6.74c0,.86.24,1.54.71,2.07.47.52,1.08.78,1.82.78s1.35-.26,1.84-.78Z"/>
        <path class="cls-2" d="M214.63,107.33c-1.01-.84-1.51-1.99-1.51-3.42v-.31c0-.23.12-.35.35-.35h2.47c.23,0,.35.12.35.35v.24c0,.63.24,1.15.73,1.58.49.43,1.09.64,1.81.64s1.26-.21,1.68-.63c.43-.42.64-.95.64-1.6,0-.51-.15-.94-.45-1.28-.3-.35-.65-.62-1.06-.82-.41-.2-1.02-.47-1.86-.82-.9-.39-1.65-.78-2.24-1.15-.59-.37-1.12-.9-1.58-1.6-.46-.69-.69-1.57-.69-2.64,0-1.57.49-2.8,1.48-3.68.98-.88,2.31-1.32,3.98-1.32s3.06.45,4.04,1.35c.98.9,1.48,2.13,1.48,3.68v.1c0,.23-.12.35-.35.35h-2.4c-.23,0-.35-.12-.35-.35v-.24c0-.63-.22-1.16-.66-1.6-.44-.44-1.01-.66-1.7-.66s-1.28.22-1.7.66c-.42.44-.63.97-.63,1.6,0,.49.14.89.42,1.22.28.32.61.58,1.01.78.39.2,1.02.48,1.87.85.95.42,1.74.82,2.36,1.2.63.38,1.17.92,1.65,1.61s.71,1.56.71,2.6c0,1.5-.52,2.7-1.54,3.58-1.03.88-2.42,1.32-4.18,1.32s-3.11-.42-4.11-1.27Z"/>
        <path class="cls-2" d="M238.23,90.58c0,.09.05.14.14.14h2.43c.23,0,.35.12.35.35v1.74c0,.23-.12.35-.35.35h-2.43c-.09,0-.14.05-.14.14v14.76c0,.23-.12.35-.35.35h-2.6c-.23,0-.35-.12-.35-.35v-14.76c0-.09-.05-.14-.14-.14h-1.28c-.23,0-.35-.12-.35-.35v-1.74c0-.23.12-.35.35-.35h1.28c.09,0,.14-.05.14-.14v-.9c0-2.06.43-3.53,1.28-4.43.86-.89,2.24-1.34,4.17-1.34h.45c.23,0,.35.12.35.35l-.07,2.12c0,.23-.12.35-.35.35h-.35c-.76,0-1.32.25-1.67.75-.35.5-.52,1.27-.52,2.31v.8Z"/>
        <path class="cls-2" d="M253.83,92.04c1.08,1.06,1.61,2.46,1.61,4.2v11.81c0,.23-.12.35-.35.35h-2.64c-.23,0-.35-.12-.35-.35v-.76s-.02-.08-.05-.1c-.03-.02-.08-.01-.12.03-.81.97-2,1.46-3.58,1.46-1.32,0-2.48-.38-3.49-1.13-1.01-.75-1.51-2.09-1.51-4.01s.61-3.49,1.82-4.43c1.22-.94,2.81-1.41,4.77-1.41h2.01c.09,0,.14-.05.14-.14v-1.01c0-.97-.23-1.75-.69-2.34-.46-.59-1.06-.89-1.81-.89-.58,0-1.06.2-1.46.59-.39.39-.62.9-.69,1.53,0,.23-.12.35-.35.35h-2.81c-.23,0-.35-.12-.35-.35.12-1.48.71-2.68,1.77-3.61,1.06-.92,2.38-1.39,3.96-1.39,1.69,0,3.07.53,4.15,1.6ZM251.21,104.99c.6-.51.9-1.23.9-2.15v-2.36c0-.09-.05-.14-.14-.14h-2.12c-.93,0-1.67.25-2.22.75-.56.5-.83,1.22-.83,2.17,0,.83.21,1.46.62,1.88.42.42.97.62,1.67.62.81,0,1.52-.25,2.12-.76Z"/>
        <path class="cls-2" d="M269.14,91.95c.78.98,1.16,2.38,1.16,4.18v11.91c0,.23-.12.35-.35.35h-2.64c-.23,0-.35-.12-.35-.35v-11.63c0-.97-.21-1.72-.62-2.26s-1-.8-1.74-.8-1.36.26-1.79.78c-.43.52-.67,1.26-.71,2.2,0,.14-.01.21-.03.21v11.49c0,.23-.12.35-.35.35h-2.64c-.23,0-.35-.12-.35-.35v-16.98c0-.23.12-.35.35-.35h2.64c.23,0,.35.12.35.35v.94s.02.08.07.09c.05.01.09-.02.14-.09.83-1.02,2-1.53,3.51-1.53s2.57.49,3.35,1.48Z"/>
        <path class="cls-2" d="M274.66,107.33c-1.01-.84-1.51-1.99-1.51-3.42v-.31c0-.23.12-.35.35-.35h2.47c.23,0,.35.12.35.35v.24c0,.63.24,1.15.73,1.58.49.43,1.09.64,1.81.64s1.26-.21,1.68-.63c.43-.42.64-.95.64-1.6,0-.51-.15-.94-.45-1.28-.3-.35-.65-.62-1.06-.82-.41-.2-1.02-.47-1.86-.82-.9-.39-1.65-.78-2.24-1.15-.59-.37-1.12-.9-1.58-1.6-.46-.69-.69-1.57-.69-2.64,0-1.57.49-2.8,1.48-3.68.98-.88,2.31-1.32,3.98-1.32s3.06.45,4.04,1.35c.98.9,1.48,2.13,1.48,3.68v.1c0,.23-.12.35-.35.35h-2.4c-.23,0-.35-.12-.35-.35v-.24c0-.63-.22-1.16-.66-1.6-.44-.44-1.01-.66-1.7-.66s-1.28.22-1.7.66c-.42.44-.63.97-.63,1.6,0,.49.14.89.42,1.22.28.32.61.58,1.01.78.39.2,1.02.48,1.87.85.95.42,1.74.82,2.36,1.2.63.38,1.17.92,1.65,1.61s.71,1.56.71,2.6c0,1.5-.52,2.7-1.54,3.58-1.03.88-2.42,1.32-4.18,1.32s-3.11-.42-4.11-1.27Z"/>
        <path class="cls-2" d="M287.28,107.77c-.42-.42-.62-.95-.62-1.6s.21-1.18.62-1.6c.42-.42.95-.63,1.6-.63s1.18.21,1.6.63c.42.42.63.95.63,1.6s-.21,1.18-.63,1.6c-.42.42-.95.63-1.6.63s-1.18-.21-1.6-.63Z"/>
      </g>
    </g>
  </g>
</svg>