<?xml version="1.0" encoding="UTF-8"?>
<svg id="Layer_2" data-name="Layer 2" xmlns="http://www.w3.org/2000/svg" viewBox="0 0 219.52 144">
  <defs>
    <style>
      .cls-1 {
        fill: #95e1bf;
      }

      .cls-2 {
        fill: #fcc;
      }

      .cls-3 {
        fill: #dc99ce;
      }

      .cls-4 {
        fill: #f66;
      }

      .cls-5 {
        fill: #7fcc0d;
      }

      .cls-6 {
        fill: #ffcc0d;
      }

      .cls-7 {
        fill: #0cc;
      }
    </style>
  </defs>
  <g id="Layer_1-2" data-name="Layer 1">
    <g>
      <path class="cls-5" d="M157.82,63.62l22.76-47.01c3.17-6.54,12.48-6.54,15.65,0l22.81,47.02c1.54,3.17-.77,6.86-4.3,6.86h-52.63c-3.52,0-5.83-3.68-4.3-6.86Z"/>
      <path class="cls-6" d="M100.26,62.15c-4.91,5.18-11.86,8.24-19,8.24-7.94,0-14.63-3.19-20.07-9.56-3.9-4.57-5.9-10.45-5.9-16.46v-22.15c0-6.87,3.58-10.4,8-10.4h36.05c4.42,0,8,3.58,8,8v24.5c0,6.9-2.37,12.85-7.1,17.83Z"/>
      <path class="cls-1" d="M82.62,89.36c-3.28-5.49-11.47-5.49-14.74,0l-11.34,22.41c-1.19,2.36-4.56,2.36-5.76,0l-11.37-22.42c-3.28-5.49-11.47-5.49-14.74,0L.51,137.13c-1.6,3.17.78,6.87,4.43,6.87h97.49c3.65,0,6.03-3.7,4.42-6.88l-24.23-47.77Z"/>
      <path class="cls-4" d="M25.88,0h-.95s0,0,0,0h-2.77C9.92,0,0,9.92,0,22.15v43.36c0,4.92,6.4,6.84,9.1,2.72l6.23-9.49,8.69-13.9c.53-.84,1.47-1.29,2.46-1.29,0,0,.01,0,.02,0,12.28,0,22.18-10.16,21.76-22.54S37.72-.03,25.88,0Z"/>
      <path class="cls-7" d="M140.25,0h-.95s0,0,0,0h-2.77c-12.23,0-22.15,9.92-22.15,22.15v43.36c0,4.92,6.4,6.84,9.1,2.72l6.23-9.49,8.69-13.9c.53-.84,1.47-1.29,2.46-1.29,0,0,.01,0,.02,0,12.28,0,22.18-10.16,21.76-22.54C162.23,9.17,152.1-.03,140.25,0Z"/>
      <path class="cls-3" d="M140.25,73.52h-.95s0,0,0,0h-2.77c-12.23,0-22.15,9.92-22.15,22.15v43.36c0,4.92,6.4,6.84,9.1,2.72l6.23-9.49,8.69-13.9c.53-.84,1.47-1.29,2.46-1.29,0,0,.01,0,.02,0,12.28,0,22.18-10.16,21.76-22.54-.4-11.84-10.54-21.04-22.38-21.01Z"/>
      <path class="cls-2" d="M157.84,137.1l22.74-46.97c3.17-6.54,12.48-6.54,15.65,0l22.79,46.97c1.55,3.19-.78,6.91-4.32,6.91h-52.52c-3.55,0-5.87-3.71-4.33-6.9Z"/>
    </g>
  </g>
</svg>