<?xml version="1.0" encoding="UTF-8"?>
<svg id="Layer_2" data-name="Layer 2" xmlns="http://www.w3.org/2000/svg" viewBox="0 0 391.25 114.12">
  <defs>
    <style>
      .cls-1 {
        fill: #c1c1c1;
      }

      .cls-2 {
        fill: lime;
      }

      .cls-3 {
        fill: #002a3a;
      }

      .cls-4 {
        fill: #002a3a;
      }

      .cls-5 {
        fill: #ededed;
      }
    </style>
  </defs>
  <g id="Layer_1-2" data-name="Layer 1">
    <g>
      <g>
        <path class="cls-4" d="M270.66,60.84l3.05-7.56h23.46c3.44,0,6.28-.82,8.52-2.46,2.24-1.64,3.36-3.77,3.36-6.39,0-1.31-.3-2.51-.9-3.61-.6-1.09-1.42-2.04-2.46-2.83-1.04-.79-2.3-1.41-3.77-1.84s-3.06-.66-4.75-.66h-5.08c-2.62,0-5.06-.42-7.3-1.27-2.24-.85-4.18-2.05-5.82-3.61-1.64-1.56-2.92-3.39-3.85-5.49-.93-2.1-1.39-4.44-1.39-7.01s.48-4.84,1.43-6.97c.96-2.13,2.31-3.99,4.06-5.57,1.75-1.58,3.85-2.83,6.31-3.73,2.46-.9,5.16-1.35,8.11-1.35h25.99l-3.25,9.41c-.36,1.04-1.34,1.74-2.43,1.74h-20.87c-2.35,0-4.21.64-5.57,1.93-1.37,1.29-2.05,2.83-2.05,4.63,0,1.97.7,3.61,2.09,4.92,1.39,1.31,3.24,1.97,5.53,1.97h6.31c2.84,0,5.46.48,7.87,1.43,2.4.96,4.48,2.31,6.23,4.06,1.75,1.75,3.12,3.83,4.1,6.23.98,2.4,1.48,5.03,1.48,7.87s-.52,5.55-1.56,7.95c-1.04,2.4-2.53,4.48-4.47,6.23-1.94,1.75-4.25,3.12-6.93,4.1-2.68.98-5.65,1.47-8.93,1.47h-24.09c-1.85,0-3.11-1.87-2.42-3.58Z"/>
        <path class="cls-2" d="M322.75,60.87l3.06-7.59h23.46c3.44,0,6.28-.82,8.52-2.46,2.24-1.64,3.36-3.77,3.36-6.39,0-1.31-.3-2.51-.9-3.61-.6-1.09-1.42-2.04-2.46-2.83-1.04-.79-2.3-1.41-3.77-1.84-1.47-.44-3.06-.66-4.75-.66h-5.08c-2.62,0-5.06-.42-7.3-1.27s-4.18-2.05-5.82-3.61c-1.64-1.56-2.92-3.39-3.85-5.49-.93-2.1-1.39-4.44-1.39-7.01s.48-4.84,1.43-6.97c.96-2.13,2.31-3.99,4.06-5.57,1.75-1.58,3.85-2.83,6.31-3.73,2.46-.9,5.16-1.35,8.11-1.35h25.99l-3.25,9.41c-.36,1.04-1.34,1.74-2.44,1.74h-20.87c-2.35,0-4.21.64-5.57,1.93-1.37,1.29-2.05,2.83-2.05,4.63,0,1.97.7,3.61,2.09,4.92,1.39,1.31,3.24,1.97,5.53,1.97h6.31c2.84,0,5.46.48,7.87,1.43,2.4.96,4.48,2.31,6.23,4.06,1.75,1.75,3.12,3.83,4.1,6.23.98,2.4,1.48,5.03,1.48,7.87s-.52,5.55-1.56,7.95-2.53,4.48-4.47,6.23c-1.94,1.75-4.25,3.12-6.93,4.1-2.68.98-5.65,1.47-8.93,1.47h-24.12c-1.83,0-3.09-1.85-2.4-3.56Z"/>
        <path class="cls-2" d="M380.1,62.23V.86h7.07c2.25,0,4.08,1.83,4.08,4.08v59.86h-8.58c-1.42,0-2.57-1.15-2.57-2.57Z"/>
        <polygon class="cls-2" points="52.8 13.58 36 13.58 29.28 37.78 36.01 37.78 30.29 58.4 32.3 58.4 51.79 34.2 41.92 34.2 52.8 13.58"/>
        <path class="cls-3" d="M188.43,3.32c.75-1.19,1.69-2.04,2.8-2.55,1.11-.51,2.28-.77,3.52-.77,1.41,0,2.53.5,3.36,1.5s1.26,2.34,1.26,4.01v58.21h-10.94V21l-27.07,42.72h-13.13L188.43,3.32Z"/>
        <path class="cls-3" d="M220.51,19.86v43.86h-10.61V6c0-1.68.46-3.01,1.38-4.01.92-1,2.24-1.5,3.97-1.5,1.08,0,2.09.23,3.03.69.95.46,1.91,1.31,2.88,2.55l30.88,40.61V.49h10.54v57.8c0,4.05-1.38,6.08-4.14,6.08-1.35,0-2.54-.31-3.57-.93-1.02-.62-2.16-1.58-3.4-2.88l-30.97-40.7Z"/>
        <path class="cls-3" d="M112.21,41.02v23.35h-13.77V23.51c0-3.89.38-7.2,1.14-9.94.76-2.73,2.05-4.94,3.88-6.61,1.82-1.67,4.26-2.89,7.29-3.65,3.04-.76,6.84-1.14,11.4-1.14h24.96v11.95h-24.59c-3.83,0-6.5.79-8.03,2.37-1.52,1.58-2.28,4.2-2.28,7.84v4.92h48.08l-7.22,11.76h-40.86Z"/>
        <path class="cls-5" d="M67.2,23c-.88-5.25-3.48-10.04-7.46-13.68-4.42-4.04-10.16-6.27-16.14-6.27-4.62,0-9.12,1.33-12.98,3.82-3.21,2.07-5.88,4.88-7.76,8.17-.82-.15-1.67-.24-2.51-.24-7.22,0-13.1,5.88-13.1,13.1,0,.93.1,1.83.27,2.72-4.67,3.4-7.51,8.87-7.51,14.7,0,4.71,1.75,9.28,4.94,12.9,3.28,3.7,7.61,5.9,12.23,6.15h14.75s.06-.02.08-.02h31.45c5.18-.37,10.02-2.75,13.63-6.73,3.59-3.94,5.54-9,5.54-14.27-.02-9.53-6.52-18.01-15.43-20.35ZM63.2,59.76H26.25s-.06.02-.08.02h-8.78c-6.95-.42-12.79-7.03-12.79-14.48,0-4.81,2.58-9.29,6.74-11.72.97-.56,1.38-1.73,1-2.79-.34-.92-.51-1.89-.51-2.92,0-4.69,3.82-8.51,8.51-8.51,1,0,1.99.17,2.91.51,1.12.41,2.36-.1,2.87-1.17,3.18-6.74,10.04-11.09,17.5-11.09,10.02,0,18.3,7.51,19.25,17.47.1,1.04.88,1.87,1.9,2.04,7.56,1.29,13.27,8.27,13.27,16.24,0,8.44-6.64,15.78-14.83,16.41Z"/>
      </g>
      <g>
        <path class="cls-1" d="M123.61,83.08h2.61c.23,0,.34.11.34.34v23.33c0,.23-.11.34-.34.34h-2.61c-.23,0-.34-.11-.34-.34v-10.12c0-.09-.05-.14-.14-.14h-5.18c-.09,0-.14.05-.14.14v10.12c0,.23-.11.34-.34.34h-2.61c-.23,0-.34-.11-.34-.34v-23.33c0-.23.11-.34.34-.34h2.61c.23,0,.34.11.34.34v10.09c0,.09.05.14.14.14h5.18c.09,0,.14-.04.14-.14v-10.09c0-.23.11-.34.34-.34Z"/>
        <path class="cls-1" d="M140.2,90.94c1.06,1.05,1.59,2.44,1.59,4.15v11.66c0,.23-.11.34-.34.34h-2.61c-.23,0-.34-.11-.34-.34v-.76s-.02-.08-.05-.1c-.03-.02-.07-.01-.12.03-.8.96-1.98,1.44-3.53,1.44-1.3,0-2.45-.37-3.45-1.11-.99-.74-1.49-2.06-1.49-3.96s.6-3.45,1.8-4.37c1.2-.93,2.77-1.39,4.72-1.39h1.99c.09,0,.14-.04.14-.14v-.99c0-.96-.23-1.73-.69-2.32-.46-.58-1.05-.88-1.78-.88-.57,0-1.05.19-1.44.58-.39.39-.62.89-.69,1.51,0,.23-.11.34-.34.34h-2.78c-.23,0-.34-.11-.34-.34.11-1.46.7-2.65,1.75-3.57,1.05-.91,2.35-1.37,3.91-1.37,1.67,0,3.04.53,4.1,1.58ZM137.61,103.73c.59-.5.89-1.21.89-2.13v-2.33c0-.09-.05-.14-.14-.14h-2.09c-.91,0-1.65.25-2.2.74-.55.49-.82,1.21-.82,2.14,0,.82.21,1.44.62,1.85.41.41.96.62,1.65.62.8,0,1.5-.25,2.09-.75Z"/>
        <path class="cls-1" d="M153.28,89.63h2.61c.23,0,.34.11.34.34v16.6c0,2.4-.55,4.26-1.65,5.57-1.1,1.32-2.98,1.97-5.66,1.97l-.93-.03c-.23-.02-.34-.15-.34-.38v-2.2c0-.23.13-.34.38-.34,1.88.07,3.16-.3,3.86-1.12.7-.81,1.05-2.08,1.05-3.79v-.72s-.02-.07-.05-.09-.07,0-.12.05c-.78,1.05-1.89,1.58-3.33,1.58s-2.67-.49-3.48-1.46c-.81-.97-1.22-2.29-1.22-3.96v-6.86c0-1.69.41-3.02,1.23-4,.82-.97,1.98-1.46,3.46-1.46s2.6.53,3.33,1.58c.05.05.09.06.12.03s.05-.06.05-.1v-.89c0-.23.11-.34.34-.34ZM152.27,103.47c.45-.51.67-1.18.67-2.01v-6.45c0-.82-.22-1.5-.67-2.02-.45-.53-1.03-.79-1.77-.79s-1.33.26-1.78.79c-.46.53-.69,1.2-.69,2.02v6.45c0,.82.23,1.49.69,2.01.46.51,1.05.77,1.78.77s1.32-.26,1.77-.77Z"/>
        <path class="cls-1" d="M169.29,90.94c1.06,1.05,1.59,2.44,1.59,4.15v11.66c0,.23-.11.34-.34.34h-2.61c-.23,0-.34-.11-.34-.34v-.76s-.02-.08-.05-.1c-.03-.02-.07-.01-.12.03-.8.96-1.98,1.44-3.53,1.44-1.3,0-2.45-.37-3.45-1.11-.99-.74-1.49-2.06-1.49-3.96s.6-3.45,1.8-4.37c1.2-.93,2.77-1.39,4.72-1.39h1.99c.09,0,.14-.04.14-.14v-.99c0-.96-.23-1.73-.69-2.32-.46-.58-1.05-.88-1.78-.88-.57,0-1.05.19-1.44.58-.39.39-.62.89-.69,1.51,0,.23-.11.34-.34.34h-2.78c-.23,0-.34-.11-.34-.34.11-1.46.7-2.65,1.75-3.57,1.05-.91,2.35-1.37,3.91-1.37,1.67,0,3.04.53,4.1,1.58ZM166.7,103.73c.59-.5.89-1.21.89-2.13v-2.33c0-.09-.05-.14-.14-.14h-2.09c-.91,0-1.65.25-2.2.74-.55.49-.82,1.21-.82,2.14,0,.82.21,1.44.62,1.85.41.41.96.62,1.65.62.8,0,1.5-.25,2.09-.75ZM163.3,87.32c-.05-.08-.03-.18.03-.29l2.13-3.7c.11-.16.25-.24.41-.24h2.09c.14,0,.23.04.27.12.05.08.03.18-.03.29l-2.54,3.74c-.09.14-.23.21-.41.21h-1.68c-.14,0-.23-.04-.27-.12Z"/>
        <path class="cls-1" d="M192.03,90.92c.77,1.02,1.15,2.44,1.15,4.27v11.56c0,.23-.11.34-.34.34h-2.57c-.23,0-.34-.11-.34-.34v-11.32c0-1.01-.21-1.79-.62-2.35-.41-.56-.96-.84-1.65-.84-.73,0-1.32.28-1.75.84-.43.56-.65,1.33-.65,2.32v11.35c0,.23-.11.34-.34.34h-2.57c-.23,0-.34-.11-.34-.34v-11.32c0-1.01-.21-1.79-.62-2.35-.41-.56-.96-.84-1.65-.84-.73,0-1.32.28-1.75.84-.43.56-.65,1.33-.65,2.32v11.35c0,.23-.11.34-.34.34h-2.57c-.23,0-.34-.11-.34-.34v-16.77c0-.23.11-.34.34-.34h2.57c.23,0,.34.11.34.34v.86s.02.08.05.1.07.01.12-.03c.46-.5.98-.88,1.58-1.13.59-.25,1.19-.38,1.78-.38,1.74,0,2.98.77,3.74,2.3.02.05.06.06.1.05.05-.01.08-.06.1-.15.46-.78,1.04-1.34,1.75-1.68.71-.34,1.44-.51,2.2-.51,1.42,0,2.51.51,3.28,1.53Z"/>
        <path class="cls-1" d="M197.86,105.87c-1.04-.99-1.56-2.32-1.56-3.96v-7.1c0-1.62.53-2.94,1.58-3.94,1.05-1.01,2.46-1.51,4.22-1.51s3.2.5,4.25,1.51c1.05,1.01,1.58,2.32,1.58,3.94v7.1c0,1.65-.53,2.97-1.58,3.96-1.05,1-2.47,1.49-4.25,1.49s-3.2-.5-4.24-1.49ZM203.91,103.71c.48-.51.72-1.19.72-2.04v-6.66c0-.82-.24-1.5-.72-2.02-.48-.53-1.09-.79-1.82-.79s-1.33.26-1.8.79c-.47.53-.7,1.2-.7,2.02v6.66c0,.85.23,1.53.7,2.04.47.51,1.07.77,1.8.77s1.34-.26,1.82-.77Z"/>
        <path class="cls-1" d="M212.06,106.05c-.99-.83-1.49-1.96-1.49-3.38v-.31c0-.23.11-.34.34-.34h2.44c.23,0,.34.12.34.34v.24c0,.62.24,1.14.72,1.56.48.42,1.07.63,1.78.63s1.24-.21,1.66-.62c.42-.41.63-.94.63-1.58,0-.5-.15-.93-.45-1.27-.3-.34-.65-.61-1.05-.81-.4-.19-1.01-.46-1.84-.81-.89-.39-1.63-.77-2.21-1.13-.58-.37-1.1-.89-1.56-1.58-.46-.69-.69-1.55-.69-2.61,0-1.55.49-2.77,1.46-3.64.97-.87,2.28-1.3,3.93-1.3s3.02.45,4,1.34c.97.89,1.46,2.1,1.46,3.64v.1c0,.23-.12.34-.34.34h-2.37c-.23,0-.34-.11-.34-.34v-.24c0-.62-.22-1.14-.65-1.58-.43-.43-.99-.65-1.68-.65s-1.27.22-1.68.65c-.41.43-.62.96-.62,1.58,0,.48.14.88.41,1.2.27.32.61.58.99.77.39.19,1.01.47,1.85.84.94.41,1.72.81,2.33,1.18.62.38,1.16.91,1.63,1.59s.7,1.54.7,2.57c0,1.49-.51,2.66-1.53,3.53-1.02.87-2.4,1.3-4.13,1.3s-3.07-.42-4.07-1.25Z"/>
        <path class="cls-1" d="M235.37,89.5c0,.09.05.14.14.14h2.4c.23,0,.34.11.34.34v1.72c0,.23-.11.34-.34.34h-2.4c-.09,0-.14.05-.14.14v14.58c0,.23-.11.34-.34.34h-2.57c-.23,0-.34-.11-.34-.34v-14.58c0-.09-.05-.14-.14-.14h-1.27c-.23,0-.34-.11-.34-.34v-1.72c0-.23.11-.34.34-.34h1.27c.09,0,.14-.05.14-.14v-.89c0-2.03.42-3.49,1.27-4.37.85-.88,2.22-1.32,4.12-1.32h.45c.23,0,.34.11.34.34l-.07,2.09c0,.23-.11.34-.34.34h-.34c-.75,0-1.3.25-1.65.74-.34.49-.51,1.25-.51,2.28v.79Z"/>
        <path class="cls-1" d="M250.79,90.94c1.06,1.05,1.59,2.44,1.59,4.15v11.66c0,.23-.11.34-.34.34h-2.61c-.23,0-.34-.11-.34-.34v-.76s-.02-.08-.05-.1c-.03-.02-.07-.01-.12.03-.8.96-1.98,1.44-3.53,1.44-1.3,0-2.45-.37-3.45-1.11-.99-.74-1.49-2.06-1.49-3.96s.6-3.45,1.8-4.37c1.2-.93,2.77-1.39,4.72-1.39h1.99c.09,0,.14-.04.14-.14v-.99c0-.96-.23-1.73-.69-2.32-.46-.58-1.05-.88-1.78-.88-.57,0-1.05.19-1.44.58-.39.39-.62.89-.69,1.51,0,.23-.11.34-.34.34h-2.78c-.23,0-.34-.11-.34-.34.11-1.46.7-2.65,1.75-3.57,1.05-.91,2.35-1.37,3.91-1.37,1.67,0,3.04.53,4.1,1.58ZM248.2,103.73c.59-.5.89-1.21.89-2.13v-2.33c0-.09-.05-.14-.14-.14h-2.09c-.91,0-1.65.25-2.2.74-.55.49-.82,1.21-.82,2.14,0,.82.21,1.44.62,1.85.41.41.96.62,1.65.62.8,0,1.5-.25,2.09-.75Z"/>
        <path class="cls-1" d="M265.91,90.85c.77.97,1.15,2.35,1.15,4.13v11.77c0,.23-.12.34-.34.34h-2.61c-.23,0-.34-.11-.34-.34v-11.49c0-.96-.21-1.7-.62-2.23s-.98-.79-1.72-.79-1.34.26-1.77.77c-.42.51-.66,1.24-.7,2.18,0,.14-.01.21-.03.21v11.35c0,.23-.11.34-.34.34h-2.61c-.23,0-.34-.11-.34-.34v-16.77c0-.23.11-.34.34-.34h2.61c.23,0,.34.11.34.34v.93s.02.07.07.09c.05.01.09-.02.14-.09.82-1.01,1.98-1.51,3.46-1.51s2.54.49,3.31,1.46Z"/>
        <path class="cls-1" d="M271.37,106.05c-.99-.83-1.49-1.96-1.49-3.38v-.31c0-.23.11-.34.34-.34h2.44c.23,0,.34.12.34.34v.24c0,.62.24,1.14.72,1.56.48.42,1.07.63,1.78.63s1.24-.21,1.66-.62c.42-.41.63-.94.63-1.58,0-.5-.15-.93-.45-1.27-.3-.34-.65-.61-1.05-.81-.4-.19-1.01-.46-1.84-.81-.89-.39-1.63-.77-2.21-1.13-.58-.37-1.1-.89-1.56-1.58-.46-.69-.69-1.55-.69-2.61,0-1.55.49-2.77,1.46-3.64.97-.87,2.28-1.3,3.93-1.3s3.02.45,4,1.34c.97.89,1.46,2.1,1.46,3.64v.1c0,.23-.12.34-.34.34h-2.37c-.23,0-.34-.11-.34-.34v-.24c0-.62-.22-1.14-.65-1.58-.43-.43-.99-.65-1.68-.65s-1.27.22-1.68.65c-.41.43-.62.96-.62,1.58,0,.48.14.88.41,1.2.27.32.61.58.99.77.39.19,1.01.47,1.85.84.94.41,1.72.81,2.33,1.18.62.38,1.16.91,1.63,1.59s.7,1.54.7,2.57c0,1.49-.51,2.66-1.53,3.53-1.02.87-2.4,1.3-4.13,1.3s-3.07-.42-4.07-1.25Z"/>
        <path class="cls-1" d="M283.84,106.47c-.41-.41-.62-.94-.62-1.58s.21-1.17.62-1.58c.41-.41.94-.62,1.58-.62s1.17.21,1.58.62c.41.41.62.94.62,1.58s-.21,1.17-.62,1.58c-.41.41-.94.62-1.58.62s-1.17-.21-1.58-.62Z"/>
      </g>
    </g>
  </g>
</svg>