<?xml version="1.0" encoding="UTF-8"?>
<svg id="Layer_2" data-name="Layer 2" xmlns="http://www.w3.org/2000/svg" xmlns:xlink="http://www.w3.org/1999/xlink" viewBox="0 0 264.63 172.8">
  <defs>
    <style>
      .cls-1 {
        fill: #3ec0f0;
      }

      .cls-2 {
        fill: #b7b7b7;
      }

      .cls-3 {
        fill: url(#Degradado_sin_nombre_715);
      }
    </style>
    <linearGradient id="Degradado_sin_nombre_715" data-name="Degradado sin nombre 715" x1="131.57" y1="102.88" x2="131.57" y2="0" gradientUnits="userSpaceOnUse">
      <stop offset="0" stop-color="#3ec0f0"/>
      <stop offset=".07" stop-color="#42c1e6"/>
      <stop offset=".33" stop-color="#51c5c4"/>
      <stop offset=".58" stop-color="#5cc9ac"/>
      <stop offset=".81" stop-color="#63cb9e"/>
      <stop offset="1" stop-color="#6c9"/>
    </linearGradient>
  </defs>
  <g id="Layer_1-2" data-name="Layer 1">
    <g>
      <g>
        <path class="cls-2" d="M10.69,170.41v2.17H0v-15.59h10.5v2.17H2.48v4.46h6.96v2.02H2.48v4.77h8.21Z"/>
        <path class="cls-2" d="M23.15,172.58h-2.39v-6.36c0-1.07-.18-1.85-.53-2.33s-.86-.73-1.54-.73c-.47,0-.93.12-1.39.36-.46.24-.87.55-1.23.94-.36.39-.63.84-.8,1.36v6.76h-2.42v-11.4h2.2v2.28c.29-.51.67-.94,1.14-1.31.47-.36,1-.65,1.6-.85.6-.2,1.24-.3,1.91-.3s1.26.12,1.71.37c.45.25.8.58,1.05,1.01.25.43.42.92.53,1.48.1.56.15,1.15.15,1.77v6.94Z"/>
        <path class="cls-2" d="M28.92,172.58l-4.35-11.4h2.5l3.25,9.17,3.29-9.17h2.31l-4.35,11.4h-2.66Z"/>
        <path class="cls-2" d="M37.68,159.21v-2.66h2.42v2.66h-2.42ZM37.68,172.58v-11.48h2.42v11.48h-2.42Z"/>
        <path class="cls-2" d="M49.43,163.18c-.92.01-1.75.23-2.47.64s-1.24.99-1.55,1.74v7.03h-2.42v-11.4h2.22v2.46c.41-.78.94-1.4,1.58-1.88s1.32-.74,2.02-.78h.38c.1,0,.17,0,.23.02v2.17Z"/>
        <path class="cls-2" d="M56.17,172.8c-.91,0-1.72-.16-2.44-.47-.72-.31-1.34-.74-1.86-1.29-.52-.55-.92-1.18-1.2-1.88-.28-.7-.42-1.45-.42-2.23s.14-1.57.42-2.27c.28-.7.68-1.33,1.2-1.88.52-.55,1.14-.98,1.87-1.29.72-.31,1.53-.47,2.43-.47s1.72.16,2.43.47c.71.31,1.33.74,1.86,1.29.53.55.93,1.18,1.21,1.88.28.7.42,1.46.42,2.27s-.14,1.53-.42,2.23c-.28.7-.68,1.33-1.2,1.88-.52.55-1.14.98-1.87,1.29s-1.53.47-2.43.47ZM52.75,166.9c0,.74.15,1.39.46,1.97.31.58.72,1.03,1.23,1.36s1.08.5,1.71.5,1.24-.17,1.76-.5c.51-.33.92-.79,1.23-1.39.31-.59.46-1.24.46-1.95s-.15-1.37-.46-1.96c-.31-.58-.72-1.04-1.24-1.37-.52-.33-1.09-.5-1.72-.5s-1.22.17-1.73.52c-.51.35-.92.81-1.23,1.39s-.46,1.22-.46,1.93Z"/>
        <path class="cls-2" d="M74.53,172.58h-2.39v-6.36c0-1.07-.18-1.85-.53-2.33s-.86-.73-1.54-.73c-.47,0-.93.12-1.39.36-.46.24-.87.55-1.23.94-.36.39-.63.84-.8,1.36v6.76h-2.42v-11.4h2.2v2.28c.29-.51.67-.94,1.14-1.31.47-.36,1-.65,1.6-.85.6-.2,1.24-.3,1.91-.3s1.26.12,1.71.37c.45.25.8.58,1.05,1.01.25.43.42.92.53,1.48.1.56.15,1.15.15,1.77v6.94Z"/>
        <path class="cls-2" d="M94.91,172.58h-2.39v-6.36c0-1.06-.18-1.83-.54-2.32-.36-.49-.88-.74-1.55-.74s-1.3.25-1.87.75-.98,1.15-1.23,1.94v6.73h-2.42v-6.36c0-1.07-.17-1.85-.52-2.33-.34-.49-.86-.73-1.55-.73s-1.28.24-1.86.72c-.58.48-.99,1.13-1.24,1.93v6.76h-2.42v-11.4h2.2v2.28c.45-.78,1.05-1.39,1.79-1.82.74-.43,1.58-.64,2.54-.64s1.7.24,2.25.73c.55.49.9,1.11,1.04,1.86.48-.84,1.09-1.48,1.81-1.93s1.56-.66,2.49-.66c.67,0,1.23.12,1.68.37.45.25.8.58,1.05,1.01.26.43.44.92.55,1.48.11.56.16,1.15.16,1.77v6.94Z"/>
        <path class="cls-2" d="M102.9,172.8c-.91,0-1.72-.16-2.44-.47-.72-.31-1.34-.74-1.87-1.29-.53-.54-.93-1.17-1.22-1.87-.29-.7-.43-1.45-.43-2.23,0-1.09.25-2.08.75-2.97.5-.9,1.2-1.61,2.1-2.15.9-.54,1.94-.8,3.11-.8s2.26.27,3.13.82c.87.54,1.55,1.26,2.03,2.14.48.88.72,1.83.72,2.85,0,.17,0,.34-.02.49-.01.15-.03.27-.04.36h-9.22c.07.68.27,1.27.59,1.77.32.5.74.89,1.25,1.17.51.28,1.05.42,1.62.42.66,0,1.28-.16,1.86-.48s.97-.75,1.18-1.27l2.06.59c-.25.56-.63,1.06-1.14,1.5-.51.45-1.11.8-1.79,1.05s-1.42.38-2.23.38ZM99.45,166.08h6.94c-.06-.66-.25-1.23-.56-1.72s-.73-.87-1.24-1.15c-.51-.28-1.07-.42-1.67-.42s-1.17.14-1.68.42c-.5.28-.92.66-1.24,1.15-.32.49-.51,1.06-.55,1.72Z"/>
        <path class="cls-2" d="M121.06,172.58h-2.39v-6.36c0-1.07-.18-1.85-.53-2.33s-.86-.73-1.54-.73c-.47,0-.93.12-1.39.36-.46.24-.87.55-1.23.94-.36.39-.63.84-.8,1.36v6.76h-2.42v-11.4h2.2v2.28c.29-.51.67-.94,1.14-1.31.47-.36,1-.65,1.6-.85.6-.2,1.24-.3,1.91-.3s1.26.12,1.71.37c.45.25.8.58,1.05,1.01.25.43.42.92.53,1.48.1.56.15,1.15.15,1.77v6.94Z"/>
        <path class="cls-2" d="M130.17,172.03c-.19.09-.45.19-.77.32-.32.12-.67.23-1.05.32-.38.09-.78.13-1.19.13-.5,0-.96-.09-1.38-.27-.42-.18-.77-.46-1.02-.84-.26-.38-.38-.87-.38-1.47v-7.17h-1.54v-1.87h1.54v-3.78h2.42v3.78h2.5v1.87h-2.5v6.37c.03.39.16.68.38.87.23.19.51.28.85.28s.66-.06.98-.19c.31-.12.53-.22.65-.27l.53,1.91Z"/>
        <path class="cls-2" d="M131.01,169.25c0-.73.21-1.36.63-1.9.42-.54,1-.96,1.73-1.26.74-.3,1.59-.45,2.54-.45.51,0,1.03.04,1.56.12.53.08,1,.19,1.43.34v-.72c0-.79-.24-1.41-.72-1.86-.48-.45-1.18-.67-2.09-.67-.64,0-1.25.11-1.82.33-.57.22-1.18.55-1.82.99l-.79-1.65c.73-.5,1.49-.87,2.26-1.13.78-.26,1.59-.38,2.44-.38,1.54,0,2.75.4,3.62,1.21.88.8,1.32,1.94,1.32,3.42v4.23c0,.28.05.47.15.59.1.12.27.18.51.2v1.93c-.22.04-.41.07-.58.09-.17.01-.31.03-.43.04-.53-.01-.92-.15-1.19-.4-.26-.25-.42-.54-.46-.88l-.07-.66c-.48.64-1.12,1.14-1.9,1.49-.78.35-1.57.53-2.36.53s-1.44-.16-2.04-.47c-.6-.31-1.07-.74-1.41-1.27-.34-.54-.51-1.14-.51-1.81ZM138.32,169.96c.16-.2.3-.4.41-.58.11-.19.16-.36.16-.52v-1.27c-.41-.16-.84-.28-1.29-.36-.45-.08-.89-.12-1.32-.12-.89,0-1.61.17-2.16.52-.55.35-.82.82-.82,1.43,0,.33.09.64.28.94.18.29.45.54.79.73.34.19.76.29,1.26.29.54,0,1.06-.1,1.54-.31.48-.21.87-.46,1.16-.75Z"/>
        <path class="cls-2" d="M144.25,156.55h2.42v12.78c0,.57.09.94.26,1.11s.39.25.66.25c.28,0,.55-.04.82-.11.27-.07.49-.14.67-.2l.35,1.89c-.35.15-.77.27-1.25.37s-.92.15-1.3.15c-.83,0-1.48-.23-1.94-.69-.46-.46-.69-1.1-.69-1.93v-13.63Z"/>
        <path class="cls-2" d="M154.81,169.25c0-.73.21-1.36.63-1.9.42-.54.99-.96,1.73-1.26.74-.3,1.58-.45,2.54-.45.51,0,1.03.04,1.56.12.53.08,1,.19,1.43.34v-.72c0-.79-.24-1.41-.72-1.86-.48-.45-1.18-.67-2.09-.67-.64,0-1.25.11-1.82.33s-1.18.55-1.82.99l-.79-1.65c.73-.5,1.49-.87,2.26-1.13.78-.26,1.59-.38,2.44-.38,1.54,0,2.74.4,3.62,1.21.88.8,1.32,1.94,1.32,3.42v4.23c0,.28.05.47.15.59.1.12.27.18.51.2v1.93c-.22.04-.41.07-.58.09-.17.01-.31.03-.43.04-.53-.01-.92-.15-1.19-.4-.26-.25-.42-.54-.46-.88l-.07-.66c-.48.64-1.12,1.14-1.9,1.49-.78.35-1.57.53-2.36.53s-1.44-.16-2.04-.47-1.07-.74-1.41-1.27-.5-1.14-.5-1.81ZM162.12,169.96c.16-.2.3-.4.41-.58s.16-.36.16-.52v-1.27c-.41-.16-.84-.28-1.3-.36-.45-.08-.89-.12-1.32-.12-.89,0-1.61.17-2.16.52-.55.35-.82.82-.82,1.43,0,.33.09.64.27.94.18.29.45.54.79.73.34.19.76.29,1.26.29.54,0,1.05-.1,1.54-.31s.87-.46,1.16-.75Z"/>
        <path class="cls-2" d="M181.95,161.18h2.31l-4.83,11.4h-2.06l-2.09-5.14-2.06,5.14h-2.04l-4.85-11.4h2.31l3.69,9.09,1.62-4.23-1.98-4.84h2.04l1.27,3.57,1.27-3.57h2.06l-1.95,4.84,1.63,4.23,3.67-9.09Z"/>
        <path class="cls-2" d="M184.74,169.25c0-.73.21-1.36.63-1.9.42-.54.99-.96,1.73-1.26.74-.3,1.58-.45,2.54-.45.51,0,1.03.04,1.56.12.53.08,1,.19,1.43.34v-.72c0-.79-.24-1.41-.72-1.86-.48-.45-1.18-.67-2.09-.67-.64,0-1.25.11-1.82.33s-1.18.55-1.82.99l-.79-1.65c.73-.5,1.49-.87,2.26-1.13.78-.26,1.59-.38,2.44-.38,1.54,0,2.74.4,3.62,1.21.88.8,1.32,1.94,1.32,3.42v4.23c0,.28.05.47.15.59.1.12.27.18.51.2v1.93c-.22.04-.41.07-.58.09-.17.01-.31.03-.43.04-.53-.01-.92-.15-1.19-.4-.26-.25-.42-.54-.46-.88l-.07-.66c-.48.64-1.12,1.14-1.9,1.49-.78.35-1.57.53-2.36.53s-1.44-.16-2.04-.47-1.07-.74-1.41-1.27-.5-1.14-.5-1.81ZM192.05,169.96c.16-.2.3-.4.41-.58s.16-.36.16-.52v-1.27c-.41-.16-.84-.28-1.3-.36-.45-.08-.89-.12-1.32-.12-.89,0-1.61.17-2.16.52-.55.35-.82.82-.82,1.43,0,.33.09.64.27.94.18.29.45.54.79.73.34.19.76.29,1.26.29.54,0,1.05-.1,1.54-.31s.87-.46,1.16-.75Z"/>
        <path class="cls-2" d="M204.39,163.18c-.92.01-1.75.23-2.47.64s-1.24.99-1.55,1.74v7.03h-2.42v-11.4h2.22v2.46c.41-.78.94-1.4,1.58-1.88.64-.48,1.32-.74,2.02-.78h.38c.1,0,.17,0,.23.02v2.17Z"/>
        <path class="cls-2" d="M211.18,172.8c-.91,0-1.72-.16-2.44-.47-.72-.31-1.34-.74-1.87-1.29-.53-.54-.93-1.17-1.22-1.87-.29-.7-.43-1.45-.43-2.23,0-1.09.25-2.08.75-2.97.5-.9,1.2-1.61,2.1-2.15.9-.54,1.94-.8,3.11-.8s2.26.27,3.13.82c.87.54,1.55,1.26,2.03,2.14.48.88.72,1.83.72,2.85,0,.17,0,.34-.02.49s-.03.27-.04.36h-9.22c.07.68.27,1.27.59,1.77s.74.89,1.25,1.17c.51.28,1.05.42,1.63.42.66,0,1.28-.16,1.86-.48.58-.32.97-.75,1.17-1.27l2.06.59c-.25.56-.63,1.06-1.14,1.5-.51.45-1.11.8-1.79,1.05s-1.42.38-2.23.38ZM207.73,166.08h6.94c-.06-.66-.25-1.23-.56-1.72s-.73-.87-1.24-1.15c-.51-.28-1.07-.42-1.67-.42s-1.18.14-1.68.42-.92.66-1.24,1.15-.5,1.06-.55,1.72Z"/>
        <path class="cls-2" d="M229.34,172.58h-2.39v-6.36c0-1.07-.18-1.85-.53-2.33-.35-.49-.86-.73-1.54-.73-.47,0-.93.12-1.39.36-.46.24-.87.55-1.23.94-.36.39-.63.84-.8,1.36v6.76h-2.42v-11.4h2.2v2.28c.29-.51.67-.94,1.14-1.31.47-.36,1-.65,1.6-.85.6-.2,1.24-.3,1.91-.3s1.26.12,1.71.37.8.58,1.05,1.01c.25.43.42.92.53,1.48.1.56.15,1.15.15,1.77v6.94Z"/>
        <path class="cls-2" d="M237.36,172.8c-.91,0-1.72-.16-2.44-.47-.72-.31-1.34-.74-1.87-1.29-.53-.54-.93-1.17-1.22-1.87-.29-.7-.43-1.45-.43-2.23,0-1.09.25-2.08.75-2.97.5-.9,1.2-1.61,2.1-2.15.9-.54,1.94-.8,3.11-.8s2.26.27,3.13.82c.87.54,1.55,1.26,2.03,2.14.48.88.72,1.83.72,2.85,0,.17,0,.34-.02.49s-.03.27-.04.36h-9.22c.07.68.27,1.27.59,1.77s.74.89,1.25,1.17c.51.28,1.05.42,1.63.42.66,0,1.28-.16,1.86-.48.58-.32.97-.75,1.17-1.27l2.06.59c-.25.56-.63,1.06-1.14,1.5-.51.45-1.11.8-1.79,1.05s-1.42.38-2.23.38ZM233.91,166.08h6.94c-.06-.66-.25-1.23-.56-1.72s-.73-.87-1.24-1.15c-.51-.28-1.07-.42-1.67-.42s-1.18.14-1.68.42-.92.66-1.24,1.15-.5,1.06-.55,1.72Z"/>
        <path class="cls-2" d="M249.3,172.8c-.97,0-1.88-.16-2.74-.48-.86-.32-1.6-.8-2.22-1.43l.88-1.6c.67.57,1.34.99,2.01,1.26.67.27,1.33.41,1.99.41s1.24-.12,1.66-.38.63-.62.63-1.11c0-.36-.11-.63-.34-.8-.23-.17-.55-.33-.97-.46s-.91-.28-1.48-.44c-.81-.25-1.49-.5-2.05-.77s-.98-.6-1.26-.99c-.28-.39-.42-.89-.42-1.5,0-.72.19-1.35.57-1.87.38-.52.91-.92,1.59-1.21s1.47-.42,2.36-.42c.83,0,1.61.13,2.32.38.71.26,1.34.66,1.88,1.2l-1.03,1.58c-.5-.45-1.02-.79-1.56-1.01s-1.12-.33-1.73-.33c-.34,0-.67.04-1,.12-.33.08-.6.22-.82.43-.22.21-.33.5-.33.88,0,.32.09.57.27.75s.45.34.8.47c.35.13.78.28,1.3.43.89.25,1.65.5,2.28.76.63.26,1.12.59,1.46.99s.52.94.52,1.64c0,1.09-.41,1.94-1.24,2.56s-1.93.93-3.3.93Z"/>
        <path class="cls-2" d="M260.08,172.8c-.97,0-1.88-.16-2.74-.48-.86-.32-1.6-.8-2.22-1.43l.88-1.6c.67.57,1.34.99,2.01,1.26.67.27,1.33.41,1.99.41s1.24-.12,1.66-.38.63-.62.63-1.11c0-.36-.11-.63-.34-.8-.23-.17-.55-.33-.97-.46s-.91-.28-1.48-.44c-.81-.25-1.49-.5-2.05-.77s-.98-.6-1.26-.99c-.28-.39-.42-.89-.42-1.5,0-.72.19-1.35.57-1.87.38-.52.91-.92,1.59-1.21s1.47-.42,2.36-.42c.83,0,1.61.13,2.32.38.71.26,1.34.66,1.88,1.2l-1.03,1.58c-.5-.45-1.02-.79-1.56-1.01s-1.12-.33-1.73-.33c-.34,0-.67.04-1,.12-.33.08-.6.22-.82.43-.22.21-.33.5-.33.88,0,.32.09.57.27.75s.45.34.8.47c.35.13.78.28,1.3.43.89.25,1.65.5,2.28.76.63.26,1.12.59,1.46.99s.52.94.52,1.64c0,1.09-.41,1.94-1.24,2.56s-1.93.93-3.3.93Z"/>
      </g>
      <g>
        <g>
          <path class="cls-1" d="M43.87,144.63l-3.22-28.79h6.44l2.38,21.02,8.01-6.16v-14.86h6.44v14.9l7.93,6.12,2.42-21.02h6.44l-3.22,28.79h-5.4l-11.4-9.22-11.44,9.22h-5.4Z"/>
          <path class="cls-1" d="M119.69,144.84v-5.24l23.15.04c1.18,0,2.09-.27,2.72-.83.63-.55.95-1.44.95-2.68s-.32-2.13-.95-2.68c-.63-.55-1.54-.83-2.72-.83h-14.42c-2.98,0-5.29-.72-6.95-2.15-1.65-1.44-2.48-3.55-2.48-6.34s.83-4.91,2.48-6.34c1.65-1.44,3.97-2.15,6.95-2.15h22.63v5.24l-21.94-.04c-1.15,0-2.05.26-2.7.79-.64.52-.97,1.36-.97,2.52s.32,1.99.97,2.52c.64.52,1.54.79,2.7.79h14.42c2.98,0,5.29.73,6.95,2.19,1.65,1.46,2.48,3.63,2.48,6.5s-.83,5.01-2.48,6.48c-1.65,1.48-3.97,2.21-6.95,2.21h-23.84Z"/>
          <path class="cls-1" d="M156.98,144.63v-28.79h31.57v5.24h-25.13v6.36h22.79v5.24h-22.79v6.72h25.13v5.23h-31.57Z"/>
          <path class="cls-1" d="M207.79,144.84c-5.32,0-9.38-1.23-12.2-3.68-2.82-2.46-4.23-6.1-4.23-10.93s1.41-8.44,4.23-10.91c2.82-2.47,6.89-3.69,12.2-3.66l14.5.08v5.15h-14.05c-3.49,0-6.08.74-7.77,2.21-1.69,1.48-2.54,3.85-2.54,7.13s.85,5.66,2.54,7.15c1.69,1.49,4.28,2.23,7.77,2.23h14.46v5.24h-14.9Z"/>
        </g>
        <path class="cls-3" d="M180.76,65.78l-9.85-30.34c-1.1-3.38-5.09-4.82-8.09-2.91l-12.99,8.26-.02.04h-.03s-5.34,3.39-5.34,3.39c-.36.23-.21.79.21.81l10.75.56c.38.02.77-.08,1.05-.35.39-.37.95-.57,1.56-.46.71.13,1.3.72,1.42,1.43.2,1.13-.67,2.12-1.76,2.12-.63,0-1.19-.33-1.5-.83-.27-.43-.7-.73-1.2-.76l-10.64-.55c-1.66-.09-3.33.28-4.77,1.13-2.95,1.74-4.84,4.82-5.07,8.22l-.04,1.84c-.03,1.5.32,2.98,1.02,4.3l.73,1.36,6.3,9.66c.24.37.61.65,1.05.7.16.02.32.06.49.14.6.27,1.05.85,1.1,1.5.09,1.17-.96,2.13-2.16,1.89-.66-.13-1.21-.67-1.36-1.32-.08-.34-.06-.67.03-.96.14-.44.11-.92-.14-1.31l-6.16-9.44c-.42-.64-1.41-.38-1.46.38l-1.59,23.06c-.26,3.85,3.45,6.75,7.12,5.56l32.99-10.71c6.84-2.22,10.59-9.57,8.37-16.41ZM136.52,46.68l10.85-8.3c.96-.73,1.67-1.74,2.05-2.88l3.32-10.02c.14-.43.06-.9-.19-1.28-.21-.34-.31-.76-.24-1.2.11-.74.71-1.36,1.45-1.49,1.13-.2,2.11.67,2.11,1.76,0,.75-.46,1.39-1.12,1.66-.41.17-.74.48-.88.9l-3.04,9.17c-.1.3.25.54.49.35l9.28-7.1c3.24-2.48,4.39-6.84,2.8-10.6l-3.89-9.19c-2.99-7.05-11.12-10.35-18.17-7.36l-45.09,19.1c-7.08,3-6.74,13.14.52,15.66l13.41,4.66c.46.16.85-.38.55-.76l-5.06-6.46c-.26-.34-.68-.49-1.1-.48-.16,0-.33-.02-.5-.06-.67-.19-1.2-.77-1.3-1.46-.17-1.21.86-2.23,2.08-2.03.69.12,1.26.66,1.43,1.34.06.25.07.49.03.71-.07.43,0,.87.26,1.21l6.41,8.19c.55.7,1.29,1.23,2.12,1.52l15.54,5.39c1.99.69,4.2.34,5.87-.94ZM125.19,49.69l-17.58-7.26c-.38-.16-.81-.19-1.21-.08l-13.59,3.5c-.44.11-.78.43-.97.84-.34.75-1.19,1.23-2.11.98-.59-.16-1.08-.64-1.23-1.24-.32-1.2.58-2.28,1.73-2.28.39,0,.74.12,1.04.33.35.25.79.34,1.21.23l11.42-2.94c.42-.11.46-.69.06-.85l-10.05-4.15c-7.04-2.91-14.19,3.91-11.62,11.08l16.39,45.84c2.57,7.2,10.5,10.95,17.7,8.38l8.09-2.89c2.48-.88,4.17-3.19,4.27-5.81l.33-8.35c.01-.27-.35-.37-.48-.14l-4.36,7.47c-.23.4-.25.88-.08,1.3.13.34.17.72.06,1.13-.16.6-.65,1.1-1.26,1.25-1.19.3-2.26-.59-2.26-1.73,0-.71.41-1.31,1-1.61l.12-.03c.44-.1.85-.32,1.18-.62l.11-.1,5.24-8.97c.57-.98.9-2.09.94-3.23l.88-22.33c.13-3.35-1.84-6.43-4.94-7.71Z"/>
        <path class="cls-1" d="M22.46,120.6h-.52l-10.67,23.76h-7.01l12.97-28.79h9.95l12.97,28.79h-7.01l-10.67-23.76Z"/>
        <path class="cls-1" d="M98.73,120.6h-.52l-10.67,23.76h-7.01l12.97-28.79h9.95l12.97,28.79h-7.01l-10.67-23.76Z"/>
        <path class="cls-1" d="M244,120.6h-.52l-10.67,23.76h-7.01l12.97-28.79h9.95l12.97,28.79h-7.01l-10.67-23.76Z"/>
      </g>
    </g>
  </g>
</svg>