<?xml version="1.0" encoding="UTF-8"?>
<svg id="Layer_2" data-name="Layer 2" xmlns="http://www.w3.org/2000/svg" viewBox="0 0 281.63 180.73">
  <defs>
    <style>
      .cls-1 {
        fill: #00162b;
      }

      .cls-2 {
        fill: #00f6ff;
      }
    </style>
  </defs>
  <g id="Layer_1-2" data-name="Layer 1">
    <g>
      <path class="cls-2" d="M191.55,27.59s-13.94-20.67-30.54-26.02c-17.31-5.58-23.33,5.51-23.33,5.51-7.2,10.66-4.95,27.51-4.95,27.51.12,3.04.43,6.03.85,8.98-.03.94.14,1.97.23,2.32,7.36,44.17-31.31,87.7-43.72,58.04-15.21-36.35,19.37-78.76,22.33-84.29,1.2-2.24,1.27-3.36.82-3.86-1.76-1.94-4.21.72-4.21.72,0,0-53.09,67.07-27.06,103.4,19.7,27.49,55.59-9.19,57.61-54.42,15.15,36.97,50.82,57.43,61.8,28.37,8.15-21.58,1.75-49.22-9.84-66.26ZM193.24,81.31c-11.82,25.4-53.86-2.05-55.28-45.51,0,0-1.7-13.5,4.13-21.99,0,0,5-10.36,18.83-5.79,13.26,4.39,24.17,22.55,24.17,22.55,9.17,13.71,15.95,34,8.15,50.74Z"/>
      <g>
        <path class="cls-1" d="M22.95,168.12c-2.37,2.03-5.63,3.03-9.79,3s-7.47-1.08-9.76-3.13C1.1,165.93-.03,162.78,0,158.54l.15-19.36,6.84.05-.15,19.36c0,.84.06,1.67.2,2.49.14.81.44,1.54.9,2.17s1.1,1.14,1.93,1.54c.82.4,1.93.6,3.33.61,2.44.02,4.13-.51,5.07-1.59.94-1.08,1.42-2.79,1.44-5.11l.15-19.36,6.84.05-.15,19.36c-.03,4.22-1.23,7.34-3.6,9.37Z"/>
        <path class="cls-1" d="M37.75,148.07l-.03,4.18h.09c.3-.69.69-1.34,1.19-1.93.5-.59,1.07-1.09,1.71-1.51.64-.42,1.33-.74,2.06-.96.73-.23,1.48-.34,2.27-.33.41,0,.86.08,1.35.23l-.05,5.75c-.29-.06-.64-.11-1.04-.16-.41-.05-.8-.07-1.18-.07-1.13,0-2.09.17-2.88.54-.79.37-1.42.88-1.91,1.53-.49.65-.83,1.41-1.04,2.28-.21.87-.32,1.82-.33,2.83l-.08,10.16-6.19-.05.18-22.54,5.88.05Z"/>
        <path class="cls-1" d="M48.12,154.54c.56-1.46,1.36-2.71,2.38-3.73,1.02-1.02,2.25-1.81,3.68-2.37,1.43-.55,3.03-.82,4.8-.81s3.38.31,4.81.89c1.43.58,2.66,1.39,3.67,2.43,1.01,1.04,1.78,2.3,2.33,3.77.54,1.47.8,3.11.79,4.91s-.3,3.43-.87,4.88c-.56,1.45-1.36,2.69-2.38,3.71-1.03,1.02-2.26,1.81-3.7,2.35-1.44.54-3.05.81-4.82.79s-3.37-.3-4.79-.87c-1.42-.56-2.64-1.36-3.64-2.4-1.01-1.04-1.79-2.29-2.33-3.75-.54-1.46-.8-3.09-.79-4.89s.3-3.44.87-4.9ZM53.69,162.12c.17.86.46,1.63.87,2.32s.97,1.24,1.67,1.65,1.56.62,2.61.63,1.93-.19,2.64-.59c.71-.4,1.29-.94,1.71-1.62.43-.68.73-1.45.91-2.3.18-.85.28-1.73.28-2.63s-.07-1.79-.24-2.66c-.17-.87-.46-1.64-.87-2.32-.42-.67-.98-1.22-1.69-1.65-.71-.43-1.59-.65-2.63-.65s-1.92.2-2.62.61c-.7.42-1.27.96-1.69,1.62-.43.67-.73,1.43-.91,2.3-.18.87-.28,1.76-.28,2.66s.07,1.78.24,2.64Z"/>
        <path class="cls-1" d="M87.69,156.44l-.04,5.32-13.12-.1.04-5.32,13.12.1Z"/>
        <path class="cls-1" d="M92.5,154.88c.56-1.46,1.36-2.71,2.38-3.73,1.02-1.02,2.25-1.81,3.68-2.37,1.43-.55,3.03-.82,4.8-.81s3.38.31,4.81.89c1.43.58,2.66,1.39,3.67,2.43,1.01,1.04,1.78,2.3,2.33,3.77.54,1.47.8,3.11.79,4.91s-.3,3.43-.87,4.88c-.56,1.45-1.36,2.69-2.38,3.71-1.03,1.02-2.26,1.81-3.7,2.35-1.44.54-3.05.81-4.82.79s-3.37-.3-4.79-.87c-1.42-.56-2.64-1.36-3.64-2.4-1.01-1.04-1.79-2.29-2.33-3.75-.54-1.46-.8-3.09-.79-4.89s.3-3.44.87-4.9ZM98.07,162.47c.17.86.46,1.63.87,2.32s.97,1.24,1.67,1.65,1.56.62,2.61.63,1.93-.19,2.64-.59c.71-.4,1.29-.94,1.71-1.62.43-.68.73-1.45.91-2.3.18-.85.28-1.73.28-2.63s-.07-1.79-.24-2.66c-.17-.87-.46-1.64-.87-2.32-.42-.67-.98-1.22-1.69-1.65-.71-.43-1.59-.65-2.63-.65s-1.92.2-2.62.61c-.7.42-1.27.96-1.69,1.62-.43.67-.73,1.43-.91,2.3-.18.87-.28,1.76-.28,2.66s.07,1.78.24,2.64Z"/>
        <path class="cls-1" d="M124.94,148.75l-.02,3.14h.13c.79-1.3,1.82-2.25,3.07-2.83s2.54-.87,3.84-.86c1.66.01,3.01.25,4.07.71,1.06.46,1.89,1.09,2.49,1.89.6.8,1.03,1.78,1.26,2.93.24,1.15.35,2.42.34,3.82l-.11,13.86-6.19-.05.1-12.73c.01-1.86-.27-3.25-.84-4.17-.58-.92-1.6-1.39-3.09-1.4-1.69-.01-2.91.48-3.67,1.47-.76,1-1.15,2.64-1.17,4.94l-.09,11.81-6.19-.05.18-22.54,5.88.05Z"/>
        <path class="cls-1" d="M155.65,153.05c-.99,0-1.82.21-2.49.66-.67.45-1.22,1.02-1.65,1.73-.43.71-.73,1.49-.91,2.35-.18.86-.27,1.7-.28,2.55s.07,1.64.24,2.49c.17.84.45,1.61.83,2.3.39.69.91,1.25,1.58,1.69.66.44,1.48.67,2.44.67,1.48.01,2.63-.39,3.43-1.22s1.32-1.93,1.53-3.32l5.97.05c-.43,2.99-1.61,5.26-3.54,6.82-1.93,1.56-4.39,2.32-7.39,2.3-1.69-.01-3.23-.31-4.64-.89-1.4-.58-2.6-1.38-3.58-2.4s-1.74-2.24-2.28-3.66c-.54-1.41-.8-2.96-.79-4.65s.28-3.36.8-4.86c.52-1.49,1.28-2.78,2.28-3.86,1-1.08,2.21-1.92,3.64-2.52s3.06-.89,4.89-.88c1.34.01,2.62.19,3.85.55,1.23.36,2.33.9,3.3,1.62s1.75,1.61,2.36,2.68c.6,1.07.94,2.33,1.02,3.78l-6.06-.05c-.39-2.59-1.9-3.89-4.55-3.92Z"/>
        <path class="cls-1" d="M170.01,155.49c.56-1.46,1.36-2.71,2.38-3.73,1.02-1.02,2.25-1.81,3.68-2.37,1.43-.55,3.03-.82,4.8-.81s3.38.31,4.81.89c1.43.58,2.66,1.39,3.67,2.43,1.01,1.04,1.78,2.3,2.33,3.77.54,1.47.8,3.11.79,4.91s-.3,3.43-.87,4.88c-.56,1.45-1.36,2.69-2.38,3.71-1.03,1.02-2.26,1.81-3.7,2.35-1.44.54-3.05.81-4.82.79s-3.37-.3-4.79-.87c-1.42-.56-2.64-1.36-3.64-2.4-1.01-1.04-1.79-2.29-2.33-3.75-.54-1.46-.8-3.09-.79-4.89s.3-3.44.87-4.9ZM175.58,163.08c.17.86.46,1.63.87,2.32s.97,1.24,1.67,1.65,1.56.62,2.61.63,1.93-.19,2.64-.59c.71-.4,1.29-.94,1.71-1.62.43-.68.73-1.45.91-2.3.18-.85.28-1.73.28-2.63s-.07-1.79-.24-2.66c-.17-.87-.46-1.64-.87-2.32-.42-.67-.98-1.22-1.69-1.65-.71-.43-1.59-.65-2.63-.65s-1.92.2-2.62.61c-.7.42-1.27.96-1.69,1.62-.43.67-.73,1.43-.91,2.3-.18.87-.28,1.76-.28,2.66s.07,1.78.24,2.64Z"/>
        <path class="cls-1" d="M203,140.77l-.24,31.13-6.19-.05.24-31.13,6.19.05Z"/>
        <path class="cls-1" d="M207.9,155.79c.56-1.46,1.36-2.71,2.38-3.73,1.02-1.02,2.25-1.81,3.68-2.37,1.43-.55,3.03-.82,4.8-.81s3.38.31,4.81.89c1.43.58,2.66,1.39,3.67,2.43,1.01,1.04,1.78,2.3,2.33,3.77.54,1.47.8,3.11.79,4.91s-.3,3.43-.87,4.88c-.56,1.45-1.36,2.69-2.38,3.71-1.03,1.02-2.26,1.81-3.7,2.35-1.44.54-3.05.81-4.82.79s-3.37-.3-4.79-.87c-1.42-.56-2.64-1.36-3.64-2.4-1.01-1.04-1.79-2.29-2.33-3.75-.54-1.46-.8-3.09-.79-4.89s.3-3.44.87-4.9ZM213.46,163.38c.17.86.46,1.63.87,2.32s.97,1.24,1.67,1.65,1.56.62,2.61.63,1.93-.19,2.64-.59c.71-.4,1.29-.94,1.71-1.62.43-.68.73-1.45.91-2.3.18-.85.28-1.73.28-2.63s-.07-1.79-.24-2.66c-.17-.87-.46-1.64-.87-2.32-.42-.67-.98-1.22-1.69-1.65-.71-.43-1.59-.65-2.63-.65s-1.92.2-2.62.61c-.7.42-1.27.96-1.69,1.62-.43.67-.73,1.43-.91,2.3-.18.87-.28,1.76-.28,2.66s.07,1.78.24,2.64Z"/>
        <path class="cls-1" d="M255.56,173.97c-.26,1.16-.8,2.24-1.62,3.24s-2.01,1.84-3.55,2.52-3.61,1.02-6.2,1c-1.11,0-2.23-.16-3.38-.44-1.15-.29-2.19-.72-3.13-1.31-.94-.59-1.72-1.34-2.34-2.26-.62-.92-.97-2.02-1.04-3.3l6.15.05c.28,1.16.84,1.98,1.68,2.43s1.81.69,2.92.7c1.74.01,3.02-.5,3.83-1.54.81-1.04,1.2-2.36,1.19-3.96l.02-2.96h-.09c-.68,1.19-1.64,2.06-2.88,2.62-1.24.56-2.54.83-3.91.82-1.69-.01-3.14-.32-4.35-.93-1.22-.6-2.21-1.43-2.99-2.46-.78-1.04-1.34-2.25-1.69-3.63-.35-1.38-.52-2.85-.51-4.39.01-1.45.23-2.85.66-4.2s1.06-2.54,1.88-3.56c.82-1.03,1.84-1.84,3.05-2.44,1.21-.6,2.6-.9,4.17-.88,1.48.01,2.78.3,3.9.86,1.11.56,2.04,1.5,2.79,2.81h.09s.02-3.01.02-3.01l5.89.05-.17,21.1c0,.9-.14,1.93-.39,3.09ZM247.14,166.41c.67-.34,1.23-.8,1.67-1.38.44-.58.77-1.24,1-1.98s.34-1.52.34-2.33c0-.93-.07-1.81-.24-2.64-.17-.83-.45-1.57-.85-2.21-.4-.64-.94-1.16-1.6-1.54-.67-.38-1.51-.58-2.52-.59-.87,0-1.62.16-2.25.51s-1.15.81-1.58,1.41-.74,1.27-.93,2.04-.3,1.57-.3,2.42.07,1.62.22,2.42.42,1.52.81,2.16c.39.64.9,1.17,1.53,1.58.64.41,1.43.62,2.39.63.87,0,1.64-.16,2.31-.5Z"/>
        <path class="cls-1" d="M269.19,179.14c-1.2.77-2.86,1.15-4.98,1.14-.64,0-1.27-.03-1.9-.08-.63-.05-1.26-.1-1.9-.17l.04-5.1c.58.06,1.18.13,1.79.19.61.06,1.22.08,1.83.06.81-.08,1.42-.4,1.82-.95.4-.55.6-1.16.6-1.83,0-.49-.08-.96-.25-1.4l-7.72-21.2,6.58.05,4.98,15.47h.09s5.05-15.39,5.05-15.39l6.41.05-9.62,25.26c-.68,1.83-1.62,3.13-2.82,3.9Z"/>
      </g>
    </g>
  </g>
</svg>