<?xml version="1.0" encoding="UTF-8"?>
<svg id="Layer_2" data-name="Layer 2" xmlns="http://www.w3.org/2000/svg" viewBox="0 0 222.3 144">
  <defs>
    <style>
      .cls-1 {
        fill: #666;
      }

      .cls-2 {
        fill: #ff0640;
      }
    </style>
  </defs>
  <g id="Layer_1-2" data-name="Layer 1">
    <g>
      <g>
        <polygon class="cls-2" points="101.68 0 218.94 0 160.31 100.98 101.68 0 1.72 0 1.72 108.38 38.49 108.38 101.68 0"/>
        <polygon class="cls-2" points="71.98 108.47 101.68 57.07 131.38 108.47 71.98 108.47"/>
      </g>
      <g>
        <path class="cls-1" d="M14.36,134.47c0,5.64-4.24,9.23-10.36,9.23H0v-18.44h4c6.23,0,10.36,3.57,10.36,9.21ZM1.12,142.71h2.93c5.33,0,9.14-3.03,9.14-8.24s-3.81-8.19-9.11-8.19H1.12v16.43Z"/>
        <path class="cls-1" d="M19.21,125.26h1.12v18.44h-1.12v-18.44Z"/>
        <path class="cls-1" d="M35.62,126.18v1.24c-1.36-.99-3.06-1.41-4.48-1.41-2.53,0-4.53,1.32-4.53,3.5,0,2.06,1.84,3.03,4.72,4.29,2.9,1.24,5.19,2.46,5.19,5.21,0,3.05-2.74,4.99-6.05,4.99-2.1,0-4.02-.77-5.33-1.76v-1.34c1.41,1.32,3.44,2.09,5.35,2.09,2.66,0,4.87-1.51,4.87-3.9,0-2.18-1.86-3.2-4.77-4.44-2.98-1.32-5.14-2.41-5.14-5.06,0-2.85,2.5-4.62,5.7-4.62,1.6,0,3.25.45,4.45,1.22Z"/>
        <path class="cls-1" d="M41.16,125.26h9.7v1.02h-8.58v7.52h8.05v1.02h-8.05v7.89h8.58v.99h-9.7v-18.44Z"/>
        <path class="cls-1" d="M70.59,143.7h-1.07l-12.39-16.73h-.03v16.73h-1.12v-18.44h1.23l12.23,16.58h.03v-16.58h1.12v18.44ZM65.37,122.7c-1.76,0-2.53-1.46-3.97-1.46-.96,0-1.49.65-1.44,1.44h-.96c-.08-1.64,1.17-2.31,2.37-2.31,1.76,0,2.53,1.49,3.97,1.49.96,0,1.49-.65,1.44-1.44h.96c.08,1.64-1.17,2.28-2.37,2.28Z"/>
        <path class="cls-1" d="M75.41,134.49c0-5.44,4.05-9.51,9.51-9.51s9.51,4.07,9.51,9.51-4.08,9.48-9.51,9.48-9.51-4.02-9.51-9.48ZM93.26,134.49c0-5.19-3.86-8.49-8.34-8.49s-8.36,3.3-8.36,8.49,3.89,8.47,8.36,8.47,8.34-3.28,8.34-8.47Z"/>
        <path class="cls-1" d="M106.95,125.26h1.12v18.44h-1.12v-18.44Z"/>
        <path class="cls-1" d="M128.9,143.7h-1.07l-12.39-16.73h-.03v16.73h-1.12v-18.44h1.23l12.23,16.58h.03v-16.58h1.12v18.44Z"/>
        <path class="cls-1" d="M139.19,126.28h-6.55v-1.02h14.23v1.02h-6.55v17.43h-1.12v-17.43Z"/>
        <path class="cls-1" d="M150.59,125.26h9.7v1.02h-8.58v7.52h8.05v1.02h-8.05v7.89h8.58v.99h-9.7v-18.44Z"/>
        <path class="cls-1" d="M176.85,143.7h-1.57l-8.55-8.24h-.19v8.24h-1.12v-18.44h4.29c4.45,0,6.45,2.26,6.45,5.09,0,3.18-2.4,5.11-6.55,5.11h-1.39l8.63,8.24ZM169.45,134.49c3.94,0,5.57-1.69,5.57-4.15s-1.7-4.07-5.41-4.07h-3.06v8.22h2.9Z"/>
        <path class="cls-1" d="M181.09,125.26h1.12v18.44h-1.12v-18.44Z"/>
        <path class="cls-1" d="M187.03,134.49c0-5.44,4.05-9.51,9.51-9.51s9.51,4.07,9.51,9.51-4.08,9.48-9.51,9.48-9.51-4.02-9.51-9.48ZM204.88,134.49c0-5.19-3.86-8.49-8.34-8.49s-8.36,3.3-8.36,8.49,3.89,8.47,8.36,8.47,8.34-3.28,8.34-8.47Z"/>
        <path class="cls-1" d="M222.3,143.7h-1.57l-8.55-8.24h-.19v8.24h-1.12v-18.44h4.29c4.45,0,6.45,2.26,6.45,5.09,0,3.18-2.4,5.11-6.55,5.11h-1.39l8.63,8.24ZM214.89,134.49c3.94,0,5.57-1.69,5.57-4.15s-1.7-4.07-5.41-4.07h-3.06v8.22h2.9Z"/>
      </g>
    </g>
  </g>
</svg>