<?xml version="1.0" encoding="UTF-8"?>
<svg id="Layer_2" data-name="Layer 2" xmlns="http://www.w3.org/2000/svg" viewBox="0 0 259.03 186">
  <defs>
    <style>
      .cls-1 {
        fill: #010101;
      }

      .cls-2 {
        fill: #05e0e5;
      }

      .cls-3 {
        fill: #fff;
      }

      .cls-4 {
        fill: #fefefe;
      }
    </style>
  </defs>
  <g id="Layer_1-2" data-name="Layer 1">
    <g>
      <g>
        <path class="cls-3" d="M81.34,174.69l-14.81,2.06,4.97-7.04-2.46-3.96-62.53,10.31,15.56-19.31-13.44-15.45,24.44-3.78,4.67,5.28.63-6.99.62-7.57,4.16-.8.24-2.21c.22-2.02.77-6.09,2.02-10.68,1.98-7.25,4.88-12.88,8.6-16.71l.78-.8.06-1.12c.24-4.27,2.4-26.45,21.08-43.96l3.03-.36-3.91,4-4.47,4.67,6.45.4,4.34.66-1.06-4.29-1.24-5.54h0s-3.21-14.26-3.21-14.26c-.13-.56-.14-1.12-.05-1.65.44-2.57,2.87-7.31,14.24-10.16l2.74-.69-.52-2.78c-.32-1.73-.53-4.91,1.72-6.85.88-.76,2.07-1.22,3.36-1.3l7.47-.46.83-1.13c1.32-1.79,5.2-5.99,12.86-6.22,0,0,.42,0,.46,0l-9.88,5.14-.33.33,4.24,4.24-.19.17.1-.08,9.33-9.33c3.91,1.07,6.88,3.71,8.15,5l.95.97,6.81-.39c.16,0,.33-.01.49-.01,1.3,0,2.55.3,3.61.88,1.54.83,3.51,2.42,2.82,6.6l-.45,2.74,2.7.66c8.04,1.97,13.95,5.05,15.42,8.04.21.42.28.89.22,1.37l-1.11,8.43,3.32-.02c3.42,1.98,19.34,11.89,28.35,29.55l.98,1.92,12.88-1.91-8.49,14.39,6.88-1.66c3.36-.81,7.37-1.45,11.93-1.9l-2.29,19.3,12.04-1.92-1.01,11.49,4.99-2.94,20.89-3.34-15.57,19.46,12.98,15.3-44.12,6.88-2.29-2.09-4.9,6.85,4.04,6.25-12.48,1.76-3.31-.74-.2,3.38-.37,3.83-105.19,15.35.45-5.27Z"/>
        <path class="cls-3" d="M118.83,9c4.56,0,8.35,3.5,9.4,4.57l1.9,1.94,2.71-.15,5.46-.31c.11,0,.21,0,.32,0,.81,0,1.56.18,2.19.52.76.41,1.71.92,1.29,3.47l-.91,5.49,5.4,1.32c8.27,2.02,12.43,4.8,13.35,6.29l-.64,4.84-.88,6.78h5.91c4.33,2.61,18.37,11.97,26.49,27.91l1.96,3.84,4.27-.63,4.53-.67-1.7,2.88-7.2,12.2,13.77-3.32c2.29-.55,4.9-1.02,7.8-1.4l-1.38,11.59-.94,7.88,7.84-1.25,4.33-.69-.16,1.85-1.02,11.58,9.51-5.57,12.67-2.02-9.17,11.47-3.09,3.86,3.2,3.77,7.92,9.34-37.41,5.83-3.72-3.4-3.94,5.51-1.74,2.44-2.37,3.32,2.21,3.43.38.59-7.23,1.02-6.02-1.35-.66,6.75-.15,1.5-99.12,14.46.45-5.25-7.44,1.03-4.23.59,2.13-3.01-2.1-3.38-.35-.56-2.12-3.4-3.95.65-52.79,8.71,9.05-11.23,3.15-3.91-3.3-3.79-8.22-9.44,17.46-2.71,8.28,9.44,1.15-14.12.43-5.3,4.1-.79.47-4.41c.21-1.93.73-5.82,1.93-10.2,1.85-6.76,4.49-11.94,7.86-15.41l1.56-1.61.13-2.23c.19-3.36,1.62-18.35,12.15-32.88l6.66.45,8.49,1.25-1.91-8.52-.03-.15-2.43-10.86h0s-1.98-8.8-1.98-8.8c-.04-.18-.05-.34-.02-.49.2-1.16,1.65-5.16,12.01-7.76l5.48-1.38-1.04-5.55c-.16-.88-.42-3.03.73-4.03.37-.32.97-.54,1.58-.58l6.06-.37,2.81-.17,1.66-2.27c.3-.41.78-.99,1.45-1.6l1.34,1.17.07.07,4.01,4.37.1-.09.09-.09-5.19-5.79c1.72-1.42,4.5-2.91,8.65-3.03.09,0,.17,0,.26,0M118.83,3c-.14,0-.29,0-.43,0-8.9.26-13.52,5.16-15.19,7.44l-6.06.37c-1.94.12-3.76.84-5.13,2.02-2.88,2.49-3.34,6.32-2.71,9.68-12.96,3.25-15.89,9.2-16.47,12.57-.16.92-.13,1.87.08,2.82l2.5,11.11c-.52.06-1.02.29-1.42.65-19.49,18.18-21.86,41.04-22.15,46.09-4.08,4.2-7.22,10.26-9.34,18.01-1.29,4.71-1.87,8.89-2.11,11.15l-2.06.4c-1.27.24-2.23,1.31-2.33,2.6l-.62,7.65c-.07-.08-.14-.16-.22-.23-.57-.53-1.3-.81-2.07-.81-.16,0-.32.01-.48.04l-24.44,3.79c-1.08.17-1.98.91-2.35,1.93-.37,1.02-.16,2.17.55,2.99l11.79,13.55-14.57,18.08c-.69.86-.78,2.04-.23,2.99.48.83,1.34,1.31,2.28,1.31.15,0,.29-.01.44-.04l61.47-10.14.35.56-4.49,6.37c-.57.81-.61,1.89-.09,2.74.46.75,1.27,1.2,2.13,1.2.12,0,.23,0,.35-.02l12.24-1.7-.15,1.8c-.07.85.24,1.68.87,2.26.52.49,1.2.76,1.9.76.14,0,.27-.01.41-.03l105.67-15.42c1.26-.18,2.21-1.19,2.31-2.43l.39-4.05c.19.04.38.06.57.06.12,0,.25,0,.37-.03l13.03-1.84c.9-.13,1.66-.69,2.03-1.52.38-.82.31-1.77-.18-2.53l-3.23-5,1.74-2.44c.44.4,1.01.63,1.62.63.12,0,.24,0,.37-.03l45.2-7.05c.91-.14,1.68-.77,2-1.63.32-.86.15-1.84-.45-2.54l-11.89-14.03,14.87-18.59h0c.64-.81.72-1.9.21-2.79-.45-.77-1.26-1.23-2.13-1.23-.13,0-.27.01-.4.03l-22.29,3.56c-.35.06-.67.18-.96.35l.54-6.21c.07-.8-.23-1.57-.81-2.12-.48-.45-1.11-.7-1.76-.7-.14,0-.28.01-.42.03l-8.64,1.38,1.89-15.92c.09-.77-.16-1.52-.7-2.07-.48-.5-1.14-.77-1.82-.77-.08,0-.16,0-.24.01-5.74.54-9.94,1.3-12.91,2.02l5.54-9.38c.47-.79.44-1.79-.08-2.56-.45-.67-1.21-1.06-2-1.06-.11,0-.23,0-.34.02l-11.99,1.78c-9.49-18.61-26.31-28.94-29.65-30.86-.39-.22-.83-.33-1.26-.33,0,0,0,0-.01,0l.66-5.02c.14-1.06-.03-2.13-.5-3.08-2.66-5.43-12.55-8.46-17.4-9.64.5-3.01.2-7.26-4.36-9.73-1.51-.81-3.24-1.24-5.04-1.24-.22,0-.44,0-.66.02l-5.45.31c-1.97-2.01-7.04-6.36-13.68-6.36h0ZM110.86,13.59h0s0,0,0,0c0,0,0,0,0,0h0ZM77.37,57.71c-.05,0-.11-.01-.16-.02.04-.05.09-.09.13-.13l.03.15h0Z"/>
      </g>
      <g>
        <path class="cls-1" d="M33.89,137.64l-2.11,27.49c-.05.61.49,1.12,1.1,1.03l25.88-3.64c.62-.09,1.24.1,1.71.52l4.66,4.13-59.41,9.8c-.36.06-.61-.36-.38-.64l15.6-19.35c.09-.11.09-.28,0-.39l-12.86-14.78c-.39-.45-.13-1.14.45-1.23l24.44-3.79c.52-.08.97.34.93.86Z"/>
        <path class="cls-1" d="M227.83,97.69l-11.33,1.81c-.13.02-.23-.09-.22-.21l2.21-18.62c.02-.19-.14-.35-.32-.33-13.42,1.26-18.06,3.72-18.06,3.72l8.53-14.46c.07-.11-.03-.25-.15-.23l-13.34,1.98c-.16.02-.32-.06-.4-.21-9.2-19.06-26.86-29.69-29.35-31.12-.14-.08-.33,0-.35.17l-.43,2.59c-.02.13.04.25.15.32,18.32,11.4,25.59,26.04,26.71,28.49.08.18-.03.39-.23.42l-2.93.49c-.13.02-.26-.05-.32-.17-6.83-14.55-21.32-23.88-23.56-25.26-.14-.09-.32,0-.34.16l-1.03,7.79c-.02.13.02.25.1.36,2.74,3.72-.41,6.63-1.15,7.24-.1.08-.16.19-.18.31l-2.04,14.4-2.06.22,2.12-15.52c0-.06.05-.12.1-.16,3.68-2.65,1.23-5.53.73-6.05-.05-.05-.08-.13-.07-.2l3.06-23.19c.08-.62-.02-1.24-.29-1.8-2.83-5.78-17.12-8.74-18.06-8.93-.03,0-.04-.03-.03-.06,1.86-5.55-.45-8.17-2.71-9.39-1.37-.74-2.95-1.04-4.5-.95l-6.13.35c-.24.01-.47-.08-.63-.26-1.15-1.25-6.22-6.33-12.87-6.13-8.85.26-12.9,5.65-13.8,7.04-.13.21-.36.34-.61.35l-6.77.42c-1.39.09-2.75.57-3.8,1.48-3.49,3.02-1.82,8.44-1.46,9.47.03.09-.03.19-.12.21-13.79,2.9-16.4,8.6-16.85,11.24-.11.65-.08,1.31.06,1.95l4.63,20.57c.03.11,0,.23-.06.33-2.44,3.97.75,6.29,1.49,6.76.1.06.17.16.19.27l6.67,30.25c.04.17,0,.44-.07.59-.5,1.01-.64,2.72-.67,3.19,0,.07-.06.12-.13.13-.34.02-1.32.06-1.68.07-.07,0-.13-.06-.13-.13.02-1.91.43-3.19.65-3.7.06-.15.08-.31.05-.47l-6.59-29.2c-.04-.17-.14-.32-.27-.43-2.76-2.2-2.34-4.7-2.06-5.6.03-.09-.08-.15-.15-.09-11.45,10.86-15,29.29-15.44,31.85-.03.19-.15.35-.33.43l-3.21,1.55c-.11.05-.23-.04-.21-.16,3.27-22.68,16.46-36.24,18.74-38.44.21-.2.29-.49.22-.77l-.78-2.98c-.05-.19-.29-.26-.44-.13-19.3,18-21.26,40.82-21.45,44.81-.02.4-.19.77-.47,1.06-9.22,9.33-10.89,26.72-11.09,29.3-.01.19-.16.35-.34.38l-3.4.66c-.28.05-.49.29-.52.58l-2.85,34.94c-.03.35.28.63.62.57l47.66-7.75c.37-.06.74.06,1,.32,2.32,2.22,7.64,5.5,9.89,6.85.67.4,1.45.56,2.23.45,9.34-1.36,71.06-10.37,78.42-11.44.53-.08,1.02-.29,1.44-.62,3.69-2.89,8.12-9.81,8.94-11.13.09-.14.23-.24.4-.26l38.8-6.25c.17-.03.3-.16.31-.33l3.1-35.38c.02-.22-.18-.4-.4-.37ZM126.56,11.52l-17.12.75c-.16,0-.25-.19-.13-.3.97-.93,4.02-3.56,7.66-3.77,5.43-.31,8.73,2.16,9.7,3.02.12.11.05.3-.11.31Z"/>
        <path class="cls-1" d="M230.8,106.79l-2.3,28.42c-.02.22-.18.4-.4.43l-15.49,2.6c-.39.07-.75.27-1.02.56l-6.32,7.12c-.09.1,0,.26.13.24l45.2-7.05c.24-.04.34-.32.19-.5l-12.82-15.12c-.16-.18-.16-.45,0-.64l15.77-19.71c.13-.16,0-.4-.21-.37l-22.29,3.56c-.23.04-.41.23-.43.46Z"/>
      </g>
      <g>
        <path class="cls-2" d="M81.76,165.64l105.89-15.51c.3-.04.57.21.54.51l-1.39,14.26c-.02.22-.19.4-.4.43l-105.67,15.42c-.34.05-.64-.23-.61-.58l1.19-14.04c.02-.25.21-.45.46-.49Z"/>
        <path class="cls-2" d="M66.48,163.07l3.9,6.26c.13.21.12.48-.02.68l-5.12,7.25c-.13.18.02.42.24.39l13.36-1.86c.17-.02.3-.16.31-.33l.99-9.98c.05-.54.4-1,.9-1.21l9.35-3.86-1.77-1.19-21.86,3.25c-.28.04-.42.35-.27.59Z"/>
        <path class="cls-2" d="M181.19,146.6l8.37,1.04c.48.06.83.49.8.97l-.73,9.86c-.02.25.2.45.44.42l13.03-1.84c.29-.04.44-.36.28-.61l-3.79-5.86c-.17-.26-.16-.59.02-.83l5.2-7.28c.16-.23-.03-.54-.3-.49l-22.31,3.3-1.01,1.33Z"/>
      </g>
      <g>
        <path class="cls-4" d="M117.04,131.23c-.08-3.18.3-6.11.65-9.06.18-1.51.27-3.03.51-4.52.32-1.93.75-3.84,1.39-5.71.89-2.62,2.15-5.01,3.85-7.17,1.97-2.51,4.5-4.27,7.54-5.22,1.49-.47,3.06-.64,4.61-.85.54-.07.7.1.64.66-.49,4.12-.97,8.25-1.44,12.38-.43,3.78-.8,7.57-1.25,11.34-.25,2.1-.56,4.19-.71,6.3-.1,1.35-.15,2.7.85,3.81.22.25.05.48-.1.67-1.22,1.57-2.45,3.12-3.68,4.69-.41.53-.91.3-1.35.11-.84-.36-1.37-1.06-1.72-1.87-.25-.58-.45-.55-.81-.07-.75.99-1.59,1.91-2.6,2.65-2.24,1.63-4.76.83-5.63-1.8-.11-.33-.28-.63-.36-.98-.42-1.84-.45-3.7-.4-5.37ZM123.32,130.45c.19.91-.07,2.05.43,3.11.27.58.69.8,1.25.66.52-.13.94-.43,1.01-1.05.47-4,.97-7.99,1.4-12,.47-4.42.96-8.85,1.53-13.26.03-.24.15-.56-.08-.7-.25-.15-.53.08-.72.24-.93.74-1.64,1.67-2.08,2.77-.95,2.38-1.25,4.89-1.52,7.42-.15,1.38-.27,2.77-.47,4.15-.4,2.81-.65,5.63-.77,8.65Z"/>
        <path class="cls-4" d="M70.08,138.14c-.08-3.18.3-6.11.65-9.06.18-1.51.27-3.03.51-4.52.32-1.93.75-3.84,1.39-5.71.89-2.62,2.15-5.01,3.85-7.17,1.97-2.51,4.5-4.27,7.54-5.22,1.49-.47,3.06-.64,4.61-.85.54-.07.7.1.64.66-.49,4.12-.97,8.25-1.44,12.38-.43,3.78-.8,7.57-1.25,11.34-.25,2.1-.56,4.19-.71,6.3-.1,1.35-.15,2.7.85,3.81.22.25.05.48-.1.67-1.22,1.57-2.45,3.12-3.68,4.69-.41.53-.91.3-1.35.11-.84-.36-1.37-1.06-1.72-1.87-.25-.58-.45-.55-.81-.07-.75.99-1.59,1.91-2.6,2.65-2.24,1.63-4.76.83-5.63-1.8-.11-.33-.28-.63-.36-.98-.42-1.84-.45-3.7-.4-5.37ZM76.37,137.35c.19.91-.07,2.05.43,3.11.27.58.69.8,1.25.66.52-.13.94-.43,1.01-1.05.47-4,.97-7.99,1.4-12,.47-4.42.96-8.85,1.53-13.26.03-.24.15-.56-.08-.7-.25-.15-.53.08-.72.24-.93.74-1.64,1.67-2.08,2.77-.95,2.38-1.25,4.89-1.52,7.42-.15,1.38-.27,2.77-.47,4.15-.4,2.81-.65,5.63-.77,8.65Z"/>
        <path class="cls-4" d="M192.28,120.04c-.08-3.18.3-6.11.65-9.06.18-1.51.27-3.03.51-4.52.32-1.93.75-3.84,1.39-5.71.89-2.62,2.15-5.01,3.85-7.17,1.97-2.51,4.5-4.27,7.54-5.22,1.49-.47,3.06-.64,4.61-.85.54-.07.7.1.64.66-.49,4.12-.97,8.25-1.44,12.38-.43,3.78-.8,7.57-1.25,11.34-.25,2.1-.56,4.19-.71,6.3-.1,1.35-.15,2.7.85,3.81.22.25.05.48-.1.67-1.22,1.57-2.45,3.12-3.68,4.69-.41.53-.91.3-1.35.11-.84-.36-1.37-1.06-1.72-1.87-.25-.58-.45-.55-.81-.07-.75.99-1.59,1.91-2.6,2.65-2.24,1.63-4.76.83-5.63-1.8-.11-.33-.28-.63-.36-.98-.42-1.84-.45-3.7-.4-5.37ZM198.56,119.25c.19.91-.07,2.05.43,3.11.27.58.69.8,1.25.66.52-.13.94-.43,1.01-1.05.47-4,.97-7.99,1.4-12,.47-4.42.96-8.85,1.53-13.26.03-.24.15-.56-.08-.7-.25-.15-.53.08-.72.24-.93.74-1.64,1.67-2.08,2.77-.95,2.38-1.25,4.89-1.52,7.42-.15,1.38-.27,2.77-.47,4.15-.4,2.81-.65,5.63-.77,8.65Z"/>
        <path class="cls-4" d="M192.48,91.42c-.39,3.36-.79,6.72-1.17,10.08-.3,2.69-.57,5.39-.88,8.08-.33,2.81-.7,5.62-1.03,8.44-.37,3.14-.73,6.27-1.09,9.41-.06.54-.11,1.09-.12,1.64-.01.65-.39.97-.96,1.03-1.68.17-3.35.44-5.02.73-.47.08-.61-.12-.55-.59.34-2.86.64-5.73.97-8.6.44-3.8.92-7.6,1.36-11.41.32-2.74.58-5.49.89-8.24.29-2.52.62-5.03.92-7.55.09-.74.14-1.49.19-2.23.02-.35.15-.56.51-.61,1.77-.27,3.53-.59,5.31-.78.5-.05.72.09.67.6Z"/>
        <path class="cls-4" d="M188.19,85.71c-.68.17-.58-.17-.4-.59.83-1.88,1.74-3.73,2.43-5.66.38-1.06,1.01-1.3,2.01-1.45,1.28-.19,2.58-.24,3.84-.59.23-.06.53-.16.7.08.16.23-.11.4-.22.58-1.29,2.18-2.6,4.35-3.89,6.52-.25.41-.55.64-1.07.67-1.14.05-2.24.47-3.4.45Z"/>
        <path class="cls-4" d="M58.74,149.31c-3.14.14-5.59-1.1-7.37-3.66-1.02-1.46-1.62-3.1-2.08-4.82-.78-2.89-.99-5.85-.93-8.8.04-1.98.1-3.97.38-5.95.28-1.99.53-3.99.93-5.96.52-2.55,1.17-5.06,2.08-7.51.87-2.33,1.86-4.6,3.19-6.71,1.48-2.36,3.19-4.52,5.49-6.18,2.07-1.48,4.35-2.31,6.86-2.35,1.43-.03,2.84.38,4.17.95.39.17.31.47.26.75-.31,1.94-.5,3.89-.7,5.84-.03.26.07.61-.27.71-.29.09-.53-.13-.73-.31-.92-.84-1.97-1.27-3.23-1.31-1.94-.06-3.38.87-4.58,2.24-1.52,1.74-2.5,3.79-3.23,5.98-.86,2.59-1.44,5.23-1.88,7.92-.8,4.9-1.27,9.83-.95,14.78.14,2.15.31,4.38,1.74,6.22.31.39.68.71,1.05,1.05.33.3.52.17.66-.18.04-.09.05-.19.05-.29.02-1.42.3-2.82.46-4.22.23-2.05.49-4.1.73-6.15.13-1.13-.04-1.28-1.15-.99-1.67.45-1.76.38-1.57-1.26.17-1.46.35-2.91.49-4.37.04-.4.16-.55.56-.61,2.68-.41,5.35-.86,8.04-1.16.02,0,.05,0,.07-.01,1.58-.24,1.65-.23,1.48,1.4-.3,2.97-.72,5.92-1.04,8.89-.35,3.21-.75,6.42-1.1,9.62-.15,1.43-.44,2.85-.46,4.3,0,.6-.19.89-.84,1.07-2.16.61-4.35,1.02-6.6,1.08Z"/>
        <path class="cls-4" d="M162.52,94.91c2.26-.07,3.59,1.66,4.36,3.89.91,2.63.66,5.28.12,7.95-.54,2.69-1.58,5.12-3.31,7.24-1.77,2.17-3.98,3.8-6.54,4.92-.54.24-.73.53-.76,1.11-.08,2.04,0,4.02,1.01,5.88,1.11,2.03,3.35,2.8,5.47,1.82.29-.14.58-.28.87-.42.44-.22.67-.13.61.41-.17,1.61-.32,3.22-.5,4.83-.06.51-.24.91-.81,1.12-2.41.89-4.81,1.36-7.33.38-2.92-1.13-4.67-3.22-5.39-6.24-.71-2.99-.78-5.99-.48-9.04.27-2.85.54-5.7.95-8.53.59-4.1,1.59-8.1,4.09-11.53,1.72-2.36,3.98-3.78,7.62-3.8ZM161.16,104.26c-.2-.81-.18-1.75-.64-2.58-.36-.64-.55-.63-.96-.07-1.21,1.62-1.68,3.52-1.98,5.45-.27,1.74-.43,3.5-.63,5.25-.02.17-.06.36.12.47.15.09.28.02.41-.07.6-.4,1.16-.83,1.61-1.41,1.62-2.05,1.8-4.51,2.08-7.03Z"/>
        <path class="cls-4" d="M128.63,91.2c.04-2.57.3-5.11.66-7.65.17-1.21.25-2.42.44-3.63.65-4.18,2.14-7.96,5.06-11.06,1.78-1.89,3.99-3.09,6.58-3.53.76-.13,1.51-.32,2.28-.36.54-.02.69.19.62.72-.34,2.84-.65,5.69-.98,8.53-.33,2.84-.67,5.68-.99,8.52-.29,2.57-.57,5.14-.82,7.72-.08.82.06,1.64.6,2.33.26.33.22.61-.04.93-.89,1.13-1.77,2.27-2.63,3.43-.44.6-.92.58-1.47.21-.48-.32-.88-.71-1.13-1.25-.25-.55-.58-.58-.95-.05-.67.97-1.53,1.72-2.55,2.34-1.47.88-3.32-.06-3.89-1.54-.7-1.83-.77-3.74-.78-5.66ZM133.82,90.4c-.03.87.05,1.74.21,2.6.09.47.37.94.96.84.53-.09,1.01-.29,1.08-1,.39-3.78.81-7.56,1.23-11.34.33-2.96.7-5.92,1.04-8.89.03-.26.2-.61-.1-.75-.27-.13-.49.18-.69.35-.85.7-1.4,1.61-1.75,2.63-.47,1.37-.67,2.79-.85,4.22-.46,3.77-1,7.54-1.13,11.35Z"/>
        <path class="cls-4" d="M106.23,104.81c-.16,1.39-.38,3.11-.56,4.85-.06.52-.36.79-.79.98-2.99,1.33-4.92,3.66-6,6.66-.39,1.07-.36,2.3-.49,3.46-.35,2.99-.7,5.98-1.04,8.97-.29,2.52-.55,5.05-.84,7.57-.21,1.9-.43,3.81-.66,5.71-.03.29-.07.59-.48.65-1.75.24-3.49.48-5.23.76-.69.11-.82-.18-.75-.78.32-2.54.64-5.08.94-7.63.19-1.63.34-3.27.53-4.9.31-2.62.65-5.23.95-7.86.17-1.51.29-3.02.51-4.53.26-1.85.46-3.7.65-5.56.13-1.23.37-2.5-.69-3.51-.29-.28-.08-.52.08-.71,1.24-1.39,2.49-2.77,3.75-4.15.24-.27.56-.2.84-.12,1.6.43,2.22,1.09,2.55,2.74.1.49.05,1,.21,1.48.05.14.07.32.24.35.18.02.23-.16.3-.29.62-1.04,1.06-2.18,1.77-3.18.84-1.19,1.9-2.08,3.29-2.54.87-.29,1.02-.08.92,1.56Z"/>
        <path class="cls-4" d="M121.03,102.52c-.16,1.39-.38,3.11-.56,4.85-.06.52-.36.79-.79.98-2.99,1.33-4.92,3.66-6,6.66-.39,1.07-.36,2.3-.49,3.46-.35,2.99-.7,5.98-1.04,8.97-.29,2.52-.55,5.05-.84,7.57-.21,1.9-.43,3.81-.66,5.71-.03.29-.07.59-.48.65-1.75.24-3.49.48-5.23.76-.69.11-.82-.18-.75-.78.32-2.54.64-5.08.94-7.63.19-1.63.34-3.27.53-4.9.31-2.62.65-5.23.95-7.86.17-1.51.29-3.02.51-4.53.26-1.85.46-3.7.65-5.56.13-1.23.37-2.5-.69-3.51-.29-.28-.08-.52.08-.71,1.24-1.39,2.49-2.77,3.75-4.15.24-.27.56-.2.84-.12,1.6.43,2.22,1.09,2.55,2.74.1.49.05,1,.21,1.48.05.14.07.32.24.35.18.02.23-.16.3-.29.62-1.04,1.06-2.18,1.77-3.18.84-1.19,1.9-2.08,3.29-2.54.87-.29,1.02-.08.92,1.56Z"/>
        <path class="cls-4" d="M183.87,93.25c-.16,1.39-.38,3.11-.56,4.85-.06.52-.36.79-.79.98-2.99,1.33-4.92,3.66-6,6.66-.39,1.07-.36,2.3-.49,3.46-.35,2.99-.7,5.98-1.04,8.97-.29,2.52-.55,5.05-.84,7.57-.21,1.9-.43,3.81-.66,5.71-.03.29-.07.59-.48.65-1.75.24-3.49.48-5.23.76-.69.11-.82-.18-.75-.78.32-2.54.64-5.08.94-7.63.19-1.63.34-3.27.53-4.9.31-2.62.65-5.23.95-7.86.17-1.51.29-3.02.51-4.53.26-1.85.46-3.7.65-5.56.13-1.23.37-2.5-.69-3.51-.29-.28-.08-.52.08-.71,1.24-1.39,2.49-2.77,3.75-4.15.24-.27.56-.2.84-.12,1.6.43,2.22,1.09,2.55,2.74.1.49.05,1,.21,1.48.05.14.07.32.24.35.18.02.23-.16.3-.29.62-1.04,1.06-2.18,1.77-3.18.84-1.19,1.9-2.08,3.29-2.54.87-.29,1.02-.08.92,1.56Z"/>
        <path class="cls-4" d="M116.88,100.67c-.58.13-.72-.18-.65-.76.44-4.01.82-8.02,1.3-12.02.4-3.33.76-6.67,1.13-10.01.41-3.76.89-7.51,1.33-11.26.26-2.22.52-4.45.75-6.68.05-.45.22-.69.65-.76,1.65-.25,3.29-.52,4.94-.74.56-.08.52.4.45.72-.3,1.32-.23,2.68-.48,4-.28,1.52-.34,3.07-.53,4.6-.49,3.87-.8,7.77-1.27,11.65-.54,4.39-1.02,8.8-1.49,13.2-.04.39-.16.78-.2,1.17-.06.54.16.84.74.66.75-.24,1.53-.18,2.29-.34.4-.08.6.09.51.48-.32,1.41-.2,2.88-.55,4.29-.07.3-.09.55-.51.61-2.66.37-5.31.77-7.97,1.16-.12.02-.25.02-.44.04Z"/>
        <path class="cls-4" d="M143.6,92.6s-.63,1.88-.71,4.85c0,.15-.12.29-.27.31l-2.5.34c-.12.02-.2.11-.21.23l-.42,4.73c-.01.16.12.29.28.27l2.01-.24c.2-.02.37.15.35.35l-3.68,32.21s-.77,2.87-2.85,3.19c-.13.02-.24.12-.25.26l-.5,5.72c-.02.18.14.33.32.31,1.28-.16,5.8-1.02,8.3-5.16,2.16-3.59,2.16-9.84,2.16-9.84l3.15-27.95c.02-.14.13-.26.27-.28l2.46-.35c.11-.02.2-.11.21-.22l.46-4.43c.02-.16-.11-.29-.27-.27l-2.17.18c-.18.02-.34-.13-.34-.31,0-1.18.25-5.1,3.21-6.42.21-.1.36-.3.39-.54.15-1.01.53-3.67.67-4.63.03-.19-.12-.36-.32-.36-1.5.02-7.21.62-9.75,8.06Z"/>
        <path class="cls-3" d="M79.04,42.27c1.59.73,6.09,2.73,8.83,3.38.33.08.58.34.64.67l2.8,15.73c.04.25-.18.46-.43.4-1.48-.37-5.75-1.47-8.13-2.56-.31-.14-.53-.42-.6-.76l-3.56-16.52c-.06-.26.21-.47.44-.36Z"/>
        <path class="cls-3" d="M90.42,46.41l12.16,1.67c.22.03.4.21.43.43l1.92,15.23c.03.24-.16.44-.39.44-1.16-.04-4.6-.23-11.06-1.24-.32-.05-.57-.3-.62-.61l-2.7-15.62c-.03-.17.11-.31.28-.29Z"/>
        <path class="cls-3" d="M105.14,48.38l13.5.15c.27,0,.5.22.51.49l.26,4.12c.01.2-.13.37-.33.4l-3.16.45c-.38.05-.68.36-.72.74l-.95,9.33c-.03.26-.25.47-.52.46l-6.6-.07c-.37,0-.68-.29-.72-.66l-1.63-15.04c-.02-.21.14-.39.35-.39Z"/>
        <path class="cls-3" d="M121.42,48.43l13.62-1.43c.22-.02.41.15.41.36,0,1.03,0,3.96-.16,7.87-.13,3.13-.14,4.65-.13,5.34,0,.32-.17.6-.45.75-.31.17-.75.43-1.24.77-.29.21-.69-.02-.65-.38l1.1-9.84c.03-.26-.2-.49-.46-.45l-11.74,1.53c-.26.03-.5-.17-.51-.43l-.13-3.7c0-.2.14-.37.34-.39Z"/>
        <path class="cls-3" d="M137.66,46.69c1.97-.44,8.62-1.93,11.59-2.72.38-.1.75.21.71.61-.24,2.45-.88,9.86-1.27,12.95-.05.39-.34.7-.73.76l-7.93,1.22c-.45.07-.89.16-1.32.29-.52.15-1.22.36-1.69.54-.22.09-.45-.08-.44-.31l.49-12.64c.01-.34.25-.63.58-.7Z"/>
        <path class="cls-3" d="M152.37,42.88c1.77-.73,6.8-2.85,8.47-3.89.19-.12.42.04.4.26l-2.21,16.77c-.1.79-.61,1.47-1.34,1.78-1.61.69-4.46,1.88-5.99,2.32,0,0-.63,0-.38-.91s.49-1.43-.35-1.4-.59-.7-.52-1.12c.06-.36.85-10.02,1.15-12.79.05-.45.34-.84.77-1.02Z"/>
        <path class="cls-3" d="M151.07,65.87c1.11-.34,4-1.27,6.45-2.42.12-.06.26.04.24.17l-1.77,13.67c-.05.36-.32.64-.67.71-1.3.24-4.36.8-5.65,1.07-.28.06-.53-.17-.5-.46l1.39-12.12c.03-.3.24-.54.52-.63Z"/>
        <path class="cls-3" d="M84.29,66.62l7.15,1.78c.55.15.97.6,1.08,1.17l5.11,28.58c.04.21-.15.4-.36.36l-2.65-.48s-.55-.18-.79.32-.47.64-1.17.35-1.61-.67-1.61-.67c0,0-.47-.12-.73-1.52-.24-1.28-5.58-25.43-6.48-29.47-.06-.26.18-.49.44-.42Z"/>
        <path class="cls-3" d="M94.17,69.53c-.05-.28.19-.51.46-.47,1.57.23,6.19.86,10.57,1.1,0,0,.53-.18.77,1.3s2.72,24.27,2.72,24.27c0,0,.3.95-1.78,1.18s-4.44.77-5.68,1.54-1.95,1.36-2.19-.18c-.22-1.41-4.21-24.81-4.88-28.74Z"/>
        <path class="cls-3" d="M112.77,70.35c.36.01.64.33.6.69-.41,3.91-2.55,23.78-3.08,24.63-.59.95-2.6-22.08-2.84-23.8,0,0-.41-1.48.71-1.48.84,0,3.4-.08,4.61-.04Z"/>
        <path class="cls-3" d="M79.36,33.15s-1.72,1.46-1.93,2.43.15,1.88.15,1.88l.48,1.53s0,.54.73.08,2.16-1.36,2.16-1.36c0,0,.31-.13.13-.98s-.75-3.24-.75-3.24c0,0-.36-.84-.96-.33Z"/>
        <path class="cls-3" d="M84.03,28.96s.54-.54.75-.25.42,1.41.42,1.41c0,0,.25.67-.25,1.03s-1.67.96-2.22,1.93c-.32.57-.44.94-.48,1.15-.01.06-.09.08-.12.02-.25-.5-.88-1.85-.69-2.74.07-.35.77-1.05,2.6-2.54Z"/>
        <path class="cls-3" d="M87.04,27.41s-.48.13-.42.71.27,1.65.27,1.65c0,0,.15.33.63.17s4.04-1.4,4.04-1.4c0,0,.19-.13-.27-.4s-1.95-1.07-1.95-1.07c0,0-.57-.4-2.3.33Z"/>
        <path class="cls-3" d="M93.45,25.61l-1.93.38s-.56.16-.26.51,1.6,1.31,2.12,1.55.96-.43.85-1.12-.07-1.43-.78-1.31Z"/>
        <path class="cls-3" d="M94.27,29.36s.13,3.02.13,3.11-.13.41-.28-.41-.28-1.94-.33-2.2.09-.41.48-.5Z"/>
        <path class="cls-3" d="M92.53,30.21s-.07-.37-.67-.22-5.72,1.78-7.33,3.66.83,3.29.83,3.29c0,0,1.63,1.2,4.79,2s3.52.81,3.52.81c0,0,.41.22.3-.52s-1.44-9.01-1.44-9.01Z"/>
        <path class="cls-3" d="M83.15,38.41s-.5-.45-1.15.07-.7.8-1.69,1.35.02,1.06.02,1.06c0,0,4.27,2.08,7.61,2.89,0,0,.72.19,1.63-.43s2.63-1.82,2.63-1.82c0,0,.39-.17-.2-.3s-4.64-.89-8.85-2.84Z"/>
        <path class="cls-3" d="M95.04,41.75s-.82-.26-1.34.07-2.63,2.15-2.63,2.15c0,0-.61.48.3.65s8.7,1.34,11.78,1.52c0,0,.5.11.91-.37s1.73-2.34,1.73-2.34c0,0,.52-.7-.76-.67s-4.67-.32-9.98-1.02Z"/>
        <path class="cls-3" d="M108.57,42.94s-1.06.02-1.48.69-1.21,2.21-1.21,2.21c0,0-.48.61.78.65s10.65.07,11.48.02,1.08.06,1.13-.87.17-2.02.17-2.02c0,0,.09-.69-.7-.65s-8.4.04-10.17-.02Z"/>
        <path class="cls-3" d="M131.3,42.04s.91-.26,1.38.36.99,1.84,1.56,2.36c0,0,.49.6-.68.6s-5.11.6-6.83.68-3.74.13-4.08.21-1.64.6-1.74-.34-.36-2.39-.36-2.39c0,0-.29-.7.55-.75s5.63-.29,10.2-.73Z"/>
        <path class="cls-3" d="M144.69,39.78s-6.93,1.61-8.67,1.74-2.16.13-2.05.57,2.1,2.49,2.1,2.49c0,0,.18.26,1.01.18s9.97-1.92,11.16-2.28.88-.57.36-.91-1.95-1.43-1.95-1.43c0,0-.52-.57-1.97-.36Z"/>
        <path class="cls-3" d="M144.04,24.02s-.06-.78.59-.62,2.08.19,2.3.35.38.41-.49,1.06-1.16,1.25-1.84,1.16-.56-1.95-.56-1.95Z"/>
        <path class="cls-3" d="M144.98,27.66c0-.12-.09-.22-.2-.23-.18-.02-.44-.04-.59.01-.24.08.29,4,.41,4.14s.25-1.23.29-1.59c.03-.3.11-1.78.1-2.33Z"/>
        <path class="cls-3" d="M146.88,27.77s-.71-.3-.76.64-.54,8.63-.54,8.63c0,0-.24.78.86.51s6.18-1.84,7.96-3.73.03-2.97-.95-3.72-3.6-1.84-6.57-2.33Z"/>
        <path class="cls-3" d="M147.51,39.06s-.4.15.11.44,3.29,1.71,3.29,1.71c0,0,.24.29,1.18-.04s3.93-1.63,5.05-2.2,2.33-1.32,2.52-1.49.04-.44-.4-.77-1.52-.92-1.74-1.18-.73-.51-1.36-.04-4.48,2.24-5.71,2.59-2.92.97-2.92.97Z"/>
        <path class="cls-3" d="M159.41,29.48s-.66-.39-.7.11-.6,4-.6,4c0,0-.25.62.51,1.05s2.3,1.3,2.3,1.3c0,0,.36.31.49-.44s.65-3.17.65-3.17c0,0,.09-.86-.37-1.21-.52-.39-1.34-1.14-2.28-1.63Z"/>
        <path class="cls-3" d="M154.5,26.11s-.45-.35-.58.11-.26,1.47-.26,1.47c0,0-.19.45.8.99s1.86,1.4,2.01,1.79.43.56.56.58.17.19.22-.45.19-1.71.24-1.97.04-.54-.58-.99-2.4-1.53-2.4-1.53Z"/>
        <path class="cls-3" d="M147.27,25.96s-.44.18-.23.27,2.04.64,2.62.76.9.2,1.31.32.82.14.9-.43.27-1.79-.11-1.99-1.03-.07-1.31-.27-1.01-.25-1.22-.14-1.97,1.47-1.97,1.47Z"/>
        <g>
          <path class="cls-3" d="M95.34,159.69c-.06,0-.11,0-.14-.03-.04-.03-.05-.06-.05-.11l.48-4.57c0-.05.02-.1.06-.13s.09-.06.14-.07l.62-.09c.08-.01.13,0,.17.02.03.02.06.04.06.06l2.05,2.81.32-3.11c0-.05.03-.1.07-.13.04-.04.09-.06.15-.07l.69-.1c.06,0,.11,0,.14.03.03.03.05.07.04.12l-.47,4.56c0,.05-.02.1-.06.13s-.09.06-.15.07l-.62.09c-.08.01-.13,0-.16-.02-.03-.02-.05-.04-.07-.06l-2.04-2.74-.31,3.04s-.03.09-.06.13c-.04.04-.09.06-.15.07l-.7.1Z"/>
          <path class="cls-3" d="M101.13,158.83c-.05,0-.1,0-.13-.03s-.05-.06-.05-.11l.48-4.57s.03-.09.06-.13c.04-.04.09-.06.15-.07l.77-.12c.05,0,.1,0,.14.03.04.03.05.06.05.11l-.48,4.57s-.03.09-.06.13c-.04.04-.09.06-.14.07l-.78.12Z"/>
          <path class="cls-3" d="M103.58,158.46c-.06,0-.11,0-.14-.03s-.05-.06-.05-.11l.48-4.57c0-.05.02-.1.06-.13.04-.04.09-.06.15-.07l3.6-.54c.06,0,.11,0,.14.03.03.03.05.07.04.12l-.05.46s-.03.09-.06.13c-.04.04-.09.06-.15.07l-2.69.4-.13,1.24,2.51-.38c.06,0,.11,0,.14.02.03.03.05.06.04.11l-.04.43c0,.05-.02.09-.06.13-.04.04-.09.06-.15.07l-2.51.38-.14,1.28,2.77-.42c.06,0,.11,0,.14.03s.05.07.04.12l-.05.46s-.03.09-.06.13-.09.06-.15.07l-3.67.55Z"/>
          <path class="cls-3" d="M110.06,157.48c-.09.01-.15,0-.2-.03-.05-.03-.08-.07-.09-.12l-1.29-4.27c-.01-.06,0-.1.03-.14.03-.03.07-.06.13-.06l.7-.11c.08-.01.13,0,.17.02.04.03.06.06.07.09l1.01,3.4,1.75-3.82s.04-.07.08-.11c.04-.04.1-.07.18-.08l.79-.12c.07-.01.11,0,.14.05.03.04.03.09,0,.14l-2.21,4.76c-.03.06-.07.11-.12.16-.05.04-.12.07-.21.09l-.92.14Z"/>
          <path class="cls-3" d="M114.12,156.87c-.06,0-.11,0-.14-.03s-.05-.06-.05-.11l.48-4.57c0-.05.02-.1.06-.13.04-.04.09-.06.15-.07l3.6-.54c.06,0,.11,0,.14.03.03.03.05.07.04.12l-.05.46s-.03.09-.06.13c-.04.04-.09.06-.15.07l-2.69.4-.13,1.24,2.51-.38c.06,0,.11,0,.14.02s.05.06.04.11l-.04.43c0,.05-.02.09-.06.13-.04.04-.09.06-.15.07l-2.51.38-.14,1.28,2.77-.42c.06,0,.11,0,.14.03.03.03.05.07.04.12l-.05.46s-.03.09-.06.13c-.04.04-.09.06-.15.07l-3.67.55Z"/>
          <path class="cls-3" d="M121.07,155.9c-.51.08-.93.08-1.27,0-.34-.07-.6-.2-.77-.38-.17-.18-.26-.38-.25-.62,0-.04.01-.08.05-.11.03-.03.07-.05.12-.06l.75-.11c.07,0,.12,0,.15.02.03.02.06.05.08.08.03.08.09.16.17.23.08.07.2.12.35.16s.34.03.57,0c.39-.06.7-.16.91-.3.21-.14.33-.31.35-.5.01-.14-.03-.24-.12-.3-.09-.07-.25-.12-.46-.15s-.49-.06-.83-.09c-.39-.02-.72-.08-.99-.17-.26-.09-.46-.22-.57-.4-.12-.18-.16-.4-.13-.68.04-.41.24-.76.62-1.05s.89-.49,1.55-.59c.34-.05.65-.06.92-.02.27.04.5.11.68.21.19.1.33.22.42.36.09.14.14.28.13.42,0,.04-.01.07-.04.11-.03.03-.07.06-.12.06l-.78.12s-.09,0-.14,0c-.04-.01-.07-.04-.1-.09-.02-.14-.11-.25-.28-.32-.17-.08-.39-.09-.65-.05-.29.04-.54.13-.74.25-.2.12-.31.28-.33.48,0,.13.03.23.1.31.08.07.21.13.4.16.19.04.45.07.78.09.46.02.83.07,1.11.15.28.09.48.21.6.38.12.17.17.39.13.67-.04.46-.27.83-.68,1.13-.41.29-.97.5-1.7.6Z"/>
          <path class="cls-3" d="M126.35,155.04c-.06,0-.11,0-.14-.03-.04-.03-.05-.06-.05-.11l.48-4.57c0-.05.02-.1.06-.13.04-.04.09-.06.15-.07l1.87-.28c.36-.05.69-.06.99-.03.3.04.56.12.77.24.21.13.38.3.49.52.11.22.16.48.13.79-.02.21-.04.39-.05.55-.01.16-.04.34-.07.54-.06.44-.18.81-.36,1.11-.18.31-.44.55-.78.74-.34.19-.79.32-1.36.41l-2.14.32ZM127.37,154.09l1.05-.16c.31-.05.56-.12.76-.22.2-.1.35-.24.46-.42.11-.18.18-.4.21-.68.02-.14.04-.26.05-.37.01-.11.02-.21.03-.32,0-.1.02-.22.03-.36.03-.38-.05-.65-.24-.8-.19-.15-.52-.19-.99-.12l-1.01.15-.34,3.3Z"/>
          <path class="cls-3" d="M132.1,154.17c-.06,0-.11,0-.14-.03-.03-.03-.05-.06-.05-.11l.48-4.57c0-.05.02-.1.06-.13.04-.04.09-.06.15-.07l3.6-.54c.06,0,.11,0,.14.03.03.03.05.07.04.12l-.05.46s-.03.09-.06.13c-.04.04-.09.06-.15.07l-2.69.4-.13,1.24,2.51-.38c.06,0,.11,0,.14.02s.05.06.04.11l-.04.43c0,.05-.02.09-.06.13-.04.04-.09.06-.15.07l-2.51.38-.14,1.28,2.77-.42c.06,0,.11,0,.14.03.03.03.05.07.04.12l-.05.46s-.03.09-.06.13c-.04.04-.09.06-.15.07l-3.67.55Z"/>
          <path class="cls-3" d="M141.22,152.87c-.5.08-.92.06-1.26-.03s-.59-.27-.75-.53c-.16-.25-.23-.58-.21-.97.01-.2.03-.42.06-.65.02-.23.05-.45.08-.66.05-.39.19-.74.42-1.04.22-.31.52-.56.89-.76.37-.2.8-.34,1.29-.42.4-.06.74-.07,1.03-.02s.53.13.71.24c.18.11.32.24.4.39.08.15.12.29.12.43,0,.04-.02.08-.05.11-.04.03-.08.05-.14.06l-.84.13s-.09,0-.11-.01c-.03-.01-.05-.04-.07-.07-.03-.09-.08-.18-.16-.26-.08-.08-.2-.14-.35-.18-.15-.04-.36-.04-.61,0-.37.06-.68.18-.92.39-.24.2-.39.5-.44.89-.03.2-.06.41-.08.62-.02.21-.04.41-.05.62-.02.39.08.66.28.8.21.14.5.18.87.12.25-.04.47-.11.67-.21s.37-.24.49-.42c.13-.18.2-.39.23-.63l.03-.22-1.01.15c-.05,0-.1,0-.13-.03-.03-.03-.05-.07-.04-.12l.04-.37c0-.05.03-.1.07-.13s.09-.06.14-.07l1.96-.29c.06,0,.11,0,.14.03.03.03.05.07.04.12l-.07.74c-.04.39-.17.75-.4,1.06-.23.32-.54.58-.92.79s-.83.35-1.33.43Z"/>
          <path class="cls-3" d="M144.17,152.36c-.07.01-.12,0-.15-.05-.03-.04-.03-.09,0-.14l2.44-4.82c.03-.05.06-.1.11-.14.05-.04.11-.07.19-.08l.95-.14c.08-.01.14,0,.19.02.04.03.07.06.08.11l1.51,4.23c.02.06.02.11-.01.15-.03.04-.07.07-.13.08l-.7.1c-.08.01-.13,0-.17-.02-.04-.02-.06-.06-.08-.1l-.3-.77-2.43.37-.47.91s-.05.07-.09.1c-.04.03-.09.06-.16.07l-.75.11ZM146.01,150.32l1.87-.28-.71-2.03-1.16,2.31Z"/>
          <path class="cls-3" d="M150.52,151.41c-.05,0-.1,0-.13-.03-.03-.03-.05-.06-.04-.11l.47-4.56c0-.05.03-.1.07-.13s.09-.06.14-.07l2.12-.32c.66-.1,1.17-.05,1.52.16.35.21.5.56.45,1.06-.04.35-.16.65-.38.91-.22.26-.5.46-.85.62l1.01,1.61s.01.02.01.04c0,.01,0,.02,0,.04,0,.04-.02.08-.06.11-.04.03-.08.05-.12.06l-.74.11c-.09.01-.16,0-.2-.03-.04-.04-.08-.07-.1-.11l-.88-1.5-1.14.17-.17,1.68s-.03.09-.07.13c-.04.04-.09.06-.15.07l-.74.11ZM151.74,148.62l1.15-.17c.33-.05.59-.15.77-.3s.28-.35.3-.58c.03-.23-.03-.41-.18-.51-.15-.11-.39-.14-.73-.09l-1.15.17-.15,1.49Z"/>
          <path class="cls-3" d="M156.02,150.58c-.05,0-.1,0-.13-.03s-.05-.06-.04-.11l.47-4.56c0-.05.03-.1.07-.13.04-.04.09-.06.14-.07l2.12-.32c.66-.1,1.17-.05,1.52.16.35.2.5.56.45,1.06-.04.35-.16.65-.38.91-.22.26-.5.46-.85.62l1.01,1.61s.01.02.01.04c0,.01,0,.02,0,.04,0,.04-.02.08-.06.11-.04.03-.08.05-.12.06l-.74.11c-.09.01-.16,0-.2-.03-.04-.04-.08-.07-.1-.11l-.88-1.5-1.14.17-.17,1.68s-.03.09-.07.13c-.04.04-.09.06-.15.07l-.74.11ZM157.25,147.8l1.15-.17c.33-.05.59-.15.77-.3.18-.15.28-.35.3-.58.03-.23-.03-.41-.18-.51-.15-.11-.39-.14-.73-.09l-1.15.17-.15,1.49Z"/>
          <path class="cls-3" d="M160.89,149.85c-.07.01-.12,0-.15-.05-.03-.04-.03-.09,0-.14l2.44-4.82c.03-.05.06-.1.11-.14s.11-.07.19-.08l.95-.14c.08-.01.14,0,.19.02.04.03.07.06.08.11l1.51,4.23c.02.06.02.11-.01.15s-.07.07-.13.08l-.7.1c-.08.01-.13,0-.17-.02-.04-.02-.06-.06-.08-.1l-.3-.77-2.43.36-.47.91s-.05.07-.09.1c-.04.03-.09.05-.16.07l-.75.11ZM162.73,147.81l1.87-.28-.71-2.03-1.16,2.31Z"/>
          <path class="cls-3" d="M167.13,148.91c-.06,0-.11,0-.14-.03-.03-.03-.05-.06-.05-.11l.48-4.57c0-.05.02-.1.06-.13.04-.04.09-.06.15-.07l3.55-.53c.06,0,.11,0,.14.03.03.03.05.07.04.12l-.05.49c0,.05-.02.09-.06.13-.04.04-.09.06-.15.07l-2.63.39-.14,1.33,2.46-.37c.06,0,.11,0,.14.03s.05.07.04.12l-.04.49s-.03.09-.07.13-.09.06-.15.07l-2.46.37-.18,1.74s-.03.09-.06.13c-.04.04-.09.06-.15.07l-.72.11Z"/>
          <path class="cls-3" d="M171.26,148.29c-.07.01-.12,0-.15-.05-.03-.04-.03-.09,0-.14l2.44-4.82s.06-.1.11-.14.11-.07.19-.08l.95-.14c.08-.01.14,0,.19.02.04.03.07.06.08.11l1.51,4.23c.02.06.02.11-.01.15-.03.04-.07.07-.13.08l-.7.1c-.08.01-.13,0-.17-.02-.04-.02-.06-.06-.08-.1l-.3-.77-2.43.36-.47.91s-.05.07-.09.1c-.04.03-.09.06-.16.07l-.75.11ZM173.11,146.25l1.87-.28-.71-2.03-1.16,2.31Z"/>
        </g>
        <g>
          <path class="cls-3" d="M117.83,170.36c-.06,0-.11,0-.14-.03-.03-.03-.05-.06-.05-.11l.5-4.56c0-.05.02-.1.06-.13.04-.04.09-.06.15-.07l3.6-.53c.06,0,.11,0,.14.03.03.03.05.07.04.12l-.05.46s-.03.09-.06.13c-.04.04-.09.06-.15.07l-2.69.39-.14,1.24,2.51-.37c.06,0,.11,0,.14.02.03.03.05.06.04.11l-.05.43c0,.05-.03.09-.06.13-.04.04-.09.06-.15.07l-2.51.37-.15,1.28,2.77-.4c.06,0,.11,0,.14.03.03.03.05.07.04.12l-.05.46s-.03.09-.06.13c-.04.04-.09.06-.15.07l-3.67.54Z"/>
          <path class="cls-3" d="M124.79,169.41c-.51.07-.93.07-1.27,0-.34-.07-.6-.2-.77-.38-.17-.18-.26-.38-.24-.62,0-.04.01-.08.05-.11.03-.03.07-.05.12-.06l.75-.11c.07,0,.12,0,.15.02.03.02.06.05.08.08.03.08.08.16.17.23.08.07.2.13.35.16.15.03.34.03.57,0,.39-.06.7-.16.91-.3.21-.14.33-.31.35-.5.01-.13-.03-.24-.12-.3-.09-.07-.25-.12-.46-.15-.21-.04-.49-.07-.83-.09-.39-.03-.72-.08-.99-.17-.26-.09-.46-.22-.57-.4-.12-.18-.16-.4-.13-.68.04-.41.25-.75.62-1.05.37-.29.89-.49,1.55-.58.34-.05.65-.05.92-.01.27.04.5.11.68.22.19.1.33.22.42.36s.13.28.13.42c0,.04-.01.07-.04.11-.03.03-.07.06-.12.06l-.78.11s-.09,0-.13,0-.07-.04-.1-.09c-.02-.14-.11-.25-.28-.33-.17-.08-.39-.1-.65-.06-.29.04-.54.12-.74.25-.2.12-.31.28-.34.48,0,.13.03.23.1.31.08.07.21.13.4.17.19.04.45.07.77.09.46.02.83.07,1.11.16.28.09.48.21.6.39s.16.39.13.67c-.04.46-.27.83-.68,1.12-.41.29-.98.49-1.7.6Z"/>
          <path class="cls-3" d="M129.31,168.68c-.05,0-.1,0-.13-.03-.03-.03-.05-.06-.05-.11l.42-3.88-1.51.22c-.06,0-.11,0-.14-.03s-.05-.06-.05-.11l.06-.52c0-.05.03-.1.07-.13.04-.04.09-.06.14-.07l4.18-.61c.06,0,.11,0,.14.03.03.03.05.07.05.12l-.06.52s-.03.09-.07.13c-.04.04-.09.06-.15.07l-1.51.22-.42,3.88s-.03.09-.07.13c-.04.04-.09.06-.15.07l-.75.11Z"/>
          <path class="cls-3" d="M134.56,167.92c-.05,0-.1,0-.13-.03s-.05-.06-.05-.11l.04-.36s.02-.09.05-.16c.03-.06.09-.13.19-.2l1.42-1.29c.38-.29.69-.54.93-.75.24-.2.42-.38.54-.54.12-.16.19-.31.2-.45.02-.21-.03-.37-.15-.48-.12-.11-.33-.15-.62-.1-.19.03-.35.08-.49.17-.14.09-.25.19-.33.31-.09.12-.15.25-.19.39-.02.06-.06.11-.11.14-.05.03-.1.05-.15.06l-.72.11c-.05,0-.1,0-.12-.02-.03-.02-.04-.05-.03-.09.03-.2.1-.4.21-.61.11-.2.27-.39.46-.56.19-.17.42-.32.69-.45.26-.13.56-.21.89-.26.45-.07.81-.05,1.1.03.29.09.49.23.62.43.13.2.17.44.14.72-.02.22-.1.43-.21.63-.12.2-.28.4-.49.6-.21.2-.45.4-.73.62l-1.27,1.18,2.33-.34c.06,0,.11,0,.14.02.03.03.05.06.04.11l-.04.5s-.03.09-.07.13c-.04.04-.09.06-.15.07l-3.91.57Z"/>
          <path class="cls-3" d="M141.72,166.94c-.45.07-.84.05-1.16-.04-.32-.1-.56-.27-.72-.52-.16-.25-.23-.58-.21-.98,0-.13.02-.28.03-.42.01-.15.03-.3.05-.45s.04-.3.07-.43c.06-.4.18-.75.37-1.05.18-.3.44-.55.76-.73.32-.19.71-.32,1.18-.39.45-.07.84-.05,1.16.04.32.1.56.27.73.52s.24.57.22.96c0,.13-.02.28-.03.43-.01.15-.03.3-.05.45-.02.15-.04.29-.06.43-.06.41-.18.76-.36,1.06-.18.3-.43.55-.75.74-.32.19-.72.32-1.21.39ZM141.68,166.15c.34-.05.61-.18.81-.38.2-.21.32-.5.38-.88.02-.14.05-.27.06-.41.02-.14.03-.28.04-.41.01-.14.02-.27.03-.4.02-.37-.03-.64-.16-.8-.13-.16-.38-.21-.73-.16-.35.05-.62.18-.81.39-.19.21-.31.5-.37.88-.02.13-.04.27-.06.41-.02.14-.03.28-.04.41-.01.14-.02.27-.04.41-.02.38.03.64.16.8.13.16.37.21.72.16Z"/>
          <path class="cls-3" d="M146.56,166.17c-.06,0-.11,0-.14-.03-.03-.03-.05-.06-.05-.11l.38-3.56-1.29.97c-.05.04-.1.05-.15.05s-.09-.02-.12-.05l-.34-.36s-.03-.08-.02-.13c0-.05.04-.09.1-.12l1.97-1.48s.06-.05.09-.05c.02,0,.06-.02.1-.02l.74-.11c.05,0,.1,0,.13.03.03.03.05.06.05.11l-.49,4.57s-.03.09-.07.13c-.04.04-.09.06-.14.07l-.74.11Z"/>
          <path class="cls-3" d="M150.8,165.62c-.47.07-.87.05-1.19-.05-.32-.1-.56-.27-.72-.5s-.22-.51-.18-.83c.01-.14.05-.29.11-.43.06-.14.13-.28.21-.41s.16-.25.24-.36c.08-.11.15-.19.21-.25l1.69-1.98s.06-.06.11-.1c.05-.04.11-.07.18-.08l.76-.11s.09,0,.12.03c.03.03.04.06.04.1,0,.02,0,.04-.02.05s-.02.03-.03.04l-1.3,1.53c.05-.02.11-.04.18-.05.07-.01.13-.03.17-.03.28-.04.54-.03.77.02.23.05.44.14.61.26.17.12.3.28.38.46.08.19.11.4.08.64-.03.31-.15.61-.35.9-.21.29-.49.54-.84.75-.35.21-.77.35-1.24.41ZM150.89,164.81c.19-.03.37-.09.55-.18.18-.09.32-.22.44-.37.12-.15.19-.33.21-.53.02-.2-.01-.36-.1-.48-.09-.12-.21-.2-.37-.25-.16-.05-.34-.05-.53-.03-.2.03-.38.09-.56.19-.18.09-.32.22-.44.37-.12.15-.19.32-.21.52-.02.2.01.36.1.48s.21.2.38.25c.16.05.34.05.54.02Z"/>
        </g>
      </g>
    </g>
  </g>
</svg>