<?xml version="1.0" encoding="UTF-8"?>
<svg id="Layer_2" data-name="Layer 2" xmlns="http://www.w3.org/2000/svg" viewBox="0 0 312.87 115.27">
  <defs>
    <style>
      .cls-1 {
        fill: #afafc2;
      }
    </style>
  </defs>
  <g id="Layer_1-2" data-name="Layer 1">
    <g>
      <g>
        <path class="cls-1" d="M79.21,55.26l-2.85-6.27c-.47-.91-1.4-1.48-2.42-1.49l-.88-.04-8.2-.04h-1.21c-1.2,0-2.02-1.28-2.02-1.28l-2.48-3.3L26.1.98c-.4-.61-1.06-.92-1.98-.93L15.59,0c-.61,0-1.02.17-1.22.53-.21.36-.11.79.29,1.3l18.14,21.84L6.98,71.02c-.21.4-.31.71-.31.91,0,.61.45.92,1.37.92l8.84.06c.91,0,1.53-.35,1.83-1.05l20.54-37.03.8-1.42,2.24,3.01,6.21,8.15,7.95,10.22c1.35,2.21,3.33,2.06,3.33,2.06l3.5.02,14.89.11c.89,0,1.47-.94,1.06-1.73Z"/>
        <path class="cls-1" d="M54.21,81.83c-.79,0-1.52-.36-2.01-1l-16.69-22.48c-.95-1.25-1.07-2.96-.3-4.33l5.21-9.32,18.22,25.46c.82,1.11,1.01,2.59.49,3.87l-2.53,6.22c-.35.86-1.11,1.45-2.03,1.57-.12.02-.24.02-.36.02Z"/>
        <path class="cls-1" d="M67.18,38.45c-1.64,0-3.16-1.13-3.96-2.08l-7.85-10,28.05.23h2.49c1.3-.07,2.68.71,3.41,1.88l3.51,5.73c.48.79.51,1.75.06,2.57s-1.26,1.31-2.19,1.33l-23.51.34Z"/>
      </g>
      <g>
        <path class="cls-1" d="M114.58,76.65l.25-74.73c0-.73.37-1.1,1.1-1.1l8.35.03c.73,0,1.1.37,1.1,1.1l-.22,66.26c0,.29.14.44.44.44l31.21.1c.73,0,1.1.37,1.1,1.1l-.02,6.92c0,.73-.37,1.1-1.1,1.1l-41.1-.14c-.73,0-1.1-.37-1.1-1.1Z"/>
        <path class="cls-1" d="M211.29,10.27l-31.87-.11c-.29,0-.44.15-.44.44l-.08,23.74c0,.29.14.44.44.44l20.99.07c.73,0,1.1.37,1.1,1.1l-.02,6.92c0,.73-.37,1.1-1.1,1.1l-20.99-.07c-.29,0-.44.15-.44.44l-.08,24.07c0,.29.14.44.44.44l31.87.11c.73,0,1.1.37,1.1,1.1l-.02,6.92c0,.73-.37,1.1-1.1,1.1l-41.76-.14c-.73,0-1.1-.37-1.1-1.1l.25-74.73c0-.73.37-1.1,1.1-1.1l41.76.14c.73,0,1.1.37,1.1,1.1l-.02,6.92c0,.73-.37,1.1-1.1,1.1Z"/>
        <path class="cls-1" d="M224.8,77.02l.25-74.73c0-.73.37-1.1,1.1-1.1l8.35.03c.73,0,1.1.37,1.1,1.1l-.25,74.73c0,.73-.37,1.1-1.1,1.1l-8.35-.03c-.73,0-1.1-.37-1.1-1.1Z"/>
        <path class="cls-1" d="M251.18,77.11l.25-74.73c0-.73.37-1.1,1.1-1.1l8.35.03c.73,0,1.1.37,1.1,1.1l-.11,34.07c0,.15.07.24.22.28.15.04.26-.02.33-.16l25.28-34.53c.29-.44.73-.66,1.32-.65l9.12.03c.44,0,.75.15.94.44.18.29.12.59-.17.88l-21.53,30.59c-.07.22-.08.44,0,.66l23.04,43.04c.07.15.11.33.11.55s-.09.4-.28.55c-.18.15-.42.22-.71.22l-9.34-.03c-.66,0-1.1-.26-1.32-.77l-18.89-35.23c-.15-.44-.33-.48-.55-.11l-7.39,9.65c-.15.15-.22.33-.22.55l-.08,24.73c0,.73-.37,1.1-1.1,1.1l-8.35-.03c-.73,0-1.1-.37-1.1-1.1Z"/>
      </g>
      <g>
        <path class="cls-1" d="M10.49,112.31l-.9-2.78c-.03-.06-.07-.09-.11-.09l-6.78-.02s-.08.03-.11.09l-.9,2.77c-.05.17-.15.25-.32.25H.27c-.11,0-.18-.03-.23-.1-.04-.06-.05-.14-.02-.25l5.06-15.32c.05-.17.15-.25.32-.25h1.45c.17,0,.27.09.32.26l4.98,15.36s.02.07.02.11c0,.06-.03.11-.08.16-.05.05-.12.07-.19.07h-1.09c-.17,0-.27-.09-.32-.26ZM3.17,108.1l5.85.02c.09,0,.12-.05.09-.14l-2.93-9.32c-.01-.06-.04-.09-.07-.09-.03,0-.05.03-.07.09l-2.97,9.3c-.02.09.01.14.09.14Z"/>
        <path class="cls-1" d="M24.6,112.39l-3.3-7.02c-.03-.06-.08-.09-.14-.09h-3.8c-.08-.01-.11.03-.11.1l-.02,6.92c0,.2-.1.3-.3.3h-1.02c-.2,0-.3-.1-.3-.3l.05-15.36c0-.2.1-.3.3-.3l5.83.02c1.31,0,2.36.41,3.16,1.22.8.81,1.2,1.86,1.2,3.17,0,1.06-.29,1.96-.86,2.69-.57.73-1.35,1.21-2.34,1.44-.08.01-.1.06-.07.14l3.37,6.98c.03.06.05.11.05.14,0,.14-.09.2-.27.2h-1.05c-.17,0-.29-.08-.36-.23ZM17.27,98.16l-.02,5.69c0,.08.04.11.11.11h4.21c.88.02,1.59-.25,2.14-.79s.82-1.25.83-2.13-.27-1.6-.81-2.15-1.26-.83-2.14-.84h-4.21c-.08-.01-.11.02-.11.1Z"/>
        <path class="cls-1" d="M37.22,97.19c.79.44,1.41,1.04,1.84,1.82s.64,1.67.64,2.69l-.02,6.1c0,1.35-.4,2.48-1.18,3.37-.78.9-1.83,1.43-3.13,1.59-.08.03-.11.08-.11.14v2.07c0,.2-.11.3-.3.3h-1.02c-.2,0-.29-.1-.29-.3v-2.07c0-.06-.03-.11-.11-.14-1.32-.17-2.37-.71-3.15-1.62-.78-.9-1.16-2.03-1.16-3.38l.02-6.1c0-1.02.22-1.91.66-2.68s1.05-1.37,1.85-1.8c.8-.43,1.71-.64,2.74-.64s1.95.22,2.74.66ZM38.08,101.62c0-1.09-.33-1.98-.99-2.66-.66-.68-1.54-1.02-2.61-1.02s-1.95.33-2.62,1c-.67.67-1.01,1.56-1.01,2.65l-.02,6.14c0,1.09.33,1.98.99,2.66.67.68,1.54,1.02,2.61,1.02s1.95-.33,2.62-1,1.01-1.55,1.01-2.65l.02-6.14Z"/>
        <path class="cls-1" d="M46.01,112.23c-.82-.43-1.45-1.02-1.91-1.79s-.68-1.66-.67-2.68l.04-10.72c0-.2.1-.29.29-.29h1.02c.2,0,.3.1.3.3l-.04,10.77c0,1.08.34,1.95,1.04,2.63.69.68,1.61,1.02,2.75,1.02s2.06-.33,2.76-1,1.05-1.55,1.06-2.62l.04-10.77c0-.2.1-.29.3-.29h1.02c.2,0,.29.1.29.3l-.04,10.72c0,1.02-.23,1.91-.68,2.67-.45.76-1.09,1.36-1.91,1.78-.82.42-1.77.63-2.85.63s-2-.22-2.82-.65Z"/>
        <path class="cls-1" d="M58.82,112.43l.05-15.34c0-.2.1-.29.3-.29h1.02c.2,0,.3.1.3.3l-.05,15.34c0,.2-.1.3-.3.3h-1.02c-.2,0-.3-.1-.3-.3Z"/>
        <path class="cls-1" d="M75.08,97.14v.84c0,.2-.1.3-.3.3h-4.37c-.07-.01-.11.02-.11.1l-.05,14.09c0,.2-.1.3-.3.3h-1.02c-.2,0-.3-.1-.3-.3l.05-14.09c0-.07-.04-.11-.11-.11h-4.19c-.2-.01-.3-.11-.3-.31v-.84c0-.2.1-.29.3-.29l10.4.03c.2,0,.3.1.3.29Z"/>
        <path class="cls-1" d="M88.68,98.31l-8.28-.03c-.08,0-.11.04-.11.11l-.02,5.58c0,.08.04.11.11.11l5.78.02c.2,0,.29.1.29.3v.82c0,.2-.1.29-.3.29l-5.78-.02c-.08,0-.11.04-.11.11l-.02,5.67c0,.08.04.11.11.11l8.28.03c.2,0,.3.1.3.3v.82c0,.2-.1.3-.3.3l-9.72-.03c-.2,0-.3-.1-.3-.3l.05-15.34c0-.2.1-.29.3-.29l9.72.03c.2,0,.3.1.3.29v.82c0,.2-.1.3-.3.3Z"/>
        <path class="cls-1" d="M94.92,112.42c-.8-.42-1.43-1.01-1.87-1.78-.44-.77-.66-1.65-.66-2.65l.02-6.26c0-.99.23-1.86.68-2.61.45-.76,1.08-1.34,1.89-1.76.8-.41,1.74-.62,2.8-.62s1.99.21,2.8.62c.8.41,1.43.99,1.87,1.73s.67,1.6.66,2.57c0,.14-.1.22-.3.25l-1.02.07h-.07c-.06,0-.11-.02-.16-.05-.04-.03-.07-.06-.07-.09v-.14c0-1.08-.34-1.94-1.02-2.59s-1.58-.97-2.71-.98-2.03.32-2.71.97c-.69.65-1.03,1.51-1.03,2.57l-.02,6.37c0,1.06.33,1.92,1.02,2.58.68.65,1.58.98,2.7.99s2.03-.31,2.71-.96c.68-.64,1.03-1.5,1.03-2.58,0-.18.1-.26.3-.25l1.02.05c.2,0,.3.04.3.12v.11c0,.99-.23,1.85-.68,2.6s-1.08,1.33-1.88,1.73c-.81.41-1.74.61-2.8.61s-1.99-.22-2.8-.64Z"/>
        <path class="cls-1" d="M116.84,97.28v.84c0,.2-.1.3-.3.3h-4.37c-.07-.01-.11.02-.11.1l-.05,14.09c0,.2-.1.3-.3.3h-1.02c-.2,0-.3-.1-.3-.3l.05-14.09c0-.07-.04-.11-.11-.11h-4.19c-.2-.01-.3-.11-.3-.31v-.84c0-.2.1-.29.3-.29l10.4.03c.2,0,.3.1.3.29Z"/>
        <path class="cls-1" d="M122.8,112.48c-.82-.43-1.45-1.02-1.91-1.79s-.68-1.66-.67-2.68l.04-10.72c0-.2.1-.29.29-.29h1.02c.2,0,.3.1.3.3l-.04,10.77c0,1.08.34,1.95,1.04,2.63.69.68,1.61,1.02,2.75,1.02s2.06-.33,2.76-1,1.05-1.55,1.06-2.62l.04-10.77c0-.2.1-.29.3-.29h1.02c.2,0,.29.1.29.3l-.04,10.72c0,1.02-.23,1.91-.68,2.67-.45.76-1.09,1.36-1.91,1.78-.82.42-1.77.63-2.85.63s-2-.22-2.82-.65Z"/>
        <path class="cls-1" d="M144.6,112.79l-3.3-7.02c-.03-.06-.08-.09-.14-.09h-3.8c-.08-.01-.11.03-.11.1l-.02,6.92c0,.2-.1.3-.3.3h-1.02c-.2,0-.3-.1-.3-.3l.05-15.36c0-.2.1-.3.3-.3l5.83.02c1.31,0,2.36.41,3.16,1.22.8.81,1.2,1.86,1.2,3.17,0,1.06-.29,1.96-.86,2.69-.57.73-1.35,1.21-2.34,1.44-.08.01-.1.06-.07.14l3.37,6.98c.03.06.05.11.05.14,0,.14-.09.2-.27.2h-1.05c-.17,0-.29-.08-.36-.23ZM137.27,98.56l-.02,5.69c0,.08.04.11.11.11h4.21c.88.02,1.59-.25,2.14-.79s.82-1.25.83-2.13-.27-1.6-.81-2.15-1.26-.83-2.14-.84h-4.21c-.08-.01-.11.02-.11.1Z"/>
        <path class="cls-1" d="M160.03,112.81l-.9-2.78c-.03-.06-.07-.09-.11-.09l-6.78-.02s-.08.03-.11.09l-.9,2.77c-.05.17-.15.25-.32.25h-1.09c-.11,0-.18-.03-.23-.1-.04-.06-.05-.14-.02-.25l5.06-15.32c.05-.17.15-.25.32-.25h1.45c.17,0,.27.09.32.26l4.98,15.36s.02.07.02.11c0,.06-.03.11-.08.16-.05.05-.12.07-.19.07h-1.09c-.17,0-.27-.09-.32-.26ZM152.72,108.6l5.85.02c.09,0,.12-.05.09-.14l-2.93-9.32c-.01-.06-.04-.09-.07-.09-.03,0-.05.03-.07.09l-2.97,9.3c-.02.09.01.14.09.14Z"/>
        <path class="cls-1" d="M172.23,112.68c-.8-.42-1.43-1.01-1.87-1.78-.44-.77-.66-1.65-.66-2.65l.02-6.26c0-.99.23-1.86.68-2.61.45-.76,1.08-1.34,1.89-1.76.8-.41,1.74-.62,2.8-.62s1.99.21,2.8.62c.8.41,1.43.99,1.87,1.73s.67,1.6.66,2.57c0,.14-.1.22-.3.25l-1.02.07h-.07c-.06,0-.11-.02-.16-.05-.04-.03-.07-.06-.07-.09v-.14c0-1.08-.34-1.94-1.02-2.59s-1.58-.97-2.71-.98-2.03.32-2.71.97c-.69.65-1.03,1.51-1.03,2.57l-.02,6.37c0,1.06.33,1.92,1.02,2.58.68.65,1.58.98,2.7.99s2.03-.31,2.71-.96c.68-.64,1.03-1.5,1.03-2.58,0-.18.1-.26.3-.25l1.02.05c.2,0,.3.04.3.12v.11c0,.99-.23,1.85-.68,2.6s-1.08,1.33-1.88,1.73c-.81.41-1.74.61-2.8.61s-1.99-.22-2.8-.64Z"/>
        <path class="cls-1" d="M186.54,112.67c-.82-.44-1.45-1.06-1.9-1.86-.44-.8-.66-1.72-.66-2.77l.02-5.73c0-1.05.23-1.97.68-2.76.45-.79,1.09-1.41,1.91-1.85s1.77-.65,2.85-.65,2.03.23,2.85.67c.82.44,1.46,1.06,1.91,1.86.44.8.67,1.72.66,2.77l-.02,5.73c0,1.05-.23,1.97-.68,2.76-.45.8-1.09,1.41-1.92,1.85-.83.44-1.78.65-2.86.65s-2.02-.23-2.84-.67ZM192.17,110.92c.7-.69,1.05-1.62,1.06-2.77l.02-5.83c0-1.15-.34-2.09-1.04-2.79-.69-.71-1.62-1.06-2.77-1.07s-2.06.35-2.76,1.05c-.7.7-1.05,1.63-1.06,2.78l-.02,5.83c0,1.15.34,2.08,1.04,2.78.69.7,1.61,1.05,2.75,1.06s2.08-.34,2.78-1.04Z"/>
        <path class="cls-1" d="M208.09,113l-3.3-7.02c-.03-.06-.08-.09-.14-.09h-3.8c-.08-.01-.11.03-.11.1l-.02,6.92c0,.2-.1.3-.3.3h-1.02c-.2,0-.3-.1-.3-.3l.05-15.36c0-.2.1-.3.3-.3l5.83.02c1.31,0,2.36.41,3.16,1.22.8.81,1.2,1.86,1.2,3.17,0,1.06-.29,1.96-.86,2.69-.57.73-1.35,1.21-2.34,1.44-.08.01-.1.06-.07.14l3.37,6.98c.03.06.05.11.05.14,0,.14-.09.2-.27.2h-1.05c-.17,0-.29-.08-.36-.23ZM200.77,98.77l-.02,5.69c0,.08.04.11.11.11h4.21c.88.02,1.59-.25,2.14-.79s.82-1.25.83-2.13-.27-1.6-.81-2.15-1.26-.83-2.14-.84h-4.21c-.08-.01-.11.02-.11.1Z"/>
        <path class="cls-1" d="M222.83,98.55c.81.82,1.21,1.9,1.21,3.24s-.42,2.38-1.25,3.18c-.83.8-1.92,1.2-3.27,1.19h-4.42c-.08-.01-.11.02-.11.1l-.02,6.69c0,.2-.1.3-.3.3h-1.02c-.2,0-.3-.1-.3-.3l.05-15.36c0-.2.1-.3.3-.3l5.92.02c1.33,0,2.41.42,3.22,1.24ZM221.6,103.99c.56-.55.85-1.28.85-2.19s-.28-1.67-.83-2.23-1.29-.85-2.18-.85h-4.3c-.08-.01-.11.02-.11.1l-.02,5.87c0,.07.04.11.11.11h4.3c.89.02,1.62-.26,2.19-.81Z"/>
        <path class="cls-1" d="M229.53,112.82c-.82-.44-1.45-1.06-1.9-1.86-.44-.8-.66-1.72-.66-2.77l.02-5.73c0-1.05.23-1.97.68-2.76.45-.79,1.09-1.41,1.91-1.85s1.77-.65,2.85-.65,2.03.23,2.85.67c.82.44,1.46,1.06,1.91,1.86.44.8.67,1.72.66,2.77l-.02,5.73c0,1.05-.23,1.97-.68,2.76-.45.8-1.09,1.41-1.92,1.85-.83.44-1.78.65-2.86.65s-2.02-.23-2.84-.67ZM235.16,111.06c.7-.69,1.05-1.62,1.06-2.77l.02-5.83c0-1.15-.34-2.09-1.04-2.79-.69-.71-1.62-1.06-2.77-1.07s-2.06.35-2.76,1.05c-.7.7-1.05,1.63-1.06,2.78l-.02,5.83c0,1.15.34,2.08,1.04,2.78.69.7,1.61,1.05,2.75,1.06s2.08-.34,2.78-1.04Z"/>
        <path class="cls-1" d="M251.08,113.14l-3.3-7.02c-.03-.06-.08-.09-.14-.09h-3.8c-.08-.01-.11.03-.11.1l-.02,6.92c0,.2-.1.3-.3.3h-1.02c-.2,0-.3-.1-.3-.3l.05-15.36c0-.2.1-.3.3-.3l5.83.02c1.31,0,2.36.41,3.16,1.22.8.81,1.2,1.86,1.2,3.17,0,1.06-.29,1.96-.86,2.69-.57.73-1.35,1.21-2.34,1.44-.08.01-.1.06-.07.14l3.37,6.98c.03.06.05.11.05.14,0,.14-.09.2-.27.2h-1.05c-.17,0-.29-.08-.36-.23ZM243.76,98.91l-.02,5.69c0,.08.04.11.11.11h4.21c.88.02,1.59-.25,2.14-.79s.82-1.25.83-2.13-.27-1.6-.81-2.15-1.26-.83-2.14-.84h-4.21c-.08-.01-.11.02-.11.1Z"/>
        <path class="cls-1" d="M266.51,113.17l-.9-2.78c-.03-.06-.07-.09-.11-.09l-6.78-.02s-.08.03-.11.09l-.9,2.77c-.05.17-.15.25-.32.25h-1.09c-.11,0-.18-.03-.23-.1-.04-.06-.05-.14-.02-.25l5.06-15.32c.05-.17.15-.25.32-.25h1.45c.17,0,.27.09.32.26l4.98,15.36s.02.07.02.11c0,.06-.03.11-.08.16-.05.05-.12.07-.19.07h-1.09c-.17,0-.27-.09-.32-.26ZM259.2,108.96l5.85.02c.09,0,.12-.05.09-.14l-2.93-9.32c-.01-.06-.04-.09-.07-.09-.03,0-.05.03-.07.09l-2.97,9.3c-.02.09.01.14.09.14Z"/>
        <path class="cls-1" d="M280.04,97.83v.84c0,.2-.1.3-.3.3h-4.37c-.07-.01-.11.02-.11.1l-.05,14.09c0,.2-.1.3-.3.3h-1.02c-.2,0-.3-.1-.3-.3l.05-14.09c0-.07-.04-.11-.11-.11h-4.19c-.2-.01-.3-.11-.3-.31v-.84c0-.2.1-.29.3-.29l10.4.03c.2,0,.3.1.3.29Z"/>
        <path class="cls-1" d="M283.58,113.18l.05-15.34c0-.2.1-.29.3-.29h1.02c.2,0,.3.1.3.3l-.05,15.34c0,.2-.1.3-.3.3h-1.02c-.2,0-.3-.1-.3-.3Z"/>
        <path class="cls-1" d="M293.6,113.26l-4.89-15.35s-.02-.07-.02-.11c0-.06.03-.11.08-.16.05-.04.12-.07.19-.07h1.09c.17,0,.27.09.32.25l4.1,13.24c.01.06.04.09.07.09.03,0,.05-.03.07-.09l4.19-13.21c.05-.17.15-.25.32-.25h1.07c.11,0,.18.03.23.09.04.06.05.15.02.25l-5.03,15.32c-.05.17-.15.25-.32.25h-1.16c-.17,0-.27-.09-.32-.26Z"/>
        <path class="cls-1" d="M311.19,113.31l-.9-2.78c-.03-.06-.07-.09-.11-.09l-6.78-.02s-.08.03-.11.09l-.9,2.77c-.05.17-.15.25-.32.25h-1.09c-.11,0-.18-.03-.23-.1-.04-.06-.05-.14-.02-.25l5.06-15.32c.05-.17.15-.25.32-.25h1.45c.17,0,.27.09.32.26l4.98,15.36s.02.07.02.11c0,.06-.03.11-.08.16-.05.05-.12.07-.19.07h-1.09c-.17,0-.27-.09-.32-.26ZM303.87,109.1l5.85.02c.09,0,.12-.05.09-.14l-2.93-9.32c-.01-.06-.04-.09-.07-.09-.03,0-.05.03-.07.09l-2.97,9.3c-.02.09.01.14.09.14Z"/>
      </g>
    </g>
  </g>
</svg>