<?xml version="1.0" encoding="UTF-8"?>
<svg id="Layer_2" data-name="Layer 2" xmlns="http://www.w3.org/2000/svg" xmlns:xlink="http://www.w3.org/1999/xlink" viewBox="0 0 465.24 116.93">
  <defs>
    <style>
      .cls-1 {
        fill: none;
      }

      .cls-2 {
        fill: url(#Degradado_sin_nombre_169);
      }

      .cls-3 {
        fill: url(#Degradado_sin_nombre_148);
      }

      .cls-4 {
        fill: #002a58;
      }

      .cls-5 {
        fill: url(#Degradado_sin_nombre_6);
      }

      .cls-6 {
        clip-path: url(#clippath);
      }
    </style>
    <linearGradient id="Degradado_sin_nombre_148" data-name="Degradado sin nombre 148" x1="-7.39" y1="97.7" x2="79.57" y2="97.7" gradientTransform="translate(-.19 -37.45) rotate(-3.09)" gradientUnits="userSpaceOnUse">
      <stop offset="0" stop-color="#003068"/>
      <stop offset=".11" stop-color="#003d71"/>
      <stop offset=".31" stop-color="#00608b"/>
      <stop offset=".58" stop-color="#0099b5"/>
      <stop offset=".9" stop-color="#00e7ed"/>
      <stop offset="1" stop-color="aqua"/>
    </linearGradient>
    <linearGradient id="Degradado_sin_nombre_169" data-name="Degradado sin nombre 169" x1="95.07" y1="102.87" x2="156.99" y2="108.29" gradientTransform="translate(-.19 -37.45) rotate(-3.09)" gradientUnits="userSpaceOnUse">
      <stop offset="0" stop-color="#003068"/>
      <stop offset=".25" stop-color="#005f8a"/>
      <stop offset=".81" stop-color="#00d5e0"/>
      <stop offset="1" stop-color="aqua"/>
    </linearGradient>
    <clipPath id="clippath">
      <path class="cls-1" d="M161.99,106.83c8.01-7.05,7.56-15.56,4.07-22.32-2.36-3.72-7.07-5.92-19.27-6.95-15.97-1.35-33.21-11.61-42.91-22.83-5.3-6.14-14.11-19.01-21-29.42l-26.52,52.26s-4.47,7.68-6.51,16.06c10.51-6.86,22.47-10.5,38.95-10.01,23.51.71,41.08,9.72,46.44,14.94,3.75,3.66,9.82,9.99,16.39,11.31,2.75.44,5.42.13,7.99-1.34.04-.02.08-.04.12-.07.16-.09.32-.21.48-.31.29-.19.56-.38.83-.57.31-.24.63-.48.94-.75Z"/>
    </clipPath>
    <linearGradient id="Degradado_sin_nombre_6" data-name="Degradado sin nombre 6" x1="28.5" y1="72.52" x2="149.66" y2="93.88" gradientTransform="translate(5.56 -13.13) rotate(-1.09)" gradientUnits="userSpaceOnUse">
      <stop offset="0" stop-color="#00315d"/>
      <stop offset="1" stop-color="aqua"/>
    </linearGradient>
  </defs>
  <g id="Layer_1-2" data-name="Layer 1">
    <g>
      <g>
        <path class="cls-4" d="M206.8,86.39h1.31c.25,0,.38.13.38.38v19.67c0,.25-.13.38-.38.38h-1.31c-.25,0-.38-.13-.38-.38v-8.84c0-.1-.05-.15-.15-.15h-9.25c-.1,0-.15.05-.15.15v8.84c0,.25-.13.38-.38.38h-1.31c-.25,0-.38-.13-.38-.38v-19.67c0-.25.13-.38.38-.38h1.31c.25,0,.38.13.38.38v8.72c0,.1.05.15.15.15h9.25c.1,0,.15-.05.15-.15v-8.72c0-.25.13-.38.38-.38Z"/>
        <path class="cls-4" d="M227.61,88.2h-10.62c-.1,0-.15.05-.15.15v7.15c0,.1.05.15.15.15h7.41c.25,0,.38.13.38.38v1.05c0,.25-.13.38-.38.38h-7.41c-.1,0-.15.05-.15.15v7.27c0,.1.05.15.15.15h10.62c.25,0,.38.13.38.38v1.05c0,.25-.13.38-.38.38h-12.46c-.25,0-.38-.13-.38-.38v-19.67c0-.25.13-.38.38-.38h12.46c.25,0,.38.13.38.38v1.05c0,.25-.13.38-.38.38Z"/>
        <path class="cls-4" d="M245.06,106.49l-1.17-3.56c-.04-.08-.09-.12-.15-.12h-8.69c-.06,0-.11.04-.15.12l-1.14,3.56c-.06.21-.2.32-.41.32h-1.4c-.14,0-.23-.04-.29-.12-.06-.08-.07-.18-.03-.32l6.42-19.67c.06-.21.2-.32.41-.32h1.87c.21,0,.35.11.41.32l6.45,19.67s.03.09.03.15c0,.08-.03.15-.1.2-.07.06-.15.09-.25.09h-1.4c-.21,0-.35-.11-.41-.32ZM235.66,101.13h7.5c.12,0,.16-.06.12-.17l-3.79-11.93c-.02-.08-.05-.12-.09-.12-.04,0-.07.04-.09.12l-3.76,11.93c-.02.12.02.17.12.17Z"/>
        <path class="cls-4" d="M251.88,106.44v-19.67c0-.25.13-.38.38-.38h1.31c.25,0,.38.13.38.38v18.09c0,.1.05.15.15.15h10.18c.25,0,.38.13.38.38v1.05c0,.25-.13.38-.38.38h-12.02c-.25,0-.38-.13-.38-.38Z"/>
        <path class="cls-4" d="M281.27,86.77v1.08c0,.25-.13.38-.38.38h-5.6c-.1,0-.15.05-.15.15v18.06c0,.25-.13.38-.38.38h-1.31c-.25,0-.38-.13-.38-.38v-18.06c0-.1-.05-.15-.15-.15h-5.37c-.25,0-.38-.13-.38-.38v-1.08c0-.25.12-.38.38-.38h13.33c.25,0,.38.13.38.38Z"/>
        <path class="cls-4" d="M298.13,86.39h1.31c.25,0,.38.13.38.38v19.67c0,.25-.13.38-.38.38h-1.31c-.25,0-.38-.13-.38-.38v-8.84c0-.1-.05-.15-.15-.15h-9.25c-.1,0-.15.05-.15.15v8.84c0,.25-.13.38-.38.38h-1.31c-.25,0-.38-.13-.38-.38v-19.67c0-.25.13-.38.38-.38h1.31c.25,0,.38.13.38.38v8.72c0,.1.05.15.15.15h9.25c.1,0,.15-.05.15-.15v-8.72c0-.25.13-.38.38-.38Z"/>
        <path class="cls-4" d="M315.04,106.38c-1.06-.45-1.88-1.08-2.45-1.91-.57-.83-.86-1.78-.86-2.87v-.82c0-.25.13-.38.38-.38h1.25c.25,0,.38.13.38.38v.7c0,1.11.47,2.01,1.4,2.71.93.7,2.19,1.05,3.76,1.05s2.64-.32,3.41-.95c.78-.63,1.17-1.47,1.17-2.52,0-.68-.18-1.26-.54-1.75-.36-.49-.91-.94-1.65-1.37-.74-.43-1.8-.92-3.18-1.49-1.46-.58-2.59-1.09-3.4-1.53-.81-.44-1.46-1-1.95-1.69-.5-.69-.74-1.56-.74-2.61,0-1.63.57-2.9,1.71-3.81,1.14-.9,2.71-1.36,4.71-1.36,2.14,0,3.83.51,5.08,1.52,1.24,1.01,1.87,2.35,1.87,4.03v.55c0,.25-.13.38-.38.38h-1.28c-.25,0-.38-.13-.38-.38v-.44c0-1.13-.44-2.05-1.31-2.77-.88-.72-2.11-1.08-3.71-1.08-1.38,0-2.44.28-3.17.85-.73.56-1.1,1.38-1.1,2.45,0,.7.18,1.28.54,1.74s.88.86,1.55,1.2c.67.34,1.7.78,3.08,1.33,1.42.58,2.57,1.13,3.44,1.63.88.51,1.58,1.12,2.1,1.85.52.73.79,1.62.79,2.67,0,1.61-.6,2.91-1.8,3.9-1.2.98-2.86,1.47-5,1.47-1.42,0-2.66-.22-3.72-.67Z"/>
        <path class="cls-4" d="M333.44,106.2c-1.05-.56-1.86-1.36-2.44-2.38-.57-1.02-.86-2.2-.86-3.55v-7.35c0-1.34.29-2.52.86-3.55.57-1.02,1.39-1.81,2.44-2.38s2.27-.85,3.65-.85,2.6.28,3.66.85c1.06.56,1.88,1.36,2.45,2.38.57,1.02.86,2.2.86,3.55v7.35c0,1.34-.29,2.52-.86,3.55-.57,1.02-1.39,1.81-2.45,2.38-1.06.56-2.28.85-3.66.85s-2.6-.28-3.65-.85ZM340.65,103.93c.89-.89,1.34-2.08,1.34-3.56v-7.47c0-1.48-.45-2.67-1.34-3.57-.9-.9-2.08-1.36-3.56-1.36s-2.64.45-3.53,1.36c-.9.9-1.34,2.1-1.34,3.57v7.47c0,1.48.45,2.67,1.34,3.56.89.9,2.07,1.34,3.53,1.34s2.66-.45,3.56-1.34Z"/>
        <path class="cls-4" d="M349.81,106.44v-19.67c0-.25.13-.38.38-.38h1.31c.25,0,.38.13.38.38v18.09c0,.1.05.15.15.15h10.18c.25,0,.38.13.38.38v1.05c0,.25-.13.38-.38.38h-12.02c-.25,0-.38-.13-.38-.38Z"/>
        <path class="cls-4" d="M370.35,106.23c-1.05-.54-1.87-1.31-2.45-2.29-.58-.98-.88-2.12-.88-3.43v-13.74c0-.25.13-.38.38-.38h1.31c.25,0,.38.13.38.38v13.8c0,1.38.45,2.51,1.34,3.37.9.87,2.07,1.3,3.53,1.3s2.64-.43,3.53-1.3c.89-.87,1.34-1.99,1.34-3.37v-13.8c0-.25.13-.38.38-.38h1.31c.25,0,.38.13.38.38v13.74c0,1.3-.29,2.45-.86,3.43-.57.98-1.39,1.75-2.44,2.29-1.05.54-2.27.82-3.65.82s-2.57-.27-3.62-.82Z"/>
        <path class="cls-4" d="M399.65,86.77v1.08c0,.25-.13.38-.38.38h-5.6c-.1,0-.15.05-.15.15v18.06c0,.25-.13.38-.38.38h-1.31c-.25,0-.38-.13-.38-.38v-18.06c0-.1-.05-.15-.15-.15h-5.37c-.25,0-.38-.13-.38-.38v-1.08c0-.25.13-.38.38-.38h13.34c.25,0,.38.13.38.38Z"/>
        <path class="cls-4" d="M404.52,106.44v-19.67c0-.25.13-.38.38-.38h1.31c.25,0,.38.13.38.38v19.67c0,.25-.13.38-.38.38h-1.31c-.25,0-.38-.13-.38-.38Z"/>
        <path class="cls-4" d="M415.6,106.2c-1.05-.56-1.86-1.36-2.44-2.38-.57-1.02-.86-2.2-.86-3.55v-7.35c0-1.34.29-2.52.86-3.55.57-1.02,1.39-1.81,2.44-2.38,1.05-.56,2.27-.85,3.65-.85s2.6.28,3.66.85c1.06.56,1.88,1.36,2.45,2.38.57,1.02.86,2.2.86,3.55v7.35c0,1.34-.29,2.52-.86,3.55-.57,1.02-1.39,1.81-2.45,2.38-1.06.56-2.28.85-3.66.85s-2.6-.28-3.65-.85ZM422.81,103.93c.9-.89,1.34-2.08,1.34-3.56v-7.47c0-1.48-.45-2.67-1.34-3.57-.89-.9-2.08-1.36-3.56-1.36s-2.64.45-3.53,1.36c-.89.9-1.34,2.1-1.34,3.57v7.47c0,1.48.45,2.67,1.34,3.56s2.07,1.34,3.53,1.34,2.66-.45,3.56-1.34Z"/>
        <path class="cls-4" d="M431.97,106.44v-19.67c0-.25.13-.38.38-.38h1.31c.17,0,.32.09.44.26l9.8,15.87c.04.06.08.08.12.07.04,0,.06-.05.06-.13v-15.7c0-.25.13-.38.38-.38h1.31c.25,0,.38.13.38.38v19.67c0,.25-.13.38-.38.38h-1.31c-.17,0-.32-.09-.44-.26l-9.83-15.93c-.04-.06-.08-.08-.12-.07s-.06.05-.06.13l.03,15.76c0,.25-.13.38-.38.38h-1.31c-.25,0-.38-.13-.38-.38Z"/>
        <path class="cls-4" d="M454.72,106.38c-1.06-.45-1.88-1.08-2.45-1.91-.57-.83-.86-1.78-.86-2.87v-.82c0-.25.13-.38.38-.38h1.25c.25,0,.38.13.38.38v.7c0,1.11.47,2.01,1.4,2.71.93.7,2.19,1.05,3.76,1.05s2.63-.32,3.41-.95c.78-.63,1.17-1.47,1.17-2.52,0-.68-.18-1.26-.54-1.75s-.91-.94-1.65-1.37c-.74-.43-1.8-.92-3.18-1.49-1.46-.58-2.59-1.09-3.4-1.53-.81-.44-1.46-1-1.96-1.69-.5-.69-.74-1.56-.74-2.61,0-1.63.57-2.9,1.71-3.81,1.14-.9,2.71-1.36,4.71-1.36,2.14,0,3.83.51,5.08,1.52,1.24,1.01,1.87,2.35,1.87,4.03v.55c0,.25-.13.38-.38.38h-1.28c-.25,0-.38-.13-.38-.38v-.44c0-1.13-.44-2.05-1.31-2.77-.88-.72-2.11-1.08-3.71-1.08-1.38,0-2.44.28-3.17.85-.73.56-1.09,1.38-1.09,2.45,0,.7.18,1.28.54,1.74.36.46.88.86,1.55,1.2s1.7.78,3.08,1.33c1.42.58,2.57,1.13,3.44,1.63.88.51,1.58,1.12,2.1,1.85s.79,1.62.79,2.67c0,1.61-.6,2.91-1.79,3.9-1.2.98-2.86,1.47-5,1.47-1.42,0-2.66-.22-3.72-.67Z"/>
      </g>
      <g>
        <path class="cls-4" d="M267.67,65.93v-29.62l-25.33,33.08c-1.17,1.47-2.87,2.21-5.1,2.21s-3.93-.74-5.1-2.21l-25.25-33.08v29.62c0,2.5-2.03,4.53-4.53,4.53h-1.43c-2.5,0-4.53-2.03-4.53-4.53V22.17c0-1.62.6-2.81,1.79-3.57,1.19-.76,2.67-1.14,4.45-1.14,1.37,0,2.46.19,3.27.57.81.38,1.55,1,2.21,1.86l29.28,38.86,29.51-38.86c.66-.86,1.36-1.48,2.09-1.86.73-.38,1.76-.57,3.08-.57,1.77,0,3.26.38,4.45,1.14,1.19.76,1.79,1.95,1.79,3.57v43.76c0,2.5-2.03,4.53-4.53,4.53h-1.59c-2.5,0-4.53-2.03-4.53-4.53Z"/>
        <path class="cls-4" d="M304.48,70.46c-3.23,0-5.93-.27-8.09-.81-2.16-.54-3.88-1.4-5.17-2.59-1.29-1.19-2.21-2.74-2.75-4.66-.54-1.92-.81-4.28-.81-7.08v-13.84c0-2.76.27-5.11.81-7.05.54-1.94,1.46-3.5,2.75-4.69,1.29-1.19,3.02-2.05,5.17-2.59,2.16-.54,4.85-.81,8.09-.81h16.75c3.28,0,5.99.27,8.15.81,2.16.54,3.88,1.4,5.17,2.59,1.29,1.19,2.21,2.75,2.75,4.69.54,1.94.81,4.29.81,7.05v13.84c0,2.8-.27,5.16-.81,7.08-.54,1.92-1.46,3.47-2.75,4.66-1.29,1.19-3.02,2.05-5.17,2.59-2.16.54-4.87.81-8.15.81h-16.75ZM328.29,41.94c0-1.38-.12-2.52-.36-3.43-.24-.91-.64-1.64-1.2-2.2-.56-.56-1.33-.95-2.3-1.16-.97-.22-2.17-.32-3.59-.32h-15.91c-1.55,0-2.81.11-3.78.32-.97.22-1.74.6-2.3,1.16-.56.56-.94,1.29-1.13,2.2-.19.91-.29,2.05-.29,3.43v13c0,1.42.1,2.6.29,3.53.19.93.57,1.66,1.13,2.2.56.54,1.33.91,2.3,1.1.97.19,2.23.29,3.78.29h15.91c1.42,0,2.62-.1,3.59-.29.97-.19,1.74-.56,2.3-1.1.56-.54.96-1.27,1.2-2.2.24-.93.36-2.1.36-3.53v-13Z"/>
        <path class="cls-4" d="M387.65,69.54l-28.85-17.93v14.24c0,2.55-2.07,4.62-4.62,4.62h-2.24c-2.55,0-4.62-2.07-4.62-4.62V23.13c0-2.5,2.03-4.53,4.53-4.53h36.08c3.65,0,6.77.23,9.35.68s4.7,1.27,6.35,2.43c1.65,1.17,2.85,2.76,3.61,4.79.76,2.03,1.14,4.59,1.14,7.68v3.57c0,2.99-.41,5.46-1.22,7.42-.81,1.95-2.07,3.5-3.76,4.64-1.7,1.14-3.84,1.94-6.43,2.4-2.59.46-5.65.68-9.2.68h-9.13l22.34,12.9c2.22,1.28,1.31,4.67-1.25,4.67h-8.83c-1.15,0-2.28-.32-3.26-.93ZM396.83,34.79c0-1.37-.15-2.48-.46-3.35-.3-.86-.81-1.52-1.52-1.98-.71-.46-1.7-.76-2.97-.91-1.27-.15-2.84-.23-4.72-.23h-28.37v15.82h28.37c1.88,0,3.43-.08,4.68-.23,1.24-.15,2.23-.46,2.97-.91.73-.46,1.26-1.11,1.56-1.98.3-.86.46-2,.46-3.42v-2.81Z"/>
        <path class="cls-4" d="M433.8,70.46c-3.23,0-5.93-.27-8.09-.81-2.16-.54-3.88-1.4-5.17-2.59-1.29-1.19-2.21-2.74-2.75-4.66-.54-1.92-.81-4.28-.81-7.08v-13.84c0-2.76.27-5.11.81-7.05.54-1.94,1.46-3.5,2.75-4.69,1.29-1.19,3.02-2.05,5.17-2.59,2.16-.54,4.85-.81,8.09-.81h6.69c2.3,0,4.17,1.87,4.17,4.17h0c0,2.3-1.87,4.17-4.17,4.17h-6.69c-1.42,0-2.59.12-3.49.36-.91.24-1.63.61-2.17,1.13-.54.52-.91,1.21-1.1,2.07-.19.86-.29,1.94-.29,3.23v2.98h33.67c2.16,0,3.91,1.75,3.91,3.91h0c0,2.16-1.75,3.91-3.91,3.91h-33.67v3.11c0,1.34.1,2.44.29,3.3.19.86.55,1.55,1.07,2.07.52.52,1.24.87,2.17,1.07.93.19,2.1.29,3.53.29h26.88c2.16,0,3.91,1.75,3.91,3.91v.52c0,2.16-1.75,3.91-3.91,3.91h-26.88Z"/>
      </g>
      <g>
        <path class="cls-3" d="M7.95,77.53s-13.48,23.16-5.34,33.96c7.82,10.38,21.72,4.78,34.33-7.37,4.2-4.04,8.42-7.56,12.91-10.49,2.04-8.38,6.51-16.06,6.51-16.06l26.52-52.26c-5.7-8.61-10.09-15.53-10.09-15.53,0,0-5.18-10.32-15.7-9.75-10.51.57-14.28,8.82-14.28,8.82l-4.49,8.85L7.95,77.53Z"/>
        <path class="cls-2" d="M166.06,84.51c-.79-1.53-1.73-2.96-2.76-4.27l-6.52-6.35c-3.27-3.18-6.4-6.51-9.36-9.98-10.42-12.22-19.76-25.27-25.77-40.19l-4.07-10.12s-4.35-10.05-14.82-9.21c-9.91.8-13.49,8.32-13.49,8.32l-4.24,8.36-2.15,4.23-26.52,52.26s-4.47,7.68-6.51,16.06c-1.4,5.76-1.66,11.85,1.47,16,7.39,9.8,20.5,4.51,32.41-6.96,0,0,15.33-15.31,36.66-8.7,10.83,3.35,21.51,14.35,31.23,15.9,2.75.44,5.42.13,7.99-1.34.04-.02.08-.04.12-.07.16-.09.32-.21.48-.31.29-.19.56-.38.83-.57.31-.24.63-.48.94-.75,8.01-7.05,7.56-15.56,4.07-22.32Z"/>
        <g class="cls-6">
          <path class="cls-5" d="M80.64,25.35c-5.7-8.61-10.09-15.53-10.09-15.53,0,0-5.18-10.32-15.7-9.75s-14.28,8.82-14.28,8.82L5.71,77.57S-7.77,100.73.37,111.53c7.82,10.38,21.72,4.78,34.33-7.37,4.2-4.04,8.42-7.56,12.91-10.49,2.04-8.38,6.51-16.06,6.51-16.06l26.52-52.26ZM166.06,84.51c-2.36-3.72-7.07-5.92-19.27-6.95-15.97-1.35-33.21-11.61-42.91-22.83-5.3-6.14-14.11-19.01-21-29.42l-26.52,52.26s-4.47,7.68-6.51,16.06c10.51-6.86,22.47-10.5,38.95-10.01,23.51.71,41.08,9.72,46.44,14.94,3.75,3.66,9.82,9.99,16.39,11.31,2.75.44,5.42.13,7.99-1.34.04-.02.08-.04.12-.07.16-.09.32-.21.48-.31.29-.19.56-.38.83-.57.31-.24.63-.48.94-.75,8.01-7.05,7.56-15.56,4.07-22.32Z"/>
        </g>
      </g>
    </g>
  </g>
</svg>