<?xml version="1.0" encoding="UTF-8"?>
<svg id="Layer_2" data-name="Layer 2" xmlns="http://www.w3.org/2000/svg" viewBox="0 0 299.9 88">
  <defs>
    <style>
      .cls-1 {
        fill: #1d1d1b;
      }

      .cls-2 {
        fill: #e5145a;
      }
    </style>
  </defs>
  <g id="Layer_1-2" data-name="Layer 1">
    <g>
      <rect class="cls-1" x="96.93" y=".85" width="8.11" height="86.9"/>
      <polygon class="cls-1" points="299.9 40.22 247.46 40.22 247.46 .86 239.35 .86 239.35 40.22 239.34 40.22 239.34 48.11 291.79 48.11 291.79 87.7 299.89 87.7 299.89 48.11 299.9 48.11 299.9 40.22"/>
      <path class="cls-1" d="M17.25,39.33c3.53,0,6.62-1.49,9.26-4.46L52.92.78h10.7L31.61,41.94c-.71.83-1.45,1.57-2.22,2.23.77.66,1.51,1.41,2.22,2.23l32.01,41.16h-10.7l-26.42-34.09c-2.64-2.97-5.72-4.46-9.26-4.46h-8.91v38.55H0V21.71h8.34v17.63h8.91Z"/>
      <path class="cls-2" d="M185.49,88c-25.94,0-47.05-20.55-47.05-45.8,0-18.45,11.28-35.01,28.74-42.2l2.88,6.62c-14.72,6.06-24.23,20.02-24.23,35.58,0,21.29,17.79,38.61,39.66,38.61,11.3,0,22.09-4.71,29.62-12.93l5.51,4.79c-8.92,9.74-21.73,15.33-35.13,15.33Z"/>
    </g>
  </g>
</svg>