<?xml version="1.0" encoding="UTF-8"?>
<svg id="Layer_2" data-name="Layer 2" xmlns="http://www.w3.org/2000/svg" viewBox="0 0 417.6 112.06">
  <defs>
    <style>
      .cls-1, .cls-2 {
        isolation: isolate;
      }

      .cls-3, .cls-2 {
        fill: #fff;
      }

      .cls-4 {
        fill: #faba0d;
      }

      .cls-5 {
        fill: #c01718;
      }
    </style>
  </defs>
  <g id="Layer_1-2" data-name="Layer 1">
    <g>
      <g>
        <path class="cls-4" d="M314.89,51.86c-.64-.74-1.43-1.36-2.38-1.84-.95-.49-1.92-.79-2.92-.92-.15-.03-.31-.04-.48-.06-.17-.01-.33-.02-.48-.02-.28,0-.57.02-.86.06-.29.04-.6.08-.9.13-.72.15-1.41.4-2.07.75-.67.35-1.2.79-1.61,1.33v-8.72h-5.11v28.39h5.11v-11.43c0-.32.01-.65.04-.98.05-.46.13-.93.25-1.4.12-.47.29-.9.52-1.29.41-.61.92-1.08,1.52-1.38.6-.31,1.26-.46,1.98-.46,1.9,0,3.09.63,3.57,1.88.49,1.26.74,2.65.77,4.19v10.87h5.11v-11.49c0-1.43-.1-2.79-.29-4.05-.19-1.27-.77-2.45-1.75-3.55Z"/>
        <path class="cls-4" d="M399.92,52.37c-2.11-2.23-4.69-3.35-7.74-3.35s-5.85,1.13-8.03,3.38c-2.18,2.25-3.27,4.96-3.27,8.11s1.09,5.73,3.28,7.89c2.19,2.16,4.83,3.25,7.93,3.25,2.25,0,4.36-.66,6.32-1.98,1.96-1.32,3.26-2.94,3.9-4.86l-5.65.04c-.49.56-1.16,1.01-2.02,1.34-.86.33-1.77.5-2.75.5-1.28,0-2.44-.37-3.48-1.11-1.04-.74-1.75-1.74-2.13-3h16.52c0-.08,0-.15.02-.23.01-.08.03-.17.06-.27.05-.31.1-.62.13-.94.04-.32.06-.64.06-.98,0-2.96-1.06-5.56-3.17-7.8ZM386.23,58.05c.36-1.17,1.08-2.11,2.15-2.84,1.08-.72,2.23-1.12,3.46-1.2h.31c1.31,0,2.5.36,3.57,1.08,1.08.72,1.82,1.7,2.23,2.96h-11.72Z"/>
        <path class="cls-4" d="M339.59,52.38c-2.15-2.24-4.79-3.37-7.91-3.4v.04c-3.18,0-5.88,1.09-8.12,3.28-2.24,2.19-3.36,4.89-3.36,8.09s1.11,5.75,3.32,7.95c2.21,2.2,4.86,3.3,7.93,3.3s5.8-1.09,8.03-3.27c2.23-2.18,3.34-4.84,3.34-7.99s-1.08-5.77-3.23-8.01ZM335.94,64.88c-1.18,1.21-2.68,1.81-4.49,1.81s-3.2-.62-4.38-1.86c-1.18-1.24-1.77-2.72-1.77-4.44,0-.85.15-1.65.44-2.4.29-.76.74-1.43,1.33-2.02.44-.46.96-.86,1.58-1.19.61-.33,1.24-.56,1.88-.69.15-.03.31-.04.46-.06.15-.01.31-.03.46-.06,1.77,0,3.25.63,4.46,1.89,1.2,1.26,1.81,2.76,1.81,4.51s-.59,3.3-1.77,4.51Z"/>
        <path class="cls-4" d="M375.43,51.67c-.85-.97-1.82-1.66-2.94-2.06-1.11-.4-2.3-.6-3.55-.6h-.38c-.13,0-.26.01-.38.04-1.02.08-2.02.33-3,.77-.97.44-1.79,1.05-2.46,1.84-.1.08-.2.17-.29.29-.09.12-.17.24-.25.36-.08-.13-.15-.24-.23-.35-.08-.1-.17-.2-.27-.31-.67-.87-1.5-1.53-2.52-1.98-1.01-.45-2.07-.67-3.17-.67-.26,0-.53.01-.83.04-.29.03-.58.06-.86.12-.79.15-1.55.43-2.27.83-.72.4-1.24.94-1.57,1.63h-.08v-1.96h-4.69v21.28h5.11v-10.95c0-.28.01-.56.04-.85.05-1.28.33-2.46.85-3.53.51-1.08,1.6-1.61,3.27-1.61.67,0,1.3.15,1.9.44.6.29,1.08.72,1.44,1.29.41.61.65,1.25.71,1.9.06.65.1,1.31.1,1.98v11.33h5.11v-11.37c0-.31.01-.63.04-.96.05-.49.13-.97.23-1.46.1-.49.28-.92.54-1.31.38-.61.89-1.08,1.52-1.38.63-.31,1.3-.46,2.02-.46h.38c.56.08,1.1.25,1.61.52.51.27.91.62,1.19,1.06.2.31.36.66.46,1.06.1.4.18.8.23,1.21.03.31.04.61.06.92.01.31.02.59.02.85v11.33h5.11v-11.91c0-1.38-.12-2.7-.37-3.94-.24-1.24-.85-2.39-1.82-3.44Z"/>
        <path class="cls-4" d="M416.06,39.35l-64.5-20.13c-.59-.24-1.25-.24-1.84,0l-64.5,20.13c-1.26.51-1.87,1.94-1.36,3.21s1.94,1.87,3.21,1.36l63.58-19.76,63.58,19.76c.3.12.61.18.92.18.98,0,1.9-.58,2.29-1.54.51-1.26-.1-2.7-1.36-3.21Z"/>
        <path class="cls-4" d="M383.09,22.5h16.67v4.31c0,.95.77,1.73,1.73,1.73s1.73-.77,1.73-1.73v-6.03c0-.95-.77-1.73-1.73-1.73h-18.4c-.95,0-1.73.77-1.73,1.73s.77,1.73,1.73,1.73Z"/>
      </g>
      <g>
        <polygon class="cls-5" points="48.33 112.06 48.04 112.06 47.25 80.47 81.5 63.75 78.49 92.26 78.27 93.19 48.33 112.06"/>
        <path class="cls-5" d="M0,10.01l.77.16,14.88,7.85,4.22,36.73-.51-.14-13.76-13.12C3.79,31.77,2.26,22,.53,12.27c-.12-.68-.2-1.53-.53-2.12v-.14Z"/>
        <polygon class="cls-5" points="279.81 14.15 279.81 77.47 107.52 77.47 121.67 14.15 279.81 14.15"/>
        <path class="cls-5" d="M87.22,21.44c-1.59,13.25-3.15,26.51-4.93,39.73-11.15,5.08-22.13,10.54-33.29,15.61-.25.12-1.71.79-1.81.69l-.79-45.31,40.82-10.72Z"/>
        <polygon class="cls-5" points="42.44 32.19 43.89 77.18 43.18 76.69 21.13 56.28 16.73 18.94 42.44 32.19"/>
        <polygon class="cls-5" points="116.81 13.87 109.1 48.54 84.43 59.89 89.14 20.87 116.81 13.87"/>
        <polygon class="cls-5" points="86.07 19.16 44.7 29.26 19.87 16.8 19.02 16.16 55.4 9.86 85.61 18.83 86.07 19.16"/>
        <polygon class="cls-5" points="108.23 50.89 108.2 51.64 102.58 77.46 80.86 91.2 80.35 91.33 83.37 63.41 83.58 62.61 108.23 50.89"/>
        <path class="cls-5" d="M45.47,111.49c-.27-.15-.5-.42-.71-.65-6.84-7.56-13.07-15.96-19.85-23.61l-2.89-27.91c.25-.06.29.1.43.21.39.3,1.04.92,1.43,1.29,6.77,6.27,13.24,12.89,19.99,19.18l1.6,31.49Z"/>
        <path class="cls-5" d="M115.1,11.58c.07.06.04.36-.2.3l-27.18,6.82c-9.39-3.03-18.98-5.56-28.34-8.66-.42-.14-1.08-.24-1.32-.61l26.09-4.59,30.96,6.73Z"/>
        <path class="cls-5" d="M53.33,9.29l-35.66,6.25L1.72,7.79c.14-.22.28-.19.5-.22,10.52-1.47,21.08-2.64,31.59-4.15,6.02,1.75,12.07,3.41,18.06,5.25.45.14,1.15.26,1.46.61Z"/>
        <path class="cls-5" d="M20.83,57.5c.22.28.8,5.99.9,6.89.78,6.87,1.47,13.77,2.15,20.65l-.85-.79-12.48-15.26-4.11-24.83c.14-.03.19.01.29.07.42.23,1.53,1.56,2,2.01,4.01,3.78,8.09,7.5,12.11,11.26Z"/>
        <path class="cls-5" d="M81.07,4.43l-25.08,4.56c-6.56-2.01-13.17-3.87-19.74-5.85-.2-.06-.25.09-.21-.29L60.27,0c6.53,1.7,13.87,2.31,20.3,4.14.19.06.44.02.49.29Z"/>
        <g>
          <rect class="cls-3" x="137.3" y="67.01" width="1.57" height="6.87"/>
          <rect class="cls-3" x="165.09" y="67.01" width="1.57" height="6.87"/>
          <rect class="cls-3" x="252.51" y="67.01" width="1.57" height="6.87"/>
          <rect class="cls-3" x="152.93" y="67.01" width="1.52" height="6.87"/>
          <path class="cls-3" d="M143.36,73.18c-.11.23-.33.42-.66.57-.33.15-.71.23-1.14.23-.48,0-.88-.09-1.22-.26-.34-.18-.56-.4-.66-.67-.1-.27-.16-.66-.16-1.16v-.44h1.65v.81c0,.25.02.41.07.48.05.07.13.11.25.11s.21-.05.26-.14c.06-.09.09-.23.09-.41,0-.39-.06-.65-.17-.77-.11-.12-.39-.32-.83-.61-.44-.29-.74-.49-.88-.62s-.26-.31-.36-.54c-.09-.23-.14-.52-.14-.88,0-.51.07-.89.2-1.12.13-.24.35-.42.65-.56.3-.13.66-.2,1.08-.2.46,0,.86.07,1.18.22.33.15.54.33.65.55.11.22.16.6.16,1.13v.26h-1.65v-.5c0-.23-.02-.38-.06-.44-.04-.06-.11-.1-.21-.1-.11,0-.19.04-.24.13-.06.09-.08.22-.08.39,0,.22.03.39.09.51.06.11.23.25.5.41.79.46,1.29.84,1.5,1.13.21.3.31.77.31,1.43,0,.48-.06.83-.17,1.05Z"/>
          <polygon class="cls-3" points="200.96 73.87 197.76 73.87 197.76 67.01 199.38 67.01 199.38 72.36 200.96 72.36 200.96 73.87"/>
          <path class="cls-3" d="M136.59,68.12c-.04-.22-.15-.42-.32-.6-.17-.18-.42-.31-.74-.39-.32-.08-.95-.12-1.87-.12h-1.43v6.87h2.4c.46,0,.8-.02,1.02-.07.23-.05.42-.13.57-.25.15-.12.26-.28.32-.49.06-.21.09-.62.09-1.24v-2.4c0-.65-.02-1.09-.06-1.31ZM134.93,71.39c0,1.03-.43.98-.43.98h-.75v-3.86h.59c.59,0,.59.79.59.79v2.1Z"/>
          <path class="cls-3" d="M171.76,68.12c-.04-.22-.15-.42-.32-.6-.17-.18-.42-.31-.74-.39-.32-.08-.95-.12-1.87-.12h-1.43v6.87h2.4c.46,0,.8-.02,1.02-.07.23-.05.42-.13.57-.25.15-.12.26-.28.32-.49.06-.21.09-.62.09-1.24v-2.4c0-.65-.02-1.09-.06-1.31ZM170.1,71.39c0,1.03-.43.98-.43.98h-.75v-3.86h.59c.59,0,.59.79.59.79v2.1Z"/>
          <path class="cls-3" d="M230.25,68.12c-.04-.22-.15-.42-.32-.6-.17-.18-.42-.31-.74-.39-.32-.08-.95-.12-1.87-.12h-1.43v6.87h2.4c.46,0,.8-.02,1.02-.07.23-.05.42-.13.57-.25.15-.12.26-.28.32-.49.06-.21.09-.62.09-1.24v-2.4c0-.65-.02-1.09-.06-1.31ZM228.59,71.39c0,1.03-.43.98-.43.98h-.75v-3.86h.59c.59,0,.59.79.59.79v2.1Z"/>
          <polygon class="cls-3" points="143.77 67.01 143.77 68.47 144.76 68.47 144.76 73.87 146.51 73.87 146.51 68.47 147.48 68.47 147.48 67.01 143.77 67.01"/>
          <path class="cls-2" d="M151.02,70.44s1.21-.09,1.16-1.74-1.24-1.7-1.56-1.7h-2.48v6.87h1.66v-2.5s.67.09.67.85v1.65h1.71v-1.79s.11-1.38-1.16-1.65ZM149.59,69.52v-1.36s1.03-.13,1.03.68c0,.71-1.03.68-1.03.68Z"/>
          <path class="cls-2" d="M180.07,70.44s1.21-.09,1.16-1.74c-.05-1.65-1.24-1.7-1.56-1.7h-2.48v6.87h1.66v-2.5s.67.09.67.85v1.65h1.71v-1.79s.11-1.38-1.16-1.65ZM178.65,69.52v-1.36s1.03-.13,1.03.68c0,.71-1.03.68-1.03.68Z"/>
          <path class="cls-2" d="M217,70.44s1.23-.09,1.18-1.74-1.27-1.7-1.59-1.7h-2.53v6.87h1.69v-2.5s.68.09.68.85v1.65h1.75v-1.79s.11-1.38-1.18-1.65ZM215.55,69.52v-1.36s1.05-.13,1.04.68c0,.71-1.04.68-1.04.68Z"/>
          <path class="cls-3" d="M176.51,68.48c-.03-.27-.14-.51-.32-.74-.18-.23-.42-.4-.72-.51-.3-.11-.63-.17-1-.17-.39,0-.74.06-1.03.18-.3.12-.53.29-.7.52-.17.22-.28.47-.31.74-.03.27-.05.73-.05,1.38v1.11c0,.67.02,1.14.05,1.4.03.27.14.51.32.74.18.23.42.4.72.51.3.11.63.17,1,.17.39,0,.74-.06,1.03-.18.29-.12.53-.29.7-.52.17-.22.28-.47.31-.74s.05-.73.05-1.39v-1.11c0-.67-.02-1.14-.05-1.4ZM174.85,69.69v1.49c0,.66-.17.9-.29.98-.06.04-.17.03-.22-.01-.3-.24-.26-.96-.26-.96v-1.49c0-.66.17-.9.29-.98.06-.04.12-.03.19-.02.31.06.3.99.3.99Z"/>
          <path class="cls-3" d="M222.99,68.48c-.03-.27-.14-.51-.32-.74-.18-.23-.42-.4-.72-.51-.3-.11-.63-.17-1-.17-.39,0-.74.06-1.03.18-.3.12-.53.29-.7.52-.17.22-.28.47-.31.74-.03.27-.05.73-.05,1.38v1.11c0,.67.02,1.14.05,1.4.03.27.14.51.32.74.18.23.42.4.72.51.3.11.63.17,1,.17.39,0,.74-.06,1.03-.18.29-.12.53-.29.7-.52.17-.22.28-.47.31-.74s.05-.73.05-1.39v-1.11c0-.67-.02-1.14-.05-1.4ZM221.33,69.69v1.49c0,.66-.17.9-.29.98-.06.04-.17.03-.22-.01-.3-.24-.26-.96-.26-.96v-1.49c0-.66.17-.9.29-.98.06-.04.12-.03.19-.02.31.06.3.99.3.99Z"/>
          <path class="cls-3" d="M264,68.48c-.03-.27-.14-.51-.32-.74-.18-.23-.42-.4-.72-.51-.3-.11-.63-.17-1-.17-.39,0-.74.06-1.03.18-.3.12-.53.29-.7.52-.17.22-.28.47-.31.74-.03.27-.05.73-.05,1.38v1.11c0,.67.02,1.14.05,1.4.03.27.14.51.32.74.18.23.42.4.72.51.3.11.63.17,1,.17.39,0,.74-.06,1.03-.18.29-.12.53-.29.7-.52.17-.22.28-.47.31-.74s.05-.73.05-1.39v-1.11c0-.67-.02-1.14-.05-1.4ZM262.35,69.69v1.49c0,.66-.17.9-.29.98-.06.04-.17.03-.22-.01-.3-.24-.26-.96-.26-.96v-1.49c0-.66.17-.9.29-.98.06-.04.12-.03.19-.02.31.06.3.99.3.99Z"/>
          <path class="cls-3" d="M162.6,67.01v5.07s0,.26-.36.26-.36-.26-.36-.26v-5.07h-1.62v5.27c0,1.68,1.98,1.59,1.98,1.59,0,0,1.98.11,1.98-1.59v-5.27h-1.62Z"/>
          <path class="cls-3" d="M195.27,67.01v5.07s0,.26-.36.26-.36-.26-.36-.26v-5.07h-1.62v5.27c0,1.68,1.98,1.59,1.98,1.59,0,0,1.98.11,1.98-1.59v-5.27h-1.62Z"/>
          <path class="cls-3" d="M186.92,67.01h-2.27l-1.12,6.86h1.62l.27-1.5h.93l.25,1.5h1.64l-1.32-6.86ZM185.54,71.24l.34-2.11.34,2.11h-.68Z"/>
          <polygon class="cls-3" points="201.75 67 204.94 67 204.94 68.56 203.34 68.56 203.34 69.55 204.94 69.55 204.94 71.1 203.34 71.1 203.34 72.31 204.94 72.31 204.94 73.87 201.75 73.87 201.75 67"/>
          <polygon class="cls-3" points="210.14 67 213.32 67 213.32 68.56 211.72 68.56 211.72 69.55 213.32 69.55 213.32 71.1 211.72 71.1 211.72 72.31 213.32 72.31 213.32 73.87 210.14 73.87 210.14 67"/>
          <polygon class="cls-3" points="231.13 67 234.3 67 234.28 68.53 232.7 68.53 232.7 69.48 234.28 69.48 234.28 71.11 232.7 71.11 232.7 72.29 234.28 72.29 234.28 73.87 231.11 73.87 231.13 67"/>
          <polygon class="cls-3" points="244 67 247.17 67 247.15 68.53 245.57 68.53 245.57 69.48 247.15 69.48 247.15 71.11 245.57 71.11 245.57 72.29 247.15 72.29 247.15 73.87 243.98 73.87 244 67"/>
          <polygon class="cls-3" points="237.33 66.99 239.26 66.99 240.1 70.08 240.94 66.99 242.83 66.99 242.83 73.89 241.6 73.89 241.6 70.53 240.78 73.89 239.58 73.89 238.69 70.53 238.69 73.89 237.33 73.89 237.33 66.99"/>
          <path class="cls-3" d="M245.74,65.16s1.32,0,1.26,0-.89,1.16-.89,1.16h-.83l.45-1.16Z"/>
          <polygon class="cls-3" points="250.76 70.29 252.16 67 250.5 67 249.86 68.73 249.21 67 247.56 67 248.95 70.29 247.43 73.87 249.21 73.87 249.86 72.41 250.5 73.87 252.28 73.87 250.76 70.29"/>
          <path class="cls-3" d="M159.49,71.42c-.06-.36-.19-.7-.43-.97-.12-.13-.26-.25-.45-.35,0,0,1.04-.39.78-1.96,0,0-.1-.9-.82-1.09-.46-.12-3.12-.05-3.12-.05v6.86h2.92s1.52.11,1.12-2.45ZM156.78,72.32v-1.37s1.03-.22,1.03.69-1.03.69-1.03.69ZM156.78,69.55v-1.37s1.03-.22,1.03.69-1.03.69-1.03.69Z"/>
          <polygon class="cls-2" points="192.23 66.99 192.23 68.77 190.23 72.32 192.23 72.32 192.23 73.89 188.6 73.89 188.6 72.08 190.6 68.45 188.6 68.45 188.6 66.99 192.23 66.99"/>
          <path class="cls-2" d="M207.52,66.99h1.61v5.47s0,1.41-1.41,1.41c-1.52,0-.7,0-.7,0,0,0-1.41.15-1.48-.93-.06-.94,0-1.58,0-1.58h1.28v.95s.01.24.35.24.36-.36.36-.36l-.03-5.2Z"/>
          <path class="cls-3" d="M257.39,70.92h1.71v.79s.2,2.16-2.1,2.16-2.1-2.18-2.1-2.18v-3.25s.02-1.43,1.26-1.43h1.54s1.4-.13,1.4,1.22v1.56h-1.72v-1.07s.04-.34-.38-.34-.43.3-.43.41v2.99s-.06.49.43.49c.41,0,.38-.43.38-.43v-.92Z"/>
        </g>
        <g>
          <polygon class="cls-3" points="214.81 21.04 233.08 21.04 240.23 45.73 247.37 21.04 265.19 21.04 265.19 62.31 252.66 62.31 252.66 38.13 245.02 62.31 245.03 62.31 235.43 62.31 235.43 62.31 227.33 36.67 227.33 62.31 214.81 62.31 214.81 21.04"/>
          <path class="cls-3" d="M155.25,21.04h-23.13v41.26h13.81v-.03h9.32s12.34-.18,12.34-10.88v-19.47c0-10.71-12.34-10.88-12.34-10.88ZM150.15,53.97h-4.23v-24.62h4.23c4.62,0,3.82,4.53,3.82,4.53v15.57s.8,4.53-3.82,4.53Z"/>
          <path class="cls-2" d="M198.75,21.22h-15.84l-12.06,41.08h13.87l1.52-7.6h9.58l1.57,7.6h13.87l-12.51-41.08ZM187.73,46.61l3.26-15.32,3.26,15.32h-6.51Z"/>
        </g>
        <g class="cls-1">
          <polygon class="cls-3" points="267.79 21.74 268.62 21.74 269.41 24.96 270.21 21.74 271.04 21.74 271.04 26.32 270.41 26.32 270.41 23.48 269.78 26.32 269.13 26.32 268.42 23.46 268.42 26.32 267.79 26.32 267.79 21.74"/>
          <rect class="cls-3" x="271.83" y="25.64" width=".56" height=".68"/>
          <rect class="cls-3" x="276.7" y="25.64" width=".56" height=".68"/>
          <path class="cls-3" d="M275.27,24.26s.6-.23.7-.95c.11-.8-.2-1.57-1.01-1.57h-1.78s-.03,4.58,0,4.58h.6v-1.98s.73,0,.73,0l1.01,1.98h.73s-.82-1.84-.97-2.06ZM274.81,23.67h-1.01v-1.33h.89s.64-.02.64.64-.52.69-.52.69Z"/>
        </g>
      </g>
    </g>
  </g>
</svg>