<?xml version="1.0" encoding="UTF-8"?>
<svg id="Layer_2" data-name="Layer 2" xmlns="http://www.w3.org/2000/svg" viewBox="0 0 180.33 185.56">
  <defs>
    <style>
      .cls-1 {
        fill: #80ed99;
      }

      .cls-2 {
        fill: #29363f;
      }
    </style>
  </defs>
  <g id="Layer_1-2" data-name="Layer 1">
    <g>
      <g>
        <path class="cls-2" d="M148.92,35.78c2-2.62,3.45-5.3,3.25-8.34-.23-3.67-1.44-5.21-4.59-7.61-2.88-2.2-6.15-4.44-9.48-3.99s-6.84,2.21-9.04,5.1-2.09,6.14-1.64,9.47.79,6.1,3.67,8.3c5.31,4.05,6.37,2.42,9.41,2.23,3.67-.23,6-2,8.41-5.15Z"/>
        <path class="cls-2" d="M138.96,54.05c-3.38,0-6.71-.91-10.31-1.9l-.21-.06c-6.14-1.69-13.03-4.08-17.04-11.12-3.56-6.25-4.48-14.38-2.46-21.74,1.94-7.05,8.99-11.56,15.44-15.24,6.94-3.95,11.31-5.26,18.84-2.61,6.78,2.39,10.83,8.29,13.61,13.17h0c4.53,7.97,5.41,13.98,3.02,20.74-.41,1.16-.64,2.23-.86,3.27-.87,4.09-1.63,7.62-11.27,13.1-3.08,1.75-5.94,2.39-8.75,2.39ZM136.12,3.15c-3.15,0-5.99,1.22-10.17,3.6-5.9,3.36-12.34,7.44-13.95,13.32-1.8,6.57-1,13.79,2.16,19.33,3.08,5.4,8.07,7.69,15.13,9.63l.21.06c6.16,1.69,11.02,3.03,16.66-.18,8.41-4.79,8.96-7.4,9.74-11.01.23-1.08.49-2.31.97-3.66,2.08-5.87,1.29-10.95-2.78-18.12h0c-3.77-6.62-7.33-10.13-11.91-11.75-2.32-.82-4.23-1.22-6.04-1.22Z"/>
        <path class="cls-1" d="M127.04,123.35c-4.68,0-5.86-.84-6.39-1.76-.56-.96-.64-2.45,2.17-4.11,8.55-5.06,16.8-9.47,24.08-13.36l3.22-1.72c10.81-5.8,18.22-12.42,23.62-17.26,1.35-1.21,2.63-2.35,3.8-3.33.67-.56,1.67-.48,2.23.19.56.67.48,1.67-.19,2.23-1.13.95-2.39,2.08-3.72,3.27-5.52,4.94-13.09,11.71-24.24,17.69l-3.23,1.72c-7.2,3.85-15.36,8.2-23.79,13.19,6.74.72,32.65-2.8,46.42-10.73,1.48-.85,5.54-3.38,6.69-4.39.65-.58,1.66-.52,2.24.13.58.65.52,1.66-.13,2.24-1.5,1.33-6.05,4.11-7.21,4.77-9.85,5.68-24.64,8.66-30.54,9.68-5.09.88-9.94,1.43-13.64,1.54-.49.01-.95.02-1.38.02Z"/>
        <path class="cls-1" d="M78.19,121.21c-2.5,0-4.76-.62-5.53-2.24-.85-1.77.28-3.61,3.33-5.47,3.86-2.34,8.59-5.14,11.88-7.06,3-1.76,6.26-3.6,9.78-5.13,23.28-10.15,50.85-25.32,78.85-60.89.54-.69,1.54-.81,2.22-.27.69.54.81,1.54.27,2.22-28.43,36.12-56.43,51.53-80.07,61.83-3.36,1.47-6.53,3.25-9.44,4.96-3.28,1.92-8,4.7-11.84,7.04-1.14.69-1.66,1.19-1.9,1.47,1.03.43,4.13.65,7.25-.45,1.47-.71,23.5-11.28,45.11-20.95,12.81-5.73,36.37-25.17,49.49-39.03.6-.64,1.6-.66,2.24-.06.64.6.66,1.6.06,2.24-11.81,12.48-35.94,33.23-50.5,39.75-22.22,9.94-44.88,20.84-45.11,20.95-.05.02-.1.04-.15.06-1.71.61-3.91,1.02-5.95,1.02Z"/>
        <path class="cls-1" d="M115.7,128.6c-5.11,0-9.02-.13-11.04-.35-3.3-.36-5.18-1.53-5.57-3.49-.33-1.63.38-6.24,14.02-13.84,1.92-1.07,4.64-2.29,8.09-3.84,6.4-2.88,15.17-6.82,26.42-13.1,11.44-6.4,19.03-14.89,23.57-19.96,1.66-1.85,2.85-3.19,3.84-4.01.22-.18.34-.28.43-.35q.2-.16.82-.74l1.41-1.31c.64-.6,1.64-.56,2.24.08.59.64.56,1.64-.08,2.24l-1.4,1.3c-.7.65-.73.68-.99.89-.08.07-.2.16-.39.32-.81.67-2,2-3.51,3.69-4.67,5.22-12.49,13.96-24.39,20.62-11.36,6.36-20.21,10.33-26.66,13.23-3.38,1.52-6.04,2.71-7.84,3.72-10.76,6-12.58,9.82-12.45,10.44.04.17.63.73,2.81.97,8.43.92,50.69.2,72.99-4.88.85-.2,1.7.34,1.9,1.19.19.85-.34,1.7-1.19,1.9-17.29,3.94-46.42,5.29-63,5.29Z"/>
        <path class="cls-1" d="M85.49,137.03c-10.01,0-18.89-4.72-31.7-21.89-2.53-3.39-6.42-8.18-10.92-13.72C20.2,73.52,0,47.43,0,34.1c0-1.54.27-2.91.84-4.09,1.47-3.06,4.73-4.62,9.64-4.58,13.24.07,37.68,7.05,72.64,20.74,25.95,10.17,48.33,20.44,48.56,20.55.05.02.09.05.14.07.53.31,2.91,1.82,2.91,3.84,0,.25-.04.51-.12.77-.65,2.15-3.52,4.01-19.97,3.02-5.3-.32-10.45-1.58-15.3-3.76-13.58-6.1-58.67-26.08-68.74-27.28-3.37-.4-5.65.05-6.4,1.29-.26.43-.38.97-.38,1.6,0,2.22,1.5,5.46,3.32,8.15,3.57,5.28,29.76,42.14,34.9,46.76,3.91,3.51,17.2-5.2,21.56-8.06.57-.37,1.07-.7,1.48-.97.44-.28,1-.61,1.63-.98,2.94-1.73,8.99-5.3,8.99-8.54,0-.07,0-.15,0-.22-.19-2.22-3.48-4.63-9.24-6.79-4.94-1.85-13.29-5.83-21.37-9.68-10.07-4.8-21.49-10.25-24.32-10.53-.17-.02-.34-.06-.5-.13-.41-.18-.91-.34-1.3-.43.21.58.73,1.66,2.02,3.5,1.93,2.74,4.15,6.39,6.5,10.25,4.94,8.1,11.09,18.18,15.52,21.07,3.02,1.97,10.31.31,14.55-2.44,2.13-1.38,2.87-2.59,2.87-3.27,0-.05,0-.09,0-.13-.44-2.8-4.74-7.49-22.33-14.25,2.58,2.98,6.84,7.46,10.87,11.48.31.31.47.72.47,1.12,0,.4-.15.81-.46,1.12-.62.62-1.62.62-2.24,0-12.04-12-14.17-15.24-14.18-16.65,0-.38.16-.63.32-.88.19-.29.91-1.2,2.48-.61.26.1.59.22.99.37,11.12,4.08,26.05,10.37,27.21,17.8.03.21.05.42.05.63,0,2.02-1.51,4.1-4.32,5.92-4.58,2.96-13.38,5.45-18.01,2.43-5.03-3.28-11.12-13.27-16.49-22.07-2.33-3.82-4.53-7.42-6.39-10.08-1.41-2.01-2.74-4.19-2.74-5.93,0-.63.17-1.2.58-1.68,1.32-1.59,3.87-.79,5.12-.26,3.36.5,11.79,4.44,25.1,10.79,8.02,3.82,16.3,7.78,21.12,9.58,7.27,2.72,10.97,5.82,11.29,9.48.02.17.02.34.02.51,0,5.04-6.57,8.92-10.55,11.26-.6.35-1.12.66-1.53.92-.4.26-.89.58-1.45.94-6.88,4.51-19.69,12.91-25.42,7.77-5.6-5.02-32.54-43.1-35.41-47.34-1.33-1.97-3.86-6.2-3.86-9.93,0-1.15.24-2.26.84-3.24,1.48-2.42,4.67-3.36,9.48-2.78,10.23,1.22,52.13,19.66,69.66,27.54,4.5,2.02,9.28,3.2,14.2,3.49,12.53.75,15.79-.3,16.59-.75-.24-.29-.71-.68-1.14-.95-3.1-1.42-89.45-40.81-119.81-40.96-.04,0-.07,0-.11,0-3.58,0-5.76.91-6.65,2.78-.38.8-.56,1.75-.56,2.83,0,13.28,27.1,46.64,42.18,65.21,4.53,5.57,8.44,10.39,11,13.83,14.28,19.13,22.76,21.82,34.32,20.22,11.72-1.62,15.67-2.16,62.88-1.41,4.7.07,7.76.21,10.22.32,3.97.17,5.96.26,10.1-.16.88-.09,1.65.54,1.74,1.41s-.54,1.65-1.41,1.74c-4.38.45-6.58.35-10.57.18-2.44-.11-5.47-.24-10.13-.31h0c-40.15-.64-48.82-.34-57.7.76-1.51.19-3.02.39-4.7.63-1.92.26-3.77.42-5.59.42Z"/>
      </g>
      <g>
        <path class="cls-2" d="M32.21,169.21v-18.98h8.51v18.98c0,7.65-3.61,12.96-9.1,15.19-1.91.77-3.98,1.16-6.22,1.16-7.63,0-12.44-4.05-14.55-9.7-.76-2.03-1.13-4.25-1.13-6.65v-18.98h8.51v18.98c0,4.83,2.53,8.51,7.17,8.51s6.81-3.81,6.81-8.51Z"/>
        <path class="cls-2" d="M73.53,184.79h-26.93v-34.56h26.77v7.32h-18.26v6.5h16.76v6.91h-16.76v6.5h18.41v7.32Z"/>
        <path class="cls-2" d="M104.37,184.79h-25.53v-34.56h8.51v27.13h17.02v7.43Z"/>
        <path class="cls-2" d="M134.65,184.79h-25.53v-34.56h8.51v27.13h17.02v7.43Z"/>
        <path class="cls-2" d="M164.93,184.79l-2.42-6.29h-14.55l-2.42,6.29h-9.13l14.44-34.56h8.72l14.44,34.56h-9.08ZM155.23,159.83l-4.38,11.35h8.82l-4.44-11.35Z"/>
      </g>
    </g>
  </g>
</svg>