<?xml version="1.0" encoding="UTF-8"?>
<svg id="Layer_2" data-name="Layer 2" xmlns="http://www.w3.org/2000/svg" xmlns:xlink="http://www.w3.org/1999/xlink" viewBox="0 0 203.57 184.26">
  <defs>
    <style>
      .cls-1 {
        fill: url(#Degradado_sin_nombre_437);
      }
    </style>
    <linearGradient id="Degradado_sin_nombre_437" data-name="Degradado sin nombre 437" x1="0" y1="92.13" x2="203.57" y2="92.13" gradientUnits="userSpaceOnUse">
      <stop offset="0" stop-color="#b3cc27"/>
      <stop offset=".47" stop-color="#58b376"/>
      <stop offset=".83" stop-color="#18a2ae"/>
      <stop offset="1" stop-color="#009cc4"/>
    </linearGradient>
  </defs>
  <g id="Layer_1-2" data-name="Layer 1">
    <path class="cls-1" d="M116.42,169.62c-.72-.55-1.45-.98-2.18-1.29-.73-.31-1.33-.56-1.78-.76-.65-.31-1.12-.64-1.4-1-.28-.35-.45-.71-.51-1.08-.06-.37-.04-.73.06-1.08.1-.35.18-.68.25-.97.07-.3.11-.56.11-.78s-.13-.4-.38-.51c-.28-.14-.57-.11-.85.08-.28.2-.59.44-.93.74-.34.3-.71.57-1.1.83-.4.25-.88.38-1.44.38-.51,0-1.06-.14-1.65-.42-.14-.08-.37-.23-.68-.42-.31-.2-.62-.5-.93-.91-.31-.41-.58-.92-.81-1.55-.23-.62-.34-1.38-.34-2.29,0-1.7.42-2.97,1.25-3.83.83-.86,1.96-1.29,3.37-1.29.99,0,1.83.21,2.52.61.69.41,1.27.98,1.74,1.72.47.73.81,1.62,1.04,2.65.23,1.03.35,2.17.38,3.41h6.57c-.11-1.86-.54-3.39-1.27-4.58-.74-1.19-1.65-2.13-2.75-2.82-1.1-.69-2.31-1.17-3.62-1.44-1.31-.27-2.61-.4-3.88-.4-3.45,0-6.15.81-8.11,2.44-1.96,1.62-2.95,3.93-2.95,6.93,0,1.24.16,2.31.49,3.2.32.89.7,1.63,1.12,2.22.42.59.85,1.05,1.27,1.38.42.32.75.54.97.66.4.17.79.25,1.19.25.62,0,1.26-.17,1.93-.51.66-.34,1.31-.76,1.95-1.27.64-.51,1.24-1.06,1.82-1.65.58-.59,1.1-1.14,1.57-1.63.47-.49.85-.9,1.14-1.23.3-.32.49-.46.57-.4.08.03-.02.25-.32.66-.3.41-.65.93-1.06,1.57-.41.64-.82,1.35-1.23,2.14-.41.79-.69,1.57-.83,2.33-.14.76-.09,1.48.15,2.16.24.68.8,1.23,1.67,1.65.34.17.76.35,1.25.55.49.2.96.46,1.4.78.44.33.82.74,1.14,1.25.32.51.49,1.14.49,1.91,0,.68-.14,1.34-.42,1.99-.28.65-.67,1.23-1.17,1.74-.49.51-1.09.92-1.78,1.23-.69.31-1.45.47-2.27.47-.93,0-1.71-.2-2.33-.61-.62-.41-1.13-.98-1.53-1.72-.4-.73-.68-1.62-.85-2.65-.17-1.03-.27-2.17-.3-3.41h-6.61c.11,1.86.56,3.39,1.33,4.58.78,1.19,1.73,2.13,2.86,2.82,1.13.69,2.35,1.17,3.67,1.44,1.31.27,2.55.4,3.71.4,1.5,0,2.95-.19,4.36-.57,1.41-.38,2.68-.95,3.81-1.72,1.13-.76,2.03-1.72,2.71-2.86.68-1.14,1.02-2.48,1.02-4,0-1.36-.26-2.47-.78-3.35-.52-.88-1.14-1.59-1.86-2.14ZM75.55,183.83h6.61v-30.81h-6.61v30.81ZM138.18,161.37c-.71,0-1.42.13-2.14.4-.72.27-1.37.68-1.95,1.23-.58.55-1.06,1.26-1.44,2.12-.38.86-.6,1.89-.66,3.07,0,.37-.18.55-.55.55-.34,0-.51-.18-.51-.55v-12.71c0-.31-.05-.61-.15-.91-.1-.3-.3-.56-.59-.78-.3-.23-.73-.41-1.29-.55-.57-.14-1.31-.21-2.25-.21-.4,0-.85.04-1.38.11-.52.07-1.02.27-1.48.59-.47.33-.86.82-1.19,1.48-.32.66-.49,1.59-.49,2.78v26.27h6.61v-28.82c0-.17.05-.33.15-.49.1-.15.25-.23.44-.23.23,0,.4.07.53.21.13.14.19.31.19.51v12.8c0,.42.13.76.4,1,.27.24.6.36,1,.36.88,0,1.34-.45,1.4-1.36.11-1.38.37-2.32.78-2.82.41-.49.9-.74,1.46-.74.96,0,1.57.57,1.84,1.72.27,1.14.4,3.04.4,5.7v11.74h6.61v-12.84c0-3.16-.49-5.56-1.48-7.18-.99-1.62-2.42-2.44-4.28-2.44ZM45.26,164.51c-.99-.99-2.18-1.76-3.58-2.31-1.4-.55-2.95-.83-4.64-.83s-3.33.3-4.75.89c-1.41.59-2.61,1.41-3.6,2.44-.99,1.03-1.75,2.25-2.29,3.64-.54,1.4-.81,2.92-.81,4.56s.23,3.01.68,4.36c.45,1.36,1.06,2.54,1.82,3.56.76,1.02,1.65,1.82,2.67,2.42,1.02.59,2.09.89,3.22.89.73,0,1.29-.12,1.65-.36.37-.24.62-.54.76-.91.14-.37.2-.76.17-1.19-.03-.42-.08-.82-.15-1.19-.07-.37-.12-.67-.15-.91-.03-.24.01-.36.13-.36.17,0,.32.26.44.78.13.52.32,1.1.59,1.74.27.64.66,1.22,1.17,1.74.51.52,1.23.78,2.16.78,1.02,0,1.98-.33,2.9-1,.92-.66,1.72-1.53,2.42-2.61.69-1.07,1.25-2.31,1.67-3.71.42-1.4.64-2.83.64-4.3,0-1.67-.28-3.19-.83-4.58-.55-1.38-1.32-2.57-2.31-3.56ZM39.37,182.39c-.42,0-.75-.25-.97-.76-.23-.51-.43-1.06-.61-1.65-.18-.59-.39-1.14-.61-1.65-.23-.51-.55-.76-.97-.76s-.65.27-.68.8c-.03.54,0,1.14.06,1.8.07.66.11,1.26.11,1.8s-.2.81-.59.81c-.28,0-.58-.19-.89-.57-.31-.38-.6-.97-.87-1.78-.27-.81-.49-1.83-.66-3.07-.17-1.24-.25-2.74-.25-4.49,0-2.01.12-3.68.36-5.02.24-1.34.56-2.43.95-3.26.4-.83.88-1.43,1.44-1.78.56-.35,1.16-.53,1.78-.53s1.21.18,1.76.55c.55.37,1.02,1,1.42,1.91.4.9.71,2.1.95,3.6.24,1.5.36,3.39.36,5.68,0,5.59-.69,8.39-2.08,8.39ZM20.83,169.62c-.72-.55-1.45-.98-2.18-1.29-.73-.31-1.33-.56-1.78-.76-.65-.31-1.12-.64-1.4-1-.28-.35-.45-.71-.51-1.08-.06-.37-.04-.73.06-1.08.1-.35.18-.68.25-.97.07-.3.11-.56.11-.78s-.13-.4-.38-.51c-.28-.14-.57-.11-.85.08-.28.2-.59.44-.93.74-.34.3-.71.57-1.1.83-.4.25-.88.38-1.44.38-.51,0-1.06-.14-1.65-.42-.14-.08-.37-.23-.68-.42-.31-.2-.62-.5-.93-.91-.31-.41-.58-.92-.81-1.55-.23-.62-.34-1.38-.34-2.29,0-1.7.42-2.97,1.25-3.83.83-.86,1.96-1.29,3.37-1.29.99,0,1.83.21,2.52.61.69.41,1.27.98,1.74,1.72.47.73.81,1.62,1.04,2.65.23,1.03.35,2.17.38,3.41h6.57c-.11-1.86-.54-3.39-1.27-4.58-.73-1.19-1.65-2.13-2.75-2.82-1.1-.69-2.31-1.17-3.62-1.44-1.31-.27-2.61-.4-3.88-.4-3.45,0-6.15.81-8.11,2.44-1.96,1.62-2.95,3.93-2.95,6.93,0,1.24.16,2.31.49,3.2.32.89.7,1.63,1.12,2.22.42.59.85,1.05,1.27,1.38.42.32.75.54.97.66.4.17.79.25,1.19.25.62,0,1.26-.17,1.93-.51.66-.34,1.31-.76,1.95-1.27.64-.51,1.24-1.06,1.82-1.65.58-.59,1.1-1.14,1.57-1.63.47-.49.85-.9,1.14-1.23.3-.32.49-.46.57-.4.08.03-.02.25-.32.66-.3.41-.65.93-1.06,1.57-.41.64-.82,1.35-1.23,2.14-.41.79-.69,1.57-.83,2.33-.14.76-.09,1.48.15,2.16.24.68.8,1.23,1.67,1.65.34.17.76.35,1.25.55.49.2.96.46,1.4.78.44.33.82.74,1.14,1.25.32.51.49,1.14.49,1.91,0,.68-.14,1.34-.42,1.99-.28.65-.67,1.23-1.17,1.74-.49.51-1.09.92-1.78,1.23-.69.31-1.45.47-2.27.47-.93,0-1.71-.2-2.33-.61-.62-.41-1.13-.98-1.53-1.72-.4-.73-.68-1.62-.85-2.65-.17-1.03-.27-2.17-.3-3.41H0c.11,1.86.56,3.39,1.33,4.58.78,1.19,1.73,2.13,2.86,2.82,1.13.69,2.35,1.17,3.67,1.44,1.31.27,2.55.4,3.71.4,1.5,0,2.95-.19,4.36-.57,1.41-.38,2.68-.95,3.81-1.72,1.13-.76,2.03-1.72,2.71-2.86.68-1.14,1.02-2.48,1.02-4,0-1.36-.26-2.47-.78-3.35-.52-.88-1.14-1.59-1.86-2.14ZM65.04,182.94h-.38c-.62,0-.93-.31-.93-.93v-3.98c0-.48-.14-.86-.42-1.14-.28-.28-.65-.42-1.1-.42-.48,0-.86.14-1.14.42-.28.28-.42.66-.42,1.14v4.28c0,.42-.11.64-.34.64h-.13c-.48,0-.88-.07-1.19-.21-.31-.14-.55-.52-.72-1.12-.17-.61-.28-1.53-.34-2.78-.06-1.24-.08-2.95-.08-5.13v-11.86h-6.61v11.86c0,1.98.06,3.62.17,4.94.11,1.31.43,2.35.95,3.11.52.76,1.34,1.3,2.46,1.61,1.12.31,2.69.47,4.72.47h.76c.37,0,.66-.14.89-.42.23-.28.34-.65.34-1.1v-4.28c0-.45.23-.68.68-.68.42,0,.64.23.64.68v4.36c0,.42.13.77.4,1.04.27.27.63.4,1.08.4h7.33v-21.99h-6.61v21.1ZM107.36,62.74c-3.21-1.65-5.26-2.51-9.29-1.68-4.42.91-8.33,2.08-10.61,5.26-2.12,2.96-1.78,6.3-1.04,9.9.77,3.73,2.85,5.37,6.15,7.24s6.27,2.96,10.54,2.08c3.55-.73,6.6-2.45,8.85-4.75,3.15-3.22,4.97-6.31,4.08-10.67-.81-3.94-5.1-5.54-8.67-7.38ZM157.44,55.57c1.91-4.52.28-6.3-.85-6.95-2.5-1.45-7.23-.05-9.37,2.76-1.19,1.56-3.34,1.41-4.73.36-1.97-1.49-2.97-4.96.7-9.86,1.94-2.6,2.38-5.92,1.1-8.47-1.31-2.62-4.13-4.07-7.93-4.08-4.55-.01-10.03-1.12-11.32-3.53-.57-1.06-.32-2.41.74-4.01,2.12-3.19,2.15-6.2.07-8.05-2.52-2.24-8.06-2.17-13.36,2.34-6.07,5.17-9.87,7.36-12.33,7.12-.91-.09-1.67-.54-2.32-1.36-1.2-1.52-2.58-2.29-4.1-2.29-.04,0-.07,0-.11,0-2.68.07-5.66,2.45-9.1,7.3-2.13,3-4.69,4.49-7.46,4.37-3.07-.16-5.61-2.26-6.68-4.14-1.69-2.98-3.58-4.52-5.64-4.58-3.39-.1-6.2,3.71-8.05,6.58-1.05,1.63-1.96,3.33-2.7,4.78-1.41,2.73-5.26,8.88-10.58,7.25-3.82-1.18-8.64,2.04-10.91,5.69-2.1,3.37-1.99,6.82.29,9.24,1.27,1.34,2.54,2.56,3.66,3.63,4.83,4.62,7.48,7.16,3.5,12.24-.45.57-1.33,1.21-2.36,1.96-3.01,2.2-7.57,5.51-5.34,11.11.88,2.21,3.65,2.99,6.86,3.9,5,1.42,10.67,3.03,10.87,10.44.08,2.87-.33,5.52-.69,7.86-.53,3.45-.95,6.17.55,7.77,1.04,1.1,2.84,1.49,5.66,1.24,2.67-.25,6.73.38,9.37,2.94,1.65,1.6,2.42,3.67,2.28,6.14-.2,3.5.8,5.92,2.82,6.79,2.51,1.09,5.99-.44,9.57-4.19,2.8-2.94,4.92-4.27,6.28-3.94,1,.24,1.83,1.46,2.46,3.62.92,3.12,2.92,5.24,5.37,5.68.32.06.63.09.95.09,2.24,0,4.5-1.4,6.46-4.02.8-1.07,1.48-2.09,2.08-3,2.67-4,3.89-5.83,9.59-3.3l1.32.59c5.26,2.36,10.7,4.79,13.83,2.98,1.37-.79,2.18-2.33,2.4-4.57.9-8.95,4.65-13.06,11.85-12.82,9.76.29,12.87-4.54,13.76-8.63.4-1.83-.25-3.78-.89-5.67-1.12-3.33-2.08-6.21,2-8.47,2.19-1.21,4.65-1.63,7.03-2.04,3.01-.51,5.86-1,7.37-3.15,1.09-1.55,1.36-3.82.81-6.93-1-5.69-5.52-8.19-9.51-10.4-4.57-2.53-7.07-4.16-5.3-8.36ZM158.77,63.06c-1.76.17-5.34.58-7.9,1.38-1.78.56-2.43.57-4.16.59-1.61.02-4.03.05-9.01.54-9.1.89-14.93,1.25-16.16,1.32.03-.37.04-.74.03-1.09,1.44-.26,11.48-2.09,16.98-3.22,1.55-.32,2.65-.57,3.5-.76,2.37-.54,2.67-.61,5.29-.4,3.12.24,7.02-2.45,8.25-3.36.01,2.19,1.35,3.71,3.2,5ZM155.93,49.74c1.78,1.03.96,3.78.3,5.32-.36.85-.55,1.61-.63,2.31-.24.19-4.89,3.77-8.25,3.52-2.69-.21-3.01-.14-5.44.42-.84.19-1.94.44-3.49.76-5.43,1.12-15.28,2.91-16.9,3.2-.04-.45-.11-.87-.21-1.29.54-.16,15.68-4.5,21.13-4.72,5.64-.23,11.07-4.95,11.42-9.92.78-.03,1.5.07,2.05.39ZM147.49,52.92c.28-.22.54-.46.77-.76,1.13-1.49,3.23-2.53,5.1-2.77-.4,4.7-5.55,9.14-10.91,9.35-5.5.22-20.2,4.43-21.23,4.73-.11-.39-.25-.76-.41-1.12,1.88-.77,12.07-4.85,16.23-5.13,4.47-.3,6.74-.6,8.33-1.64.93-.6,1.67-1.79,2.12-2.67ZM141.71,52.78c1.52,1.15,3.38,1.34,4.88.68-.4.65-.91,1.32-1.5,1.7-1.36.88-3.18,1.23-8.09,1.56-4.32.29-14.56,4.41-16.43,5.18-.26-.52-.57-1.01-.91-1.48,1.62-.89,5.62-2.87,10.18-3.46,6.09-.79,9.09-4.22,9.21-4.35.38-.4.95-.9,1.39-1.15.35.52.77.97,1.26,1.34ZM120.15,67.59c-.32,1.92-.33,3.87-.35,5.75-.03,3.53-.05,6.87-2.02,9.62-3.11,4.34-8.25,6.14-15.53,7.63-5.94,1.22-8.86-.07-13.52-2.46-.68-.35-1.37-.69-2.07-1.04-4.73-2.33-9.62-4.74-10.61-9.6h0c-1.32-6.41,1.42-10.8,5.95-15.43,2.69-2.76,7.12-6.2,12.91-6.94.75-.1,1.51-.2,2.26-.31,5.12-.72,10.42-1.46,14.56.89,4.94,2.8,9.38,6.18,8.43,11.89ZM131.83,83.09c5.78,1.93,10.77,1.78,11.71,1.73,1.78-.09,9.04.12,10.15,2.8-.65.94-.9,1.93-.92,2.95-1.39-.17-3.87-.43-6.38-.43-2.43,0-4.34-1.03-6.55-2.21-1.14-.61-2.32-1.25-3.66-1.78-3.35-1.33-13.55-3.78-16.26-4.41.11-.26.21-.51.3-.77.91.07,6.94.57,11.61,2.13ZM51.28,99.08c1.56-1.46,7.07-6.36,12.37-7.9,5.55-1.61,13.12-6.21,14.95-7.36.36.3.73.59,1.11.87-2.43,1.29-12.39,6.63-17.42,9.98-3.76,2.5-4.45,3.35-5.6,4.77-.63.77-1.41,1.72-2.91,3.22l-2.91,2.9c.27-1.92.49-4.01.43-6.25,0-.08-.01-.15-.02-.23ZM118.45,58.98c.43-.27,4.74-2.91,9.67-4.28,4.14-1.14,9.2-4.84,11.33-6.5.03,1.05.3,1.99.73,2.79-.66.37-1.34,1.06-1.52,1.25-.03.03-3,3.43-8.89,4.19-4.71.61-8.82,2.66-10.44,3.56-.28-.35-.57-.69-.89-1.01ZM142.14,41.1c-1.78,2.38-2.58,4.56-2.68,6.44-1.86,1.46-7.26,5.5-11.48,6.67-5.25,1.45-9.81,4.33-9.85,4.36l.16.26c-.35-.35-.72-.69-1.11-1.01.76-.89,3.77-4.15,8.3-5.63,3.54-1.15,4.69-3.06,5.62-4.58.52-.85.96-1.58,1.71-2.05l.68-.42c3.76-2.32,7.81-4.91,8.22-6.16.3-.92,1.4-1.47,1.96-1.7-.14,1.32-.64,2.66-1.52,3.83ZM143.13,33.99c.41.82.6,1.75.58,2.71-.49.17-2.07.82-2.49,2.11-.38,1.18-5.72,4.48-8,5.89l-.68.42c-.85.53-1.35,1.35-1.88,2.22-.93,1.53-1.98,3.26-5.34,4.36-4.66,1.52-7.74,4.86-8.54,5.79-.36-.29-.73-.56-1.11-.83.44-.67,3.66-5.38,8.25-7.68,4-2,6.67-5.95,8.61-8.83.54-.8,1-1.48,1.42-2.01.37-.48.8-1.04,1.25-1.63,1.5-1.96,3.68-4.83,4.6-5.31,1.52.55,2.66,1.49,3.31,2.8ZM136.36,30.63c1.04,0,1.98.14,2.82.37-1.01.81-2.5,2.72-4.39,5.19-.45.59-.87,1.14-1.24,1.62-.43.54-.9,1.24-1.44,2.04-1.92,2.84-4.54,6.72-8.42,8.66-4.68,2.34-7.96,7.1-8.44,7.85-.4-.28-.82-.54-1.23-.8.89-1.33,5.43-8.02,9.31-11.12,2.45-1.96,3.07-3.84,3.68-5.66.49-1.48.95-2.87,2.39-4.23,2.1-1.98,3.14-3.36,3.62-4.12,1.67.18,2.99.21,3.35.21ZM132.42,30.35c-.52.76-1.52,2.04-3.4,3.81-1.53,1.45-2.04,2.97-2.52,4.44-.58,1.75-1.17,3.56-3.51,5.42-3.96,3.16-8.56,9.94-9.43,11.25-.4-.24-.8-.48-1.21-.71-.1-.06-.21-.11-.31-.16.59-1.08,3.81-6.82,6.1-8.44,1.82-1.28,3.1-5.28,4.04-8.2.43-1.34.8-2.51,1.08-2.93.73-1.11,3.18-4.44,4.11-5.71,1.6.65,3.44,1.02,5.05,1.23ZM126.89,28.91c-.98,1.33-3.33,4.54-4.05,5.63-.32.49-.68,1.62-1.15,3.06-.92,2.85-2.17,6.75-3.84,7.94-2.41,1.71-5.66,7.52-6.26,8.62-.35-.17-.71-.32-1.08-.45.55-.92,2.31-3.96,4.66-8.4,2.81-5.34,4.5-10.35,5.14-13.26.41-1.88,2.32-4.99,3.28-6.48.08.29.17.57.32.84.59,1.09,1.69,1.9,2.99,2.5ZM124.99,14.71c1.55,1.38,1.44,3.75-.29,6.36-.9,1.35-1.31,2.6-1.25,3.74-.78,1.18-3.18,4.9-3.67,7.13-.22,1-1.49,6.31-5.09,13.13-2.43,4.6-4.23,7.69-4.7,8.47-.63-.2-1.27-.36-1.93-.47l6.51-14.54c.72-1.6,1.22-3.91,1.71-6.14.65-2.98,1.32-6.07,2.48-7.35,1.83-2.03,4.68-8.87,5.48-10.84.27.15.52.31.74.5ZM123.78,13.99c-.77,1.89-3.64,8.76-5.39,10.71-1.25,1.39-1.91,4.4-2.6,7.59-.48,2.21-.98,4.49-1.67,6.04l-6.57,14.67c-.49-.07-.99-.12-1.5-.15.85-2.33,4.97-13.59,6.54-18.23.43-1.27,1.12-3.06,1.91-5.13,2.8-7.27,4.95-13.15,4.73-15.61,1.78-.45,3.36-.36,4.56.12ZM114.29,16.31c1.52-1.14,3.03-1.88,4.44-2.31.16,2.58-2.73,10.1-4.72,15.28-.8,2.08-1.49,3.87-1.92,5.15-1.6,4.75-5.89,16.46-6.59,18.37-.23,0-.45-.02-.68-.02.41-1.91,1.89-8.66,3.58-14.23.8-2.62,1.96-5.39,3.09-8.07,1.74-4.13,3.25-7.7,2.99-9.76-.25-2.06-.24-3.59-.19-4.43ZM113.34,17.07c.14-.12.28-.22.41-.33-.03.91,0,2.28.22,4.07.24,1.92-1.31,5.6-2.96,9.49-1.13,2.69-2.31,5.47-3.11,8.11-1.73,5.7-3.24,12.62-3.62,14.39-.36,0-.72.02-1.09.03.08-1.35.5-6.31,2.55-12.08,2.08-5.87,5.49-18.07,4.49-21.15.97-.75,2-1.59,3.1-2.54ZM104.71,23.29c1.46-.75,3.15-1.85,5.1-3.35.68,2.85-2.12,13.77-4.55,20.65-2.09,5.9-2.51,10.98-2.58,12.28-.62.04-1.25.1-1.88.16-.09-1.31-.3-5.8.73-9.5.31-1.1.64-2.21.95-3.27,1.01-3.4,1.81-6.09,1.5-7.1-.36-1.21-.15-4.8.15-6.75.23-1.5.47-2.65.57-3.12ZM100.04,24.5c1.15.11,2.49-.19,4.08-.92-.12.59-.31,1.57-.5,2.75-.32,2.05-.53,5.69-.14,6.98.26.86-.6,3.75-1.5,6.8-.32,1.06-.65,2.17-.95,3.28-1.06,3.79-.84,8.38-.74,9.7-.41.05-.82.1-1.23.15-.04-1.8-.2-11.27.38-14.7.52-3.13,0-6.05-.31-7.79-.08-.43-.14-.79-.18-1.06-.17-1.39.11-4.3.49-5.31.2.05.39.1.6.12ZM96.04,25.37l.02-.32c.05-.61.05-2.24.05-3.18.24.22.48.48.71.78.61.77,1.33,1.3,2.14,1.59-.59,1.49-.62,4.78-.53,5.51.03.28.1.65.18,1.09.31,1.71.82,4.57.31,7.61-.6,3.56-.42,13.13-.39,14.86-.52.07-1.03.14-1.55.21-.04,0-.09.01-.13.02-.09-2.26-.5-12.49-.39-16.1.09-3.04-.14-4.11-.36-5.15-.08-.36-.15-.71-.21-1.14-.19-1.45.06-4.6.15-5.78ZM93.66,20.85h.08c.65,0,1.26.22,1.85.62,0,.75,0,2.85-.05,3.54l-.03.32c-.09,1.2-.35,4.39-.15,5.89.06.45.13.8.21,1.18.21,1.01.43,2.05.35,5.03-.1,3.65.31,14.04.4,16.19-.46.06-.92.13-1.37.19-.37-2.08-1.56-8.86-1.59-10.94-.01-.93-.22-2-.45-3.24-.4-2.09-.89-4.69-.57-7.55.45-4.07-1.76-8.42-2.35-9.49,1.34-1.12,2.56-1.69,3.66-1.72ZM89.6,22.94c.63,1.19,2.64,5.32,2.23,9.07-.33,2.94.18,5.58.58,7.7.23,1.22.43,2.27.44,3.15.03,2.15,1.21,8.91,1.59,11.02-.44.06-.87.15-1.3.24-.28-.96-1.14-4.06-1.88-8.12-.38-2.09-1.06-3.68-1.73-5.22-.92-2.14-1.72-3.99-1.44-6.65.39-3.76-1.12-6.45-1.8-7.47,1.17-1.56,2.27-2.8,3.31-3.73ZM85.6,27.61c.12-.17.24-.32.36-.49.68,1.08,1.96,3.61,1.61,6.97-.29,2.8.57,4.8,1.48,6.91.65,1.51,1.33,3.08,1.69,5.11.73,4.01,1.58,7.09,1.88,8.12-.26.06-.5.14-.75.22-.25-.51-1.57-3.26-1.93-5.52-.27-1.68-1.16-3.23-1.95-4.6-.44-.76-.86-1.48-1.12-2.15-.21-.52-.47-1.04-.72-1.55-.69-1.38-1.34-2.68-1.05-4.05.37-1.75-1.48-4.98-2.17-6.09.89-.71,1.79-1.65,2.66-2.88ZM82.52,30.8c.68,1.11,2.4,4.14,2.08,5.66-.33,1.55.39,3,1.09,4.39.25.5.51,1.01.7,1.51.28.7.7,1.43,1.15,2.21.77,1.33,1.64,2.83,1.89,4.42.35,2.24,1.59,4.87,1.94,5.59-.31.1-.64.18-.94.29-.96-1.46-4.05-6.54-7.47-13.49-.8-1.63-3.82-7.22-4.73-8.9,1.28-.13,2.76-.58,4.29-1.69ZM69.27,27.73c1.24,2.18,4.19,4.62,7.74,4.8.21.01.43.01.65,0,.73,1.34,4,7.39,4.83,9.09,2.87,5.83,6.14,11.55,7.47,13.46-.31.12-.61.25-.91.39-1.8-2.2-11.68-14.27-13.51-16.76-.88-1.19-1.86-2-2.8-2.79-1.3-1.07-2.41-2-3.03-3.65-.88-2.38-3.39-6.69-4.39-8.38,1.36.32,2.69,1.6,3.96,3.84ZM64.64,23.81s.01,0,.02,0c.8,1.34,3.63,6.15,4.56,8.64.66,1.78,1.89,2.8,3.18,3.87.92.77,1.88,1.56,2.72,2.7,1.81,2.46,11.4,14.18,13.43,16.66-.2.1-.39.2-.58.3-1.66-1.53-11.49-10.63-12.98-12.53l-.34-.43c-1.63-2.07-4.09-5.19-5.85-8.24-1.81-3.12-7.53-7.89-8.31-8.54,1.5-1.63,2.88-2.44,4.16-2.44ZM57.8,29.8h0c.81-1.26,1.59-2.3,2.33-3.16.73.6,6.46,5.39,8.21,8.41,1.78,3.08,4.26,6.22,5.89,8.3l.34.43c1.5,1.91,10.89,10.6,12.91,12.47-.07.04-.13.07-.2.11-2.33-1.78-16.27-12.54-17.61-15.88-.94-2.33-3.07-3.25-4.78-3.99-1.05-.45-1.96-.85-2.21-1.43-.41-.96-1.89-2.33-3.19-3.54-.59-.54-1.32-1.23-1.71-1.68,0,0,.01-.02.02-.03ZM55.16,34.47c.66-1.27,1.45-2.75,2.34-4.18.36.4.89.91,1.64,1.6,1.2,1.12,2.7,2.5,3.06,3.37.33.77,1.33,1.2,2.48,1.7,1.62.7,3.65,1.57,4.51,3.71,1.38,3.42,14.72,13.76,17.59,15.96-.64.38-1.26.78-1.84,1.19-2.41-1.44-15.66-9.36-18.4-11.43-2.97-2.25-6.42-5.14-7.25-6.28-.77-1.05-3.52-3-5.42-3.42.54-.82.97-1.59,1.29-2.2ZM53.57,37.14c1.69.25,4.56,2.24,5.31,3.26.9,1.24,4.44,4.18,7.35,6.39,2.73,2.07,15.4,9.65,18.27,11.36-.27.2-.54.4-.8.61-2.24-.91-11.42-4.68-14.52-6.65-1.88-1.19-3.11-2.47-4.43-3.83-1.18-1.22-2.4-2.48-4.19-3.8-3.06-2.27-7.31-4.39-8.79-5.11.68-.72,1.27-1.49,1.79-2.23ZM51.4,39.77c1.29.62,5.71,2.79,8.86,5.13,1.75,1.3,2.96,2.54,4.12,3.74,1.34,1.38,2.6,2.68,4.52,3.9,3.06,1.95,11.71,5.52,14.34,6.59-.28.23-.54.46-.8.69-5.82-2.24-18.55-7.44-19.37-9.2-.88-1.87-4.78-3.74-7.36-4.97-.75-.36-1.4-.67-1.75-.88-1.1-.65-3.81-2.2-5.22-3.01.98-.52,1.87-1.22,2.66-2.01ZM43.04,42.37c1.9.58,3.62.36,5.13-.32,1.28.73,4.33,2.47,5.51,3.18.37.22,1,.52,1.79.9,2.36,1.13,6.32,3.02,7.12,4.72.99,2.13,15.09,7.7,19.42,9.37-.33.31-.66.63-.96.93-3.48-1.33-22.48-8.66-27.01-11.73-4.05-2.74-11.09-5.9-13.71-7.04.97-.23,1.9-.25,2.7,0ZM39.56,42.61c1.96.84,9.85,4.3,14.2,7.25,4.56,3.08,22.87,10.16,26.91,11.71-.16.16-.31.32-.46.49-1.43-.36-14.24-3.68-21.11-7.07-6.09-3-9.47-4.03-11.28-4.58-.37-.11-.66-.2-.89-.28-.16-.05-.43-.14-.78-.26-2.29-.76-8.9-2.97-10.81-4.5,1.27-1.27,2.76-2.23,4.21-2.75ZM33.62,47.5c.4-.64.86-1.23,1.36-1.78,1.77,1.44,7.03,3.3,11,4.62.35.12.62.2.77.26.23.08.53.17.91.29,1.8.55,5.15,1.57,11.2,4.55,6.59,3.25,18.59,6.43,20.94,7.04-.13.15-.26.29-.39.44-3.82-.68-17.97-4.44-22.66-6.07-4.47-1.55-20.59-6.3-24.08-7.32.28-.85.66-1.56.95-2.03ZM32.53,50.03c3.49,1.02,19.6,5.76,24.06,7.31,4.18,1.45,18.02,5.18,22.44,6.03-.15.18-.3.35-.44.53-9.12-1.45-25.76-4.33-27.58-5.53-1.43-.94-3.28-1.17-5.07-1.39-1.29-.16-2.63-.32-3.73-.75-2.33-.91-7.84-2.05-9.35-2.35-.66-1.32-.62-2.68-.33-3.85ZM37.36,58.75c-1.16-1.11-2.37-2.27-3.61-3.58-.21-.22-.39-.45-.54-.68,1.93.4,6.73,1.42,8.8,2.23,1.17.46,2.54.62,3.86.79,1.73.21,3.52.43,4.85,1.3,2.19,1.44,22.73,4.8,27.49,5.56-.46.59-.89,1.19-1.28,1.82-2.79-.32-18.7-2.11-21.34-2.19-.05,0-4.78-.25-9.03-1.07-2.86-.56-6.1-2.03-7.9-2.94-.42-.41-.84-.82-1.29-1.25ZM39.76,61.11c1.87.87,4.4,1.89,6.7,2.34,4.29.83,9.05,1.08,9.11,1.08,2.53.07,17.78,1.78,21.07,2.15-.44.74-.83,1.52-1.15,2.32-2.66-.25-16.99-1.52-19.55-.21-2.26,1.16-10.49-.23-12.77-.64.31-2.58-1.17-4.73-3.4-7.05ZM75.29,69.51c-.11.3-.21.61-.3.92-2.11-.09-11.99-.44-16.65.29l-1.16.18c-4.53.72-8.11,1.29-10.26,1-1.73-.23-3.91-.48-4.95-.6.57-.94.95-1.81,1.12-2.64,1.68.31,6.28,1.09,9.71,1.09,1.43,0,2.66-.14,3.37-.5,2.36-1.2,16.18-.02,19.12.25ZM38.37,74.94c1.1-.8,2.06-1.5,2.62-2.21.25-.32.47-.63.67-.93.87.09,3.29.36,5.18.62.43.06.9.08,1.41.08,2.18,0,5.16-.47,9-1.09l1.16-.18c4.52-.72,14.1-.39,16.44-.29-.07.27-.13.54-.18.82-2.11.13-17.35,1.12-20.16,2.17-2.61.98-14.91,2.53-18.32,2.68.71-.6,1.47-1.15,2.19-1.68ZM35.65,77.09s.04,0,.07,0c3.17,0,16.17-1.61,18.97-2.67,2.66-1,17.46-1.98,19.89-2.13-.06.39-.1.78-.13,1.18-2.29.07-13.96.54-23.99,3.37-8.76,2.47-14.88,3.13-17.09,3.3.46-1.16,1.3-2.16,2.28-3.05ZM33.18,80.68c2.03-.14,8.33-.77,17.42-3.33,9.92-2.8,21.46-3.28,23.82-3.35-.01.37-.01.74,0,1.12-3.19.3-16.94,1.65-18.96,2.99-1.69,1.12-8.72,2.2-12.09,2.72-1,.16-1.73.27-2.08.34-1.35.28-6.18,2.33-7.91,3.08-.48-1.34-.51-2.52-.21-3.57ZM33.6,84.73c1.72-.74,6.53-2.78,7.81-3.04.34-.07,1.1-.19,2.05-.34,3.67-.57,10.51-1.62,12.3-2.8,1.65-1.09,12.61-2.34,18.72-2.9.01.15.02.3.04.46-2.69.62-11.93,2.82-17.25,5.1-3.39,1.45-5.09,1.3-6.73,1.15-1.39-.13-2.7-.25-4.87.58-3.71,1.42-7.2,3.32-8.46,4.04-1.72-.56-3.06-1.21-3.61-2.24ZM39.48,87.65c-.55-.16-1.08-.31-1.59-.47,1.5-.83,4.64-2.5,7.97-3.77,2.05-.78,3.3-.67,4.63-.54,1.7.16,3.47.32,6.99-1.19,5.25-2.25,14.36-4.43,17.1-5.06.04.29.09.58.15.87-1.42.31-5.06,1.19-8.59,2.89-4.92,2.36-9.59,3.32-12.32,3.42-2.8.11-10.39,3.45-12.47,4.39-.63-.19-1.26-.37-1.86-.54ZM42.09,88.43c2.59-1.15,9.27-4.01,11.74-4.11,3.55-.13,8.35-1.46,12.53-3.47,3.49-1.68,7.08-2.55,8.47-2.85.08.33.17.66.28.97-1.63.56-5.98,2.11-9.04,3.73-2.92,1.55-6.71,2.44-9.47,3.09-.83.2-1.57.37-2.15.53-2.33.64-6.86,3.61-7.74,4.2-1.41-.93-3.01-1.58-4.62-2.1ZM47.18,90.85c1.18-.78,5.31-3.44,7.41-4.02.58-.16,1.31-.33,2.13-.53,2.79-.66,6.61-1.56,9.6-3.14,3.04-1.61,7.37-3.15,8.98-3.71.2.49.43.95.7,1.38-1.18.92-4.22,3.12-8.55,4.95-2.62,1.11-4.76,1.82-6.65,2.44-2.19.72-3.92,1.29-5.39,2.18-1.97,1.19-4.52,2.5-5.71,3.1-.68-1.08-1.54-1.95-2.51-2.66ZM49.96,93.96c1.21-.61,3.74-1.92,5.71-3.1,1.42-.86,3.13-1.42,5.29-2.13,1.9-.63,4.05-1.34,6.69-2.45,4.32-1.83,7.38-4.02,8.62-4.98.54.8,1.19,1.52,1.92,2.18-2.02,1.25-9.31,5.65-14.68,7.21-5.1,1.48-10.36,5.97-12.28,7.73-.15-1.78-.6-3.25-1.27-4.46ZM50.59,107.4c.05-.32.1-.65.15-.98l3.4-3.39c1.53-1.52,2.32-2.49,2.95-3.26,1.16-1.42,1.8-2.2,5.49-4.66,5.22-3.48,15.77-9.1,17.62-10.08.49.33.99.64,1.51.95-2.34,1.35-9.94,5.95-15.96,11.92-6.37,6.32-14.01,12.24-15.63,13.48.03-1.12.23-2.47.47-3.97ZM50.81,114.09c-.44-.47-.63-1.18-.67-2.06.33-.25,8.93-6.77,15.98-13.76,6.21-6.16,14.13-10.86,16.11-11.99.76.43,1.54.83,2.33,1.23-4.2,3.15-19.44,14.75-27.5,23.37-2.73,2.92-4.16,3.73-4.75,3.96-.66-.15-1.17-.39-1.5-.75ZM55.41,114.92c-.85.08-1.58.09-2.21.04.86-.51,2.21-1.57,4.24-3.74,8.17-8.73,23.76-20.55,27.64-23.46.33.16.66.33.99.49-1.16,1.02-14.36,12.67-17.44,17.79-2.54,4.22-6.49,8.09-7.89,9.4-1.9-.53-3.81-.66-5.32-.52ZM61.29,115.62c1.56-1.48,5.31-5.23,7.77-9.31,3.12-5.17,17.27-17.6,17.41-17.73l-.2-.22c.47.23.94.47,1.4.7-2.48,2.36-12.29,11.9-15.55,18.59-3.46,7.1-4.69,8.53-6.72,10.26-1.22-1.06-2.65-1.8-4.11-2.28ZM65.81,118.24c2.05-1.75,3.32-3.24,6.79-10.37,3.3-6.77,13.41-16.53,15.58-18.57.63.32,1.23.62,1.82.91-1.87,1.62-13.35,11.75-14.38,17.31-.89,4.83-6.04,11.7-7.73,13.86-.45-1.18-1.14-2.23-2.08-3.14ZM68.47,125.38c.07-1.21-.07-2.34-.39-3.4,1.46-1.82,7.08-9.12,8.05-14.36,1.03-5.54,13.38-16.3,14.38-17.16.62.29,1.23.55,1.83.78-2.32,1.94-9.82,8.71-12.24,17.29-2.52,8.9-9.93,17.1-11.58,18.85-.07-.61-.09-1.28-.05-2ZM70.51,130.9c-.96-.41-1.6-1.43-1.89-2.88.84-.86,9.24-9.69,11.98-19.35,2.47-8.72,10.3-15.59,12.3-17.22.28.1.55.18.83.26-2.48,4.25-12.91,22.26-13.99,26.3-.98,3.69-5.69,10.75-7.25,13.03-.74.14-1.41.11-1.98-.14ZM79.67,125.94c-.34.33-.69.69-1.06,1.07-1.9,1.99-3.76,3.3-5.36,3.84,1.83-2.69,6.03-9.13,6.99-12.7,1.06-3.96,11.69-22.31,14-26.28.38.1.76.18,1.15.25-.72,1.93-5.32,14.25-7.35,17.74-1.08,1.86-3.02,5.68-4.89,9.36-1.35,2.66-2.64,5.19-3.47,6.72ZM85.67,122.65c-.1,0-.19-.03-.29-.03-1.29,0-2.76.74-4.56,2.28.77-1.47,1.74-3.38,2.79-5.44,1.87-3.68,3.8-7.48,4.88-9.33,2.12-3.64,6.84-16.32,7.43-17.93.22.03.45.07.68.09l-10.93,30.37ZM86.2,122.72l10.94-30.4c.32.02.64.04.97.04.09,0,.18,0,.27,0-1.34,4.39-7.82,25.72-9.4,33.28-.72-1.65-1.63-2.61-2.78-2.91ZM89.55,127.22c-.07-.24-.15-.46-.22-.67,1.24-6.68,8.38-30.19,9.6-34.21.34-.02.69-.04,1.05-.08-1.05,4.32-5.8,24.11-6,27.85-.16,3.1-1.37,8.58-1.94,11.04-1.1-.83-1.99-2.19-2.5-3.92ZM98.07,130.65c-1.37,1.11-2.8,1.59-4.16,1.34-.49-.09-.96-.27-1.4-.52.55-2.36,1.83-8.11,2-11.33.19-3.69,5.11-24.13,6.03-27.94.47-.06.96-.14,1.47-.23-.64,4.41-3.73,25.95-3.65,28.69.07,2.51-.2,8.27-.29,10ZM102.09,125.62c-.59.89-1.26,1.89-2.04,2.94-.47.62-.95,1.17-1.44,1.63.1-2.15.33-7.23.27-9.55-.08-2.7,3.11-24.88,3.67-28.77.03,0,.05-.01.08-.02-.07,3.9-.51,29.23-.55,31.13-.02,1.36.11,1.99.25,2.28-.08.12-.16.24-.24.37ZM102.7,124.71c-.06-.3-.12-.82-.1-1.72.03-1.92.49-27.75.55-31.25.08-.02.17-.04.25-.05.51,3.55,3.01,21.21,2.95,23.24-.05,1.94.39,4.92.55,5.9-1.75.54-2.92,2.01-4.2,3.89ZM109.68,115.26c-.28,2.06-.16,4.21-.05,5.44-.84-.13-1.57-.13-2.22,0-.16-1.01-.59-3.92-.54-5.76.06-2.1-2.46-19.85-2.96-23.36.23-.05.45-.1.68-.15.55,2.11,5.48,20.98,5.09,23.84ZM114.61,122.44l-1.33-.59c-1.19-.53-2.21-.87-3.12-1.06-.12-1.16-.26-3.36.03-5.46.41-2.99-4.49-21.72-5.09-24.03.72-.17,1.44-.35,2.15-.54,1.03,2.68,6.05,15.87,6.29,17.98.26,2.33,1.32,9.12,1.92,10.93.36,1.09.81,2.63,1.11,3.65-.65-.28-1.3-.58-1.95-.87ZM117.18,123.58c-.28-.97-.82-2.82-1.24-4.08-.59-1.77-1.63-8.51-1.89-10.82-.25-2.19-5.22-15.23-6.3-18.06.33-.1.66-.2.99-.3,1.14,2.1,4.95,9.22,5.73,12.13.91,3.38,2.71,11.55,3.38,14.79.5,2.45,2.85,6.31,3.96,8.1-1.45-.44-3.02-1.07-4.63-1.76ZM122.55,125.55s-.05-.08-.08-.13c-.98-1.58-3.59-5.76-4.11-8.28-.69-3.34-2.46-11.38-3.39-14.82-.8-2.97-4.52-9.93-5.73-12.16.24-.08.48-.17.72-.25,1.51,2.5,8.84,14.8,9.55,19.18.24,1.49.4,2.77.53,3.9.33,2.65.54,4.4,1.43,5.53.95,1.2,4.1,5.41,5.4,7.15-1.11.46-2.61.34-4.34-.11ZM129.02,121.91c-.18,1.76-.73,2.9-1.67,3.5-1.27-1.7-4.5-6-5.46-7.22-.8-1.02-1.01-2.71-1.32-5.27-.14-1.14-.3-2.43-.54-3.92-.72-4.48-7.9-16.54-9.56-19.28.3-.11.6-.24.89-.36,1.02,1.77,6,10.28,8.53,13.2,2.47,2.86,2.77,7.84,2.78,9.84,0,.94,1.16,6.19,6.44,8.84-.03.22-.06.43-.08.66ZM129.18,120.7c-4.91-2.55-5.99-7.42-5.99-8.29-.02-2.56-.41-7.3-2.9-10.18-2.44-2.82-7.36-11.22-8.44-13.07.26-.12.52-.23.77-.36.73,1.32,2.96,5.17,5.19,7.41,2.93,2.95,7.25,8.6,7.21,11.37-.05,3.11,2.6,7.84,5.22,8.48-.47,1.37-.83,2.92-1.06,4.65ZM130.41,115.56c-2.39-.51-4.92-5.09-4.88-7.98.05-3.23-4.94-9.3-7.36-11.74-2.15-2.16-4.36-5.97-5.1-7.28.36-.19.71-.38,1.05-.59.66.83,2.23,2.76,4.4,5.28,1.68,1.96,6.8,7.91,8.14,12.61,1.07,3.75,4.38,6.12,5.28,6.71-.6.87-1.11,1.87-1.53,2.99ZM132.25,112.14c-.82-.54-4.07-2.87-5.08-6.42-.92-3.24-3.62-7.42-8.24-12.8-2.12-2.47-3.66-4.37-4.35-5.21.19-.12.37-.25.55-.37.44.41,11.4,10.63,12.97,15.13,1.29,3.72,4.74,6.51,6.26,7.59-.78.58-1.48,1.27-2.09,2.09ZM134.8,109.73c-1.37-.98-4.95-3.79-6.22-7.44-1.58-4.52-11.85-14.18-13.02-15.26.14-.1.27-.22.41-.32,1.63,1.25,11.73,9.07,14.49,13.65,2.2,3.66,6.45,6.43,8.75,7.75-1.68.26-3.14.8-4.41,1.63ZM142.2,107.92c-.18,0-.36,0-.54,0-.54,0-1.06.03-1.57.08-2.02-1.11-6.86-4.04-9.19-7.91-2.79-4.63-12.55-12.22-14.51-13.72.11-.1.23-.2.34-.3,1.26.82,16.54,10.7,18.36,13.46,1.57,2.38,7.86,6.59,11.15,8.16-1.23.2-2.57.29-4.03.24ZM147.12,107.5c-2.68-1.14-9.92-5.73-11.6-8.27-1.86-2.82-16.47-12.29-18.4-13.54.24-.23.46-.47.68-.71.94.42,7.11,3.2,9,5.03,1.66,1.61,3.15,2.2,5.61,3.18.69.27,1.46.58,2.33.95l.77.32c3.79,1.59,8.51,3.57,9.84,5.63,1.15,1.76,5.15,3.7,7.1,4.57-1.3,1.39-3.08,2.35-5.32,2.86ZM154.65,100.31c-.34,1.53-.96,2.84-1.84,3.92-1.83-.81-5.93-2.76-7.02-4.44-1.42-2.18-6.22-4.2-10.08-5.82l-.77-.32c-.88-.37-1.65-.68-2.34-.95-2.4-.95-3.86-1.53-5.44-3.07-1.89-1.83-7.66-4.46-8.99-5.06.21-.25.42-.52.62-.79,3.03,1.07,17.5,6.22,20.94,8.08,2.92,1.58,12.28,5.93,14.96,6.66.09.62.1,1.22-.03,1.79ZM154.58,97.98c-2.5-.8-11.07-4.66-14.61-6.57-3.48-1.88-17.59-6.9-20.9-8.07.24-.37.45-.74.64-1.12,2.54.6,12.92,3.08,16.28,4.41,1.31.52,2.48,1.15,3.61,1.76,2.17,1.17,4.23,2.28,6.79,2.28,2.53,0,5.03.26,6.39.43.08,1.42.56,2.87,1.02,4.24.31.91.6,1.8.78,2.64ZM156.41,85.31c-1.04.58-1.8,1.2-2.36,1.86-1.76-3.19-10.44-2.87-10.53-2.87-.92.06-5.82.2-11.52-1.7-4.55-1.52-10.37-2.05-11.61-2.15.14-.48.26-.96.34-1.45,1.56.02,7.1.28,11.54,2.08,4,1.62,6.34,1.24,8.22.94.65-.1,1.25-.2,1.85-.2h.04c2.34,0,10.83,1.13,15.77,2.69-.59.23-1.18.49-1.74.8ZM163.85,83.12c-1.56.27-3.25.56-4.9,1.1-4.87-1.68-14.11-2.93-16.57-2.93h-.04c-.64,0-1.27.11-1.93.21-1.91.31-4.08.66-7.94-.91-4.45-1.8-9.95-2.08-11.64-2.11.1-.64.16-1.29.2-1.95,1.94.14,6.47.56,10.77,1.61,5.87,1.43,7.3,1.67,10.46,1.21,3.44-.5,7.99.28,9.78.64.46.09.99.21,1.58.33,2.79.6,6.61,1.42,8.17,1.02,1.25-.32,4.25.43,5.82.96-1.1.35-2.38.58-3.75.81ZM170.37,80.51c-.49.7-1.2,1.18-2.06,1.54-1.58-.67-5.29-1.55-6.66-1.2-1.44.37-5.34-.47-7.93-1.03-.59-.13-1.13-.24-1.59-.34-1.82-.36-6.43-1.15-9.95-.65-3.08.45-4.48.21-10.27-1.2-4.34-1.06-8.91-1.48-10.87-1.62.03-.63.04-1.27.05-1.9,1.91.11,8.1.55,11.35,1.78,3.1,1.17,6.6.91,9.15.73.75-.05,1.4-.1,1.95-.11.59,0,1.5-.07,2.55-.14,3.5-.24,8.8-.61,11.13.34,3.12,1.26,8.63,1.3,10.28,1.17.97-.08,2.64.16,3.65.33-.11.93-.37,1.7-.79,2.3ZM170.97,74.55c.21,1.2.28,2.23.24,3.14-1.04-.17-2.72-.41-3.73-.33-1.62.13-7.01.09-10.04-1.14-2.45-.99-7.81-.62-11.36-.38-1.05.07-1.95.13-2.53.14-.56,0-1.22.06-1.98.11-2.51.18-5.94.44-8.93-.69-3.37-1.27-9.62-1.7-11.53-1.81,0-.08,0-.17,0-.25,0-.53.01-1.06.02-1.6,1.55.05,8.27.33,11.02,1.25,3.15,1.06,6.84.72,10.37.19,3.17-.47,12.69-.18,15.66.48,1.5.33,2.81.5,4.03.5s2.32-.16,3.45-.49c1.59-.46,4.02.01,5.19.3.04.19.09.37.13.57ZM170.69,73.41c-1.29-.3-3.58-.69-5.18-.23-2.17.63-4.33.62-7.22-.02-3.01-.67-12.63-.96-15.84-.49-3.46.51-7.08.85-10.13-.17-2.86-.96-9.6-1.23-11.17-1.28.01-.44.04-.88.06-1.32,1.13-.28,4.32-.77,9.83.51,1.41.33,2.67.45,3.86.45,2.08,0,3.94-.39,5.98-.82,2.8-.59,5.99-1.27,10.52-1.02,3.96.21,6.68.55,8.67.79,2.87.36,4.18.52,5.26-.24.94-.65,1.53-1.03,1.87-1.24,1.56,1.31,2.84,2.92,3.48,5.07ZM166.78,67.99c-.37.23-.92.6-1.74,1.17-.92.64-2.09.5-4.9.15-1.99-.25-4.73-.59-8.71-.8-4.59-.24-7.81.43-10.65,1.03-3.15.66-5.87,1.24-9.63.37-5.4-1.25-8.59-.85-9.91-.55.02-.27.06-.54.09-.82,2.02-.12,8.2-.44,10.96-.01.67.1,1.35.15,2.07.15,1.88,0,3.98-.32,6.76-.75,1.52-.23,3.24-.5,5.25-.76,3.33-.44,6.89-.58,10.03-.72,3.11-.13,5.65-.24,7.18-.58,1.1.63,2.2,1.32,3.21,2.11ZM156.36,65.94c-3.15.13-6.72.28-10.07.72-2.01.26-3.74.53-5.26.76-3.79.58-6.29.97-8.66.6-2.8-.43-8.83-.13-10.97,0,.01-.07.02-.15.03-.22.02-.13.03-.25.04-.38,1.01-.06,6.91-.41,16.27-1.33,4.96-.49,7.37-.52,8.97-.54,1.74-.02,2.45-.03,4.31-.61,2.88-.9,7.13-1.31,8.43-1.41.83.53,1.74,1.04,2.66,1.54.25.14.5.28.76.42-1.55.25-3.89.35-6.5.45ZM150.63,18.03c-2.73-1.55-5.56-3.16-8.09-4.86-2.41-1.61-4.42-3.19-6.36-4.72-5.08-4-9.47-7.45-17.52-8.15-19.63-1.7-34.95,4.13-47.27,8.81l-2.79,1.06C34.81,22.86,23.9,28.28,19.38,57.9c-1.49,9.76-1.54,26.91,3.24,43.13,3.73,12.65,11.66,28.8,28.32,33.9,2.99.91,9.19,1.49,16.37,2.17,6.91.65,14.75,1.38,20.07,2.53,3.52.76,6.68,1.55,9.73,2.32,7.09,1.78,13.23,3.32,20.04,3.32,3.87,0,7.95-.5,12.54-1.73,12.1-3.25,16.13-9.67,20.41-16.48,2-3.18,4.06-6.46,7.04-9.55,1.51-1.57,3.02-3.06,4.5-4.51,7.41-7.31,13.82-13.62,16.34-25.42,5.26-24.56.49-39.37-8.27-54.05-4.19-7.03-11.77-11.34-19.1-15.5ZM176.72,87.3c-2.44,11.42-8.72,17.6-15.98,24.76-1.48,1.46-3,2.96-4.52,4.54-3.08,3.19-5.18,6.53-7.21,9.76-4.13,6.58-8.04,12.8-19.65,15.91-12.35,3.32-20.57,1.26-31.93-1.59-3.07-.77-6.23-1.56-9.78-2.33-5.4-1.16-13.27-1.9-20.22-2.55-6.82-.64-13.25-1.24-16.11-2.12-16.11-4.93-23.82-20.68-27.46-33.02-4.72-16.02-4.67-32.94-3.2-42.57,4.42-28.9,15.14-34.22,48.38-46.71l2.8-1.06c10.72-4.08,23.75-9.03,39.87-9.03,2.22,0,4.49.09,6.83.3,7.66.66,11.7,3.84,16.82,7.87,1.96,1.54,3.99,3.14,6.44,4.78,2.57,1.72,5.42,3.34,8.17,4.91,7.18,4.08,14.6,8.31,18.62,15.04,8.61,14.42,13.28,28.97,8.12,53.11ZM147.67,159.64h6.61v-6.61h-6.61v6.61ZM200.77,176.82c-.65-.3-1.38-.51-2.18-.64-.8-.13-1.59-.22-2.35-.28-.76-.06-1.47-.08-2.12-.06-.65.01-1.14.02-1.48.02-.31,0-.62-.01-.93-.04-.31-.03-.47-.15-.47-.38,0-.34.3-.6.91-.78.61-.18,1.37-.37,2.29-.57.92-.2,1.91-.43,2.97-.7,1.06-.27,2.05-.64,2.97-1.12.92-.48,1.68-1.11,2.29-1.89.61-.78.91-1.76.91-2.95,0-.99-.21-1.82-.61-2.5-.41-.68-.93-1.24-1.57-1.7-.64-.45-1.33-.81-2.1-1.06-.76-.25-1.5-.44-2.22-.55-.72-.11-1.36-.18-1.93-.21-.57-.03-.97-.04-1.23-.04-1.95,0-3.7.28-5.25.85-1.55.57-2.87,1.36-3.96,2.39-1.09,1.03-1.91,2.27-2.48,3.71-.57,1.44-.85,3.04-.85,4.79s.28,3.32.85,4.7c.56,1.38,1.38,2.55,2.44,3.5,1.06.95,2.35,1.67,3.88,2.18,1.53.51,3.23.76,5.13.76.68,0,1.55-.05,2.61-.15,1.06-.1,2.09-.3,3.09-.61,1-.31,1.86-.76,2.56-1.36.71-.59,1.06-1.38,1.06-2.37,0-.73-.21-1.33-.61-1.8-.41-.47-.94-.85-1.59-1.14ZM196.26,182.24c-.69.61-1.55.91-2.56.91-.76,0-1.43-.18-2.01-.55-.58-.37-1.07-.85-1.48-1.44-.41-.59-.74-1.26-1-2.01-.25-.75-.46-1.5-.61-2.27-.16-.76-.26-1.5-.32-2.22-.06-.72-.08-1.34-.08-1.84,0-.42.02-.97.06-1.65.04-.68.13-1.4.25-2.16.13-.76.3-1.53.53-2.31.23-.78.52-1.48.87-2.12.35-.64.8-1.15,1.34-1.55.54-.4,1.16-.59,1.86-.59s1.34.19,1.8.57c.47.38.83.86,1.1,1.44.27.58.46,1.21.57,1.89.11.68.17,1.31.17,1.91,0,1.13-.16,2.02-.47,2.67-.31.65-.71,1.16-1.19,1.53-.48.37-1,.63-1.55.78-.55.16-1.07.31-1.55.47-.48.16-.88.35-1.19.57-.31.23-.47.58-.47,1.06,0,.62.21,1.02.64,1.19.42.17.88.25,1.36.25.4,0,.87.04,1.42.13.55.08,1.09.24,1.63.47.54.23.99.55,1.36.97.37.42.55.97.55,1.65,0,.9-.35,1.66-1.04,2.27ZM147.67,183.83h6.61v-21.99h-6.61v21.99ZM177.48,163.92c-.52-.76-1.34-1.3-2.46-1.61-1.12-.31-2.69-.47-4.73-.47h-.76c-.37,0-.66.13-.89.4-.23.27-.34.64-.34,1.12v4.28c0,.42-.23.64-.68.64-.42,0-.64-.21-.64-.64v-4.36c0-.45-.13-.81-.4-1.06-.27-.25-.61-.38-1.04-.38h-7.37v21.99h6.61v-21.14h.38c.62,0,.93.31.93.93v4.03c0,.48.14.85.42,1.12.28.27.65.4,1.1.4.48,0,.86-.13,1.14-.4.28-.27.42-.64.42-1.12v-4.28c0-.45.11-.68.34-.68h.13c.48,0,.88.07,1.19.21.31.14.55.52.72,1.14.17.62.28,1.55.34,2.8.06,1.24.08,2.95.08,5.13v11.86h6.61v-11.86c0-2.01-.06-3.66-.17-4.96-.11-1.3-.43-2.33-.95-3.09Z"/>
  </g>
</svg>