<?xml version="1.0" encoding="UTF-8"?>
<svg id="Layer_2" data-name="Layer 2" xmlns="http://www.w3.org/2000/svg" viewBox="0 0 337.21 129.6">
  <defs>
    <style>
      .cls-1 {
        fill: #ceba88;
      }

      .cls-2 {
        fill: #98bc3c;
      }

      .cls-3 {
        fill: #ccb886;
      }

      .cls-4 {
        fill: #725b42;
      }

      .cls-5 {
        fill: #4486b8;
      }
    </style>
  </defs>
  <g id="Layer_1-2" data-name="Layer 1">
    <g>
      <path class="cls-3" d="M190.41,84.06c-.11-.04-.23-.06-.34-.08-2.84-.49-44.18-7.33-92.61-.8-50.2,6.76-69.71,21.56-69.71,21.56,0,0-1.64,1.39,1.63.71s59.1-17.73,122.46-18.42c0,0,17.99-.46,29.72-.37,0,0,2.98.12,5.08-.75,3.04-1.26,4.8-1.49,3.77-1.85Z"/>
      <g>
        <path class="cls-2" d="M183.66,98.51c.38-1.69,1.26-3.22,2.45-4.48,4.63-4.89,13.49-8.45,13.49-8.45,6.33-2.39,13.17-3.79,19.73-5.44.57-.41,3.38-11.83,3.93-13.5.96-2.87,1.12-3.79,1.11-4.07,0-.07-.09-.1-.14-.06-.84.77-1.34,1.91-2.02,2.82-4.2,5.61-11.95,10.17-16.13,1.84-3.49,5.6-14.12,7.55-15.05-.95-.55-5.02,3.16-11.86,4.76-16.68.38-1.14.91-2.45.86-3.64,0-.13-.13-.23-.26-.2-1.87.52-6.02,6.7-6.97,8.22-2.72,4.33-4.89,9.06-6.16,14.03-.23.89-.39,3.92-1.08,4.16-1.98.68-7.03-2.09-7.16-4.3-.08-1.36.8-3.39.77-4.84-3.29,3.78-10.2,10.19-15.56,6.78-3.08-1.97-3.16-4.46-3.32-7.7-.01-.3.17-.72-.26-.65-4.2,6.46-16.42,14.42-22.67,6.01-.5-.67-1.14-1.77-1.2-2.6-2.49,2.7-5.2,5.67-9.28,5.21-3.99-.44-5.44-4.12-5.4-7.57,0-.48.1-1.77-.06-2.05-.03-.05-.1-.04-.12,0-.23.58-.23.83-.87,2.04-2.72,5.13-7.7,10.6-13.61,6.93-1.96-1.22-2.28-2.38-2.9-4.45-.06-.18.08-.59-.4-.38-.51.22-2.44,2.54-3.16,3.14-4.76,3.99-12.82,7.03-18.3,2.85-6.17-4.7-4.83-15.56-1.44-21.58-.21-.16-4.65.74-4.87.89-.36.25-1.72,7.56-1.91,8.63-.98,5.58-2.69,15.03.23,20.05.73,1.25,2.6,2.34.66,3.38-.53.28-1.4.49-2.01.62-12.68,2.75-12.41-8.58-11.55-17.58.41-4.3,1.46-8.52,2.36-12.72l-15.41,3.33-.33.27c-3.66,12.23-8.56,29.1-20.71,35.47-15.33,8.04-29.89-2.68-18.57-18.44,4.74-6.6,13.8-12.91,21.1-16.4,1.21-.58,7.34-2.84,7.67-3.34,2.59-10.53,5.55-21.33,7.29-32.05.53-3.28,1.73-10.46.48-13.42-1.19-2.83-4.57-1.24-6.68-.38-8.8,3.6-20.08,13.51-23.83,22.32-1.62,3.79-2.3,6.92-.35,10.76,1.07,2.11,4.21,3.92.26,5.14C2.89,48.01-1.49,40.68.46,33.27,3.98,19.98,30.88.83,44.17.03c2.63-.16,6.08.36,7.72,2.64,2.9,4.04.91,15.56.07,20.48-1.55,8.98-4.17,17.77-5.95,26.69l15.96-3.18c2.68-8.79,5.29-17.68,8.42-26.32,1.67-4.61,5.54-15.3,9.46-18.07,2.44-1.72,8.47-1.73,8.62,1.84.06,1.39-3.2,7.33-3.96,9.11-4.41,10.22-8.21,20.71-10.97,31.51l6.56-.26c2.44-3.3,5.06-6.34,8.74-8.31,7.62-4.07,14.84-1.43,10.97,8.09-2.16,5.32-7.78,10.02-12.72,12.72-2.89,1.58-3.71.41-3.32,4.8.64,7.18,7,6.28,11.4,2.75,1.16-.93,4.5-4.48,4.99-5.76.58-1.51.76-3.95,1.36-5.72,1.93-5.69,6.55-12.25,11.96-15.05,3.57-1.85,9.52-3.03,12.77-.09.49.45.8,1.17,1.17,1.46.69.55,2.3.7,2.66,1.82.43,1.34-.91,2.5-1.15,3.61-1.07,4.9-3.04,10.44-3.46,15.42-.67,7.96,3.98,3.67,6.24-.07-.95-11.06,2.38-22.67,6.9-32.67,3.3-7.3,8.95-17.54,17.27-19.57,0,0,9.12-2.7,5.51,12.59-3.01,12.72-10.84,25.37-20.4,34.01-.18,3.09-.63,10.53,3.76,10.83s9.18-5.61,12.09-9.69c.84-1.18,1.5-2.47,1.97-3.84l4.96-14.63c-1.13-.75-5.44.43-6-1.39-.31-1-.06-2.47,1.13-2.7,1.04-.19,6.36.21,6.65-.04,1.31-3.47,2.65-6.99,4.18-10.37.44-.96,1.84-4.42,2.42-4.93,1.37-1.2,7.31-.76,7.55,1.1l-5.2,14.49,9,.27c4.54-10.05,12.53-23.91,23.71-27.48,7.28-2.32,13.34,1.09,9.63,9.11-2.96,6.42-11.52,13.95-17.46,17.68-1.19.75-6.86,3.45-7.18,3.83,0,0-.61.5-.89,1.27s-3.97,12.09-3.97,12.09c-.16.37-.32.74-.29.91.01.08.09.13.17.1.11-.05.2-.12.26-.22,1.01-1.89,1.97-3.14,1.97-3.14,2.1-2.63,6.9-7.41,10.37-7.61,2.86-.16,4.77,2.1,4.86,4.85.19,6.03-5.12,13.32-5.76,19.43-.52,5,2.99,2.69,4.96.5,2.55-2.82,1.88-3.91,2.75-7.22,1.07-4.11,2.74-8.65,4.54-12.5.62-1.32,2.1-4.81,3.27-5.38,1.39-.68,7.27-.96,7.54.99.16,1.17-4.33,10.19-5.11,12.19s-1.68,4.08-2.16,6.23c-1.07,4.73-1.33,10.33,4.25,4.51,5.37-5.59,8.06-13.79,11.56-20.58.2-.39.53-.7.94-.87,2.18-.89,7.04-.24,6.75,2.4-2.99,10.84-5.14,21.91-8.37,32.68,3.56-1.05,6.74-2.98,9.62-5.28.53-.42,1.25-.55,1.88-.3,1.23.49,1.29,2.04.05,3.36-3.19,3.39-9.05,5.64-13.32,7.26-3.01,12.84-16.26,24.27-29.79,24.8-14.47.58-15.42-5.11-14.6-8.72ZM193.9,32.28c6.75-3.12,13.8-9.05,17.09-15.81,1.6-3.29,3.49-10.15-2.68-6.87-3.32,1.77-6.29,7.19-8.17,10.45-2.27,3.93-4.38,8.11-6.25,12.24ZM153.7,30.84c2.22-4.79,3.83-9.74,4.24-14.19.12-1.26.34-3.54-.49-4.44-1.01-.51-3.26,2.8-3.78,3.58-6.04,9.12-10.17,21.68-12.48,32.28-.07.32-.07.74-.03,1.17.02.23.31.41.47.24,6.4-7.03,12.08-18.64,12.08-18.64ZM182.36,36.74l-9.05.26-.52.26c-2.18,6.21-4.59,12.43-6.03,18.88-.53,2.37-2.79,10.18,1.81,8.1,2.19-.99,7.57-6.55,8.61-8.7s1.68-7.09,2.38-9.68c.83-3.07,1.86-6.09,2.81-9.12ZM84.82,54.3c.13.14,1.4-.67,1.65-.84,3.63-2.35,8.44-7.53,9.4-11.84,1.15-5.19-2.02-4.13-4.5-1.36-3.18,3.53-5.48,9.46-6.55,14.03ZM119.36,40.47c-6.41,1.19-13.18,17.43-11.14,23.07,1.03,2.83,3.3,1.12,4.65-.46,4.4-5.19,5.48-12.72,8.35-18.39.62-1.23,2.28-1.81,1.59-3.06s-2.12-1.41-3.45-1.16ZM32.37,58.76c-7.99,2.94-19.1,9.75-22.78,17.73-3.95,8.56.92,15.06,9.12,8.6,7.09-5.57,10.79-18.08,13.66-26.33ZM217.49,84.72c-5.85,1.25-11.93,2.55-17.4,5.02-2.34,1.06-5.82,2.9-7.52,4.81-3.31,3.73-2.59,8.01,2.79,8.49,9.82.88,18.9-10.05,22.12-18.32Z"/>
        <path class="cls-5" d="M297.34,70.3c-4.05,4.49-9.77,8.43-15.99,8.92-10.53.83-12.81-6.19-11.33-15.27,1.46-8.96,8.6-19.62,17.75-21.98,0,0,6.6-1.52,9.05,1.83,2.08,2.84,1.15,8.73-1.97,10.49-.16.09-.36.21-.52.26-1.29.41-3.2.1-3.4-1.47-.3-2.4,2.43-2.49,2.82-4.23.84-3.7-1.87-4.15-4.54-2.44-5.5,3.52-11.57,18.19-9.7,24.4s9.54,2.03,12.72-.66c1.19-1.01,4.73-4.49,5.18-5.83,5.52-16.34,16.58-20.26,16.58-20.26,4.99-1.97,13.08-1.53,13.87,4.61,1.17,9.04-13.39,14.14-20.38,15.11-2.34,11.64,6.29,14.31,15.13,8.71,2.12-1.35,4.78-3.7,6.58-5.49,1.12-1.12,4.04-6.06,6.16-6.13,4.24-.14.05,5.17-.92,6.39-6.32,7.95-15.4,13.32-25.69,12.99-13.23-.42-11.41-9.96-11.41-9.96ZM308.48,60.33c4.2-.6,9.13-3.08,11.79-6.43,1.8-2.26,4.13-7.68-.9-6.92-4.53.68-9.63,9.26-10.9,13.35Z"/>
        <path class="cls-5" d="M282.26,12.09c.17.01.36-.02.52,0,1.75.25,3.27,1.55,2.62,3.41-.22.17-.49.51-.52.52-.17.08-.36.19-.52.26-.52.23-1.23.24-1.84.52-6.01,2.8-7.17,9.48-8.84,15.41-2.61,9.3-4.47,18.82-7.35,28.05-2.51,8.04-6.12,18.83-14.36,22.61-1.95.9-7.52,2.28-8.41-.51-.71-2.22,1.35-2.04,2.85-2.95,5.35-3.22,8.81-16.33,10.54-22.24,3.43-11.79,5.86-23.9,9.84-35.53,0-.57-4.71.77-5.13.91-2.86.96-6.92,3.2-7.93,6.23-.7,2.11.43,3.33-1.81,4.75-2.41,1.53-5.51.61-5.61-2.46-.32-9.75,20.06-16.25,27.54-17.95.68-.16,1.52-.42,2.1-.52,1.83-.34,4.46-.66,6.29-.52Z"/>
      </g>
      <path class="cls-1" d="M296.68,86.3c.58-.05,8.82-1.81,12.84-.44s3.45,6.39-4.46,8.53c-7.91,2.14-14.66,3.03-27.8,2.61-13.14-.41-29.8-1.83-42.17-5.31,0,0-3.18-.81-1.93-2.99,0,0,.73-1.32,4.85-.9,4.13.41,23.86,1.19,35,.54s23.66-2.05,23.66-2.05Z"/>
      <g>
        <path class="cls-4" d="M85.15,106.33c1,.22,1.83.57,2.47,1.07.64.49,1.09,1.09,1.34,1.81.25.71.28,1.51.09,2.4-.19.88-.55,1.6-1.08,2.14-.53.54-1.18.9-1.97,1.09-.79.18-1.68.16-2.69-.06l-2.75-.6-1.01,4.64-2.73-.59,2.84-13.08,5.49,1.19ZM83.37,112.52c.82.18,1.47.14,1.96-.12.49-.26.8-.73.95-1.4.15-.69.06-1.25-.28-1.68-.33-.43-.91-.74-1.73-.92l-2.34-.51-.9,4.12,2.34.51Z"/>
        <path class="cls-4" d="M97.55,108.77c1.49.27,2.59.84,3.31,1.72.72.87.97,1.91.75,3.12-.23,1.29-.84,2.2-1.82,2.73-.98.53-2.2.66-3.68.39l-.31.11-2.83-.52-.92,5.05-2.71-.49,2.4-13.17,5.81,1.06ZM96.14,114.73c.77.14,1.37.09,1.81-.15.44-.24.71-.69.83-1.34.12-.65.02-1.17-.31-1.55-.32-.38-.87-.64-1.64-.78l-2.77-.5-.7,3.83,2.77.5ZM97.65,115.61l3.07,7.34-3.09-.56-2.48-6.41,2.5-.37Z"/>
        <path class="cls-4" d="M110.24,110.65c1.31.2,2.4.64,3.26,1.33.87.69,1.48,1.58,1.84,2.68.36,1.09.44,2.35.22,3.77-.21,1.42-.65,2.59-1.32,3.53-.67.94-1.52,1.61-2.55,2.02-1.03.41-2.2.51-3.51.31-1.31-.2-2.4-.64-3.27-1.33-.87-.69-1.49-1.58-1.85-2.68-.36-1.09-.44-2.35-.22-3.77.21-1.42.65-2.59,1.32-3.53.67-.94,1.52-1.61,2.56-2.01,1.04-.4,2.21-.51,3.52-.31ZM109.9,112.92c-.75-.11-1.41-.03-1.98.23-.57.27-1.05.72-1.42,1.35-.38.63-.64,1.45-.79,2.43-.15.98-.13,1.83.04,2.55.17.72.49,1.3.96,1.72.47.43,1.08.7,1.83.81.73.11,1.39.03,1.96-.24.57-.27,1.05-.72,1.43-1.36.38-.64.64-1.45.79-2.42.15-.99.14-1.84-.04-2.56-.17-.72-.49-1.29-.96-1.71-.47-.43-1.07-.69-1.81-.8Z"/>
        <path class="cls-4" d="M128.71,113.3l-.27,2.23-4.45-.55-1.36,11.05-2.78-.34,1.36-11.05-4.47-.55.27-2.23,11.69,1.43Z"/>
        <path class="cls-4" d="M129.08,126.79l1.28-13.32,9.99.96-.22,2.24-7.21-.7-.32,3.31,5.67.55-.21,2.14-5.67-.55-.33,3.39,7.49.72-.22,2.24-10.27-.99Z"/>
        <path class="cls-4" d="M145.41,114.8l-1.03,13.34-2.79-.21,1.03-13.34,2.79.21Z"/>
        <path class="cls-4" d="M159.79,115.67l-.73,13.36-3.2-.18-4.25-8.11-1.03-2.25h-.02s-.05,2.31-.05,2.31l-.42,7.73-2.51-.14.73-13.36,3.18.17,4.25,8.09,1.03,2.27h.04s.05-2.31.05-2.31l.42-7.73,2.51.14Z"/>
        <path class="cls-4" d="M171.27,115.96l-.25,13.38-2.8-.05.25-13.38,2.8.05Z"/>
        <path class="cls-4" d="M185.78,125.7c-.26.87-.66,1.59-1.21,2.17-.55.58-1.21,1.02-1.96,1.3-.76.29-1.59.43-2.49.43-1.32,0-2.47-.27-3.44-.83-.97-.55-1.71-1.34-2.23-2.37-.52-1.03-.78-2.26-.79-3.69,0-1.43.26-2.66.77-3.69.52-1.03,1.26-1.82,2.23-2.38.97-.56,2.1-.83,3.39-.84.92,0,1.75.12,2.49.37.74.25,1.38.63,1.9,1.14.52.51.9,1.16,1.15,1.94l-2.53,1.08c-.23-.81-.58-1.39-1.06-1.73-.47-.34-1.08-.52-1.83-.51-.73,0-1.37.18-1.92.53-.55.35-.97.87-1.26,1.55-.3.68-.44,1.52-.44,2.52,0,.99.14,1.82.42,2.51.28.69.69,1.21,1.23,1.56.54.35,1.2.53,1.99.52.73,0,1.36-.2,1.89-.59.53-.39.91-.99,1.12-1.79l2.58.77Z"/>
        <path class="cls-4" d="M187.88,129.34l-.36-13.38,10.03-.27.06,2.25-7.24.2.09,3.32,5.7-.15.06,2.15-5.7.15.09,3.41,7.52-.2.06,2.25-10.32.28Z"/>
        <path class="cls-4" d="M217.59,124.27c-.2.88-.56,1.63-1.08,2.24-.52.62-1.14,1.09-1.88,1.42-.74.33-1.56.52-2.46.58-1.32.08-2.48-.12-3.48-.61-1-.49-1.79-1.23-2.38-2.23-.58-.99-.92-2.2-1.01-3.63-.09-1.43.09-2.67.55-3.73.45-1.06,1.15-1.89,2.08-2.51.93-.61,2.04-.96,3.34-1.04.92-.06,1.75.01,2.51.22.76.2,1.41.54,1.96,1.02.55.48.97,1.1,1.27,1.87l-2.46,1.23c-.28-.79-.67-1.35-1.16-1.66-.49-.31-1.11-.45-1.85-.4-.73.05-1.35.26-1.88.65-.52.39-.91.93-1.17,1.63-.25.7-.35,1.55-.29,2.55.06.98.25,1.81.57,2.48.32.67.76,1.16,1.32,1.48.56.32,1.23.45,2.02.4.73-.05,1.35-.28,1.85-.71.51-.42.85-1.04,1.01-1.85l2.62.61Z"/>
        <path class="cls-4" d="M224.61,113.93c1.51-.13,2.73.12,3.65.77.93.65,1.44,1.59,1.55,2.81.12,1.31-.23,2.34-1.03,3.11-.8.77-1.95,1.22-3.44,1.35l-.27.19-2.87.25.45,5.11-2.75.24-1.19-13.33,5.88-.52ZM224.83,120.06c.78-.07,1.35-.28,1.7-.63.36-.35.5-.86.45-1.52-.06-.66-.29-1.13-.71-1.41-.41-.28-1.01-.39-1.79-.32l-2.81.25.34,3.88,2.81-.25ZM226.52,120.5l4.91,6.26-3.13.28-4.09-5.52,2.31-1.02Z"/>
        <path class="cls-4" d="M233.36,126.54l-1.52-13.3,9.97-1.14.26,2.24-7.19.82.38,3.3,5.66-.65.24,2.14-5.66.65.39,3.38,7.47-.85.26,2.24-10.25,1.17Z"/>
        <path class="cls-4" d="M257.33,123.46l-2.87.4-1.56-3.08-5.08.72-.65,3.39-2.83.4,2.97-13.93,3.31-.47,6.71,12.57ZM248.15,119.37l3.83-.54-2.74-5.51-1.09,6.05Z"/>
        <path class="cls-4" d="M270.95,107.49l2.35,13.17-2.5.45-1.23-6.87-.55-3.88h-.04s-1.74,11.38-1.74,11.38l-2.26.4-5.55-10.07h-.04s.83,3.83.83,3.83l1.23,6.87-2.5.45-2.35-13.17,3.99-.71,3.66,6.76,1.37,2.82h.04s.33-3.11.33-3.11l1.07-7.63,3.87-.69Z"/>
      </g>
    </g>
  </g>
</svg>