<?xml version="1.0" encoding="UTF-8"?>
<svg id="Layer_2" data-name="Layer 2" xmlns="http://www.w3.org/2000/svg" viewBox="0 0 396 121.31">
  <defs>
    <style>
      .cls-1, .cls-2 {
        fill: #afafc2;
      }

      .cls-2 {
        fill-rule: evenodd;
      }
    </style>
  </defs>
  <g id="Layer_1-2" data-name="Layer 1">
    <g>
      <path class="cls-2" d="M49.91,12.52v-1.04h-1.6v1.04h-1.01v1.6h1.01v1.03h1.6v-1.03h1.01v-1.6h-1.01ZM50.69,13.87h-1.01v1.04h-1.13v-1.04h-1.01v-1.1h1.01v-1.03h1.13v1.03h1.01v1.1ZM39.41,12.52v-1.04h-1.6v1.04h-1.01v1.6h1.01v1.03h1.6v-1.03h1.01v-1.6h-1.01ZM40.19,13.87h-1.01v1.04h-1.13v-1.04h-1.01v-1.1h1.01v-1.03h1.13v1.03h1.01v1.1ZM49.91,2.3v-1.02h-1.6v1.02h-1.01v1.61h1.01v1.03h1.6v-1.03h1.01v-1.61h-1.01ZM50.69,3.67h-1.01v1.02h-1.13v-1.02h-1.01v-1.14h1.01v-1.02h1.13v1.02h1.01v1.14ZM39.41,2.3v-1.02h-1.6v1.02h-1.01v1.61h1.01v1.03h1.6v-1.03h1.01v-1.61h-1.01ZM40.19,3.67h-1.01v1.02h-1.13v-1.02h-1.01v-1.14h1.01v-1.02h1.13v1.02h1.01v1.14ZM38.51,37.95l.65-1.6.68,1.6-.68,1.59-.65-1.59ZM40.51,37.95l.86-1.99.85,1.99-.85,2-.86-2ZM49.18,37.95l-.65-1.6-.69,1.6.69,1.59.65-1.59ZM47.18,37.95l-.85-1.99-.85,1.99.85,2,.85-2ZM44.75,37.95l-.98-2.3-1.01,2.3,1.01,2.32.98-2.32ZM65.66,97.46v-1.69h.13c.04.34.04.43.21.43.25-.06.5-.14.74-.23v-1.16c-.23-.11-.47-.18-.72-.23-.2,0-.21.25-.23.41h-.13v-1.04h.13c.06.27.23.33.65.5l2.98,1.14v.14l-2.86,1.16c-.59.25-.79.33-.77.57h-.13ZM66.94,95.87l1.33-.52-1.33-.5v1.02ZM69.22,93.13c-.02-.29-.02-.47-.5-.47h-2.37c-.98,0-1.2-.59-1.2-1.12-.05-.43.25-.82.67-.87,0,0,.02,0,.03,0,.21-.02.41.13.43.35,0,0,0,.02,0,.03-.03.21-.2.36-.41.35-.22,0-.2-.12-.36-.12-.09,0-.16.09-.16.21,0,.36.3.36.47.36h3.04c.36,0,.36-.23.38-.52h.14v1.8h-.14ZM65.67,89.65v-1.67h.13c.04.33.04.43.21.43.25-.06.5-.14.74-.23v-1.16c-.23-.11-.47-.19-.72-.25-.2,0-.21.27-.23.43h-.13v-1.05h.13c.06.29.23.36.65.52l2.98,1.14v.14l-2.86,1.16c-.59.23-.79.33-.77.55h-.13ZM66.95,88.09l1.33-.52-1.33-.5v1.02ZM65.8,82.07c.04.3.07.46.39.46h2.65c.36,0,.36-.23.38-.46h.14v1.6c0,.28-.02,1.35-.88,1.35-.61,0-.74-.59-.81-.82h-.02c-.07.45-.34,1-.98,1-.45,0-.98-.37-1.01-1.46v-1.68h.13ZM66.18,83.35c-.24,0-.35.09-.35.3,0,.57.48.65.83.65.79,0,.86-.45.88-.78v-.16h-1.36ZM67.71,83.35c0,.69.23.82.79.82.38,0,.7-.12.7-.55,0-.25-.14-.27-.29-.27h-1.2ZM65.67,81v-1.67h.13c.04.33.04.41.21.41.25-.06.5-.13.74-.23v-1.16c-.23-.11-.47-.19-.72-.23-.2,0-.21.25-.23.43h-.13v-1.05h.13c.06.27.23.33.65.5l2.98,1.16v.12l-2.86,1.16c-.59.25-.79.3-.77.57h-.13ZM66.95,79.42l1.33-.5-1.33-.5v1ZM65.67,76.58v-1.05l1.71-1.09v-.12h-1.08c-.43,0-.45.09-.5.45h-.13v-1.74h.13c.06.35.07.46.5.46h2.41c.48,0,.48-.18.5-.46h.14v1.65c0,.35-.06,1.46-.98,1.46-.47-.02-.86-.36-.93-.82l-1.53,1.05c-.08.04-.13.12-.13.21h-.12ZM67.55,74.32c0,.65.15.92.83.92.56,0,.81-.21.81-.6,0-.29-.07-.31-.25-.33h-1.38ZM65.67,71.24v-1.84h.13c.04.36.06.5.5.5h2.9c-.04-.37-.05-.89-.93-1.01v-.14h1.1v3.1l-1.1.02v-.14c.88-.12.9-.65.93-1h-2.9c-.47,0-.47.12-.5.5h-.13ZM18.12,68.46c0,.14.08.28.2.36l1.69.98h1.03c.45,0,.45-.11.5-.48h.13v1.8h-.13c-.06-.35-.06-.48-.5-.48h-.81l-1.82.94c-.16.09-.27.25-.29.43h-.16v-1.73h.16c0,.33.04.41.18.41.11-.02.21-.06.31-.13l1.28-.62-1.03-.57c-.16-.09-.33-.16-.5-.2-.2,0-.21.2-.23.43h-.16v-1.14h.16ZM21.66,74.8v1.69h-.13c-.04-.33-.06-.39-.22-.39-.25.04-.5.11-.74.21v1.16c.23.09.46.16.7.21.21,0,.23-.23.25-.43h.13v1.05h-.13c-.06-.27-.25-.33-.65-.5l-2.98-1.13v-.16l2.88-1.14c.57-.23.75-.33.75-.57h.13ZM20.36,76.39l-1.3.52,1.3.48v-1ZM19.06,79.7c-.38.11-1.01.41-1.01,1.02-.03.27.16.52.43.55.03,0,.06,0,.09,0,.29,0,.41-.09.63-.54l.41-.76c.2-.35.58-.56.98-.55.5,0,1.13.33,1.13,1.28-.03.3-.09.6-.18.89,0,.09.13.12.18.14v.14h-1.3v-.14c.54-.11,1.17-.41,1.17-1.05.02-.34-.23-.63-.56-.65-.02,0-.03,0-.05,0-.36,0-.48.25-.65.59l-.16.33c-.47.89-.94.89-1.17.89-.57.03-1.05-.4-1.09-.97,0-.06,0-.11,0-.17.03-.28.09-.55.18-.82,0-.11-.09-.14-.18-.16v-.16h1.17l-.03.14ZM21.52,86.55c-.06-.33-.09-.44-.45-.44h-2.6c-.36.28-.38.37-.38.43h-.16v-1.09l2.37-1.8h-1.63c-.33,0-.5.05-.54.48h-.16v-1.1h.16c.04.35.16.39.43.39h3.2v.16l-2.95,2.28h2.18c.39,0,.5-.1.56-.5h.13v1.18l-.15.02ZM17.94,90.83v-2.97h1.12v.11c-.77.14-.92.5-.92,1.19,0,.29.04.39.27.39h1.24c0-.5-.11-.77-.79-.84v-.14h1.83v.14c-.68.06-.83.33-.83.84h1.3c.25,0,.3-.11.3-.45.05-.62-.35-1.19-.95-1.35v-.14l1.13.21v3.01h-.13c-.06-.3-.06-.44-.39-.44h-2.63c-.33,0-.36.21-.38.44h-.18ZM21.65,91.85v1.8h-.13c-.04-.27-.06-.48-.39-.48h-2.63c-.33,0-.36.25-.38.48h-.16v-1.8h.16c0,.23.02.48.38.48h2.66c.33,0,.36-.2.39-.48h.09ZM21.52,97.67q-.06-.27-.09-.33c-.04-.06-.1-.14-.41-.14h-2.41c-.45,0-.45.18-.49.47h-.16v-1.68c0-.41.11-1.37,1.03-1.37.34,0,.64.19.81.48.2.34.2.61.22,1.29h1.03c.43,0,.45-.09.5-.45h.13v1.73h-.15ZM19.81,96.39c0-.65-.16-.85-.83-.85s-.83.19-.83.6c0,.16.06.23.18.25h1.48ZM49.66,73.11c-.67.05-1.3-.3-1.6-.89.52.16,1.06.26,1.6.28.52-.03,1.03-.12,1.53-.28,0,0-.25.89-1.53.89M49.66,78.08c-.67.05-1.3-.3-1.6-.89.52.16,1.06.26,1.6.29.52-.03,1.03-.13,1.53-.29,0,0-.25.89-1.53.89M48.22,80.82c-.68.06-1.32-.3-1.63-.91.52.17,1.06.28,1.6.3.52-.03,1.03-.13,1.53-.3,0,0-.25.91-1.51.91M39.83,80.82c-.68.06-1.32-.3-1.63-.91.51.17,1.05.27,1.59.3.53-.03,1.05-.13,1.54-.3,0,0-.25.91-1.51.91M36.48,77.19c.51.16,1.03.26,1.56.29.53-.03,1.06-.12,1.57-.29,0,0-.25.89-1.53.89s-1.6-.89-1.6-.89M36.19,72.22c.51.16,1.03.26,1.56.28.53-.02,1.05-.12,1.55-.28,0,0-.23.89-1.51.89s-1.6-.89-1.6-.89M40.67,74.45c.53-.03,1.06-.12,1.57-.28,0,0-.25.89-1.53.89s-1.6-.89-1.6-.89c.51.16,1.03.26,1.57.28M43.72,72.49c.53-.03,1.04-.12,1.55-.28,0,0-.27.89-1.53.89s-1.63-.89-1.63-.89c.52.16,1.06.26,1.6.28M46.94,74.45c.52-.03,1.03-.12,1.53-.28,0,0-.25.89-1.49.89-1.3,0-1.63-.89-1.63-.89.51.16,1.04.26,1.58.28M52.23,72.24s.72-2.69-.9-4.35-3.45-1.3-3.45-1.3c-.89-1.47-2.48-2.36-4.19-2.37-1.64-.06-3.15.85-3.88,2.31,0,0-3.02-.13-4.23,2.19s-.43,3.42-.43,3.42c-.99.97-1.47,2.35-1.3,3.72,0,0,.54,1.95,2.1,3.06.21,1.5,1.33,2.72,2.81,3.05,1.74.5,3.88-.35,3.88-.35v18.88s-1.17,2.31-2.88,2.31c0,0,.27,1.11,2.88,1.11,0,0,.33,2.08,1.18,2.08,0,0,1.21-.45,1.21-2.08,0,0,2.3-.13,2.81-1.03,0,0-2.69-.8-2.69-2.46v-18.88s1.34.8,1.64.73,3.96.14,4.6-3.29c0,0,2.37-1.51,2.37-3.91,0-1.6-1.51-2.87-1.51-2.87M27.39,87.62l2.56-1.85,1.87,2.19-1.6,6.41c.1,0,.2-.05.27-.12.62-.97,1.57-1.68,2.68-2.01,0,0,0-1.21-.05-1.43,0,0-.63-1.48-.58-1.71s.18-1.87.45-2.3.13-1.14.13-1.14c0,0,2.43-1.43,3.45-.76l1.12-.14.59.46s.21.91.07.96-.91-.09-.91.5.59.88.72.18c.2-.03.41.02.57.14l.16.5-.25.7s-.98.18-1.04.33c-.02.29-.02.58,0,.87.46.38,1.12.39,1.6.04.9-.59,3.49-3.29,3.49-3.29v1.66l-1.4,1.23-.27,1.57-1.13.45-1.19.92-1.51,3.01-4.67.98-.45,3.7-1.55.76v1.11l1.55,1.25h-2.93v-2.66l.59-.65-.21-.84-.53-.62.11-1.07-.26-1.89,1.78-6.94-.81-.79-.82.36.33,1.33-.93,2.3-.91-1.8-.07-1.89ZM36.05,85.96l.06-.55.9.14-.95.41ZM35.01,88.77l.63-.87v1.73l-.63-.86ZM33.97,90.65l.63-.87v1.73l-.63-.86ZM33.97,86.89l.63-.87v1.74l-.63-.87ZM33.19,88.77l.65-.87v1.73l-.65-.86ZM33.28,96.56l2.12,1.26.2,1.98-1.63.69v1.1l1.67,1.23h-3.07l.7-6.27ZM42.63,89.62v1.63l-1.53,1.68-1.33.86-1.18.33,1.15-2.19,1.22-.51,1.67-1.79ZM57.79,85.75l2.54,1.87-.06,1.87-.92,1.8-.95-2.3.33-1.33-.77-.36-.81.79,1.81,6.96-.29,1.9.09,1.07-.49.61-.23.83.6.65v2.66h-2.91l1.53-1.25v-1.11l-1.53-.76-.47-3.7-4.68-.98-1.49-3.01-1.19-.92-1.13-.45-.27-1.57-1.3-1.23v-1.66s2.48,2.71,3.4,3.29c.48.36,1.14.34,1.6-.04.03-.29.03-.58,0-.87-.06-.14-1.06-.33-1.06-.33l-.21-.7.14-.5c.17-.12.37-.17.58-.14.14.7.72.39.72-.18s-.81-.46-.95-.5.11-.96.11-.96l.6-.46,1.08.14c1.06-.65,3.45.76,3.45.76,0,0-.12.75.15,1.14s.41,2.07.45,2.3-.6,1.71-.6,1.71c-.03.21-.03,1.43-.03,1.43,1.1.32,2.05,1.04,2.66,2.01.08.07.18.12.29.12l-1.58-6.41,1.83-2.21ZM50.69,85.55l.92-.14.04.55-.95-.41ZM52.08,89.65v-1.73l.65.87-.65.86ZM53.14,91.53v-1.73l.63.87-.63.86ZM53.14,87.79v-1.74l.63.87-.63.87ZM53.91,89.65l.63-.86-.63-.87v1.73ZM54.45,96.58l.73,6.27h-3.1l1.69-1.23v-1.1l-1.63-.69.18-1.98,2.13-1.27ZM45.18,89.61l1.59,1.83,1.22.51,1.13,2.19-1.17-.33-1.33-.86-1.45-1.74v-1.61ZM67.96,108.34l-1.6-1.6-1.42,1.41-1.38-1.41-1.6,1.6,1.4,1.42-1.4,1.43,1.6,1.59,1.38-1.43,1.42,1.43,1.6-1.59-1.42-1.43,1.42-1.42ZM24.99,108.34l-1.56-1.6-1.44,1.41-1.4-1.41-1.58,1.6,1.42,1.42-1.42,1.43,1.58,1.59,1.4-1.43,1.44,1.43,1.57-1.59-1.41-1.43,1.4-1.42ZM69.66,56.05l-1.59-1.6-1.42,1.42-1.42-1.42-1.57,1.6,1.4,1.41-1.4,1.43,1.57,1.63,1.42-1.42,1.42,1.42,1.59-1.63-1.4-1.43,1.4-1.41ZM24.04,56.05l-1.58-1.6-1.42,1.42-1.42-1.42-1.58,1.6,1.42,1.41-1.42,1.43,1.58,1.63,1.42-1.42,1.42,1.41,1.58-1.63-1.42-1.43,1.42-1.4ZM44.3,31.17c3.88.35,4.73,3.47,4.73,3.47-2.6-2.05-4.73-1.87-4.73-1.87v-1.6ZM43.24,31.17v1.6s-2.12-.18-4.73,1.87c0,0,.86-3.11,4.73-3.47M37.83,36.57v2.65c1.95,1.98,5.79,1.73,5.93,1.71s3.97.27,5.92-1.71v-2.65s-1.63-1.78-5.9-1.78h-.02c-4.28,0-5.93,1.78-5.93,1.78M38.81,41.77c-.11-.16.13-.3.13-.3,1.18,1.09,4.42,1.59,4.42,1.59v.85c-.49.05-.99,0-1.45-.16l-.47.86s.36.61,2.34.61h.02c1.98,0,2.32-.61,2.32-.61l-.48-.86c-.47.16-.97.21-1.46.16v-.85s3.24-.5,4.44-1.59c0,0,.22.14.13.3-.09.16-1.67,1.88-1.67,2.1v1.73c0,.21-1.24,1.43-3.29,1.43s-3.29-1.21-3.29-1.43v-1.73c0-.21-1.51-1.85-1.67-2.1M61.55,99.69v-36.73H26.2v37.62c0,.93.07,2.89,1.37,4.36.98,1.07,2.46,1.52,4.19,1.52h6.66c2.06.03,4.02.94,5.38,2.49,0,0,2.17-2.49,5.41-2.49h6.35c2.41,0,3.74-.52,4.67-1.57,1.35-1.5,1.3-3.62,1.3-5.21M63.08,51.77c-.29,1.1-1.4,3.67-5.64,5.18,0,0-2.11.33-3.27.41-1.45.14-2.5.91-3.35,1.63-.74.6-2.15,1.95-2.41,2.17-.15.14-.32.26-.48.37h14.97v39.06c0,1.25-.25,3.35-1.63,4.92-1.25,1.41-3.03,2.23-4.91,2.28h-7.27c-2.79,0-5.31,2.67-5.31,2.67,0,0-2.56-2.67-4.96-2.67h-7.71c-1.39,0-3.33-.96-4.39-2.03-1.18-1.31-1.85-2.99-1.89-4.76v-39.44h14.74c-.17-.11-.32-.24-.47-.37-.27-.21-1.69-1.57-2.41-2.17-.86-.73-1.89-1.5-3.34-1.63-1.17-.11-3.29-.44-3.29-.44-4.26-1.51-5.36-4.08-5.67-5.18h-8.95v55.69c0,1.37.2,4.54,2.17,6.71,1.37,1.49,3.36,2.28,5.92,2.28h12.13c2.93,0,6.67,1.82,8.11,3.51,1.44-1.69,5.21-3.51,8.07-3.51h12.12c2.6,0,4.59-.78,5.95-2.28,1.95-2.17,2.18-5.34,2.18-6.71v-55.68l-9.02-.02ZM64.41,50.65l-.47-.25.74-.21-1.54-1.3s1.69,0,1.55-.06-1.91-1.92-1.91-1.92c0,0,2.05.23,1.91,0s-1.87-1.89-1.73-1.78,1.67.27,1.63.13-1.63-1.69-1.63-1.69c0,0,1.73.37,1.63.2s-1.82-1.95-1.63-1.85,1.58.43,1.58.43c-.29-.38-1.04-1.66-1.04-1.66l14.85,7.43-1.02.18,1.63,1.55-1.73.09,1.69,1.53-1.63.04,1.58,1.6s-1.72-.14-1.63,0,1.83,1.73,1.63,1.69-1.78,0-1.63.11,1.78,1.59,1.55,1.59-1.8-.18-1.63-.09,1.22,1.53,1.22,1.53l-5.16-2.71v-4.56h-8.81ZM25.68,50.65h.07l13.49-5.25s.4-.98-.16-1.39c-1.07-.99-1.86-2.25-2.28-3.65-.87-.28-1.46-1.1-1.46-2.01,0-1.57,1.2-1.98,1.2-1.98,0,0,1.33-6.57,7.16-6.61h.06c5.86.04,7.16,6.61,7.16,6.61,0,0,1.21.41,1.21,1.98,0,.92-.59,1.73-1.46,2.01-.43,1.4-1.21,2.65-2.28,3.65-.56.41-.2,1.39-.2,1.39l13.5,5.25h.04c-.55-.84-.87-1.81-.93-2.82v-9.13c0-2.7,2-3.25,2.79-3.56.98-.36,11.87-4.03,11.87-4.03-14.3-3.37-31.2-3.06-31.74-3.05s-17.46-.33-31.77,3.05c0,0,10.89,3.67,11.86,4.03.79.3,2.79.86,2.79,3.56v9.15c-.05,1-.36,1.97-.89,2.82M14.35,55.23l-5.18,2.69s1.06-1.44,1.24-1.53c.18-.09-1.4.09-1.63.09s1.4-1.5,1.54-1.59-1.44-.14-1.63-.11,1.54-1.55,1.63-1.69-1.63,0-1.63,0l1.6-1.6-1.65-.04,1.69-1.53-1.73-.09,1.63-1.55-1.06-.18,14.86-7.41s-.77,1.28-1.04,1.66c0,0,1.4-.33,1.6-.43s-1.55,1.66-1.63,1.85,1.63-.2,1.63-.2c0,0-1.6,1.57-1.63,1.69s1.51-.04,1.63-.13-1.6,1.53-1.73,1.78,1.9,0,1.9,0c0,0-1.78,1.87-1.9,1.92s1.53.06,1.53.06l-1.56,1.32.7.21-.43.25h-8.76v4.55ZM41.18,15.84v-2.17h.95v-3.5h-3.31v.84h-3.27v-5.31h3.29v.81h3.29v-3.34h-.95V0h5.14v3.17h-.96v3.34h3.31v-.81h3.31v5.31h-3.29v-.84h-3.31v3.5h.98v2.18c39.95.42,41.14,9.99,41.14,9.99v10.42c0,3.47-1.21,3.4-2.54,4.08-.69.33-11.24,3.72-11.24,3.72v.46l4.53,2.19c2.73,1.48,2.55,3.58,2.55,3.58v10.63c0,1.6-.21,1.8-1.36,2.69-1.08.86-3.1,2.44-3.1,2.44l10.07,6.59-6.94,2.28v7.53l-6.28-4.11.02,29.2c0,1.53-.29,4.94-2.48,7.38-1.58,1.76-3.86,2.66-6.76,2.66h-12.12c-3.97,0-8.07,3.74-8.07,3.74,0,0-4.32-3.74-8.11-3.74h-12.13c-2.88,0-5.15-.89-6.74-2.66-2.2-2.43-2.47-5.84-2.47-7.37v-29.22l-6.3,4.13v-7.53l-6.94-2.28,10.07-6.57s-2-1.59-3.09-2.44c-1.15-.89-1.37-1.08-1.37-2.69v-10.65s-.16-2.1,2.54-3.58l4.56-2.19v-.46s-10.54-3.37-11.24-3.72c-1.33-.67-2.54-.6-2.54-4.08v-10.42s1.2-9.57,41.17-10M85.24,26.14c.29.06-.3-.78-.54-.85s.65-.55.74-.65c0,0-6-7.49-41.66-7.49S2.06,24.64,2.06,24.64c.07.09.93.53.7.65s-.81.91-.53.85,1.06.33.77.47-.9,1.06-.77,1.02,1.01.23.77.35-1.05,1.14-.86,1.09,1.1.16.92.33c-.18.21-1.06,1.2-.86,1.2s1.37,0,.98.23-1.19,1.55-.98,1.52,1.45-.23,1.04.14-.68,1.46-.68,1.46c10.23-7.75,40.74-7.26,41.23-7.23s30.92-.52,41.16,7.23c0,0-.29-1.12-.67-1.46-.43-.37.87-.2,1.03-.14s-.65-1.28-.99-1.52.83-.23.99-.23-.69-1-.87-1.21c-.16-.16.74-.33.92-.33s-.65-.94-.86-1.09.65-.41.75-.35-.48-.88-.75-1.02.48-.5.75-.47M51.26,10.19h-1.74v-.65h-4.77v4.65h.86v1.63h-3.72v-1.63h.88v-4.66h-4.75v.65h-1.76v-3.59h1.89v.73h4.64V2.56h-.9V.82h3.72v1.74h-.88v4.76h4.66v-.73h1.87v3.6ZM57.94,55.37c-1.33.71-4.94,1.09-4.94,1.09,0,0-2.01.21-3.96,2.39-1.38,1.55-3.25,2.69-5.25,2.65s-3.95-1.16-5.27-2.65c-1.95-2.17-3.97-2.39-3.97-2.39,0,0-3.58-.38-4.94-1.09-1.53-.8-2.81-1.74-3.7-3.42l11.83-4.65-4.23,4.61,7.49-4.66-2.33,7.76,4.28-7.16.83,9.87h.02l.81-9.87,4.26,7.16-2.31-7.76,7.52,4.66-4.26-4.61,11.83,4.65c-.9,1.68-2.14,2.6-3.7,3.42M7.08,24.66l.06.17c-.16.07-.26.15-.29.24-.02.18.02.36.09.52l.82,2.22c.09.27.21.52.37.75.22.31.46.41.73.33.33-.12.53-.47.47-.82-.04-.31-.11-.61-.23-.9l-.75-2.03c-.05-.17-.14-.33-.26-.46-.12-.07-.26-.09-.39-.04l-.06-.17.94-.35.07.17c-.1.06-.17.15-.22.25-.01.15.02.3.08.44l.78,2.12c.19.44.27.93.22,1.41-.06.36-.32.66-.67.76-.45.19-.97.06-1.27-.33-.21-.26-.38-.56-.48-.88l-.82-2.22c-.05-.16-.13-.31-.24-.44-.1-.05-.22-.06-.33-.03l-.06-.17,1.44-.53ZM10.27,28.39c.16-.05.25-.13.27-.23.02-.14,0-.28-.04-.42l-.91-3.22c-.12-.11-.24-.22-.37-.33-.04-.03-.1-.05-.15-.04l-.05-.17.94-.27,2.32,2.41h.02l-.57-2c-.04-.17-.11-.33-.22-.47-.1-.09-.25-.12-.38-.08l-.05-.17.95-.29.05.17c-.1.05-.18.12-.24.22-.03.14-.01.28.04.42l1.12,4.01-.12.04-2.97-3.08h-.03l.76,2.67c.04.16.1.31.19.44.1.13.27.17.43.12l.05.17-1,.28-.05-.18ZM13.39,27.52c.1-.02.19-.06.26-.13.08-.14.09-.3.04-.45l-.79-3.33c-.05-.2-.12-.33-.22-.38-.1-.03-.2-.03-.3,0l-.04-.17,1.56-.37.04.18c-.1.02-.19.07-.27.14-.08.14-.09.3-.03.44l.79,3.33c.02.14.09.27.2.36.1.05.22.06.33.02l.04.18-1.56.37-.03-.19ZM15.67,22.31l.04.17c-.11.02-.21.07-.3.13-.04.04-.05.11-.03.22,0,.04,0,.07.03.1.01.03.02.07.04.1l1.23,2.42h0l.11-2.46v-.17c0-.07,0-.15-.02-.22-.03-.13-.07-.21-.12-.23-.11-.02-.22-.02-.33,0l-.04-.17.96-.21.04.17c-.1.03-.18.1-.22.2-.05.15-.07.3-.07.46l-.2,4.27-.12.03-2-3.91c-.06-.12-.13-.23-.22-.33-.07-.06-.16-.09-.25-.08l-.04-.17,1.5-.31ZM18.33,26.64l-.03-.18c.1-.01.19-.06.26-.13.08-.13.1-.28.06-.43l-.56-3.38c.02-.21-.13-.41-.34-.43-.05,0-.1,0-.14,0l-.03-.18,2.6-.43.23,1.4-.11.02c-.07-.33-.22-.63-.45-.88-.23-.15-.52-.2-.79-.12-.14.03-.22.06-.25.11-.03.09-.03.18,0,.27l.27,1.63c.21,0,.39-.12.49-.3.08-.28.1-.56.07-.85l.11-.02.39,2.35-.11.02c-.05-.29-.16-.56-.33-.81-.15-.15-.37-.21-.58-.15l.28,1.69c0,.11.05.21.12.29.1.05.22.06.33.03.26-.03.5-.17.67-.37.19-.32.3-.68.33-1.05l.13-.02.06,1.48-2.67.43ZM21.3,25.97c.12-.01.23-.08.3-.17.05-.17.06-.35.02-.52l-.42-3.09c0-.19-.06-.36-.17-.51-.09-.07-.21-.09-.33-.07l-.03-.18,1.46-.2c.25-.04.51-.03.76.05.41.17.68.56.69,1,.06.32,0,.65-.16.93-.1.16-.25.3-.42.38l1.24,1.86s.05.07.09.1c.04.01.07.02.11.02l.02.17-.95.13-1.34-2.04h0l.19,1.37c0,.17.06.34.15.48.09.08.21.12.33.1l.03.18-1.54.21-.02-.18ZM22.75,23.3c.11-.14.14-.43.08-.87-.02-.21-.08-.42-.16-.62-.07-.22-.29-.35-.52-.33-.09,0-.17.04-.23.1-.04.07-.05.16-.03.24l.24,1.76c.23-.02.45-.11.61-.28M24.48,24.06h.13c.08.4.24.77.48,1.1.13.2.36.31.6.3.18,0,.34-.12.41-.29.07-.17.09-.35.07-.53-.01-.18-.08-.35-.19-.5-.12-.12-.25-.22-.4-.3l-.33-.19c-.27-.15-.5-.35-.68-.6-.16-.24-.25-.51-.27-.79-.04-.33,0-.67.13-.98.1-.29.36-.5.67-.52.17-.02.33,0,.49.06.09.04.18.07.28.09.05,0,.08-.03.1-.08.01-.06.02-.12.03-.18h.14l.18,1.49h-.12c-.09-.32-.23-.61-.42-.88-.12-.21-.35-.34-.59-.33-.14.02-.27.1-.33.23-.08.15-.1.32-.08.48,0,.18.07.35.18.48.18.17.38.31.6.43l.37.22c.15.09.29.21.4.35.21.28.33.61.35.95.04.35-.01.71-.16,1.03-.13.33-.44.55-.79.57-.09.01-.19.01-.28,0-.1-.02-.19-.05-.29-.09l-.09-.04h-.06s-.03,0-.05,0c-.04,0-.08.03-.08.07-.02.06-.03.12-.03.19h-.13l-.21-1.75ZM27.09,25.26c.1,0,.19-.04.27-.1.1-.12.13-.28.1-.43l-.33-3.4c0-.15-.06-.3-.17-.41-.08-.04-.18-.06-.27-.05l-.02-.18,1.6-.15v.18c-.1.02-.2.06-.28.12-.09.12-.13.28-.09.43l.33,3.4c0,.14.05.28.14.38.1.06.21.09.33.07v.18l-1.6.15v-.19ZM28.83,25.09c.09-.01.17-.04.24-.09.09-.11.13-.26.1-.4l-.27-3.47c0-.14-.05-.27-.16-.37-.08-.04-.17-.07-.26-.07v-.18l1.4-.11c.52-.06,1.04.17,1.34.6.33.49.52,1.07.54,1.67.06.57-.03,1.14-.28,1.65-.21.48-.66.8-1.18.84l-1.45.11-.03-.18ZM29.99,24.84c.04.07.12.1.2.08.29-.03.55-.22.65-.49.15-.33.2-.88.13-1.72-.03-.43-.11-.86-.24-1.27-.2-.56-.48-.83-.84-.8-.1,0-.18.05-.22.14-.02.1-.02.2,0,.29l.27,3.47c0,.11.03.21.08.31M32.16,24.84c.12-.03.22-.12.25-.24.07-.2.12-.4.15-.6l.8-3.91h.12l1.24,3.65c.08.27.18.53.3.79.04.1.14.17.25.16v.18l-1.48.08v-.18c.1,0,.2-.03.29-.07.05-.03.07-.11.06-.23,0-.08-.03-.17-.05-.25-.02-.07-.05-.14-.07-.24l-.17-.45-1.03.06c-.05.28-.08.47-.1.55-.02.13-.03.27-.04.4,0,.09.06.18.14.21.08.03.16.04.24.03v.18l-.94.06.03-.17ZM33.79,23.26l-.53-1.61h-.06l-.33,1.66.91-.05ZM35.42,24.66c.09,0,.17-.04.24-.09.1-.11.14-.25.12-.39l-.13-3.48c0-.14-.04-.28-.14-.37-.08-.05-.17-.07-.26-.07v-.18l1.4-.06c.53-.04,1.03.21,1.32.65.31.51.48,1.09.47,1.69.04.56-.08,1.13-.35,1.63-.23.47-.7.78-1.22.8l-1.45.06v-.17ZM36.59,24.46c.04.07.12.1.2.09.29-.02.54-.21.65-.47.16-.3.23-.87.2-1.71,0-.43-.07-.86-.19-1.28-.18-.57-.44-.85-.8-.84-.09,0-.19.04-.23.13-.03.09-.04.19-.03.29l.14,3.47c0,.11.02.22.07.33M39.84,24.51c.09,0,.17-.03.25-.08.1-.1.15-.25.13-.39l-.05-3.48c.01-.14-.03-.28-.13-.38-.08-.05-.17-.08-.26-.08v-.18l1.4-.02c.52-.03,1.02.23,1.3.68.3.51.45,1.1.43,1.7.03.57-.11,1.13-.38,1.63-.24.47-.71.76-1.24.77l-1.45.02v-.18ZM41.01,24.31c.04.07.12.11.2.09.28-.02.54-.19.65-.45.17-.3.25-.87.24-1.71,0-.43-.05-.86-.16-1.28-.16-.58-.42-.86-.78-.86-.09-.01-.19.04-.23.12-.03.09-.04.19-.03.29l.05,3.48c0,.11.02.22.06.33M43.13,24.63v-.18c.1,0,.2-.02.28-.08.1-.11.15-.26.13-.41v-3.42c.02-.15-.03-.3-.13-.41-.08-.05-.18-.08-.28-.08v-.19h2.64v1.42h-.11c-.01-.33-.11-.65-.29-.93-.21-.19-.49-.28-.76-.25-.09-.01-.19.01-.27.07-.05.08-.07.18-.06.27v1.63c.2.03.41-.05.53-.22.12-.26.19-.54.21-.82h.12v2.38h-.12c0-.29-.07-.58-.2-.85-.12-.18-.33-.27-.54-.25v1.71c-.01.11.01.21.07.3.09.07.2.1.31.08.26.01.52-.08.72-.26.24-.28.41-.62.49-.98h.13l-.19,1.47h-2.68ZM47.97,20.54c.23-.43.68-.71,1.18-.71.2,0,.39.07.56.18.11.08.22.14.35.17.05,0,.1-.03.12-.07.04-.08.06-.16.08-.24h.13l-.04,1.65h-.12c-.08-.3-.19-.58-.33-.86-.2-.39-.45-.58-.71-.59s-.52.18-.65.58c-.17.54-.25,1.1-.25,1.66-.02.53.03,1.06.15,1.58.12.46.35.7.71.71.16.02.31-.05.4-.18.05-.1.07-.21.07-.33l.02-.74c.03-.15-.02-.31-.12-.42-.1-.06-.21-.08-.33-.08v-.18l1.57.04v.18c-.13-.01-.25.04-.33.14-.07.16-.1.32-.09.49l-.02.89c-.15.12-.32.21-.5.28-.24.09-.5.13-.76.12-.51-.01-.97-.31-1.2-.77-.29-.54-.42-1.14-.38-1.75,0-.62.16-1.23.49-1.76M52.63,20.03v.18c-.13-.01-.26.03-.36.11-.08.16-.12.33-.11.51l-.1,2.37c-.02.28,0,.56.05.83.08.37.27.56.55.57.35.01.65-.22.73-.56.09-.3.14-.61.14-.92l.1-2.16c.02-.18,0-.36-.07-.53-.08-.11-.21-.18-.35-.19v-.18l1.01.05v.18c-.11.02-.22.07-.3.15-.07.13-.1.28-.09.43l-.1,2.25c0,.48-.1.95-.33,1.37-.19.31-.54.49-.91.45-.49.02-.93-.3-1.07-.76-.1-.32-.14-.66-.11-1l.1-2.36c.02-.17,0-.34-.05-.5-.08-.09-.18-.15-.3-.16v-.18l1.56.06ZM54.16,24.69c.13-.01.23-.09.28-.21.09-.19.16-.38.22-.58l1.26-3.8h.13l.79,3.77c.05.28.12.55.21.82.03.11.12.18.23.19v.18l-1.48-.09v-.18c.1,0,.2,0,.3-.04.05-.03.08-.1.08-.22,0-.09,0-.17-.02-.25,0-.07-.03-.15-.05-.24l-.09-.44-1.03-.06c-.08.27-.14.46-.16.54-.04.13-.07.26-.08.39-.01.09.04.18.12.22.07.04.15.06.23.06v.18l-.93-.06v-.17ZM55.98,23.32l-.33-1.66h-.04l-.52,1.6.88.05ZM57.46,24.91c.09,0,.18-.01.25-.05.11-.1.17-.24.16-.38l.29-3.47c.03-.14,0-.28-.09-.39-.07-.06-.16-.09-.25-.11v-.18l1.4.11c.53.02,1,.33,1.23.8.25.54.34,1.14.26,1.73-.03.57-.21,1.12-.54,1.59-.28.44-.78.69-1.3.65l-1.45-.12.03-.19ZM58.64,24.85c.02.07.09.1.19.11.29.01.56-.14.7-.39.2-.28.33-.84.4-1.68.05-.43.03-.87-.04-1.3-.1-.59-.33-.9-.7-.93-.09-.02-.19.02-.24.1-.04.09-.06.19-.06.29l-.31,3.48c-.01.11,0,.22.03.33M60.71,25.18c.13-.01.24-.09.29-.21.1-.18.18-.37.25-.57l1.42-3.74h.12l.63,3.8c.04.28.1.56.17.83.02.11.11.19.22.2l-.02.18-1.48-.16.02-.18c.1.01.2,0,.3-.03.05-.03.08-.1.09-.22,0-.08,0-.17,0-.25,0-.07-.02-.15-.04-.25l-.07-.44-1.03-.11c-.1.27-.16.45-.19.53-.05.13-.08.26-.1.39-.01.09.03.19.11.23.07.04.15.06.23.07v.18l-.93-.09-.02-.17ZM62.58,23.88l-.27-1.67h-.04l-.58,1.59.89.08ZM63.99,25.51c.09.01.19,0,.28-.04.12-.1.19-.25.19-.4l.44-3.39c.04-.15,0-.3-.08-.43-.07-.06-.17-.1-.26-.12l.02-.18,1.59.2-.02.18c-.13-.03-.27,0-.38.07-.1.15-.16.33-.16.51l-.42,3.31c-.03.11-.01.23.04.33.08.07.19.11.3.11.26.04.52-.03.72-.19.29-.28.5-.64.62-1.03l.13.02-.38,1.57-2.64-.33.02-.21ZM67.02,25.9c.13,0,.24-.08.3-.19.1-.18.2-.37.28-.56l1.6-3.66.12.02.44,3.82c.03.28.07.56.13.84.02.11.11.19.21.21l-.03.18-1.47-.22.03-.18c.1.02.2.02.3,0,.05-.02.08-.09.1-.21,0-.08,0-.17,0-.25,0-.07,0-.15-.02-.25l-.05-.44-1.02-.16-.21.52c-.05.12-.09.25-.12.38-.02.09.02.19.09.24.07.04.15.07.23.08l-.03.18-.92-.14.03-.19ZM68.96,24.69l-.19-1.68h-.04l-.65,1.55.88.13ZM73.19,22.28l-.03.17c-.12-.02-.25,0-.35.07-.1.14-.16.31-.18.49l-.55,2.99c-.05.41-.21.8-.47,1.12-.2.23-.51.34-.81.28-.22-.04-.4-.18-.49-.38-.1-.19-.13-.42-.09-.63.02-.14.08-.28.17-.39.06-.08.16-.11.25-.1.09.02.17.09.19.18.04.11.05.23.02.35-.02.11-.06.22-.11.33-.03.05-.06.11-.08.17-.01.06,0,.12.02.17.03.04.07.07.12.07.13.03.26-.04.31-.15.06-.13.09-.26.11-.4l.71-3.86c.05-.15.03-.31-.06-.44-.09-.07-.21-.12-.33-.13l.03-.18,1.6.28ZM72.48,26.82c.13,0,.26-.06.33-.17.12-.17.22-.35.31-.54l1.82-3.56.13.03.21,3.84c0,.28.03.56.08.84.03.13.09.21.2.22l-.04.18-1.45-.33.04-.18c.1.02.2.02.3,0,.05,0,.09-.09.12-.21.01-.08.02-.17.02-.25v-.25l-.05-.41-1.01-.22c-.12.26-.21.43-.24.5-.06.12-.11.25-.15.38-.02.09.01.19.08.24.07.04.14.07.22.09l-.04.18-.91-.2.04-.19ZM74.49,25.74l-.08-1.69h-.04l-.76,1.51.88.19ZM75.67,27.52c.11.04.24.02.34-.05.11-.13.19-.29.22-.46l.83-3.01c.07-.17.08-.36.05-.54-.06-.09-.15-.16-.26-.19l.05-.17,1.43.39c.25.05.48.16.67.33.31.31.41.78.25,1.19-.07.32-.25.6-.52.8-.16.11-.34.18-.53.18l.4,2.19s.02.09.05.13c.03.03.06.05.09.06l-.04.16-.92-.25-.45-2.42h0l-.37,1.33c-.06.16-.08.33-.06.5.05.12.15.2.27.22l-.05.17-1.5-.41.05-.17ZM78.05,25.63c.16-.08.29-.33.41-.77.06-.21.1-.43.1-.65.03-.23-.12-.45-.34-.51-.08-.03-.17-.03-.25,0-.06.05-.1.13-.12.21l-.48,1.73c.22.08.46.08.67,0M78.77,28.37c.12.02.25-.03.33-.13.14-.16.26-.32.38-.5l2.28-3.29.12.04-.29,3.84c-.03.28-.04.56-.03.84,0,.11.06.21.17.25l-.06.17-1.4-.5.06-.17c.1.04.2.05.3.05.05,0,.1-.07.14-.19.03-.08.04-.16.05-.25,0-.07.02-.15.03-.25l.03-.44-.98-.35c-.16.24-.26.4-.31.47-.08.11-.14.23-.19.35-.04.09-.02.18.05.25.06.06.13.1.21.12l-.06.17-.88-.33.06-.16ZM80.9,27.55l.14-1.69h-.04l-.93,1.38.83.31Z"/>
      <polygon class="cls-2" points="396 92.61 115.07 92.61 108.88 92.61 108.88 92.97 254.34 92.97 396 92.97 396 92.61"/>
      <path class="cls-2" d="M197.65,81.12c.24.07.48.13.72.17l1.04.15c.39.03.76.08,1.18.1s.82.03,1.22.03c.62,0,1.24-.07,1.85-.19.79-.14,1.56-.36,2.31-.65.86-.34,1.69-.75,2.47-1.25.83-.53,1.57-1.18,2.2-1.93.68-.85,1.23-1.81,1.63-2.83.43-1.22.64-2.51.62-3.8.02-1.58-.28-3.14-.89-4.6-.55-1.31-1.37-2.49-2.4-3.47-1.06-.96-2.3-1.71-3.65-2.18-1.47-.51-3.02-.77-4.57-.75h-.93c-.33.02-.69.04-1.04.07s-.69.03-1.01.05-.57.05-.74.07v21.01ZM202.62,58.66c2.33-.05,4.65.29,6.86,1,1.76.53,3.39,1.41,4.81,2.56,1.21,1.01,2.18,2.28,2.82,3.72.62,1.37.93,2.86.92,4.36-.02.72-.08,1.44-.2,2.15-.36,1.82-1.14,3.53-2.28,5-.66.87-1.45,1.64-2.34,2.28-1,.72-2.07,1.33-3.21,1.8-1.02.4-2.08.7-3.16.9-1.06.21-2.13.32-3.21.35-1.09.03-2.17.07-3.28.07h-11.03v-.91c3.86,0,3.78-3.3,3.78-4.53v-13.33c0-1.1.1-4.5-3.78-4.5v-.91h13.3Z"/>
      <path class="cls-2" d="M153.76,59.57v-.91h9.16v.91c-3.74,0-3.74,3.4-3.76,4.53v8.68c0,2.44.85,10.71-9.99,10.71s-10.21-8.14-10.21-11.07v-8.34c0-1.13,0-4.51-3.77-4.51v-.91h11.25v.91c-3.79,0-3.78,3.38-3.78,4.51v8.35c0,.95-.3,9.53,6.76,9.53,8.12,0,8.06-6.6,8.06-9.17v-8.68c0-1.15,0-4.53-3.73-4.53"/>
      <path class="cls-2" d="M167.95,73.85h8l-4.12-8.94-3.88,8.94ZM159.82,82.83v-.91c2.1,0,3.04-1.41,4.53-4.53l8.49-19.37h.52l8.92,19.37q2.53,4.53,4.88,4.53v.91h-10.83v-.91c.19,0,3.58,0,1.23-4.53l-.94-2.06h-9.31l-.89,2.06c-2.04,4.82,1.48,4.53,1.48,4.53v.91h-8.08Z"/>
      <path class="cls-2" d="M224.11,73.96h8l-4.12-8.94-3.88,8.94ZM215.98,82.94v-.91c2.1,0,3.03-1.41,4.52-4.53l8.52-19.37h.52l8.92,19.37q2.53,4.53,4.88,4.53v.92h-10.84v-.92c.18,0,3.56,0,1.23-4.53l-.94-2.06h-9.32l-.89,2.06c-2.04,4.82,1.48,4.53,1.48,4.53v.92h-8.09Z"/>
      <path class="cls-2" d="M277.15,73.85h8.01l-4.12-8.94-3.89,8.94ZM269.01,82.83v-.91c2.1,0,3.04-1.41,4.53-4.53l8.52-19.37h.52l8.92,19.37q2.53,4.53,4.88,4.53v.91h-10.84v-.91c.18,0,3.58,0,1.23-4.53l-.94-2.06h-9.32l-.9,2.06c-2.04,4.82,1.48,4.53,1.48,4.53v.91h-8.09Z"/>
      <path class="cls-2" d="M318.67,73.85h8.01l-4.12-8.94-3.89,8.94ZM310.54,82.83v-.91c2.1,0,3.04-1.41,4.53-4.53l8.52-19.37h.52l8.91,19.37q2.53,4.53,4.88,4.53v.91h-10.85v-.91c.18,0,3.58,0,1.23-4.53l-.94-2.06h-9.31l-.89,2.06c-2.04,4.82,1.48,4.53,1.48,4.53v.91h-8.09Z"/>
      <path class="cls-2" d="M376.64,73.85h8.01l-4.12-8.94-3.89,8.94ZM368.5,82.83v-.91c2.1,0,3.04-1.41,4.53-4.53l8.52-19.37h.52l8.92,19.37q2.53,4.53,4.88,4.53v.91h-10.85v-.91c.18,0,3.58,0,1.23-4.53l-.94-2.06h-9.32l-.89,2.06c-2.04,4.82,1.48,4.53,1.48,4.53v.91h-8.08Z"/>
      <path class="cls-2" d="M348.19,70.36c.34.05.68.07,1.03.08.37,0,.76,0,1.19-.05.45-.06.89-.14,1.33-.25.51-.13,1-.31,1.48-.51.5-.22.96-.52,1.35-.9.37-.33.68-.72.94-1.15.24-.41.42-.84.54-1.3.13-.42.19-.85.19-1.28,0-.69-.12-1.38-.37-2.03-.25-.61-.62-1.16-1.09-1.63-.51-.46-1.09-.81-1.73-1.05-.72-.26-1.49-.38-2.26-.37-.48,0-.96.02-1.45.07-.48.07-.87.12-1.14.15v10.22ZM359.91,82.83l-9.59-11.22c-.25,0-.45.02-.62.02-.16,0-.31,0-.47,0-.16,0-.31,0-.47,0-.17,0-.37-.02-.57-.02v5.78c0,1.13,0,4.53,3.71,4.53v.91h-12.42v-.91c4.14,0,4.17-3.4,4.17-4.53v-13.33c.02-1.09-.11-4.5-4.17-4.5v-.92h11.29c.56,0,1.18.04,1.85.07.7.04,1.4.12,2.09.23.73.13,1.45.32,2.15.57.73.26,1.42.6,2.07,1.03.71.49,1.3,1.12,1.73,1.87.48.77.72,1.66.71,2.56.01.68-.11,1.35-.35,1.98-.22.55-.53,1.06-.92,1.5-.37.42-.8.79-1.28,1.08-.45.28-.91.52-1.39.73-.43.18-.88.34-1.33.47-.41.12-.73.2-.98.29l6.71,7.78c.36.42.75.82,1.16,1.2.35.34.72.65,1.13.91.38.24.78.44,1.19.62.46.16.92.29,1.4.38v.91h-6.8Z"/>
      <path class="cls-2" d="M258.02,59.57c-4.36,0-4.44,3.43-4.44,4.52v13.24c0,1.12.15,3.91,1.88,3.91h5.55c.44,0,.94-.04,1.48-.08.61-.09,1.2-.29,1.75-.58.75-.4,1.42-.92,1.99-1.55.79-.89,1.45-1.9,1.95-2.98h.98l-2.28,6.81h-21.65v-.91c3.64,0,3.74-3.48,3.74-4.6v-13.26c0-1.09-.41-4.52-3.74-4.52v-.9h12.79v.92Z"/>
      <path class="cls-2" d="M131.5,58.34l.69,7.61h-.72c-.65-1.88-1.54-3.31-2.62-4.28-1.52-1.37-3.5-2.06-5.9-2.06-3.31,0-5.79,1.2-7.53,3.65-1.46,2.17-2.2,4.73-2.14,7.34-.02,2.18.47,4.34,1.44,6.3.98,1.89,2.21,3.29,3.78,4.18,1.44.85,3.07,1.31,4.75,1.32.94,0,1.88-.12,2.79-.35.89-.22,1.75-.56,2.55-1v-6.99c0-1.23-.04-3.54-3.39-3.54v-.65h10.02v.65c-2.81,0-2.9,2.23-2.9,3.54v7.39c-1.38.71-2.85,1.26-4.36,1.63-1.56.36-3.15.53-4.75.51-4.99,0-8.79-1.49-11.37-4.48-1.92-2.13-2.97-4.9-2.95-7.76,0-2.15.58-4.26,1.66-6.12,1.24-2.24,3.09-4.08,5.33-5.33,1.9-1.04,4.14-1.55,6.73-1.55.87,0,1.74.06,2.6.21,1.1.25,2.19.57,3.25.94.46.18.95.31,1.44.38.25-.01.48-.13.63-.33.19-.38.29-.79.3-1.22h.68Z"/>
      <path class="cls-2" d="M313.05,59.57c-3.58,0-3.67,3.43-3.67,4.45v10.25c0,.53-.04,1.06-.07,1.6-.03.52-.1,1.03-.2,1.53-.08.49-.22.97-.44,1.42-.31.74-.73,1.43-1.25,2.03-.48.56-1.03,1.05-1.63,1.47-.57.38-1.2.69-1.85.9-.62.18-1.27.28-1.92.28-.45,0-.9-.06-1.35-.15-.49-.1-.96-.26-1.41-.47-.43-.2-.81-.49-1.11-.86-.33-.34-.51-.79-.5-1.27,0-.25.06-.5.17-.74.1-.23.24-.44.41-.62.18-.2.4-.36.65-.47.29-.12.6-.17.91-.17.26-.01.53.03.77.13.2.07.39.18.54.33.18.15.33.33.44.53.13.21.3.47.44.72.15.42.44.77.81,1.02.17.1.37.17.57.18.33.02.65-.11.87-.35.25-.25.42-.57.48-.91.08-.44.13-.89.13-1.33.04-.5.04-1.03.04-1.58v-13.45c0-1.05,0-4.48-4.14-4.48v-.9h12.32v.92Z"/>
      <path class="cls-1" d="M119.99,106.79c-.19-.11-.35-.26-.48-.43l-2.65-3.25c.61-.08,1.18-.32,1.67-.69.45-.39.69-.97.65-1.56.04-.95-.57-1.8-1.48-2.07-.62-.21-1.27-.31-1.93-.3h-3.7v.37h.06c.31,0,.62.08.89.25.16.26.22.57.19.87v5.72c0,.65-.09.91-.17,1s-.42.23-.9.27h-.06v.36h3.8v-.37h-.06c-.33,0-.65-.08-.93-.24-.13-.12-.2-.41-.2-.88v-2.54l.48-.03,3.28,4.04.02.02h2.22v-.36h-.06c-.22-.01-.43-.07-.62-.17M114.66,99.5c0-.17.03-.28.1-.33.21-.07.43-.1.65-.07.44-.02.89.06,1.3.22.6.25.96.86.9,1.5.05.69-.36,1.33-1.01,1.56-.63.2-1.29.29-1.95.29v-3.18Z"/>
      <path class="cls-1" d="M126.05,105.1c-.22.37-.5.71-.84.98-.32.23-.71.34-1.1.33-.54,0-1.05-.24-1.4-.65-.38-.43-.61-1.13-.65-2.07h4.09v-.06c.09-1.27-.87-2.38-2.15-2.47-.06,0-.13,0-.19,0-.8-.02-1.56.35-2.05.98-.52.64-.8,1.45-.78,2.28-.01.77.22,1.52.67,2.15.44.62,1.16.97,1.92.94.68.01,1.33-.24,1.82-.72.46-.42.8-.95,1-1.54l.02-.06-.33-.12-.04.05ZM122.09,103.15c.05-.27.14-.54.28-.78.21-.4.62-.64,1.07-.62.41-.03.8.18,1,.53.13.27.2.57.23.87h-2.57Z"/>
      <path class="cls-1" d="M132.97,106.44h-.14c-.34,0-.46-.07-.49-.14-.08-.17-.11-.36-.09-.55v-6.72l.02-.8-.11-.04h-.02l-.34.12c-.15.05-.33.1-.5.16l-.58.16-.58.15v.33h.18l.15-.02h.13c.13,0,.3.02.36.12.07.16.09.34.08.51v1.9c-.12-.11-.26-.21-.4-.28-.28-.14-.58-.22-.89-.21-.81,0-1.56.38-2.04,1.03-.56.69-.85,1.55-.83,2.44,0,.73.24,1.44.69,2,.44.56,1.11.89,1.83.87.39,0,.78-.1,1.12-.3.19-.13.37-.28.53-.46v.65l.09.11,1.05-.4.98-.33v-.33h-.07s-.09.02-.13.02M131.03,103.09v2.77c-.02.2-.13.39-.29.51-.21.19-.48.29-.76.28-.57.03-1.11-.28-1.38-.78-.32-.55-.48-1.18-.47-1.82-.02-.61.13-1.21.44-1.73.24-.44.71-.7,1.21-.69.31.01.6.13.83.33.31.29.47.71.42,1.13"/>
      <path class="cls-1" d="M142.72,98.84h.06c.34,0,.67.11.94.33.16.17.24.61.24,1.3v3.44c.04.63-.07,1.26-.3,1.84-.35.7-1.07,1.05-2.12,1.05-.95,0-1.61-.34-1.95-1.02-.21-.5-.3-1.04-.28-1.59v-4.23c0-.58.11-.8.21-.89.29-.17.62-.25.95-.24h.06v-.37h-3.87v.37h.06c.33,0,.65.08.93.24.13.12.2.42.2.88v4.14c-.03.69.12,1.38.43,2.01.52.94,1.52,1.43,2.97,1.43s2.47-.49,2.99-1.45c.32-.68.46-1.42.43-2.16v-3.44c0-.67.07-1.1.22-1.28.27-.23.61-.35.96-.35h.06v-.36h-3.18v.36Z"/>
      <path class="cls-1" d="M151.9,106.84c-.13-.18-.18-.41-.17-.63v-3.01c0-.86-.24-1.46-.72-1.8-.24-.17-.53-.26-.83-.26-.38,0-.76.12-1.08.33-.29.2-.57.42-.83.67v-.8s0-.07,0-.11c-.02-.05-.06-.09-.12-.08l-.62.21c-.63.21-1.06.35-1.25.4h-.05v.35h.07l.15-.02h.11c.23,0,.38.07.45.21.06.18.08.36.07.55v3.28c0,.47-.09.65-.16.72-.18.13-.39.2-.61.21h-.06v.3h2.95v-.31h-.06c-.22,0-.43-.05-.62-.16-.14-.15-.21-.36-.18-.57v-3.58c.17-.17.34-.32.54-.46.21-.15.47-.24.73-.25.28-.03.55.09.7.33.14.27.21.58.2.89v2.75c.03.28-.03.56-.17.81-.17.15-.39.23-.62.24h-.06v.3h2.88v-.31h-.06c-.21.02-.42-.05-.58-.19"/>
      <path class="cls-1" d="M155.31,106.81c-.07-.07-.16-.29-.16-.88v-4.63s0-.08,0-.11v-.05h-.05c-.09.01-.18.04-.26.08-.29.12-.82.31-1.57.55l-.33.11v.33l.08-.02c.21-.06.34-.09.38-.1.04,0,.08,0,.13,0,.15-.02.3.08.35.22.05.18.06.37.06.56v3.08c0,.6-.09.81-.16.88-.25.15-.54.23-.83.22h-.06v.3h3.25v-.3h-.06c-.49-.04-.69-.14-.76-.22"/>
      <path class="cls-1" d="M154.43,99.68c.2,0,.38-.07.52-.21.14-.14.22-.32.21-.52,0-.2-.07-.39-.21-.52-.29-.28-.75-.28-1.04,0-.14.14-.21.33-.21.52,0,.19.07.38.21.52.14.14.33.21.52.21"/>
      <path class="cls-1" d="M160.74,101.55h.06c.12,0,.25.03.36.07.12.05.2.17.2.3,0,.11-.03.22-.07.33-.05.16-.1.31-.16.44l-1.09,2.71-1.3-3.1c-.05-.12-.08-.21-.1-.27-.02-.06-.03-.12-.03-.18,0-.18.07-.21.1-.22.15-.06.3-.09.45-.1h.06v-.33h-2.72v.33h.06c.16.01.31.06.44.14.22.21.39.47.49.76l1.98,4.72c.04.08.07.14.1.19.03.06.1.1.17.1.06,0,.11-.03.14-.07.03-.06.06-.12.09-.18l1.87-4.64c.1-.29.23-.57.39-.84.1-.12.25-.18.41-.18h.06v-.33h-1.95v.34Z"/>
      <path class="cls-1" d="M168.21,105.1c-.22.37-.5.71-.84.98-.32.23-.71.34-1.1.33-.54,0-1.06-.24-1.41-.65-.38-.43-.61-1.13-.65-2.07h4.09v-.06c.09-1.27-.87-2.38-2.15-2.47-.06,0-.13,0-.19,0-.8-.02-1.56.35-2.05.98-.52.64-.8,1.45-.78,2.28-.01.77.23,1.52.67,2.15.44.62,1.17.97,1.93.94.68.01,1.33-.24,1.82-.72.46-.42.8-.95,1.01-1.54l.02-.06-.33-.12-.04.05ZM164.25,103.15c.05-.27.14-.54.27-.78.21-.4.62-.64,1.07-.62.41-.03.8.18,1,.53.13.27.21.57.23.87h-2.57Z"/>
      <path class="cls-1" d="M172.51,101.13c-.31,0-.61.12-.84.33-.26.22-.49.48-.69.75v-.86c0-.05,0-.1,0-.16-.02-.05-.07-.08-.12-.07h-.03c-.22.1-.44.2-.65.28-.09.04-.26.1-.53.19l-.79.28v.33l.08-.02c.07-.02.14-.03.22-.04.05,0,.11-.01.16-.02.16-.01.32.08.38.23.09.29.13.59.11.89v2.91c.03.22-.03.45-.17.62-.23.13-.49.19-.75.19h-.06v.33h3.31v-.34h-.13c-.26.02-.53-.04-.75-.19-.18-.19-.27-.46-.23-.72v-2.85c.02-.27.13-.52.33-.71.2-.22.38-.34.51-.34.05,0,.16.04.35.21.35.33.75.33.98.04.12-.13.18-.31.18-.48,0-.2-.08-.4-.23-.54-.16-.15-.37-.22-.58-.21"/>
      <path class="cls-1" d="M176.45,103.87l-.85-.46c-.57-.3-.85-.63-.85-1,0-.47.37-.86.84-.86.02,0,.04,0,.06,0,.45-.02.88.22,1.1.62.16.3.27.62.33.95v.05h.33l-.05-1.87v-.07h-.25l-.02.03s-.04.06-.07.08c-.04.02-.09.02-.13.02-.15-.03-.3-.07-.44-.12-.25-.08-.51-.13-.77-.13-.49-.02-.97.15-1.34.48-.65.6-.72,1.61-.15,2.29.34.36.74.65,1.18.87l.72.41c.21.11.4.27.54.47.1.14.15.31.15.49.01.24-.08.48-.26.65-.2.17-.46.26-.72.25-.52.02-1.01-.24-1.26-.69-.19-.34-.33-.72-.39-1.11v-.05h-.33v2.21h.27v-.04s.04-.08.07-.11c.02-.02.06-.04.09-.04.19.03.38.07.56.13.29.08.59.12.89.13.55.02,1.1-.15,1.53-.5.39-.32.61-.8.59-1.3,0-.69-.48-1.3-1.41-1.8"/>
      <path class="cls-1" d="M180.09,99.68c.19,0,.38-.07.52-.21.14-.14.22-.32.21-.52,0-.2-.07-.39-.21-.52-.14-.14-.32-.22-.52-.21-.2,0-.39.07-.52.21-.14.14-.22.33-.22.52,0,.19.07.38.21.52.14.14.33.21.52.21"/>
      <path class="cls-1" d="M180.97,106.81c-.07-.07-.16-.29-.16-.88v-4.63s0-.08-.02-.11v-.05h-.05c-.09.01-.18.04-.26.08-.3.12-.82.31-1.57.55l-.33.11v.33l.08-.02c.21-.06.34-.09.39-.1.04,0,.08,0,.12,0,.15-.02.3.08.35.22.04.18.06.37.06.56v3.08c0,.6-.09.81-.16.88s-.28.17-.83.22h-.06v.3h3.25v-.3h-.06c-.5-.04-.69-.14-.76-.22"/>
      <path class="cls-1" d="M185.47,106.19c-.11.12-.24.23-.38.33-.11.07-.24.1-.37.1-.25.01-.48-.16-.54-.4-.06-.23-.09-.48-.08-.72v-3.65h1.3v-.59h-1.3v-1.52c0-.08,0-.12-.04-.15-.04-.02-.09-.03-.14-.03h-.01v.05c-.48.65-.79,1.05-.92,1.2-.2.22-.42.41-.65.59-.07.05-.13.11-.19.17-.03.04-.05.09-.05.14,0,.03.01.07.03.09.02.02.04.04.07.05h.65v3.84c-.01.35.04.71.15,1.04.16.46.61.75,1.09.72.26,0,.52-.07.75-.2.29-.16.54-.38.73-.65l.18-.24-.26-.22-.02.04Z"/>
      <path class="cls-1" d="M191.57,106.71v-.48l-.1.07c-.1.08-.21.15-.33.21-.07.03-.14.04-.22.04-.13,0-.25-.08-.29-.21-.04-.16-.06-.33-.05-.49v-2.58c.03-.46-.06-.91-.25-1.33-.31-.56-.9-.84-1.75-.84-.6-.04-1.2.14-1.68.51-.32.23-.53.58-.58.98,0,.17.06.33.17.46.12.14.31.22.49.21.12,0,.25-.03.35-.09.19-.12.29-.33.27-.56,0-.08-.02-.17-.03-.25-.02-.08-.03-.17-.03-.25,0-.18.1-.34.26-.42.18-.1.39-.16.6-.16.34-.05.67.11.85.4.1.28.15.58.12.89v.5c-.81.27-1.59.62-2.34,1.04h0c-.59.33-.96.94-.98,1.61-.01.39.14.77.43,1.04.27.27.63.41,1.01.41.41-.01.81-.14,1.15-.36.27-.17.52-.35.75-.56.02.21.1.41.21.59.16.21.42.33.69.31.28,0,.55-.09.77-.26.17-.12.33-.26.46-.42h.03ZM188.26,104.29c.36-.21.73-.38,1.13-.5v1.95c-.01.24-.15.45-.36.55-.24.15-.51.23-.78.23-.19,0-.37-.06-.52-.17-.25-.19-.39-.5-.36-.81,0-.46.3-.88.9-1.25"/>
      <path class="cls-1" d="M195.23,101.13c-.31,0-.61.12-.84.33-.26.22-.49.48-.69.75v-.86c0-.05,0-.1,0-.16-.02-.05-.07-.08-.12-.07h-.03c-.22.1-.44.2-.65.28-.09.04-.26.1-.53.19l-.79.28v.33l.08-.02c.07-.02.14-.03.21-.04.05,0,.11-.01.16-.02.16-.01.32.08.38.23.09.29.13.59.11.89v2.91c.03.22-.03.45-.17.62-.23.13-.49.19-.75.19h-.06v.33h3.3v-.34h-.13c-.26.02-.53-.04-.75-.19-.18-.19-.27-.46-.23-.72v-2.85c.02-.27.13-.52.33-.71.2-.22.38-.34.51-.34.05,0,.16.04.35.21.35.33.75.33.98.04.12-.13.18-.31.17-.48,0-.2-.08-.4-.22-.54-.16-.15-.37-.22-.58-.21"/>
      <path class="cls-1" d="M198.55,106.81c-.07-.07-.16-.29-.16-.88v-4.63s0-.08,0-.11v-.05h-.05c-.09.01-.18.04-.26.08-.29.12-.82.31-1.57.55l-.33.11v.33h.08c.21-.06.33-.1.38-.1.04,0,.08,0,.12,0,.15-.02.3.08.35.22.05.18.06.37.06.56v3.08c0,.6-.09.81-.16.88s-.28.17-.83.22h-.06v.3h3.25v-.3h-.06c-.49-.04-.69-.14-.76-.22"/>
      <path class="cls-1" d="M197.68,99.68c.41,0,.73-.33.73-.74,0-.19-.08-.38-.21-.51-.14-.14-.32-.22-.52-.21-.2,0-.39.07-.52.21-.14.14-.21.33-.21.52,0,.19.07.38.21.52.14.14.33.21.52.21"/>
      <path class="cls-1" d="M205.06,106.52c-.07.03-.14.04-.22.04-.13,0-.26-.08-.29-.21-.04-.16-.06-.33-.05-.49v-2.58c.03-.46-.06-.91-.24-1.33-.31-.56-.9-.84-1.75-.84-.6-.04-1.2.14-1.68.51-.32.23-.53.58-.58.98,0,.17.06.33.17.46.12.15.31.22.49.21.12,0,.25-.03.35-.09.19-.12.29-.34.27-.56,0-.08-.02-.17-.03-.25-.02-.08-.03-.17-.03-.25,0-.18.1-.34.26-.42.18-.1.38-.16.59-.16.34-.05.67.11.85.4.1.28.14.58.12.89v.5c-.81.27-1.59.62-2.34,1.04h0c-.59.33-.96.94-.98,1.61-.01.39.14.77.43,1.04.27.27.63.41,1.01.41.41-.01.8-.14,1.15-.36.27-.16.52-.35.75-.56.02.21.1.41.22.59.16.21.42.33.68.31.28,0,.55-.09.77-.26.17-.12.33-.26.46-.42l.02-.02v-.48l-.1.07c-.1.08-.21.15-.33.21M202.16,104.28c.36-.21.74-.38,1.13-.5v1.95c-.01.24-.15.45-.36.55-.24.15-.51.23-.78.23-.19,0-.37-.06-.52-.17-.25-.19-.39-.5-.36-.81,0-.46.3-.88.9-1.25"/>
      <path class="cls-1" d="M214.03,105.1c-.22.37-.5.71-.84.98-.32.23-.71.34-1.1.33-.54,0-1.05-.24-1.4-.65-.39-.43-.61-1.13-.65-2.07h4.09v-.06c.09-1.27-.87-2.38-2.15-2.47-.06,0-.13,0-.19,0-.8-.02-1.56.35-2.05.98-.52.64-.8,1.45-.78,2.28-.01.77.22,1.52.67,2.15.44.62,1.17.97,1.93.94.68.01,1.33-.24,1.82-.72.46-.42.8-.95,1.01-1.54l.02-.06-.33-.12-.04.05ZM210.06,103.15c.05-.27.14-.54.27-.78.21-.39.62-.64,1.07-.62.41-.03.8.17,1,.53.13.27.2.57.23.87h-2.57Z"/>
      <path class="cls-1" d="M218.06,98.84h.06c.35-.02.7.06,1.01.23.14.12.22.43.22.89v5.86c0,.6-.11.82-.21.9-.31.16-.66.23-1.01.23h-.06v.37h4.03v-.37h-.06c-.35,0-.7-.07-1.01-.23-.1-.07-.21-.29-.21-.9v-5.86c0-.46.07-.76.21-.89.31-.17.66-.25,1.01-.23h.06v-.37h-4.03v.37Z"/>
      <path class="cls-1" d="M228.13,106.84c-.13-.18-.19-.41-.17-.63v-3.01c0-.86-.24-1.46-.72-1.8-.24-.17-.53-.26-.83-.26-.38,0-.76.12-1.08.33-.29.2-.57.42-.83.67v-.8s0-.07,0-.11c-.01-.05-.06-.09-.12-.08l-.62.21c-.63.21-1.06.35-1.25.4h-.05v.35h.07l.15-.02h.11c.18-.03.35.06.44.21.06.18.09.36.07.55v3.28c0,.47-.09.65-.16.72-.18.13-.39.2-.61.21h-.06v.3h2.95v-.31h-.06c-.22,0-.43-.05-.62-.16-.14-.15-.21-.36-.18-.57v-3.58c.17-.17.34-.32.54-.46.21-.15.47-.24.73-.25.28-.03.55.09.7.33.14.27.21.58.2.89v2.75c.03.28-.03.56-.17.81-.17.15-.39.23-.62.24h-.06v.3h2.88v-.31h-.07c-.21.02-.42-.05-.57-.19"/>
      <path class="cls-1" d="M232.16,103.87l-.85-.46c-.57-.3-.86-.63-.86-1,0-.47.38-.86.85-.86.02,0,.03,0,.05,0,.45-.02.88.22,1.1.62.16.3.27.62.33.95v.05h.33l-.05-1.87v-.07h-.25l-.02.03s-.04.06-.07.08c-.04.02-.09.02-.13.02-.15-.03-.3-.07-.44-.12-.25-.08-.51-.13-.77-.13-.49-.02-.97.15-1.34.48-.65.6-.72,1.61-.15,2.29.34.36.74.65,1.18.87l.72.41c.21.11.4.27.54.47.1.14.15.31.15.49,0,.24-.08.48-.26.65-.2.17-.46.26-.72.25-.52.02-1.01-.24-1.26-.69-.19-.34-.33-.72-.39-1.11v-.05h-.33v2.21h.27l.02-.04s.04-.08.07-.11c.02-.02.06-.04.09-.04.19.03.38.07.56.13.29.08.59.12.89.13.55.02,1.1-.15,1.53-.5.39-.32.61-.8.59-1.3,0-.69-.47-1.3-1.41-1.8"/>
      <path class="cls-1" d="M237.51,106.19c-.11.12-.24.23-.37.33-.11.07-.24.1-.37.1-.26.01-.48-.16-.55-.4-.06-.23-.09-.48-.08-.72v-3.65h1.32v-.59h-1.3v-1.52c0-.08,0-.12-.04-.15-.04-.02-.09-.03-.14-.03h-.03l-.02.03c-.48.65-.79,1.05-.92,1.2-.2.21-.41.41-.63.59-.07.05-.13.11-.19.17-.03.04-.04.09-.04.14,0,.03,0,.07.03.09.02.02.04.04.07.05h.67v3.84c-.01.35.04.71.15,1.04.16.46.61.75,1.09.72.26,0,.52-.07.75-.2.29-.16.54-.38.73-.65l.18-.24-.26-.22-.03.06Z"/>
      <path class="cls-1" d="M240.35,106.81c-.07-.07-.16-.29-.16-.88v-4.63s0-.08,0-.11v-.05h-.05c-.09.01-.18.04-.25.08-.3.12-.82.31-1.57.55l-.33.11v.33l.08-.02c.21-.06.33-.09.38-.1.04,0,.08,0,.13,0,.15-.02.3.08.35.22.05.18.06.37.06.56v3.08c0,.6-.09.81-.16.88s-.28.17-.83.22h-.06v.3h3.25v-.3h-.06c-.5-.04-.69-.14-.76-.22"/>
      <path class="cls-1" d="M239.47,99.68c.2,0,.38-.07.52-.21.14-.13.22-.32.22-.51,0-.2-.07-.39-.21-.52-.29-.28-.75-.28-1.04,0-.14.14-.21.33-.21.52,0,.4.33.73.73.73,0,0,0,0,0,0"/>
      <path class="cls-1" d="M244.84,106.19c-.11.12-.24.23-.38.33-.11.07-.24.1-.36.1-.26.01-.48-.16-.55-.4-.06-.23-.09-.48-.08-.72v-3.65h1.3v-.59h-1.3v-1.52c0-.08,0-.12-.04-.15-.04-.02-.09-.03-.14-.03h-.03l-.02.03c-.48.65-.79,1.05-.92,1.2-.2.22-.42.41-.65.59-.07.05-.13.11-.19.17-.03.04-.04.09-.04.14,0,.03,0,.07.03.09.02.02.04.04.07.05h.67v3.84c-.01.35.04.71.15,1.04.16.46.61.75,1.09.72.26,0,.52-.07.75-.2.29-.16.54-.38.73-.65l.18-.24-.26-.22v.06Z"/>
      <path class="cls-1" d="M250.75,106.4c-.11-.16-.16-.36-.14-.56v-4.61h-2.21v.33h.06c.26-.01.51.05.74.17.11.09.17.29.17.6v3.51c-.13.16-.29.3-.46.42-.24.18-.52.27-.82.28-.34.04-.67-.15-.82-.45-.09-.21-.13-.45-.12-.68v-4.17h-2.06v.33h.06c.2,0,.39.05.57.14.16.17.23.4.2.63v3.35c0,.65.18,1.1.53,1.37.31.26.69.41,1.1.42.43,0,.85-.14,1.19-.4.26-.19.49-.41.7-.65v.86s0,.05,0,.08c0,.05.05.08.1.08h.03c.38-.15.62-.24.73-.27.26-.09.45-.15.56-.18l.52-.14h.05v-.3h-.07c-.21.04-.44,0-.62-.13"/>
      <path class="cls-1" d="M256.85,105.16c-.18.29-.4.55-.65.79-.32.28-.73.43-1.15.43-.58.02-1.13-.26-1.45-.75-.36-.5-.56-1.1-.55-1.71-.03-.6.15-1.18.49-1.67.27-.39.72-.61,1.19-.62.18,0,.36.03.52.12.14.12.23.28.25.46l.08.31c.04.18.13.35.27.48.27.24.69.23.94-.04.1-.12.16-.27.16-.43-.03-.4-.26-.76-.61-.96-.42-.29-.92-.44-1.43-.43-.84-.02-1.64.34-2.18.98-.57.64-.88,1.48-.86,2.34-.04.81.24,1.6.79,2.2.47.51,1.13.81,1.82.81.72,0,1.39-.33,1.85-.89.32-.38.58-.8.78-1.25l.03-.05-.28-.17-.03.05Z"/>
      <path class="cls-1" d="M260.14,106.81c-.07-.07-.16-.29-.16-.88v-4.63s0-.08,0-.11v-.05h-.05c-.09.01-.18.04-.26.08-.29.12-.82.31-1.57.55l-.33.11v.33l.08-.02c.21-.06.34-.09.38-.1.04,0,.08,0,.13,0,.15-.02.3.08.35.22.04.18.06.36.05.55v3.08c0,.6-.09.81-.16.88s-.28.17-.83.22h-.06v.3h3.25v-.3h-.06c-.49-.04-.69-.14-.76-.22"/>
      <path class="cls-1" d="M259.27,99.68c.2,0,.38-.07.52-.21.14-.14.21-.32.21-.52,0-.2-.07-.39-.21-.52-.29-.28-.75-.28-1.04,0-.14.14-.21.33-.21.52,0,.19.07.38.21.52.14.14.33.21.52.21"/>
      <path class="cls-1" d="M266.14,99.35c.12-.07.23-.16.33-.26.08-.1.12-.22.12-.35,0-.14-.05-.27-.16-.36-.21-.17-.51-.17-.71,0-.09.07-.18.14-.27.22l-1.95,1.95-.11.11h.71l2.05-1.31Z"/>
      <path class="cls-1" d="M264.42,101.16c-.81-.02-1.6.31-2.15.91-.55.6-.85,1.39-.83,2.21-.03.86.29,1.7.87,2.33.55.6,1.33.94,2.14.93.83.02,1.62-.34,2.15-.98.55-.63.84-1.44.82-2.28.04-.84-.27-1.67-.85-2.28-.57-.57-1.35-.88-2.16-.86M263.4,101.97c.23-.21.53-.33.84-.33.61,0,1.06.33,1.39.95.32.64.49,1.35.49,2.07.03.59-.1,1.18-.38,1.71-.2.4-.61.65-1.06.63-.59,0-1.05-.33-1.39-.96-.34-.65-.51-1.38-.51-2.11,0-.93.21-1.6.62-1.98"/>
      <path class="cls-1" d="M273.6,106.84c-.13-.18-.19-.41-.17-.63v-3.01c0-.86-.25-1.46-.73-1.8-.24-.17-.53-.26-.83-.26-.38,0-.75.12-1.07.33-.3.2-.57.42-.83.67v-.8s0-.07,0-.11c-.01-.05-.06-.09-.12-.08l-.62.21-1.25.4h-.05v.35h.07l.15-.02h.11c.18-.03.35.06.45.21.06.18.08.36.07.55v3.28c0,.47-.09.65-.16.72-.18.13-.39.2-.61.21h-.06v.3h2.93v-.31h-.06c-.22,0-.43-.05-.62-.16-.14-.15-.21-.36-.18-.57v-3.58c.17-.17.34-.32.54-.46.22-.15.47-.24.74-.25.28-.03.55.09.7.33.14.27.21.58.2.89v2.75c.03.28-.03.57-.17.81-.17.15-.39.23-.62.24h-.06v.3h2.88v-.31h-.07c-.21.02-.42-.05-.57-.19"/>
      <path class="cls-1" d="M283.55,102.68c.32-.08.62-.22.89-.41.46-.35.71-.9.68-1.47,0-.85-.33-1.46-.98-1.81-.79-.38-1.67-.55-2.55-.51h-3.75v.37h.06c.35-.02.69.06.99.23.14.13.21.43.21.89v5.86c0,.59-.12.81-.21.89-.3.17-.65.25-.99.23h-.06v.37h4.36c.64.02,1.28-.09,1.88-.31.92-.32,1.52-1.21,1.47-2.19.03-.57-.21-1.12-.65-1.48-.4-.31-.86-.54-1.34-.68M282.85,102.18c-.34.14-.71.21-1.08.21l-1.19.02v-2.93c0-.26.05-.33.07-.33.15-.06.31-.08.47-.06.54-.03,1.09.05,1.6.22.61.25.99.88.93,1.54.05.57-.28,1.1-.8,1.33M280.57,103.03h.57c.69-.03,1.38.11,2.01.4.51.26.76.75.76,1.46s-.22,1.2-.65,1.45c-.51.27-1.08.41-1.66.39-.29.02-.59,0-.87-.09-.1-.06-.16-.19-.16-.38v-3.22Z"/>
      <path class="cls-1" d="M291.76,105.1c-.22.37-.5.7-.84.98-.32.23-.71.34-1.1.33-.54,0-1.06-.24-1.41-.65-.38-.43-.61-1.13-.65-2.07h4.09v-.06c.09-1.27-.87-2.38-2.15-2.47-.06,0-.13,0-.19,0-.8-.02-1.56.35-2.05.98-.52.64-.8,1.45-.78,2.28-.01.77.22,1.52.67,2.15.44.62,1.16.97,1.92.94.68.01,1.34-.24,1.82-.72.46-.42.8-.95,1.01-1.54l.02-.06-.33-.12-.04.05ZM287.79,103.15c.05-.27.14-.54.28-.78.21-.39.62-.64,1.07-.62.41-.03.8.18,1,.53.13.27.21.57.23.87h-2.57Z"/>
      <path class="cls-1" d="M298.17,106.84c-.13-.18-.19-.41-.17-.63v-3.01c0-.86-.24-1.46-.73-1.8-.24-.17-.53-.26-.83-.26-.38,0-.75.12-1.07.33-.3.2-.57.42-.83.67v-.8s0-.07,0-.11c-.02-.05-.07-.09-.12-.08l-.62.21-1.25.4h-.05v.35h.07l.15-.02h.11c.23,0,.38.07.45.21.06.18.08.36.07.55v3.28c0,.47-.09.65-.16.72-.18.13-.39.2-.61.21h-.06v.3h2.93v-.31h-.06c-.22,0-.43-.05-.62-.16-.14-.15-.21-.36-.18-.57v-3.58c.17-.17.35-.32.54-.46.22-.15.47-.24.74-.25.28-.03.55.09.7.33.14.27.21.58.2.89v2.75c.03.28-.02.56-.17.81-.18.15-.39.23-.62.24h-.06v.3h2.88v-.31h-.06c-.21.02-.42-.05-.58-.19"/>
      <path class="cls-1" d="M304.21,105.1c-.22.37-.5.71-.84.98-.32.23-.71.34-1.1.33-.54,0-1.06-.24-1.41-.65-.38-.43-.61-1.13-.65-2.07h4.08v-.06c.09-1.27-.87-2.38-2.15-2.47-.06,0-.13,0-.19,0-.8-.02-1.56.35-2.05.98-.52.64-.8,1.45-.78,2.28-.01.77.22,1.52.67,2.15.44.62,1.16.97,1.92.94.68.01,1.33-.24,1.82-.72.46-.42.8-.95,1.01-1.54l.02-.06-.33-.12-.04.05ZM300.25,103.15c.05-.27.14-.54.28-.78.21-.4.62-.64,1.07-.62.41-.03.8.18,1,.53.13.27.2.57.23.87h-2.57Z"/>
      <path class="cls-1" d="M314.34,106.84c-.14-.16-.2-.37-.18-.57v-2.68c.03-.52-.04-1.04-.21-1.53-.23-.58-.82-.94-1.45-.89-.46,0-.92.15-1.3.41-.28.19-.53.41-.77.65-.07-.21-.18-.41-.33-.59-.28-.32-.69-.49-1.11-.48-.34,0-.67.08-.98.23-.37.19-.71.43-1.01.72v-.86s-.05-.09-.1-.08c-.22.06-.43.13-.63.22-.39.15-.65.25-.82.3l-.49.18v.36l.08-.03s.1-.03.15-.04c.06,0,.13,0,.19,0,.14-.01.27.03.37.13.1.18.14.38.11.58v3.33c.04.26-.05.51-.23.7-.2.1-.42.16-.65.16h-.06v.29h3.06v-.29h-.06c-.25.03-.49-.03-.7-.17-.12-.19-.18-.41-.15-.63v-3.52c.18-.21.39-.39.63-.53.23-.13.48-.2.75-.21.38-.03.74.21.84.59.11.44.15.89.13,1.34v1.8c0,.69-.08.95-.16,1.04-.21.17-.47.27-.74.27h-.06v.29h3.09v-.29h-.06c-.27.03-.54-.07-.73-.26-.13-.23-.19-.49-.17-.76v-3.26c.17-.18.36-.35.56-.49.23-.17.51-.26.79-.26.37-.04.72.15.88.49.1.29.15.59.13.9v2.78c.03.23-.03.46-.16.65-.21.14-.45.21-.7.21h-.06v.3h3.03v-.29h-.06c-.25,0-.49-.08-.7-.2"/>
      <path class="cls-1" d="M319.67,99.35c.12-.07.23-.16.33-.26.08-.1.12-.22.12-.35,0-.14-.05-.27-.16-.36-.21-.17-.51-.17-.71,0-.1.06-.19.14-.27.22l-1.95,1.95-.11.11h.71l2.05-1.31Z"/>
      <path class="cls-1" d="M320.34,105.1c-.22.37-.5.71-.84.98-.32.23-.71.34-1.1.33-.54,0-1.05-.24-1.4-.65-.39-.43-.61-1.13-.65-2.07h4.09v-.06c.09-1.27-.87-2.38-2.15-2.47-.06,0-.13,0-.19,0-.8-.02-1.56.34-2.05.98-.52.64-.8,1.45-.78,2.28-.01.77.23,1.52.67,2.15.44.62,1.16.97,1.92.94.68.01,1.34-.24,1.82-.72.46-.42.8-.95,1.01-1.54v-.06l-.33-.12-.03.05ZM316.38,103.15c.05-.27.14-.54.27-.78.21-.39.62-.64,1.07-.62.41-.03.8.18,1,.53.13.27.21.57.23.87h-2.57Z"/>
      <path class="cls-1" d="M324.63,101.13c-.31,0-.61.12-.84.33-.26.22-.49.48-.69.75v-.86c0-.05,0-.1,0-.16-.02-.05-.07-.08-.12-.07h-.03c-.22.1-.44.2-.65.28-.09.04-.26.1-.53.19l-.79.28v.33l.08-.02c.07-.02.14-.03.21-.04.05,0,.11-.01.16-.02.16-.01.32.08.38.23.09.29.13.59.11.89v2.91c.03.22-.03.45-.17.62-.23.13-.49.19-.75.19h-.06v.33h3.3v-.34h-.13c-.26.02-.53-.04-.75-.19-.18-.19-.27-.46-.23-.72v-2.85c.02-.27.13-.52.33-.71.2-.22.37-.34.51-.34.05,0,.16.04.35.21.35.33.75.33.98.04.12-.13.18-.31.18-.48,0-.2-.08-.4-.23-.54-.16-.15-.37-.22-.58-.21"/>
      <path class="cls-1" d="M327.08,99.68c.41,0,.73-.33.73-.74,0-.19-.08-.38-.21-.51-.14-.14-.32-.22-.52-.21-.2,0-.39.07-.52.21-.14.14-.21.33-.21.52,0,.19.07.38.21.52.14.14.33.21.52.21"/>
      <path class="cls-1" d="M327.96,106.81c-.07-.07-.16-.29-.16-.88v-4.63s0-.08-.02-.11v-.05h-.05c-.09.01-.18.04-.26.08-.29.12-.82.31-1.57.55l-.33.11v.33l.08-.02c.21-.06.33-.09.38-.1.04,0,.08,0,.12,0,.15-.02.3.08.35.22.05.18.06.37.06.56v3.08c0,.6-.09.81-.16.88-.25.15-.54.23-.83.22h-.06v.3h3.25v-.3h-.06c-.5-.04-.69-.14-.76-.22"/>
      <path class="cls-1" d="M332.46,106.19c-.11.12-.24.23-.38.33-.11.07-.24.1-.37.1-.26.01-.48-.16-.55-.4-.06-.23-.09-.48-.08-.72v-3.65h1.3v-.59h-1.3v-1.52c0-.08,0-.12-.04-.15-.04-.02-.09-.03-.14-.03h-.03l-.02.03c-.48.65-.79,1.05-.92,1.2-.2.21-.42.41-.65.59-.07.05-.13.11-.19.17-.03.04-.04.09-.04.14,0,.03,0,.07.03.09.02.02.04.04.07.05h.65v3.84c-.01.35.04.71.15,1.04.16.46.61.75,1.09.72.26,0,.52-.07.75-.2.29-.16.54-.38.73-.65l.18-.24-.26-.22.02.06Z"/>
      <path class="cls-1" d="M338.13,106.52c-.07.03-.14.04-.22.04-.13.01-.25-.08-.29-.21-.04-.16-.06-.33-.05-.49v-2.58c.03-.46-.06-.91-.25-1.33-.31-.56-.9-.84-1.75-.84-.6-.04-1.2.14-1.68.51-.32.23-.53.58-.58.98,0,.17.06.33.17.46.12.15.31.22.49.21.12,0,.25-.03.35-.09.19-.12.29-.34.27-.56,0-.08-.02-.17-.03-.25-.02-.08-.03-.17-.03-.25,0-.18.1-.34.26-.42.18-.1.39-.16.6-.16.34-.05.67.11.85.4.1.28.14.58.12.89v.5c-.81.27-1.59.62-2.34,1.04h0c-.59.33-.96.94-.98,1.61-.01.39.14.77.43,1.04.27.27.63.41,1.01.41.41-.01.8-.14,1.15-.36.27-.17.52-.35.76-.56.02.21.09.41.21.59.16.21.42.33.69.31.28,0,.55-.09.77-.26.17-.12.33-.26.46-.42l.02-.02v-.48l-.1.07c-.1.08-.21.15-.33.21M335.23,104.28c.36-.21.74-.38,1.13-.5v1.95c-.01.24-.15.45-.36.55-.23.15-.5.23-.78.23-.19,0-.37-.06-.52-.17-.25-.19-.38-.5-.36-.81,0-.46.3-.88.9-1.25"/>
      <path class="cls-1" d="M348.15,106.44h-.14c-.33,0-.46-.07-.49-.14-.08-.17-.11-.36-.09-.55v-7.52l-.1-.04h-.02l-.35.12c-.14.05-.33.1-.5.16l-.58.16-.58.15v.33h.18l.15-.02h.12c.13,0,.31.02.36.12.07.16.09.34.08.51v1.9c-.12-.11-.26-.2-.4-.28-.28-.14-.58-.22-.9-.21-.81,0-1.56.38-2.04,1.03-.56.69-.85,1.55-.83,2.44,0,.73.24,1.44.7,2,.43.56,1.11.89,1.82.87.39,0,.78-.1,1.12-.3.19-.13.37-.28.53-.46v.65l.09.11,1.05-.4.98-.33v-.33h-.08s-.09.02-.13.02M346.19,103.09v2.77c-.02.2-.13.39-.29.51-.21.19-.49.29-.77.28-.57.03-1.11-.28-1.38-.78-.32-.55-.48-1.18-.47-1.82-.02-.61.13-1.21.44-1.73.24-.44.71-.7,1.21-.69.31.01.6.13.83.33.31.29.47.71.43,1.13"/>
      <path class="cls-1" d="M353.7,105.1c-.22.37-.5.7-.84.98-.32.23-.71.34-1.1.33-.54,0-1.06-.24-1.41-.65-.38-.43-.61-1.13-.65-2.07h4.09v-.06c.09-1.27-.87-2.38-2.15-2.47-.06,0-.13,0-.19,0-.8-.02-1.56.34-2.05.98-.52.64-.8,1.45-.78,2.28-.01.77.22,1.52.67,2.15.44.62,1.16.97,1.92.94.68.01,1.34-.24,1.82-.72.46-.42.8-.95,1.01-1.54l.02-.06-.33-.12-.04.05ZM349.72,103.15c.05-.27.14-.54.28-.78.21-.39.62-.64,1.07-.62.41-.03.8.18,1,.53.13.27.21.57.23.87h-2.57Z"/>
      <path class="cls-1" d="M358.61,98.84h.06c.33-.02.66.07.94.23.15.12.22.42.22.89v5.97c.01.26-.02.52-.09.76-.05.12-.17.19-.3.19-.13,0-.26-.18-.39-.51-.08-.33-.38-.57-.72-.59-.17,0-.33.06-.46.16-.16.14-.24.35-.22.56.01.27.15.52.37.68.29.21.64.32,1,.3.61.02,1.2-.22,1.63-.65.44-.44.65-1.11.65-2.01v-4.86c-.04-.31.04-.61.21-.87.28-.18.62-.27.96-.25h.06v-.37h-3.91v.36Z"/>
      <path class="cls-1" d="M368.19,106.52c-.07.03-.15.04-.22.04-.13.01-.25-.08-.29-.21-.04-.16-.06-.33-.05-.49v-2.58c.03-.46-.06-.91-.25-1.33-.31-.56-.9-.84-1.75-.84-.6-.04-1.2.14-1.68.51-.32.23-.53.58-.58.98,0,.17.06.33.17.46.12.14.31.22.49.21.12,0,.25-.03.35-.09.19-.12.29-.33.27-.56,0-.08-.02-.17-.03-.25-.02-.08-.03-.17-.03-.25,0-.18.1-.34.27-.42.18-.1.38-.16.59-.16.34-.05.67.11.85.4.1.28.15.58.12.89v.5c-.81.27-1.59.62-2.34,1.04h0c-.59.33-.96.94-.98,1.61-.01.39.14.77.43,1.04.27.26.63.41,1.01.41.41-.01.81-.14,1.15-.36.26-.17.52-.35.75-.56.02.21.1.41.21.59.16.21.42.33.69.31.28,0,.55-.09.77-.26.17-.12.33-.26.46-.42v-.5l-.1.07c-.1.08-.21.15-.33.21M365.28,104.28c.36-.21.73-.38,1.13-.5v1.95c-.01.24-.15.45-.36.55-.24.15-.51.23-.78.23-.19,0-.37-.06-.52-.17-.25-.19-.39-.5-.36-.81,0-.46.3-.88.9-1.25"/>
      <path class="cls-1" d="M371.21,106.83c-.14-.2-.2-.44-.17-.68v-7.73c0-.06,0-.12,0-.19-.02-.05-.06-.09-.12-.08h-.02c-.81.25-1.51.46-2.09.62h-.05v.35l.08-.02.26-.06c.06-.01.12-.02.19-.02.19-.03.37.07.46.23.06.18.08.37.07.56v6.3c.03.24-.04.48-.19.67-.23.15-.5.23-.77.23h-.07v.3h3.25v-.3h-.06c-.27,0-.53-.06-.76-.2"/>
      <path class="cls-1" d="M373.99,99.68c.2,0,.38-.07.52-.21.14-.14.21-.32.21-.52,0-.2-.07-.39-.21-.52-.29-.28-.75-.28-1.04,0-.14.14-.21.33-.21.52,0,.19.07.38.21.52.14.14.33.21.52.21"/>
      <path class="cls-1" d="M374.88,106.81c-.07-.07-.16-.29-.16-.88v-4.63s0-.08,0-.11v-.05h-.08c-.09.01-.18.04-.26.08-.29.12-.82.31-1.57.55l-.33.11v.33l.08-.02c.21-.06.33-.09.38-.1.04,0,.08,0,.13,0,.15-.02.3.08.35.22.05.18.06.37.06.56v3.08c0,.6-.09.81-.16.88-.25.15-.54.23-.83.22h-.06v.3h3.25v-.3h-.06c-.49-.04-.69-.14-.76-.22"/>
      <path class="cls-1" d="M379.16,103.87l-.85-.46c-.57-.3-.86-.63-.86-1,0-.47.37-.86.84-.86.02,0,.04,0,.06,0,.45-.02.88.22,1.1.62.16.3.27.62.33.95v.05h.33l-.05-1.87v-.07h-.25l-.02.03s-.04.06-.07.08c-.04.02-.09.02-.13.02-.15-.03-.3-.07-.44-.12-.25-.08-.51-.13-.77-.13-.49-.02-.97.15-1.34.48-.35.31-.55.76-.53,1.23,0,.39.13.77.39,1.06.34.36.74.65,1.18.87l.72.41c.21.11.4.27.55.47.09.15.15.31.15.49.01.24-.08.48-.26.65-.2.18-.45.27-.72.25-.52.02-1.01-.24-1.27-.69-.19-.34-.32-.72-.39-1.11v-.05h-.33v2.21h.27v-.04s.04-.08.08-.11c.02-.02.05-.04.09-.04.19.03.38.07.56.13.29.08.59.12.89.13.55.03,1.1-.15,1.53-.5.39-.32.61-.8.59-1.3,0-.69-.47-1.3-1.41-1.8"/>
      <path class="cls-1" d="M386.25,105.16c-.18.29-.4.55-.65.79-.32.28-.73.43-1.15.43-.58.02-1.13-.26-1.45-.75-.36-.5-.56-1.1-.55-1.71-.03-.6.15-1.18.49-1.67.27-.39.72-.61,1.19-.62.18,0,.36.03.52.12.14.11.23.27.26.45l.08.31c.04.18.13.35.27.48.12.11.28.17.44.17.19.01.38-.06.51-.21.09-.12.15-.27.15-.42-.03-.4-.26-.76-.61-.96-.42-.29-.92-.44-1.43-.43-.84-.02-1.64.34-2.18.98-.57.64-.88,1.48-.86,2.34-.04.81.25,1.6.79,2.2.47.52,1.13.81,1.83.81.72,0,1.39-.33,1.85-.89.32-.38.58-.79.78-1.24l.03-.05-.28-.17-.03.04Z"/>
      <path class="cls-1" d="M392.32,102.02c-.57-.57-1.35-.88-2.16-.86-.81-.02-1.6.31-2.15.91-.55.6-.85,1.39-.83,2.21-.03.86.29,1.7.88,2.33.55.6,1.33.94,2.14.93.83.02,1.62-.34,2.15-.98.55-.63.84-1.44.83-2.28.04-.84-.27-1.67-.86-2.28M389.13,101.97c.23-.21.53-.33.84-.33.61,0,1.16.38,1.38.95.32.64.49,1.35.49,2.07.03.59-.11,1.18-.38,1.71-.2.4-.61.64-1.06.63-.59,0-1.05-.33-1.39-.96-.34-.65-.52-1.37-.51-2.11,0-.93.21-1.6.62-1.98"/>
      <path class="cls-2" d="M394.71,27.08l.21,4.51h-.81c0-.92-.14-3.45-5.05-3.45h-4.56v8.01h4.23c.66.03,1.33-.06,1.95-.28.4-.13.76-.38,1.02-.72.21-.3.34-.66.37-1.03.03-.39.04-.78.03-1.17h.8v7.38h-.8c-.03-.49-.06-.93-.11-1.33-.06-.36-.21-.7-.45-.98-.29-.33-.67-.55-1.09-.65-.63-.18-1.29-.26-1.95-.24h-4v5.53c0,.94.03,3.49,2.4,3.49h1.81c.67,0,1.34-.04,2-.14.6-.08,1.17-.27,1.71-.55.54-.34,1.03-.77,1.43-1.26.51-.67.92-1.41,1.23-2.19h.8l-1.3,5.21h-16.67v-.76c2.8,0,2.8-2.84,2.8-3.78v-11.09c0-.92,0-3.75-2.79-3.75v-.77h16.79Z"/>
      <path class="cls-2" d="M360.7,45.89c.2.06.4.11.61.14.27.04.55.08.88.13s.65.07.98.08.69.03,1.03.03c.52,0,1.04-.06,1.56-.16.67-.12,1.32-.3,1.95-.55.72-.28,1.42-.63,2.08-1.05.7-.45,1.32-1,1.86-1.63.57-.72,1.03-1.52,1.36-2.38.36-1.02.54-2.11.52-3.19.02-1.33-.24-2.65-.75-3.87-.46-1.11-1.15-2.1-2.02-2.93-.89-.81-1.93-1.44-3.07-1.84-1.24-.43-2.54-.64-3.85-.63h-.78c-.28,0-.58.03-.88.06s-.58.03-.85.04-.48.04-.62.06v17.69ZM364.88,26.98c1.96-.04,3.91.24,5.77.84,1.48.45,2.85,1.18,4.05,2.15,1.02.85,1.83,1.93,2.36,3.14.52,1.15.78,2.4.77,3.67-.02.61-.07,1.21-.17,1.81-.14.71-.36,1.41-.65,2.07-.33.76-.75,1.48-1.26,2.14-.55.73-1.21,1.37-1.95,1.9-.84.61-1.75,1.12-2.7,1.51-.86.34-1.75.59-2.66.76-.89.17-1.79.27-2.7.3-.92.03-1.83.06-2.76.06h-9.28v-.77c3.25,0,3.19-2.78,3.19-3.81v-11.2c0-.93.08-3.79-3.19-3.79v-.77h11.18Z"/>
      <path class="cls-2" d="M124.5,27.75v-.77h7.71v.77c-3.14,0-3.14,2.86-3.16,3.81v7.3c0,2.06.72,9.01-8.4,9.01s-8.59-6.84-8.59-9.31v-7.02c0-.95,0-3.79-3.17-3.79v-.77h9.47v.77c-3.18,0-3.18,2.84-3.18,3.79v7.02c0,.8-.25,8.01,5.69,8.01,6.84,0,6.78-5.56,6.78-7.71v-7.29c0-.98,0-3.81-3.14-3.81"/>
      <path class="cls-2" d="M139.88,26.98l14.8,14.71v-10.12c0-.95,0-3.81-3.55-3.81v-.78h8.18v.77c-3.21,0-3.21,2.86-3.21,3.81v15.77h-.81l-15.8-16v11.42c0,.95,0,3.81,3.64,3.81v.77h-8.36v-.78c3.31,0,3.31-2.86,3.31-3.81v-11.16c0-.95,0-3.81-4.17-3.81v-.78h5.99Z"/>
      <path class="cls-2" d="M171.07,47.32h-10.09v-.78c3.18,0,3.13-2.86,3.13-3.81v-11.18c0-.95,0-3.81-3.12-3.81v-.76h10.09v.77c-3.12,0-3.12,2.85-3.12,3.82v11.18c0,.95-.06,3.81,3.13,3.81l-.02.76Z"/>
      <path class="cls-2" d="M181.62,26.98v.77c-2.72,0-1.35,2.86-.92,3.79l5.04,10.85,4.4-10.85c.35-.93,1.55-3.79-.87-3.79v-.77h6.08v.77c-2.11,0-3.29,2.86-3.67,3.79l-6.6,16.33h-.82l-7.53-16.33c-.43-.93-1.78-3.79-3.98-3.79v-.77h8.86Z"/>
      <path class="cls-2" d="M213.89,26.98l.22,4.56h-.82c0-.93-.15-3.48-5.1-3.48h-4.61v8.08h4.27c.67.03,1.35-.06,1.98-.28.41-.14.77-.39,1.03-.73.21-.31.34-.66.37-1.04.03-.39.04-.79.03-1.18h.81v7.45h-.81c-.03-.49-.06-.94-.11-1.34-.12-.82-.75-1.47-1.56-1.63-.64-.19-1.31-.27-1.98-.24h-4.03v5.59c0,.95.03,3.52,2.42,3.52h1.82c.68,0,1.35-.04,2.02-.14.6-.08,1.19-.27,1.73-.55.55-.34,1.04-.77,1.44-1.27.52-.68.94-1.42,1.25-2.22h.81l-1.3,5.26h-16.84v-.79c2.83,0,2.83-2.86,2.83-3.81v-11.2c0-.93,0-3.79-2.82-3.79v-.76h16.96Z"/>
      <path class="cls-2" d="M224.34,36.83c.29.04.57.06.86.07.33,0,.65,0,1-.04.38-.05.75-.12,1.12-.21.43-.11.84-.26,1.25-.44.42-.18.8-.44,1.13-.76.31-.28.58-.61.79-.98.2-.34.36-.71.45-1.09.1-.35.16-.71.16-1.08,0-.59-.11-1.17-.33-1.71-.21-.51-.52-.97-.92-1.36-.42-.39-.92-.69-1.46-.89-.61-.22-1.25-.33-1.89-.33-.42,0-.82,0-1.22.06s-.74.1-.96.13v8.62ZM234.21,47.32l-8.08-9.44h-.52c-.13,0-.26,0-.4,0-.13,0-.26,0-.4,0h-.48v4.86c0,.95,0,3.81,3.12,3.81v.77h-10.45v-.78c3.48,0,3.51-2.86,3.51-3.81v-11.2c.02-.92-.09-3.78-3.51-3.78v-.77h9.51c.47,0,.98.03,1.55.06.59.03,1.18.1,1.76.2.62.11,1.22.27,1.81.48.62.21,1.2.51,1.74.87.6.41,1.1.94,1.46,1.57.4.65.61,1.4.6,2.16.01.57-.09,1.14-.3,1.67-.18.47-.44.89-.78,1.26-.31.36-.67.66-1.07.91-.38.23-.77.44-1.18.62-.36.15-.74.28-1.12.39-.33.1-.61.17-.81.24l5.64,6.56c.31.35.63.69.98,1.01.29.29.61.55.95.77.32.2.66.37,1.01.52.38.14.78.24,1.18.33v.77h-5.72Z"/>
      <path class="cls-2" d="M254.12,33.17h-.83c-.15-.62-.36-1.23-.63-1.82-.34-.72-.78-1.4-1.3-2-.48-.56-1.08-1-1.75-1.3-.61-.26-1.26-.4-1.92-.41-.44,0-.87.07-1.28.22-.34.13-.65.33-.92.57-.24.23-.43.52-.55.83-.12.31-.18.64-.18.98,0,.51.12,1.01.38,1.46.29.47.66.89,1.09,1.25.53.45,1.11.85,1.71,1.19.67.39,1.43.82,2.25,1.26.69.37,1.34.78,2,1.21.64.41,1.22.91,1.73,1.47.5.52.91,1.12,1.21,1.77.32.68.48,1.43.46,2.18,0,.66-.13,1.31-.38,1.92-.27.69-.69,1.32-1.22,1.83-.6.62-1.33,1.11-2.14,1.43-.98.4-2.03.59-3.09.57-.52,0-1.04-.05-1.54-.17-.48-.11-.91-.24-1.3-.35s-.8-.24-1.13-.35c-.31-.1-.63-.16-.95-.17-.24,0-.48.04-.7.13-.16.05-.32.14-.45.25-.12.1-.23.2-.33.33-.07.11-.14.22-.21.33h-.76v-6.79h.76c.19.81.48,1.59.88,2.32.32.57.72,1.1,1.19,1.56.38.39.82.72,1.3.98.38.2.78.36,1.19.47.32.08.65.14.98.18.18.02.35.03.53.03.52,0,1.04-.07,1.54-.2.46-.12.9-.32,1.3-.58.38-.26.69-.6.92-1,.24-.45.37-.95.35-1.45,0-.45-.11-.9-.33-1.3-.27-.45-.59-.85-.98-1.21-.46-.46-.97-.86-1.51-1.2-.6-.39-1.28-.81-2.03-1.24s-1.45-.8-2.17-1.22c-.68-.4-1.32-.87-1.92-1.4-.55-.49-1.01-1.07-1.37-1.71-.37-.68-.55-1.44-.53-2.22,0-.67.14-1.33.39-1.95.25-.64.64-1.21,1.14-1.68.54-.51,1.18-.91,1.87-1.17.83-.3,1.72-.44,2.6-.42.52,0,1.04.04,1.56.12.45.11.85.21,1.2.33s.65.22.94.3c.25.1.52.16.78.16.28.01.55-.07.77-.24.2-.2.37-.43.5-.68h.85v6.61Z"/>
      <path class="cls-2" d="M277.5,45.89c.2.06.4.11.61.14.27.04.55.08.87.13s.65.07.98.08.69.03,1.04.03c.52,0,1.04-.06,1.55-.16.67-.12,1.32-.3,1.95-.55.73-.28,1.42-.63,2.08-1.05.69-.45,1.32-1,1.85-1.63.57-.72,1.03-1.52,1.36-2.38.36-1.03.54-2.11.52-3.19.02-1.33-.24-2.64-.75-3.87-.46-1.11-1.15-2.1-2.02-2.93-.89-.81-1.93-1.43-3.06-1.83-1.24-.43-2.54-.64-3.85-.63h-.78c-.28,0-.58.03-.88.06s-.58.03-.85.04-.48.04-.62.06v17.68ZM281.67,26.99c1.96-.04,3.91.24,5.77.84,1.48.45,2.85,1.18,4.05,2.15,1.02.85,1.83,1.93,2.36,3.14.51,1.15.78,2.39.78,3.65-.02.61-.07,1.21-.17,1.81-.14.71-.36,1.41-.65,2.07-.33.76-.75,1.48-1.26,2.14-.55.73-1.21,1.37-1.95,1.9-.84.61-1.75,1.11-2.7,1.51-.86.34-1.75.59-2.66.76-.89.17-1.79.27-2.7.3-.92.03-1.83.06-2.76.06h-9.29v-.77c3.25,0,3.18-2.78,3.18-3.81v-11.2c0-.93.08-3.79-3.18-3.79v-.77l11.19.02Z"/>
      <path class="cls-2" d="M300.91,39.77h6.73l-3.46-7.52-3.27,7.52ZM294.08,47.32v-.78c1.77,0,2.56-1.19,3.81-3.81l7.16-16.3h.44l7.49,16.3q2.14,3.81,4.12,3.81v.77h-9.11v-.77c.16,0,3,0,1.04-3.81l-.81-1.72h-7.84l-.75,1.74c-1.72,4.05,1.25,3.81,1.25,3.81v.77h-6.79Z"/>
      <path class="cls-2" d="M267.49,47.32h-10.09v-.78c3.18,0,3.13-2.86,3.13-3.81v-11.18c0-.95,0-3.81-3.12-3.81v-.76h10.09v.77c-3.12,0-3.12,2.86-3.12,3.81l-.02,11.18c.02.95-.06,3.81,3.13,3.81v.77Z"/>
      <path class="cls-2" d="M323.27,45.89c.2.06.4.11.61.14.27.04.55.08.88.13s.65.07.98.08.69.03,1.03.03c.52,0,1.04-.06,1.56-.16.67-.12,1.32-.3,1.95-.55.73-.28,1.42-.63,2.08-1.05.7-.45,1.32-1,1.86-1.63.57-.72,1.03-1.52,1.36-2.38.36-1.02.54-2.11.52-3.19.02-1.33-.24-2.64-.75-3.87-.46-1.11-1.15-2.1-2.02-2.93-.89-.81-1.93-1.44-3.07-1.84-1.24-.43-2.54-.64-3.85-.63h-.78c-.28,0-.58.03-.88.06s-.58.03-.85.04-.48.04-.62.06v17.69ZM327.44,26.98c1.96-.04,3.91.24,5.77.84,1.48.45,2.85,1.18,4.05,2.15,1.02.85,1.83,1.93,2.36,3.14.52,1.15.78,2.41.78,3.67-.02.61-.07,1.21-.17,1.81-.31,1.53-.96,2.97-1.91,4.21-.55.73-1.21,1.37-1.95,1.9-.84.61-1.75,1.12-2.7,1.51-.86.34-1.75.59-2.66.76-.89.17-1.79.27-2.7.3-.92.03-1.83.06-2.76.06h-9.29v-.78c3.25,0,3.18-2.78,3.18-3.81v-11.2c0-.93.08-3.79-3.18-3.79v-.77h11.19Z"/>
    </g>
  </g>
</svg>