<?xml version="1.0" encoding="UTF-8"?>
<svg id="Layer_2" data-name="Layer 2" xmlns="http://www.w3.org/2000/svg" viewBox="0 0 396 97.31">
  <defs>
    <style>
      .cls-1 {
        fill: #025556;
      }

      .cls-2 {
        fill: #27a637;
      }

      .cls-3 {
        fill: #017361;
      }
    </style>
  </defs>
  <g id="Layer_1-2" data-name="Layer 1">
    <g>
      <g>
        <g>
          <path class="cls-1" d="M117.28,12.94l14.41,41.06,14.19-41.06h10.88l-20.12,53.3h-9.98l-20.27-53.3h10.88Z"/>
          <path class="cls-1" d="M172.68,12.94h10.51l19.59,53.3h-10.66l-4.43-13.29h-19.57l-4.45,13.29h-10.66l19.67-53.3ZM185.27,45.67l-7.33-21.99-7.37,21.99h14.7Z"/>
          <path class="cls-1" d="M208.64,66.24V12.94h10.36v44.21h27.17v9.08h-37.53Z"/>
          <path class="cls-1" d="M252.47,66.24V12.94h23.65c2.4,0,4.64.5,6.72,1.5,2.08,1,3.88,2.35,5.41,4.05,1.53,1.7,2.7,3.6,3.53,5.7.83,2.1,1.24,4.25,1.24,6.46s-.39,4.4-1.16,6.46c-.78,2.05-1.89,3.87-3.34,5.44-1.45,1.58-3.15,2.79-5.1,3.64l12.16,20.04h-11.41l-10.96-17.87h-10.36v17.87h-10.36ZM262.83,39.29h12.99c1.3,0,2.45-.39,3.45-1.16,1-.78,1.8-1.81,2.4-3.12.6-1.3.9-2.75.9-4.35s-.35-3.13-1.05-4.43c-.7-1.3-1.58-2.33-2.63-3.08-1.05-.75-2.2-1.13-3.45-1.13h-12.61v17.26Z"/>
          <path class="cls-1" d="M339.4,57.15v9.08h-37.01V12.94h36.33v9.08h-25.97v12.84h22.37v8.41h-22.37v13.89h26.65Z"/>
          <path class="cls-1" d="M357.87,32.01v34.23h-10.36V12.94h8.33l27.47,35.13V13.01h10.28v53.22h-8.56l-27.17-34.23Z"/>
        </g>
        <g>
          <path class="cls-1" d="M79.77,26.26c1.06-.65,2.33-.9,1.6,1.91l-.51,1.86h0c-.08.31-.16.64-.24.98-.02.09-.05.19-.07.28-.07.25-.13.5-.2.76-.04.14-.08.29-.13.44-.06.22-.12.44-.19.67-.05.16-.1.32-.15.48-.07.23-.14.45-.21.68-.05.17-.11.35-.17.52-.08.23-.15.46-.23.7-.06.18-.13.37-.19.56-.08.24-.16.47-.25.71-.07.2-.15.4-.22.6-.09.24-.18.48-.27.73-.08.2-.16.41-.24.62-.1.25-.19.49-.3.75-.09.21-.18.43-.27.65-.11.25-.21.5-.32.76-.1.22-.2.45-.3.67-.11.26-.23.51-.35.78-.1.23-.21.46-.32.69-.12.26-.25.53-.38.8-.11.23-.23.47-.35.71-.13.27-.27.53-.41.81-.12.24-.26.48-.38.72-.14.27-.29.54-.44.81-.13.25-.28.49-.42.74-.15.27-.31.55-.47.82-.14.25-.3.5-.45.75-.17.28-.33.55-.5.83-.16.25-.32.51-.48.76-.18.28-.35.56-.53.83-.17.26-.34.51-.52.77-.19.28-.37.56-.57.84-.18.26-.37.52-.55.78-.2.28-.4.56-.61.84-.19.26-.39.52-.59.78-.21.28-.42.56-.64.84-.2.26-.42.52-.63.79-.22.28-.45.56-.68.84-.22.26-.44.53-.67.79-.24.28-.47.56-.72.84-.23.26-.47.53-.71.79-.25.28-.5.55-.76.83-.24.26-.5.52-.75.78-.27.28-.53.55-.8.83-.26.26-.52.52-.79.78-.28.27-.56.55-.85.82-.27.26-.55.51-.83.77-.29.27-.59.54-.89.81-.29.26-.58.51-.88.76-.31.27-.62.53-.94.8-.3.25-.61.5-.92.75-.32.26-.65.52-.98.78-.32.25-.64.5-.97.74-.34.26-.68.51-1.03.77-.33.24-.67.48-1.02.73-.36.25-.72.5-1.08.75-.35.24-.71.47-1.06.71-.38.25-.75.49-1.14.74-.37.23-.74.46-1.11.69-.39.24-.79.48-1.19.72-.38.23-.77.45-1.17.67-.23.13-.46.27-.69.4-.05.03-.1.05-.15.07-.44.24-.85.49-1.32.72-.68.34-1.49.32-2.17-.03-.45-.23-.86-.47-1.29-.71-.04-.02-.07-.03-.11-.05-.16-.09-.31-.18-.47-.27-.53-.3-1.05-.6-1.57-.9-.12-.07-.24-.14-.36-.21C14.7,61.42,4.06,42.77,4.06,32.06c0-.04,0-.08,0-.12.01-2.03.1-4.01.7-4.62,1.01-1.05,2.92.42,4.31,1.75.34.32.69.66,1.04,1.01C3.79,23.82,0,21.09,0,31.9c0,23.65,25.51,65.41,42.82,65.41s42.82-41.76,42.82-65.41c0-7.69-2.15-8.29-5.88-5.64Z"/>
          <path class="cls-3" d="M4.76,27.31c-.6.61-.69,2.6-.7,4.62,0,.04,0,.08,0,.12,0,10.71,10.64,29.36,33.22,42.72.12.07.24.14.36.21.52.3,1.04.6,1.57.9.16.09.31.18.47.27.03.02.07.03.11.05.43.24.84.48,1.29.71.68.35,1.49.37,2.17.03.46-.23.88-.48,1.32-.72.05-.03.1-.04.15-.07.24-.13.46-.27.69-.4.39-.22.78-.45,1.17-.67.4-.24.79-.48,1.19-.72.37-.23.75-.46,1.11-.69.38-.24.76-.49,1.14-.74.36-.24.71-.47,1.06-.71.37-.25.73-.5,1.08-.75.34-.24.68-.48,1.02-.73.35-.25.69-.51,1.03-.77.33-.25.65-.49.97-.74.33-.26.66-.52.98-.78.31-.25.62-.5.92-.75.32-.26.63-.53.94-.8.29-.25.59-.51.88-.76.3-.27.6-.54.89-.81.28-.26.56-.51.83-.77.29-.27.57-.55.85-.82.26-.26.53-.52.79-.78.27-.28.54-.55.8-.83.25-.26.5-.52.75-.78.26-.28.51-.55.76-.83.24-.26.48-.52.71-.79.24-.28.48-.56.72-.84.22-.26.45-.52.67-.79.23-.28.46-.56.68-.84.21-.26.42-.52.63-.79.22-.28.43-.56.64-.84.2-.26.4-.52.59-.78.21-.28.41-.56.61-.84.18-.26.37-.52.55-.78.19-.28.38-.56.57-.84.17-.26.35-.52.52-.77.18-.28.36-.56.53-.83.16-.25.32-.51.48-.76.17-.28.34-.55.5-.83.15-.25.3-.5.45-.75.16-.28.31-.55.47-.82.14-.25.28-.49.42-.74.15-.27.29-.54.44-.81.13-.24.26-.48.38-.72.14-.27.27-.54.41-.81.12-.24.24-.47.35-.71.13-.27.25-.53.38-.8.11-.23.22-.46.32-.69.12-.26.23-.52.35-.78.1-.22.2-.45.3-.67.11-.26.21-.51.32-.76.09-.22.18-.43.27-.65.1-.25.2-.5.3-.75.08-.21.17-.42.24-.62.09-.25.18-.48.27-.73.07-.2.15-.4.22-.6.09-.24.17-.48.25-.71.06-.19.13-.38.19-.56.08-.24.15-.47.23-.7.06-.17.12-.35.17-.52.07-.23.14-.46.21-.68.05-.16.1-.33.15-.48.07-.23.13-.45.19-.67.04-.15.09-.3.13-.44.07-.26.14-.51.2-.76.02-.09.05-.19.07-.28.09-.34.17-.66.24-.98h0s.51-1.86.51-1.86c.74-2.81-.53-2.55-1.6-1.91-.67.48-1.39,1.06-2.16,1.72-.27.23-.54.47-.81.72-.35.32-.71.65-1.08,1-1.45,1.36-3.05,2.9-4.76,4.53-.51.48-1.02.97-1.55,1.46-.48.44-.96.89-1.45,1.34-.42.39-.85.77-1.28,1.16-.57.51-1.16,1.02-1.75,1.52-.32.28-.65.55-.98.82-.4.33-.8.66-1.21.98-.25.2-.51.39-.76.59-.06.05-.12.09-.18.14-.21.16-.42.33-.63.49-.04.03-.08.06-.12.09-.11.08-.23.16-.34.25-.35.26-.71.52-1.07.77-.13.09-.26.19-.4.28-.49.34-.98.67-1.47.99-.02.01-.04.03-.07.05-.03.02-.05.03-.08.05-1.03.66-2.08,1.28-3.14,1.84-.01,0-.02.01-.03.02-.51.27-1.02.53-1.54.77-.27.13-.55.25-.82.37-.36.16-.73.31-1.09.46-.31.12-.62.25-.93.36-1.6.57-3.22.99-4.87,1.23,0,0-.02,0-.03,0-.47.07-.93.12-1.4.15-.06,0-.12.01-.17.02-.03,0-.06,0-.1,0-.41.03-.83.04-1.24.04-.39,0-.78-.01-1.17-.04-.07,0-.14-.01-.2-.02-.33-.02-.65-.05-.98-.09-.05,0-.1-.01-.15-.02-.34-.04-.69-.09-1.03-.15-.04,0-.07-.01-.11-.02-.35-.06-.69-.13-1.04-.21-.02,0-.03,0-.05,0-.1-.02-.21-.04-.32-.07-.1-.02-.19-.05-.29-.08-.13-.03-.26-.07-.38-.1-.25-.07-.49-.14-.74-.21-.11-.03-.21-.07-.31-.1-.21-.07-.42-.13-.63-.2-.03,0-.06-.02-.09-.03-.11-.04-.22-.08-.33-.12-.2-.07-.39-.15-.59-.23-.09-.03-.17-.07-.26-.1-.4-.16-.8-.33-1.19-.51-.14-.06-.28-.14-.42-.2-.1-.05-.2-.1-.31-.15-.06-.03-.13-.06-.19-.09-.48-.24-.96-.48-1.43-.74-.14-.07-.27-.16-.4-.23-.25-.14-.49-.28-.74-.42-.11-.06-.21-.13-.31-.2-.37-.23-.75-.46-1.12-.7-.06-.04-.12-.07-.18-.11-.14-.09-.28-.19-.42-.29-.14-.1-.29-.19-.43-.29-.1-.07-.2-.13-.3-.2-.08-.06-.16-.12-.24-.18-.32-.22-.63-.45-.94-.68-.09-.07-.19-.14-.28-.21-.06-.05-.13-.09-.19-.14-.07-.05-.14-.11-.22-.17-.09-.07-.17-.14-.26-.2-.36-.28-.73-.56-1.08-.85-.14-.11-.28-.23-.42-.34-.31-.25-.61-.5-.92-.76-.08-.07-.16-.13-.24-.2-.04-.03-.07-.06-.1-.09-.02-.01-.03-.03-.05-.04-.62-.53-1.23-1.07-1.83-1.61-.1-.09-.2-.18-.3-.28-.53-.48-1.06-.97-1.57-1.46-.06-.06-.12-.12-.18-.17-2.65-2.51-5.06-5-7.18-7.09-.35-.35-.7-.69-1.04-1.01-1.39-1.33-3.3-2.8-4.31-1.75Z"/>
          <path class="cls-2" d="M65.37,21.23c0,30.19-18.37,55.8-23.18,55.8-4.35,0-21.05-24.47-21.05-54.66,0-21.42,9.82,13.93,21.45,13.93s22.77-70.44,22.77-15.07Z"/>
        </g>
      </g>
      <g>
        <path class="cls-2" d="M106.83,86.88c0-.83.15-1.64.44-2.44.29-.8.72-1.53,1.29-2.18s1.26-1.18,2.07-1.57c.81-.39,1.73-.58,2.77-.58,1.24,0,2.3.28,3.19.83s1.55,1.27,1.98,2.14l-1.69,1.13c-.24-.55-.56-.98-.95-1.3s-.81-.54-1.27-.67c-.46-.13-.91-.19-1.34-.19-.7,0-1.32.14-1.86.43-.54.29-.99.67-1.35,1.14s-.64,1-.81,1.59c-.18.59-.27,1.18-.27,1.76,0,.66.11,1.3.32,1.9s.51,1.13.9,1.6c.39.47.85.83,1.38,1.1.53.27,1.11.4,1.75.4.45,0,.91-.08,1.38-.23.47-.15.91-.4,1.31-.73.4-.33.72-.75.95-1.26l1.78,1c-.27.68-.7,1.25-1.29,1.72-.59.47-1.26.83-2,1.07-.74.24-1.47.36-2.2.36-.93,0-1.79-.2-2.59-.6-.79-.4-1.48-.94-2.06-1.61s-1.03-1.42-1.35-2.26c-.32-.84-.48-1.68-.48-2.54Z"/>
        <path class="cls-2" d="M126.26,93.89c-.96,0-1.83-.19-2.62-.57-.79-.38-1.48-.9-2.06-1.56-.58-.66-1.03-1.4-1.34-2.22-.31-.82-.47-1.67-.47-2.54s.17-1.77.5-2.6c.33-.82.79-1.56,1.39-2.2.59-.64,1.28-1.16,2.07-1.53.79-.38,1.65-.56,2.6-.56s1.87.2,2.65.59c.79.4,1.47.93,2.04,1.59.57.66,1.02,1.41,1.32,2.22.31.82.46,1.66.46,2.53s-.16,1.75-.48,2.58c-.32.82-.78,1.56-1.37,2.2-.59.64-1.28,1.15-2.07,1.52-.79.37-1.66.56-2.61.56ZM121.96,87c0,.65.1,1.27.3,1.87.2.59.49,1.12.86,1.59.38.47.83.83,1.36,1.1.53.27,1.13.4,1.81.4s1.3-.14,1.84-.42c.54-.28.99-.66,1.36-1.14.37-.48.65-1.01.84-1.6.19-.59.29-1.19.29-1.8,0-.65-.1-1.27-.31-1.86-.2-.59-.5-1.11-.88-1.58-.38-.47-.84-.83-1.37-1.1-.53-.27-1.12-.4-1.77-.4-.7,0-1.32.14-1.85.42-.53.28-.98.66-1.35,1.13-.37.47-.65,1-.84,1.59-.19.59-.29,1.19-.29,1.8Z"/>
        <path class="cls-2" d="M137.19,84.18v9.62h-2.16v-13.6h1.76l7.7,9.83v-9.81h2.15v13.58h-1.86l-7.58-9.62Z"/>
        <path class="cls-2" d="M159.7,82.09h-4.52v11.7h-2.16v-11.7h-4.54v-1.9h11.22v1.9Z"/>
        <path class="cls-2" d="M161.52,93.79v-13.6h5.92c.61,0,1.17.13,1.69.38.51.26.95.59,1.33,1.02.38.42.67.9.88,1.43s.32,1.06.32,1.6c0,.61-.11,1.19-.33,1.73-.22.54-.53,1.01-.93,1.41-.4.4-.87.68-1.41.86l3.2,5.17h-2.41l-2.95-4.73h-3.14v4.73h-2.16ZM163.68,87.17h3.74c.4,0,.75-.12,1.05-.35.31-.24.55-.55.73-.93s.27-.8.27-1.26-.11-.9-.32-1.28-.48-.69-.79-.91c-.32-.22-.67-.34-1.05-.34h-3.62v5.08Z"/>
        <path class="cls-2" d="M179.77,93.89c-.96,0-1.83-.19-2.62-.57-.79-.38-1.48-.9-2.06-1.56-.58-.66-1.03-1.4-1.34-2.22-.31-.82-.47-1.67-.47-2.54s.17-1.77.5-2.6c.33-.82.79-1.56,1.39-2.2.59-.64,1.28-1.16,2.07-1.53.79-.38,1.65-.56,2.6-.56s1.87.2,2.65.59c.79.4,1.47.93,2.04,1.59.57.66,1.02,1.41,1.32,2.22.31.82.46,1.66.46,2.53s-.16,1.75-.48,2.58c-.32.82-.78,1.56-1.37,2.2-.59.64-1.28,1.15-2.07,1.52-.79.37-1.66.56-2.61.56ZM175.48,87c0,.65.1,1.27.3,1.87.2.59.49,1.12.86,1.59.38.47.83.83,1.36,1.1.53.27,1.13.4,1.81.4s1.3-.14,1.84-.42c.54-.28.99-.66,1.36-1.14.37-.48.65-1.01.84-1.6.19-.59.29-1.19.29-1.8,0-.65-.1-1.27-.31-1.86-.2-.59-.5-1.11-.88-1.58-.38-.47-.84-.83-1.37-1.1-.53-.27-1.12-.4-1.77-.4-.7,0-1.32.14-1.85.42-.53.28-.98.66-1.35,1.13-.37.47-.65,1-.84,1.59-.19.59-.29,1.19-.29,1.8Z"/>
        <path class="cls-2" d="M188.54,93.79v-13.6h2.16v11.7h7.28v1.9h-9.44Z"/>
        <path class="cls-2" d="M203.66,80.2h2.03l5.29,13.6h-2.26l-1.33-3.7h-5.44l-1.34,3.7h-2.26l5.31-13.6ZM206.81,88.51l-2.14-5.96-2.15,5.96h4.29Z"/>
        <path class="cls-2" d="M224.09,93.79v-9.69l-4,7.36h-1.26l-4-7.36v9.69h-2.16v-13.6h2.3l4.5,8.29,4.5-8.29h2.3v13.6h-2.16Z"/>
        <path class="cls-2" d="M234.95,93.89c-.96,0-1.83-.19-2.62-.57-.79-.38-1.48-.9-2.06-1.56-.58-.66-1.03-1.4-1.34-2.22-.31-.82-.47-1.67-.47-2.54s.17-1.77.5-2.6c.33-.82.8-1.56,1.39-2.2.59-.64,1.28-1.16,2.07-1.53.79-.38,1.65-.56,2.6-.56s1.87.2,2.65.59,1.47.93,2.04,1.59c.57.66,1.02,1.41,1.32,2.22.31.82.46,1.66.46,2.53s-.16,1.75-.48,2.58c-.32.82-.78,1.56-1.37,2.2s-1.28,1.15-2.07,1.52-1.66.56-2.61.56ZM230.66,87c0,.65.1,1.27.3,1.87.2.59.49,1.12.86,1.59.38.47.83.83,1.36,1.1.53.27,1.13.4,1.81.4s1.3-.14,1.84-.42c.54-.28.99-.66,1.36-1.14.37-.48.65-1.01.84-1.6.19-.59.29-1.19.29-1.8,0-.65-.1-1.27-.31-1.86s-.5-1.11-.88-1.58c-.38-.47-.84-.83-1.37-1.1-.53-.27-1.12-.4-1.77-.4-.7,0-1.32.14-1.85.42-.53.28-.98.66-1.35,1.13s-.65,1-.84,1.59c-.19.59-.29,1.19-.29,1.8Z"/>
        <path class="cls-2" d="M251.75,83.39c-.12-.14-.3-.29-.55-.45-.25-.16-.54-.31-.86-.44-.33-.13-.68-.25-1.07-.34-.39-.1-.79-.14-1.2-.14-.89,0-1.56.17-1.99.5-.43.33-.65.79-.65,1.37,0,.43.12.77.36,1.03.24.25.62.46,1.12.62.5.16,1.13.33,1.87.51.93.22,1.73.48,2.4.78.67.31,1.19.71,1.55,1.2.36.5.55,1.16.55,1.98,0,.67-.13,1.26-.39,1.75s-.62.9-1.08,1.21-.99.54-1.59.7c-.6.15-1.25.23-1.93.23s-1.35-.07-2.02-.22c-.67-.15-1.31-.36-1.92-.63-.61-.27-1.17-.61-1.7-1.01l1-1.84c.15.17.39.35.71.55s.69.39,1.1.57c.41.18.87.33,1.36.45.49.12.99.18,1.5.18.86,0,1.51-.15,1.96-.45.45-.3.68-.73.68-1.3,0-.45-.15-.8-.45-1.08-.3-.27-.73-.5-1.28-.7-.56-.19-1.22-.38-2-.57-.89-.23-1.64-.49-2.24-.78-.6-.29-1.05-.66-1.34-1.11-.29-.45-.44-1.02-.44-1.74,0-.89.21-1.64.64-2.26.43-.62,1.02-1.08,1.77-1.39.75-.31,1.59-.47,2.51-.47.61,0,1.2.07,1.75.2s1.07.32,1.55.55c.48.23.9.49,1.27.79l-.96,1.76Z"/>
        <path class="cls-2" d="M260.14,93.79v-13.6h4.83c1.47,0,2.69.3,3.67.91.98.61,1.71,1.42,2.21,2.45.5,1.03.75,2.17.75,3.42,0,1.38-.27,2.58-.81,3.6-.54,1.02-1.31,1.81-2.31,2.38s-2.16.84-3.5.84h-4.83ZM269.41,86.98c0-.96-.18-1.8-.53-2.53s-.86-1.3-1.51-1.72-1.46-.63-2.4-.63h-2.66v9.81h2.66c.96,0,1.76-.22,2.42-.65.66-.43,1.16-1.02,1.5-1.76.35-.74.52-1.58.52-2.51Z"/>
        <path class="cls-2" d="M283.18,91.9v1.9h-9.33v-13.6h9.16v1.9h-6.99v3.89h6.07v1.76h-6.07v4.16h7.16Z"/>
        <path class="cls-2" d="M293.45,83.39c-.12-.14-.3-.29-.55-.45-.25-.16-.54-.31-.86-.44-.33-.13-.68-.25-1.07-.34-.39-.1-.79-.14-1.2-.14-.89,0-1.56.17-1.99.5-.43.33-.65.79-.65,1.37,0,.43.12.77.36,1.03.24.25.62.46,1.12.62.5.16,1.13.33,1.87.51.93.22,1.73.48,2.4.78.67.31,1.19.71,1.55,1.2.36.5.55,1.16.55,1.98,0,.67-.13,1.26-.39,1.75s-.62.9-1.08,1.21-.99.54-1.59.7c-.6.15-1.25.23-1.93.23s-1.35-.07-2.02-.22c-.67-.15-1.31-.36-1.92-.63-.61-.27-1.17-.61-1.7-1.01l1-1.84c.15.17.39.35.71.55s.69.39,1.1.57c.41.18.87.33,1.36.45.49.12.99.18,1.5.18.86,0,1.51-.15,1.96-.45.45-.3.68-.73.68-1.3,0-.45-.15-.8-.45-1.08-.3-.27-.73-.5-1.28-.7-.56-.19-1.22-.38-2-.57-.89-.23-1.64-.49-2.24-.78-.6-.29-1.05-.66-1.34-1.11-.29-.45-.44-1.02-.44-1.74,0-.89.21-1.64.64-2.26.43-.62,1.02-1.08,1.77-1.39.75-.31,1.59-.47,2.51-.47.61,0,1.2.07,1.75.2s1.07.32,1.55.55c.48.23.9.49,1.27.79l-.96,1.76Z"/>
        <path class="cls-2" d="M297.11,93.79v-13.6h4.83c1.47,0,2.69.3,3.67.91.98.61,1.71,1.42,2.21,2.45.5,1.03.75,2.17.75,3.42,0,1.38-.27,2.58-.81,3.6-.54,1.02-1.31,1.81-2.31,2.38s-2.16.84-3.5.84h-4.83ZM306.38,86.98c0-.96-.18-1.8-.53-2.53s-.86-1.3-1.51-1.72-1.46-.63-2.4-.63h-2.66v9.81h2.66c.96,0,1.76-.22,2.42-.65.66-.43,1.16-1.02,1.5-1.76.35-.74.52-1.58.52-2.51Z"/>
        <path class="cls-2" d="M320.15,91.9v1.9h-9.33v-13.6h9.16v1.9h-6.99v3.89h6.07v1.76h-6.07v4.16h7.16Z"/>
        <path class="cls-2" d="M327.1,93.79v-13.6h2.16v11.7h7.28v1.9h-9.44Z"/>
        <path class="cls-2" d="M342.22,80.2h2.03l5.29,13.6h-2.26l-1.33-3.7h-5.44l-1.34,3.7h-2.26l5.31-13.6ZM345.37,88.51l-2.14-5.96-2.15,5.96h4.29Z"/>
        <path class="cls-2" d="M355.36,93.79v-13.6h5.92c.61,0,1.17.13,1.69.38.51.26.95.59,1.33,1.02.38.42.67.9.88,1.43.21.53.32,1.06.32,1.6,0,.61-.11,1.19-.33,1.73-.22.54-.53,1.01-.93,1.41-.4.4-.87.68-1.41.86l3.2,5.17h-2.41l-2.95-4.73h-3.14v4.73h-2.16ZM357.52,87.17h3.74c.4,0,.75-.12,1.05-.35.31-.24.55-.55.73-.93.18-.38.27-.8.27-1.26s-.11-.9-.32-1.28c-.21-.38-.48-.69-.8-.91s-.67-.34-1.05-.34h-3.62v5.08Z"/>
        <path class="cls-2" d="M371.94,80.2h2.03l5.29,13.6h-2.26l-1.33-3.7h-5.44l-1.34,3.7h-2.26l5.31-13.6ZM375.1,88.51l-2.14-5.96-2.15,5.96h4.29Z"/>
        <path class="cls-2" d="M380.94,93.79v-13.6h2.16v13.6h-2.16ZM382.73,78.8l-1.36-.42,1.09-2.11h2.01l-1.74,2.53Z"/>
        <path class="cls-2" d="M385.22,92.15l8.2-10.06h-8.01v-1.9h10.57v1.65l-8.03,10.06h8.04v1.9h-10.78v-1.65Z"/>
      </g>
    </g>
  </g>
</svg>