<svg xmlns="http://www.w3.org/2000/svg" viewBox="0 0 373.13 373.13"><defs><style>.cls-1{fill:#005b72;}.cls-2{opacity:0.6;}.cls-3{fill:#3cc;}.cls-4{fill:#c0ffff;}.cls-5{fill:aqua;}</style></defs><g id="Capa_2" data-name="Capa 2"><g id="Capa_1-2" data-name="Capa 1"><path class="cls-1" d="M186.57,0C83.53,0,0,83.53,0,186.57S83.53,373.13,186.57,373.13,373.13,289.6,373.13,186.57,289.6,0,186.57,0Zm0,310.65A124.09,124.09,0,1,1,310.65,186.57,124.09,124.09,0,0,1,186.57,310.65Z"/><g class="cls-2"><path class="cls-3" d="M120.32,225.72a.18.18,0,0,1,0-.13v-7.81a.17.17,0,0,1,0-.13.19.19,0,0,1,.13-.05h.77a.19.19,0,0,1,.13.05.17.17,0,0,1,.05.13v7s0,0,0,0h4a.17.17,0,0,1,.12.05.19.19,0,0,1,0,.13v.62a.19.19,0,0,1,0,.13.16.16,0,0,1-.12,0h-5A.18.18,0,0,1,120.32,225.72Z"/><path class="cls-3" d="M127,225.72a.19.19,0,0,1,0-.13v-7.81a.17.17,0,0,1,.18-.18h.77a.17.17,0,0,1,.12.05.14.14,0,0,1,0,.13v7.81a.15.15,0,0,1,0,.13.16.16,0,0,1-.12,0h-.77A.17.17,0,0,1,127,225.72Z"/><path class="cls-3" d="M130,225.72a.19.19,0,0,1,0-.13v-7.81a.17.17,0,0,1,.18-.18h.78a.24.24,0,0,1,.21.12l2,3.12s0,0,.07,0l2-3.12a.24.24,0,0,1,.21-.12h.78a.19.19,0,0,1,.13.05.17.17,0,0,1,.05.13v7.81a.19.19,0,0,1-.05.13.18.18,0,0,1-.13,0h-.77a.15.15,0,0,1-.17-.17v-5.93a0,0,0,0,0,0,0,.05.05,0,0,0,0,0l-1.59,2.59a.24.24,0,0,1-.21.12h-.37a.21.21,0,0,1-.21-.12l-1.58-2.59a.05.05,0,0,0,0,0,0,0,0,0,0,0,0v5.93a.15.15,0,0,1-.17.17h-.77A.17.17,0,0,1,130,225.72Z"/><path class="cls-3" d="M142.53,217.89a2.1,2.1,0,0,1,.84.83,2.61,2.61,0,0,1,.29,1.24,2.42,2.42,0,0,1-.3,1.22,2.13,2.13,0,0,1-.86.82,2.73,2.73,0,0,1-1.27.29h-2a.05.05,0,0,0-.06.06v3.24a.19.19,0,0,1,0,.13.17.17,0,0,1-.13,0h-.77a.16.16,0,0,1-.12,0,.15.15,0,0,1-.05-.13v-7.83a.13.13,0,0,1,.05-.12.17.17,0,0,1,.12,0h3.09A2.55,2.55,0,0,1,142.53,217.89Zm-.38,3.1a1.34,1.34,0,0,0,.39-1,1.34,1.34,0,0,0-1.42-1.42h-1.93a.05.05,0,0,0-.06.06v2.7a.05.05,0,0,0,.06.06h1.93A1.39,1.39,0,0,0,142.15,221Z"/><path class="cls-3" d="M145,225.72a.19.19,0,0,1,0-.13v-7.81a.17.17,0,0,1,.18-.18h.77a.21.21,0,0,1,.13.05.17.17,0,0,1,0,.13v7.81a.18.18,0,0,1,0,.13.2.2,0,0,1-.13,0h-.77A.17.17,0,0,1,145,225.72Z"/><path class="cls-3" d="M153.4,218.52a.17.17,0,0,1-.13,0H149.2a.05.05,0,0,0-.06.06v2.48a.05.05,0,0,0,.06.06H152a.17.17,0,0,1,.13.05.16.16,0,0,1,0,.12V222a.17.17,0,0,1,0,.13.21.21,0,0,1-.13,0H149.2s-.06,0-.06.05v2.55s0,0,.06,0h4.07a.17.17,0,0,1,.13.05.19.19,0,0,1,0,.13v.62a.19.19,0,0,1,0,.13.17.17,0,0,1-.13,0H148.2a.17.17,0,0,1-.13,0,.19.19,0,0,1,0-.13v-7.81a.17.17,0,0,1,.18-.18h5.07a.17.17,0,0,1,.18.18v.61A.17.17,0,0,1,153.4,218.52Z"/><path class="cls-3" d="M154.56,225.72a.18.18,0,0,1,0-.13v-.72a.31.31,0,0,1,.07-.21l4-6a.06.06,0,0,0,0,0l-.05,0h-3.91a.21.21,0,0,1-.13,0,.17.17,0,0,1,0-.13v-.61a.17.17,0,0,1,0-.13.21.21,0,0,1,.13-.05h5.06a.17.17,0,0,1,.18.18v.72a.44.44,0,0,1-.07.21l-4.07,6s0,0,0,.05,0,0,0,0h3.93a.17.17,0,0,1,.13.05.19.19,0,0,1,.05.13v.62a.19.19,0,0,1-.05.13.17.17,0,0,1-.13,0h-5.06A.2.2,0,0,1,154.56,225.72Z"/><path class="cls-3" d="M166.22,225.62l-.4-1.3s0,0-.06,0H162.5s0,0-.05,0l-.41,1.3a.19.19,0,0,1-.2.14H161c-.13,0-.18-.06-.14-.2l2.52-7.82a.2.2,0,0,1,.2-.14h1.07a.2.2,0,0,1,.2.14l2.54,7.82a.15.15,0,0,1,0,.07c0,.09,0,.13-.15.13h-.84A.19.19,0,0,1,166.22,225.62Zm-3.42-2.24h2.67s.06,0,0-.07L164.16,219s0-.05,0-.05,0,0,0,.05l-1.34,4.34C162.74,223.36,162.76,223.38,162.8,223.38Z"/><path class="cls-3" d="M176.47,218.52a.17.17,0,0,1-.13,0h-4.07s-.05,0-.05.06v2.48s0,.06.05.06h2.78a.15.15,0,0,1,.13.05.17.17,0,0,1,0,.12V222a.17.17,0,0,1,0,.13.19.19,0,0,1-.13,0h-2.78a0,0,0,0,0-.05.05v2.55s0,0,.05,0h4.07a.17.17,0,0,1,.13.05.19.19,0,0,1,.05.13v.62a.19.19,0,0,1-.05.13.17.17,0,0,1-.13,0h-5.07a.2.2,0,0,1-.13,0,.18.18,0,0,1,0-.13v-7.81a.17.17,0,0,1,0-.13.21.21,0,0,1,.13-.05h5.07a.17.17,0,0,1,.18.18v.61A.17.17,0,0,1,176.47,218.52Z"/><path class="cls-3" d="M179.06,225.58a2.32,2.32,0,0,1-1-.8,2.09,2.09,0,0,1-.35-1.2v-.28a.2.2,0,0,1,0-.13.18.18,0,0,1,.13,0h.75a.15.15,0,0,1,.17.17v.22a1.15,1.15,0,0,0,.52,1,2.18,2.18,0,0,0,1.36.39,1.82,1.82,0,0,0,1.21-.34,1.11,1.11,0,0,0,.41-.89.92.92,0,0,0-.21-.61,2.09,2.09,0,0,0-.61-.48q-.41-.21-1.17-.51a11.78,11.78,0,0,1-1.35-.6,2.53,2.53,0,0,1-.82-.7,1.81,1.81,0,0,1-.33-1.11,1.89,1.89,0,0,1,.72-1.57,3,3,0,0,1,1.94-.57,3.78,3.78,0,0,1,1.52.29,2.27,2.27,0,0,1,1,.82,2.08,2.08,0,0,1,.36,1.21V220a.17.17,0,0,1-.18.18h-.75a.22.22,0,0,1-.13,0,.16.16,0,0,1-.05-.11v-.14a1.26,1.26,0,0,0-.48-1,2,2,0,0,0-1.34-.4,1.84,1.84,0,0,0-1.12.29,1,1,0,0,0-.39.86.92.92,0,0,0,.2.63,1.68,1.68,0,0,0,.59.44,11.74,11.74,0,0,0,1.19.49,14.42,14.42,0,0,1,1.34.6,2.62,2.62,0,0,1,.85.73,1.75,1.75,0,0,1,.34,1.11,2,2,0,0,1-.34,1.16,2.17,2.17,0,0,1-1,.79,3.82,3.82,0,0,1-1.5.28A4,4,0,0,1,179.06,225.58Z"/><path class="cls-3" d="M189.37,217.89a2.1,2.1,0,0,1,.84.83,2.5,2.5,0,0,1,.3,1.24,2.42,2.42,0,0,1-.3,1.22,2.19,2.19,0,0,1-.86.82,2.75,2.75,0,0,1-1.28.29h-2a.05.05,0,0,0-.06.06v3.24a.15.15,0,0,1-.17.17H185a.15.15,0,0,1-.17-.17v-7.83a.16.16,0,0,1,0-.12.19.19,0,0,1,.13,0h3.09A2.54,2.54,0,0,1,189.37,217.89ZM189,221a1.34,1.34,0,0,0,.39-1,1.34,1.34,0,0,0-1.42-1.42H186a.05.05,0,0,0-.06.06v2.7a.05.05,0,0,0,.06.06H188A1.39,1.39,0,0,0,189,221Z"/><path class="cls-3" d="M197.21,218.52a.17.17,0,0,1-.12,0H193a.05.05,0,0,0-.06.06v2.48a.05.05,0,0,0,.06.06h2.77a.14.14,0,0,1,.13.05.17.17,0,0,1,.05.12V222a.17.17,0,0,1-.18.18H193s-.06,0-.06.05v2.55s0,0,.06,0h4.07a.17.17,0,0,1,.12.05.19.19,0,0,1,0,.13v.62a.19.19,0,0,1,0,.13.16.16,0,0,1-.12,0H192a.16.16,0,0,1-.12,0,.19.19,0,0,1,0-.13v-7.81a.17.17,0,0,1,0-.13.17.17,0,0,1,.12-.05h5.08a.17.17,0,0,1,.12.05.17.17,0,0,1,0,.13v.61A.17.17,0,0,1,197.21,218.52Z"/><path class="cls-3" d="M200,225.54a2.5,2.5,0,0,1-1-.95,2.82,2.82,0,0,1-.35-1.4v-3a2.77,2.77,0,0,1,.35-1.4,2.46,2.46,0,0,1,1-.93,3.53,3.53,0,0,1,3,0,2.36,2.36,0,0,1,1,.9,2.52,2.52,0,0,1,.36,1.35c0,.08-.06.13-.18.14l-.77.05h0l-.1,0s0,0,0-.05v-.07a1.6,1.6,0,0,0-.47-1.2,1.71,1.71,0,0,0-1.25-.45,1.74,1.74,0,0,0-1.25.45,1.6,1.6,0,0,0-.47,1.2v3.1a1.6,1.6,0,0,0,.47,1.2,1.71,1.71,0,0,0,1.25.46,1.68,1.68,0,0,0,1.25-.46,1.6,1.6,0,0,0,.47-1.2.1.1,0,0,1,0-.1.16.16,0,0,1,.12,0l.77.05q.18,0,.18.06v.06a2.58,2.58,0,0,1-.36,1.36,2.45,2.45,0,0,1-1,.91,3.48,3.48,0,0,1-3,0Z"/><path class="cls-3" d="M205.93,225.72a.18.18,0,0,1,0-.13v-7.81a.17.17,0,0,1,0-.13.21.21,0,0,1,.13-.05h.77a.17.17,0,0,1,.18.18v7.81a.19.19,0,0,1,0,.13.17.17,0,0,1-.13,0h-.77A.2.2,0,0,1,205.93,225.72Z"/><path class="cls-3" d="M213.72,225.62l-.4-1.3s0,0-.06,0H210s0,0-.05,0l-.41,1.3a.19.19,0,0,1-.2.14h-.83c-.13,0-.18-.06-.14-.2l2.52-7.82a.2.2,0,0,1,.2-.14h1.07a.2.2,0,0,1,.2.14l2.54,7.82a.15.15,0,0,1,0,.07c0,.09,0,.13-.15.13h-.84A.19.19,0,0,1,213.72,225.62Zm-3.42-2.24H213s.06,0,0-.07L211.66,219s0-.05,0-.05,0,0,0,.05l-1.34,4.34C210.24,223.36,210.26,223.38,210.3,223.38Z"/><path class="cls-3" d="M216.31,225.72a.18.18,0,0,1,0-.13v-7.81a.17.17,0,0,1,0-.13.19.19,0,0,1,.13-.05h.77a.19.19,0,0,1,.13.05.17.17,0,0,1,0,.13v7s0,0,.06,0h4a.17.17,0,0,1,.12.05.19.19,0,0,1,0,.13v.62a.19.19,0,0,1,0,.13.16.16,0,0,1-.12,0h-5A.18.18,0,0,1,216.31,225.72Z"/><path class="cls-3" d="M223,225.72a.19.19,0,0,1-.05-.13v-7.81a.17.17,0,0,1,.18-.18h.76a.17.17,0,0,1,.18.18v7.81a.19.19,0,0,1-.05.13.17.17,0,0,1-.13,0h-.76A.17.17,0,0,1,223,225.72Z"/><path class="cls-3" d="M225.51,225.72a.19.19,0,0,1,0-.13v-.72a.38.38,0,0,1,.07-.21l4.05-6s0,0,0,0l0,0h-3.91a.17.17,0,0,1-.18-.18v-.61a.17.17,0,0,1,.18-.18h5.06a.19.19,0,0,1,.13.05.17.17,0,0,1,0,.13v.72a.35.35,0,0,1-.07.21l-4.06,6a.06.06,0,0,0,0,.05s0,0,.05,0h3.93a.19.19,0,0,1,.13.05.18.18,0,0,1,0,.13v.62a.15.15,0,0,1-.17.17h-5.06A.17.17,0,0,1,225.51,225.72Z"/><path class="cls-3" d="M237.17,225.62l-.41-1.3a.06.06,0,0,0-.06,0h-3.25s0,0-.06,0l-.41,1.3a.18.18,0,0,1-.19.14H232c-.13,0-.18-.06-.14-.2l2.52-7.82a.18.18,0,0,1,.19-.14h1.08a.2.2,0,0,1,.2.14l2.54,7.82a.15.15,0,0,1,0,.07c0,.09-.05.13-.15.13h-.84A.19.19,0,0,1,237.17,225.62Zm-3.43-2.24h2.67c.05,0,.06,0,.05-.07L235.11,219s0-.05,0-.05,0,0,0,.05l-1.34,4.34C233.69,223.36,233.7,223.38,233.74,223.38Z"/><path class="cls-3" d="M239.76,225.72a.19.19,0,0,1,0-.13v-7.81a.17.17,0,0,1,.18-.18h2.76a2.82,2.82,0,0,1,1.94.64,2.14,2.14,0,0,1,.72,1.69v3.5a2.16,2.16,0,0,1-.72,1.7,2.87,2.87,0,0,1-1.94.63h-2.76A.17.17,0,0,1,239.76,225.72Zm1.13-.93h1.81a1.42,1.42,0,0,0,1.08-.41,1.61,1.61,0,0,0,.41-1.11V220.1a1.58,1.58,0,0,0-.4-1.12,1.47,1.47,0,0,0-1.09-.41h-1.81a.05.05,0,0,0-.06.06v6.11S240.85,224.79,240.89,224.79Z"/><path class="cls-3" d="M251.38,225.62l-.41-1.3s0,0-.05,0h-3.26s0,0-.06,0l-.4,1.3a.19.19,0,0,1-.2.14h-.83c-.13,0-.18-.06-.14-.2l2.52-7.82a.2.2,0,0,1,.2-.14h1.07a.2.2,0,0,1,.2.14l2.54,7.82a.15.15,0,0,1,0,.07c0,.09,0,.13-.15.13h-.84A.19.19,0,0,1,251.38,225.62ZM248,223.38h2.68s.06,0,0-.07L249.32,219s0-.05,0-.05,0,0,0,.05l-1.34,4.34C247.9,223.36,247.92,223.38,248,223.38Z"/></g><path class="cls-4" d="M96.09,220.6h0a2.45,2.45,0,0,0,3.21.21l25.35-15.91a11.25,11.25,0,0,0,0-17.86l-51.3-39.31a2.26,2.26,0,0,0-3,.2h0a2.26,2.26,0,0,0,0,3.19L107,187.77a11.24,11.24,0,0,1,0,15.91L96.09,217.14A2.46,2.46,0,0,0,96.09,220.6Z"/><path class="cls-4" d="M277,220.6h0a2.45,2.45,0,0,1-3.21.21L248.48,204.9a11.25,11.25,0,0,1,0-17.86l51.3-39.31a2.27,2.27,0,0,1,3,.2h0a2.26,2.26,0,0,1,0,3.19l-36.65,36.65a11.26,11.26,0,0,0,0,15.91L277,217.14A2.46,2.46,0,0,1,277,220.6Z"/><path class="cls-3" d="M171.3,181.46V150.8a1.5,1.5,0,0,1,1.5-1.5h1.63a1.49,1.49,0,0,1,1.49,1.49v9.78a.19.19,0,0,0,.1.19c.06,0,.11,0,.15,0,1.34-1.71,3.37-2.56,6.07-2.56a8.53,8.53,0,0,1,6.26,2.29,8.33,8.33,0,0,1,2.31,6.19v14.82a1.52,1.52,0,0,1-1.52,1.52h-1.58a1.52,1.52,0,0,1-1.52-1.52v-13.9a5.47,5.47,0,0,0-1.4-3.9,4.83,4.83,0,0,0-3.71-1.5,5.13,5.13,0,0,0-3.49,1.23,4.94,4.94,0,0,0-1.67,3.3v14.77A1.52,1.52,0,0,1,174.4,183h-1.58A1.52,1.52,0,0,1,171.3,181.46Z"/><path class="cls-3" d="M197.83,154a3.11,3.11,0,0,1,0-4.38,3.18,3.18,0,0,1,2.28-.84,3.12,3.12,0,0,1,2.27.84,3.19,3.19,0,0,1,0,4.38,3.09,3.09,0,0,1-2.27.85A3.14,3.14,0,0,1,197.83,154Zm4.6,5.9v21.57a1.52,1.52,0,0,1-1.52,1.52h-1.59a1.52,1.52,0,0,1-1.52-1.52V159.89a1.47,1.47,0,0,1,1.48-1.47H201A1.47,1.47,0,0,1,202.43,159.89Z"/><path class="cls-3" d="M215.73,150.8v7.46a.24.24,0,0,0,.24.24h4.91a.7.7,0,0,1,.53.19.72.72,0,0,1,.19.53v2.36a.69.69,0,0,1-.19.53.71.71,0,0,1-.53.2H216a.23.23,0,0,0-.24.24v12.57a3.22,3.22,0,0,0,3.75,3.81h1.16a.76.76,0,0,1,.53.19.72.72,0,0,1,.19.53v2.51a.72.72,0,0,1-.72.77l-2,0a9.59,9.59,0,0,1-5.55-1.3q-1.83-1.31-1.83-4.87V162.55a.21.21,0,0,0-.24-.24H208.4a.72.72,0,0,1-.53-.2.69.69,0,0,1-.19-.53v-2.36a.66.66,0,0,1,.72-.72h2.65a.21.21,0,0,0,.24-.24V150.8a1.51,1.51,0,0,1,1.51-1.5h1.42A1.51,1.51,0,0,1,215.73,150.8Z"/><path class="cls-3" d="M144.47,166.05l-6.21,14.31a4.15,4.15,0,0,1-1.25,1.7,3.07,3.07,0,0,1-1.95.62,2.85,2.85,0,0,1-2-.62,4.51,4.51,0,0,1-1.1-1.7l-7.57-19.5a1.5,1.5,0,0,1,1.4-2.05h1.86a2.57,2.57,0,0,1,2.4,1.64l5.38,14,6-13.88a5.48,5.48,0,0,1,1.21-1.78,2.75,2.75,0,0,1,2-.62,2.93,2.93,0,0,1,1.93.58,4.46,4.46,0,0,1,1.19,1.82l5.67,13.88L163,150.9a2.58,2.58,0,0,1,2.39-1.6h1.77a1.48,1.48,0,0,1,1.37,2l-11.84,29a4.4,4.4,0,0,1-1.22,1.65,2.88,2.88,0,0,1-1.94.67,2.82,2.82,0,0,1-1.91-.67,4.29,4.29,0,0,1-1.22-1.65Z"/><path class="cls-3" d="M230.54,173.14v1.15a10,10,0,0,0,.13,1.84,2.29,2.29,0,0,0,.48,1.09,1.79,1.79,0,0,0,.93.53,6.55,6.55,0,0,0,1.44.13h7.39a1.49,1.49,0,0,1,1.48,1.49v2.24a1.48,1.48,0,0,1-1.48,1.48h-7.39q-4.28,0-6.1-2.26t-1.83-7.23v-5.76a22.89,22.89,0,0,1,.39-4.59,6.6,6.6,0,0,1,1.32-3,5.31,5.31,0,0,1,2.51-1.64,12.89,12.89,0,0,1,3.95-.51h8.69a8.69,8.69,0,0,1,3.2.51,5,5,0,0,1,2,1.41,5.2,5.2,0,0,1,1.05,2.16,11.92,11.92,0,0,1,.3,2.74v5.19a3,3,0,0,1-3,3Zm1.6-4.43h10.41a1.52,1.52,0,0,0,1.52-1.52v-1.7a1.67,1.67,0,0,0-2-2.08h-8.23a8.52,8.52,0,0,0-1.56.12,1.74,1.74,0,0,0-1,.53,2.53,2.53,0,0,0-.55,1.2l-.09,1.85A1.53,1.53,0,0,0,232.14,168.71Z"/><path class="cls-3" d="M141.45,210.63a8.49,8.49,0,0,1-3.28-4.62,17.75,17.75,0,0,1-.66-5.35,19.52,19.52,0,0,1,.66-5.35,8.42,8.42,0,0,1,3.3-4.51,9.73,9.73,0,0,1,5.72-1.68,10.11,10.11,0,0,1,5.8,1.68,7.68,7.68,0,0,1,3.22,4.25,5.28,5.28,0,0,1,.31,1.23v.09a.58.58,0,0,1-.57.62l-2.88.4h-.13a.59.59,0,0,1-.62-.49l-.13-.57a4.33,4.33,0,0,0-1.73-2.52,5.37,5.37,0,0,0-3.31-1,5.15,5.15,0,0,0-3.23,1,4.61,4.61,0,0,0-1.72,2.7,17.63,17.63,0,0,0-.4,4.2,17.34,17.34,0,0,0,.4,4.15,4.9,4.9,0,0,0,1.74,2.79,5,5,0,0,0,3.21,1,5.42,5.42,0,0,0,3.27-1,4.47,4.47,0,0,0,1.77-2.54l0-.18v0a.82.82,0,0,1,.27-.43.57.57,0,0,1,.49-.15l2.87.49a.62.62,0,0,1,.57.7c0,.12-.1.4-.22.85A7.49,7.49,0,0,1,153,210.7a10.31,10.31,0,0,1-5.8,1.63A9.58,9.58,0,0,1,141.45,210.63Z"/><path class="cls-3" d="M161.47,210.3V182.53a1.68,1.68,0,0,1,1.68-1.68H164a1.68,1.68,0,0,1,1.68,1.68V210.3A1.68,1.68,0,0,1,164,212h-.89A1.68,1.68,0,0,1,161.47,210.3Z"/><path class="cls-3" d="M222.15,191.2v.18a.18.18,0,0,0,.09.17.08.08,0,0,0,.13,0,6.68,6.68,0,0,1,5.57-2.35,7.86,7.86,0,0,1,5.75,2.1,7.68,7.68,0,0,1,2.12,5.69v13.36a1.67,1.67,0,0,1-1.67,1.67h-.9a1.67,1.67,0,0,1-1.67-1.67V197.79a5,5,0,0,0-1.29-3.58,4.41,4.41,0,0,0-3.4-1.37,4.74,4.74,0,0,0-3.21,1.12,4.49,4.49,0,0,0-1.52,3v13.32a1.67,1.67,0,0,1-1.67,1.67h-.91a1.67,1.67,0,0,1-1.67-1.67V191.22a1.67,1.67,0,0,1,1.66-1.66h1.15A1.48,1.48,0,0,1,222.15,191.2Z"/><path class="cls-3" d="M174.21,202.81v1a8.83,8.83,0,0,0,.12,1.63,2,2,0,0,0,.42,1,1.56,1.56,0,0,0,.82.47,5.7,5.7,0,0,0,1.27.12h6.52a1.31,1.31,0,0,1,1.3,1.31v2a1.3,1.3,0,0,1-1.3,1.3h-6.52c-2.51,0-4.31-.66-5.38-2s-1.61-3.45-1.61-6.38v-5.07a21,21,0,0,1,.34-4,5.85,5.85,0,0,1,1.17-2.64,4.7,4.7,0,0,1,2.21-1.44,11.31,11.31,0,0,1,3.48-.45h7.66a7.64,7.64,0,0,1,2.82.45,4.38,4.38,0,0,1,1.79,1.24,4.6,4.6,0,0,1,.92,1.91,10.82,10.82,0,0,1,.26,2.42v4.57a2.66,2.66,0,0,1-2.65,2.66Zm1.41-3.9h9.18a1.35,1.35,0,0,0,1.34-1.35v-1.5a2,2,0,0,0-.39-1.46,2.07,2.07,0,0,0-1.39-.37h-7.25a7.55,7.55,0,0,0-1.38.11,1.5,1.5,0,0,0-.89.46,2.22,2.22,0,0,0-.48,1.06l-.08,1.64A1.34,1.34,0,0,0,175.62,198.91Z"/><path class="cls-3" d="M209.41,198.34v-1a8.71,8.71,0,0,0-.12-1.62,2,2,0,0,0-.42-1,1.55,1.55,0,0,0-.82-.46,5.11,5.11,0,0,0-1.27-.13h-6.52a1.3,1.3,0,0,1-1.3-1.3v-2a1.31,1.31,0,0,1,1.3-1.31h6.52c2.51,0,4.31.67,5.38,2s1.61,3.46,1.61,6.38V203a20,20,0,0,1-.34,4,5.75,5.75,0,0,1-1.17,2.64,4.64,4.64,0,0,1-2.21,1.45,11.66,11.66,0,0,1-3.48.44h-7.66a7.87,7.87,0,0,1-2.82-.44,4.48,4.48,0,0,1-1.79-1.24,4.66,4.66,0,0,1-.92-1.91,10.88,10.88,0,0,1-.26-2.42V201a2.66,2.66,0,0,1,2.66-2.66Zm-1.41,3.9h-9.18a1.34,1.34,0,0,0-1.34,1.35v1.49a1.47,1.47,0,0,0,1.78,1.83h7.25a7.65,7.65,0,0,0,1.38-.1,1.51,1.51,0,0,0,.89-.47,2.14,2.14,0,0,0,.48-1.05l.08-1.64A1.34,1.34,0,0,0,208,202.24Z"/><path class="cls-5" d="M183.08,333.28a.29.29,0,0,1,.07.23l-.69,13.68a.35.35,0,0,1-.1.23.31.31,0,0,1-.22.07l-1.35-.07a.3.3,0,0,1-.22-.1.28.28,0,0,1-.07-.23l.62-12.19c0-.07,0-.1-.1-.11l-6.93-.35a.29.29,0,0,1-.22-.09.33.33,0,0,1-.07-.23l.06-1.08a.27.27,0,0,1,.09-.22.29.29,0,0,1,.23-.07l8.68.44A.27.27,0,0,1,183.08,333.28Z"/><path class="cls-5" d="M171.65,332.52a.3.3,0,0,1,.06.23l-1.46,13.63a.3.3,0,0,1-.1.21.31.31,0,0,1-.24.06l-1.34-.14a.31.31,0,0,1-.21-.11.3.3,0,0,1-.06-.23l1.46-13.63a.3.3,0,0,1,.1-.21.31.31,0,0,1,.24-.06l1.34.14A.29.29,0,0,1,171.65,332.52Z"/><path class="cls-5" d="M166.54,332a.28.28,0,0,1,0,.24l-2.35,13.5a.3.3,0,0,1-.36.25l-1.35-.24a.39.39,0,0,1-.32-.26l-2.45-6c0-.09-.06-.1-.12,0l-4.35,4.8a.38.38,0,0,1-.39.14l-1.35-.24a.25.25,0,0,1-.21-.12.29.29,0,0,1,0-.23l2.35-13.5a.34.34,0,0,1,.12-.21.33.33,0,0,1,.24,0l1.33.23a.37.37,0,0,1,.21.12.36.36,0,0,1,0,.24l-1.79,10.23s0,.09,0,.1.05,0,.09,0l3.52-4a.38.38,0,0,1,.39-.14l.65.11a.42.42,0,0,1,.33.27l1.94,4.94s0,.07.07.07,0,0,.05-.08l1.79-10.24a.37.37,0,0,1,.12-.21.31.31,0,0,1,.24,0l1.32.23A.31.31,0,0,1,166.54,332Z"/><path class="cls-5" d="M141.86,340.72a3.62,3.62,0,0,1-1-1.79,4.35,4.35,0,0,1,.05-2.23,4.22,4.22,0,0,1,1.07-1.94,3.62,3.62,0,0,1,1.82-1,4.6,4.6,0,0,1,2.29.08l3.46.92a.09.09,0,0,0,.13-.07l1.46-5.5a.28.28,0,0,1,.14-.19.28.28,0,0,1,.24,0l1.3.34a.38.38,0,0,1,.2.14.33.33,0,0,1,0,.24L149.46,343a.27.27,0,0,1-.37.22l-5.24-1.4A4.45,4.45,0,0,1,141.86,340.72Zm2-5.09a2.36,2.36,0,0,0-1.12,1.54,2.42,2.42,0,0,0,.19,1.92,2.45,2.45,0,0,0,1.58,1.13l3.28.88A.09.09,0,0,0,148,341l1.22-4.58a.09.09,0,0,0-.07-.13l-3.28-.87A2.46,2.46,0,0,0,143.9,335.63Z"/><path class="cls-5" d="M141.36,326.17a.33.33,0,0,1,0,.24l-4.29,13a.29.29,0,0,1-.39.2l-1.28-.43a.3.3,0,0,1-.19-.15.26.26,0,0,1,0-.23l4.3-13a.28.28,0,0,1,.15-.18.28.28,0,0,1,.24,0l1.28.42A.32.32,0,0,1,141.36,326.17Z"/><path class="cls-5" d="M123.17,332.85a.33.33,0,0,1,.24,0L130,335.5a.1.1,0,0,0,.14-.06l1.6-4.05a.08.08,0,0,0-.05-.13l-4.53-1.8a.28.28,0,0,1-.17-.4l.4-1a.3.3,0,0,1,.16-.17.29.29,0,0,1,.24,0l4.52,1.8c.07,0,.11,0,.13-.06l1.65-4.14c0-.07,0-.11-.06-.14l-6.63-2.63a.28.28,0,0,1-.17-.4l.4-1a.3.3,0,0,1,.16-.17.3.3,0,0,1,.23,0l8.27,3.29a.26.26,0,0,1,.18.16.3.3,0,0,1,0,.23l-5.06,12.74a.32.32,0,0,1-.16.18.29.29,0,0,1-.24,0l-8.27-3.28a.32.32,0,0,1-.18-.16.33.33,0,0,1,0-.24l.4-1A.36.36,0,0,1,123.17,332.85Z"/><path class="cls-5" d="M126.2,320.39a.35.35,0,0,1,0,.24l-.56,1.14a.59.59,0,0,1-.27.27l-11,6.35s-.06,0-.06.06a.07.07,0,0,0,.06.07l6.15,3a.31.31,0,0,1,.16.18.3.3,0,0,1,0,.24l-.48,1a.29.29,0,0,1-.41.14l-8-3.92a.29.29,0,0,1-.14-.41l.56-1.13a.72.72,0,0,1,.27-.28L123.5,321s.06,0,.06-.06,0-.05-.06-.07l-6.18-3a.31.31,0,0,1-.17-.17.29.29,0,0,1,0-.24l.47-1a.3.3,0,0,1,.42-.15l8,3.92A.31.31,0,0,1,126.2,320.39Z"/><path class="cls-5" d="M108.36,311l-.56,2.33c0,.06,0,.11,0,.13l4.9,2.92a.13.13,0,0,0,.13,0l1.79-1.6a.32.32,0,0,1,.42,0l1.25.74q.3.18,0,.42l-10.82,9.53a.33.33,0,0,1-.42,0l-1.62-1a.33.33,0,0,1-.17-.39L106.53,310a.28.28,0,0,1,0-.12c.07-.13.19-.14.34-.05l1.26.75A.33.33,0,0,1,108.36,311Zm3.15,6.45-4-2.4c-.07,0-.11,0-.13.07l-1.87,7.76c0,.06,0,.09,0,.11s.06,0,.1,0l5.92-5.35C111.58,317.48,111.57,317.44,111.51,317.4Z"/><path class="cls-5" d="M87.12,312.52a3.74,3.74,0,0,1-.29-2.06,4.4,4.4,0,0,1,.89-2A4.25,4.25,0,0,1,89.44,307a3.65,3.65,0,0,1,2.07-.24,4.74,4.74,0,0,1,2.09.95l2.85,2.16a.1.1,0,0,0,.15,0l3.43-4.54a.32.32,0,0,1,.2-.13.3.3,0,0,1,.23.07l1.08.82a.34.34,0,0,1,.13.2.32.32,0,0,1-.08.23l-8.28,10.94a.27.27,0,0,1-.2.13.31.31,0,0,1-.23-.07l-4.32-3.27A4.55,4.55,0,0,1,87.12,312.52Zm3.81-4a2.69,2.69,0,0,0-2.16,2.87,2.46,2.46,0,0,0,1,1.64l2.71,2c0,.05.1,0,.14,0l2.86-3.78a.09.09,0,0,0,0-.14l-2.71-2.05A2.48,2.48,0,0,0,90.93,308.56Z"/><path class="cls-5" d="M86.23,293.83l-1.93,6.4a.11.11,0,0,0,0,.14l2.14,1.92a.09.09,0,0,0,.15,0l4-4.44a.28.28,0,0,1,.21-.11.27.27,0,0,1,.22.09l1,.9a.31.31,0,0,1,.11.21.35.35,0,0,1-.09.22l-9.15,10.23a.28.28,0,0,1-.21.11.33.33,0,0,1-.22-.09l-4-3.6A4.41,4.41,0,0,1,77.18,304a3.69,3.69,0,0,1-.12-2,4.44,4.44,0,0,1,1-1.92,3.89,3.89,0,0,1,2.17-1.29,3.69,3.69,0,0,1,2.42.37.1.1,0,0,0,.12-.05l1.86-6.44.08-.15c.09-.1.2-.09.34,0l1,.92A.36.36,0,0,1,86.23,293.83ZM82.44,307l3-3.39a.09.09,0,0,0,0-.14l-2.53-2.27a2.36,2.36,0,0,0-1.72-.66,2.27,2.27,0,0,0-1.63.82,2.25,2.25,0,0,0,.19,3.38L82.3,307S82.4,307,82.44,307Z"/><path class="cls-5" d="M81.53,289.51a4.36,4.36,0,0,1,0,2.48,5.17,5.17,0,0,1-1.43,2.23l-3.54,3.34a5,5,0,0,1-2.29,1.3,4.42,4.42,0,0,1-2.47-.11,5.67,5.67,0,0,1-2.26-1.5,5.61,5.61,0,0,1-1.38-2.35,4.36,4.36,0,0,1,0-2.48,4.91,4.91,0,0,1,1.42-2.21l3.53-3.35a5.14,5.14,0,0,1,2.3-1.3,4.45,4.45,0,0,1,2.48.1,5.65,5.65,0,0,1,2.28,1.51A5.53,5.53,0,0,1,81.53,289.51Zm-4.77-2.21a3.07,3.07,0,0,0-2.24.93l-3.61,3.42a3.14,3.14,0,0,0-1.08,2.2,3,3,0,0,0,.91,2.23,3,3,0,0,0,2.17,1,3.15,3.15,0,0,0,2.26-1l3.61-3.42a3.1,3.1,0,0,0,1.07-2.17,3.36,3.36,0,0,0-3.09-3.26Z"/><path class="cls-5" d="M59,282.15a.28.28,0,0,1,.2.13l4.46,5.55c0,.05.09.05.15,0l3.39-2.73a.09.09,0,0,0,0-.14l-3-3.78a.34.34,0,0,1-.08-.23.31.31,0,0,1,.13-.2l.84-.68a.31.31,0,0,1,.23-.08.28.28,0,0,1,.2.13l3,3.78a.09.09,0,0,0,.14,0l4.64-3.73a.3.3,0,0,1,.23-.07.29.29,0,0,1,.21.12l.84,1.05a.31.31,0,0,1,.08.23.28.28,0,0,1-.13.2l-10.68,8.59a.29.29,0,0,1-.23.07.26.26,0,0,1-.2-.12l-5.56-6.92a.3.3,0,0,1-.08-.23.31.31,0,0,1,.13-.2l.84-.68A.36.36,0,0,1,59,282.15Z"/><path class="cls-5" d="M66.17,271a4.26,4.26,0,0,1-.38,2.39,4.8,4.8,0,0,1-1.69,1.91l-7.84,5.3a.26.26,0,0,1-.23.06.26.26,0,0,1-.19-.14l-.76-1.12a.33.33,0,0,1-.06-.23.32.32,0,0,1,.14-.19L63,273.69a2.86,2.86,0,0,0,1.3-1.91,3,3,0,0,0-.57-2.3,3.06,3.06,0,0,0-1.91-1.37,2.92,2.92,0,0,0-2.25.51L51.73,274a.26.26,0,0,1-.23.06.28.28,0,0,1-.19-.14l-.76-1.12a.33.33,0,0,1-.06-.23.29.29,0,0,1,.14-.19L58.48,267a4.81,4.81,0,0,1,2.39-.87,4.29,4.29,0,0,1,2.36.53,5.79,5.79,0,0,1,2,1.85A5.65,5.65,0,0,1,66.17,271Z"/><path class="cls-5" d="M60.62,262a.34.34,0,0,1-.16.18l-12,6.64a.27.27,0,0,1-.41-.12l-.64-1.14a.42.42,0,0,1,0-.43l5.83-10.38s0-.07,0-.09,0,0-.1,0l-8.73,4.83a.3.3,0,0,1-.24,0,.3.3,0,0,1-.18-.16l-.65-1.18a.27.27,0,0,1,.12-.41l12-6.65a.32.32,0,0,1,.23,0,.27.27,0,0,1,.18.15l.65,1.17a.4.4,0,0,1,0,.42l-5.88,10.41a.09.09,0,0,0,0,.1s0,0,.1,0l8.77-4.89a.34.34,0,0,1,.24,0,.39.39,0,0,1,.18.16l.65,1.18A.3.3,0,0,1,60.62,262Z"/><path class="cls-5" d="M54.36,250.39a.26.26,0,0,1-.17.17l-12.52,5.58a.31.31,0,0,1-.23,0,.3.3,0,0,1-.17-.18l-2-4.42a5,5,0,0,1-.37-3.56,3.81,3.81,0,0,1,2.2-2.37l5.61-2.5a3.77,3.77,0,0,1,3.23,0,4.89,4.89,0,0,1,2.4,2.65l2,4.43A.27.27,0,0,1,54.36,250.39Zm-2.28-1.15-1.29-2.9a2.51,2.51,0,0,0-1.43-1.43,2.77,2.77,0,0,0-2.08.13l-5.08,2.27a2.66,2.66,0,0,0-1.5,1.44,2.57,2.57,0,0,0,.11,2l1.29,2.9a.1.1,0,0,0,.14.05L52,249.37A.08.08,0,0,0,52.08,249.24Z"/><path class="cls-5" d="M46.74,231.76l-1.93,1.43a.14.14,0,0,0,0,.13l1.89,5.38s.05.06.11.07l2.4-.08a.33.33,0,0,1,.35.24L50,240.3c.08.22,0,.34-.25.35L35.34,241a.34.34,0,0,1-.35-.25L34.37,239a.33.33,0,0,1,.12-.41L46,229.84l.11-.06q.21-.08.3.18l.49,1.39A.34.34,0,0,1,46.74,231.76Zm-1.71,7-1.56-4.42c0-.07-.07-.09-.14,0L36.92,239q-.08,0-.06.09s0,0,.1,0l8-.31Q45.06,238.84,45,238.73Z"/><path class="cls-5" d="M41.37,208.12a.3.3,0,0,1-.22.1l-13.61,1.57a.26.26,0,0,1-.23,0,.31.31,0,0,1-.11-.21l-.55-4.82a4.92,4.92,0,0,1,.71-3.5,3.74,3.74,0,0,1,2.81-1.6l6.1-.71a3.78,3.78,0,0,1,3.1.92,5,5,0,0,1,1.5,3.25l.55,4.81A.28.28,0,0,1,41.37,208.12Zm-1.83-1.79-.37-3.15a2.53,2.53,0,0,0-.94-1.8,2.75,2.75,0,0,0-2-.49l-5.53.64a2.69,2.69,0,0,0-1.86.92,2.57,2.57,0,0,0-.5,2l.37,3.15c0,.07,0,.1.11.09l10.65-1.23C39.51,206.44,39.54,206.4,39.54,206.33Z"/><path class="cls-5" d="M27.17,186.9a.28.28,0,0,1,.09.22l.23,7.14c0,.06,0,.1.11.09l4.35-.14c.07,0,.11,0,.1-.1l-.16-4.87A.36.36,0,0,1,32,189a.34.34,0,0,1,.22-.09l1.08,0a.32.32,0,0,1,.23.07.29.29,0,0,1,.09.22l.16,4.87c0,.07,0,.1.11.1l4.45-.15c.07,0,.1,0,.1-.1l-.23-7.14a.3.3,0,0,1,.07-.23.31.31,0,0,1,.22-.08l1.09,0a.27.27,0,0,1,.22.08.27.27,0,0,1,.09.22l.3,8.89a.36.36,0,0,1-.08.23.37.37,0,0,1-.22.09l-13.7.45a.31.31,0,0,1-.22-.08.28.28,0,0,1-.09-.22l-.3-8.89a.34.34,0,0,1,.08-.23.28.28,0,0,1,.22-.09l1.08,0A.32.32,0,0,1,27.17,186.9Z"/><path class="cls-5" d="M39.66,182.19a4,4,0,0,1-1.47,1.7,3.56,3.56,0,0,1-2.13.52l-.49,0a.27.27,0,0,1-.22-.09.29.29,0,0,1-.07-.23l.06-1.31a.28.28,0,0,1,.09-.22.33.33,0,0,1,.23-.07l.39,0a2,2,0,0,0,1.75-.82,3.89,3.89,0,0,0,.79-2.36,3.29,3.29,0,0,0-.49-2.15,1.92,1.92,0,0,0-1.52-.79,1.65,1.65,0,0,0-1.1.32,3.41,3.41,0,0,0-.88,1c-.27.46-.61,1.13-1,2A19,19,0,0,1,32.44,182a4.33,4.33,0,0,1-1.3,1.39,3.24,3.24,0,0,1-2,.48,3.36,3.36,0,0,1-2.7-1.39,5.29,5.29,0,0,1-.84-3.45,6.65,6.65,0,0,1,.63-2.63,4.21,4.21,0,0,1,1.52-1.7,3.72,3.72,0,0,1,2.15-.52h.31a.37.37,0,0,1,.22.09.35.35,0,0,1,.07.23l-.06,1.33a.34.34,0,0,1-.08.22.24.24,0,0,1-.2.07H30a2.21,2.21,0,0,0-1.8.77,3.55,3.55,0,0,0-.82,2.31,3.24,3.24,0,0,0,.43,2,1.78,1.78,0,0,0,1.47.77,1.7,1.7,0,0,0,1.12-.3,2.9,2.9,0,0,0,.81-1c.25-.44.57-1.13,1-2.05a23,23,0,0,1,1.16-2.3,4.59,4.59,0,0,1,1.34-1.43,3.13,3.13,0,0,1,2-.5,3.52,3.52,0,0,1,2,.68,3.91,3.91,0,0,1,1.29,1.78,6.58,6.58,0,0,1,.37,2.66A6.72,6.72,0,0,1,39.66,182.19Z"/><path class="cls-5" d="M40.47,172.12a.27.27,0,0,1-.24,0l-13.58-1.84a.31.31,0,0,1-.21-.11.34.34,0,0,1-.05-.23l.19-1.36a.41.41,0,0,1,.25-.34l5.89-2.67c.09,0,.09-.07,0-.12l-5-4.16a.4.4,0,0,1-.16-.39l.19-1.36a.31.31,0,0,1,.11-.21.3.3,0,0,1,.23,0l13.58,1.84a.31.31,0,0,1,.22.11.34.34,0,0,1,.05.23l-.19,1.34a.31.31,0,0,1-.11.21.3.3,0,0,1-.23.05l-10.3-1.39q-.07,0-.09,0s0,.05,0,.08l4.12,3.37a.4.4,0,0,1,.16.39l-.09.65a.41.41,0,0,1-.25.34l-4.87,2.13c-.05,0-.07,0-.06.07s0,.05.08.05l10.3,1.4a.31.31,0,0,1,.21.11.3.3,0,0,1,0,.23l-.18,1.34A.31.31,0,0,1,40.47,172.12Z"/><path class="cls-5" d="M44.26,149.94l-2.39.19a.12.12,0,0,0-.11.08l-1.28,5.56a.14.14,0,0,0,.06.12l2.07,1.21a.33.33,0,0,1,.17.39l-.33,1.42c-.05.22-.18.28-.39.16l-12.39-7.38a.33.33,0,0,1-.16-.4l.42-1.83a.33.33,0,0,1,.32-.28l14.37-1.27a.2.2,0,0,1,.13,0c.14,0,.2.13.16.3l-.33,1.44A.33.33,0,0,1,44.26,149.94Zm-5.17,5,1-4.56c0-.08,0-.12-.1-.11l-8,.6c-.06,0-.09,0-.1.05s0,0,.07.07L39,155C39,155,39.07,155,39.09,154.92Z"/><path class="cls-5" d="M45.49,145.89a.39.39,0,0,1-.24,0l-13-4.25a.32.32,0,0,1-.19-.15.33.33,0,0,1,0-.24l.4-1.24a.4.4,0,0,1,.31-.29l11.56-2.81c.05,0,.08,0,.08-.06s0-.06-.08-.07l-9.49-3.1a.24.24,0,0,1-.18-.14.28.28,0,0,1,0-.24L35,132a.26.26,0,0,1,.14-.18.28.28,0,0,1,.24,0l13,4.25a.31.31,0,0,1,.19.14.33.33,0,0,1,0,.24l-.41,1.27a.4.4,0,0,1-.31.28l-11.63,2.8s-.07,0-.07.06,0,0,.07.07L45.86,144a.32.32,0,0,1,.19.15.3.3,0,0,1,0,.23l-.41,1.29A.32.32,0,0,1,45.49,145.89Z"/><path class="cls-5" d="M50.26,131.31a4.13,4.13,0,0,1-2.21,1,4.76,4.76,0,0,1-2.51-.39l-4.88-2.08a4.65,4.65,0,0,1-2-1.53,4.27,4.27,0,0,1-.81-2.26,5.59,5.59,0,0,1,.48-2.63,5.75,5.75,0,0,1,1.54-2.16,4.09,4.09,0,0,1,2.14-1,4.45,4.45,0,0,1,2.43.35c.12.06.16.18.1.38l-.45,1.28,0,.07a.32.32,0,0,1-.1.14c-.05,0-.08,0-.1,0l-.12,0a2.83,2.83,0,0,0-2.26-.07,3,3,0,0,0-1.59,1.7,3.05,3.05,0,0,0-.13,2.34A2.8,2.8,0,0,0,41.38,128l5,2.14a2.81,2.81,0,0,0,2.27.06,3.06,3.06,0,0,0,1.59-1.71,3,3,0,0,0,.12-2.33,2.77,2.77,0,0,0-1.61-1.57.25.25,0,0,1-.14-.15.27.27,0,0,1,0-.22l.61-1.21c.1-.18.17-.26.21-.25l.09,0a4.59,4.59,0,0,1,2,1.51,4.18,4.18,0,0,1,.79,2.24,5.52,5.52,0,0,1-.49,2.61A5.45,5.45,0,0,1,50.26,131.31Z"/><path class="cls-5" d="M45.91,108.42a.34.34,0,0,1,0-.24l.64-1.19a.26.26,0,0,1,.18-.16.32.32,0,0,1,.23,0l12.1,6.43a.29.29,0,0,1,.13.42l-.63,1.19a.34.34,0,0,1-.18.16.35.35,0,0,1-.24,0l-5.25-2.8a.1.1,0,0,0-.14,0l-2.72,5.11c0,.06,0,.1,0,.13l5.26,2.8a.28.28,0,0,1,.16.18.32.32,0,0,1,0,.23l-.64,1.19a.3.3,0,0,1-.18.17.28.28,0,0,1-.23,0l-12.1-6.43a.26.26,0,0,1-.16-.18.28.28,0,0,1,0-.23l.63-1.2a.39.39,0,0,1,.18-.16.3.3,0,0,1,.24,0l5.16,2.74a.09.09,0,0,0,.14,0l2.72-5.11a.09.09,0,0,0,0-.14l-5.17-2.74A.34.34,0,0,1,45.91,108.42Z"/><path class="cls-5" d="M65.32,103.6,63,103a.12.12,0,0,0-.13,0l-3.11,4.78a.11.11,0,0,0,0,.13l1.53,1.85a.35.35,0,0,1,0,.43l-.79,1.22c-.13.19-.27.2-.42,0L51,100.23a.33.33,0,0,1,0-.42l1-1.58a.34.34,0,0,1,.4-.16l13.94,3.74a.25.25,0,0,1,.11,0c.13.08.14.19,0,.34l-.8,1.24A.34.34,0,0,1,65.32,103.6Zm-6.57,2.9,2.55-3.93c0-.07,0-.11-.06-.13l-7.69-2.17s-.09,0-.1,0,0,0,0,.09l5.12,6.13Q58.69,106.59,58.75,106.5Z"/><path class="cls-5" d="M67.91,100.16a.28.28,0,0,1-.22-.07L56.87,91.67a.32.32,0,0,1-.13-.2.31.31,0,0,1,.08-.23l3-3.82a5,5,0,0,1,3-2,3.79,3.79,0,0,1,3.13.83L70.73,90a3.76,3.76,0,0,1,1.57,2.82,5,5,0,0,1-1.21,3.37l-3,3.82A.3.3,0,0,1,67.91,100.16Zm0-2.56,1.94-2.5a2.47,2.47,0,0,0,.59-1.94,2.74,2.74,0,0,0-1.09-1.77L64.91,88a2.73,2.73,0,0,0-2-.64,2.56,2.56,0,0,0-1.75,1.06L59.24,90.9a.08.08,0,0,0,0,.14l8.46,6.58A.09.09,0,0,0,67.86,97.6Z"/><path class="cls-5" d="M76.63,88.88a4.37,4.37,0,0,1-2.48.13,5,5,0,0,1-2.32-1.27l-3.58-3.3a5.07,5.07,0,0,1-1.45-2.2,4.41,4.41,0,0,1,0-2.47,5.93,5.93,0,0,1,3.59-3.89,4.34,4.34,0,0,1,2.47-.15A5.11,5.11,0,0,1,75.12,77l3.57,3.3a5,5,0,0,1,1.46,2.2A4.45,4.45,0,0,1,80.22,85a6,6,0,0,1-3.59,3.9ZM78.51,84a3,3,0,0,0-1.09-2.17l-3.65-3.37a3.11,3.11,0,0,0-2.27-.93,3.32,3.32,0,0,0-3,3.3A3.17,3.17,0,0,0,69.57,83l3.65,3.37a3.09,3.09,0,0,0,2.25.92,3.37,3.37,0,0,0,3-3.3Z"/><path class="cls-5" d="M94.24,55.3a3.71,3.71,0,0,1,2.05.31A4.53,4.53,0,0,1,98,57a4.27,4.27,0,0,1,.84,2.05,3.64,3.64,0,0,1-.36,2A4.73,4.73,0,0,1,97,62.87L94.1,65a.09.09,0,0,0,0,.14l3.37,4.58a.29.29,0,0,1,.07.23.35.35,0,0,1-.13.2L96.3,71a.29.29,0,0,1-.23.06.28.28,0,0,1-.2-.13l-8.14-11a.29.29,0,0,1-.07-.23.35.35,0,0,1,.13-.2l4.37-3.21A4.58,4.58,0,0,1,94.24,55.3Zm2.7,4.78a2.38,2.38,0,0,0-.5-1.84A2.36,2.36,0,0,0,93,57.71l-2.73,2c-.06,0-.06.08,0,.14L93,63.69a.09.09,0,0,0,.14,0l2.74-2A2.49,2.49,0,0,0,96.94,60.08Z"/><path class="cls-5" d="M112.34,59.8l-5.58-3.67a.16.16,0,0,0-.15,0l-2.46,1.52a.1.1,0,0,0,0,.14l3.13,5.06a.36.36,0,0,1,0,.24.34.34,0,0,1-.15.19L106,64a.28.28,0,0,1-.23,0,.26.26,0,0,1-.19-.14L98.37,52.2a.3.3,0,0,1-.05-.24.32.32,0,0,1,.15-.18l4.59-2.84a4.48,4.48,0,0,1,2.11-.7,3.71,3.71,0,0,1,2,.46,4.47,4.47,0,0,1,1.55,1.54,3.9,3.9,0,0,1,.62,2.45,3.76,3.76,0,0,1-1,2.21.11.11,0,0,0,0,.14l5.64,3.6.12.12c.08.12,0,.22-.11.32l-1.19.73A.36.36,0,0,1,112.34,59.8Zm-11.52-7.36,2.39,3.86c0,.06.08.07.14,0l2.89-1.78a2.33,2.33,0,0,0,1.12-1.46,2.3,2.3,0,0,0-.32-1.8,2.27,2.27,0,0,0-3.3-.78l-2.88,1.79A.09.09,0,0,0,100.82,52.44Z"/><path class="cls-5" d="M117.85,56.51a4.4,4.4,0,0,1-2.37-.74,5,5,0,0,1-1.73-2l-2.2-4.34a5.16,5.16,0,0,1-.59-2.57,4.51,4.51,0,0,1,.81-2.33,5.53,5.53,0,0,1,2.08-1.74,5.61,5.61,0,0,1,2.65-.66,4.44,4.44,0,0,1,2.36.73,5,5,0,0,1,1.72,2l2.2,4.34a5.09,5.09,0,0,1,.6,2.58,4.34,4.34,0,0,1-.81,2.34,5.6,5.6,0,0,1-2.09,1.75A5.52,5.52,0,0,1,117.85,56.51Zm3.48-3.95a3.09,3.09,0,0,0-.26-2.41l-2.25-4.43a3.15,3.15,0,0,0-1.8-1.67,3.34,3.34,0,0,0-4,2,3.18,3.18,0,0,0,.28,2.44L115.54,53a3.09,3.09,0,0,0,1.78,1.64,3,3,0,0,0,2.39-.24A3,3,0,0,0,121.33,52.56Z"/><path class="cls-5" d="M130.25,35.77a.32.32,0,0,1,.16.18l.42,1a.33.33,0,0,1,0,.24.32.32,0,0,1-.18.16l-3.52,1.44a.1.1,0,0,0-.06.14l4.63,11.27a.33.33,0,0,1,0,.24.26.26,0,0,1-.18.16l-1.25.52a.33.33,0,0,1-.24,0,.32.32,0,0,1-.16-.18l-4.62-11.28a.1.1,0,0,0-.14-.06L121.78,41a.31.31,0,0,1-.23,0,.3.3,0,0,1-.17-.18l-.41-1a.29.29,0,0,1,0-.24.27.27,0,0,1,.17-.16L130,35.78A.29.29,0,0,1,130.25,35.77Z"/><path class="cls-5" d="M142.9,33.23a.32.32,0,0,1-.19.15l-6.8,2.16a.09.09,0,0,0-.07.13l1.32,4.15c0,.07.07.09.13.07l4.64-1.48a.29.29,0,0,1,.39.2l.33,1a.39.39,0,0,1,0,.24.32.32,0,0,1-.19.15l-4.64,1.48c-.07,0-.09.06-.07.12l1.36,4.25c0,.07.06.09.12.07L146,43.78a.3.3,0,0,1,.23,0,.32.32,0,0,1,.15.19l.33,1a.29.29,0,0,1-.2.39l-8.48,2.7a.28.28,0,0,1-.24,0,.32.32,0,0,1-.14-.19l-4.16-13.06a.26.26,0,0,1,0-.23.3.3,0,0,1,.19-.15l8.47-2.7a.28.28,0,0,1,.24,0,.3.3,0,0,1,.15.19l.33,1A.33.33,0,0,1,142.9,33.23Z"/><path class="cls-5" d="M151.06,43.85A4.23,4.23,0,0,1,149,42.63a4.73,4.73,0,0,1-1.16-2.27l-1.19-5.16a4.66,4.66,0,0,1,.06-2.52,4.27,4.27,0,0,1,1.35-2,5.58,5.58,0,0,1,2.41-1.15,5.85,5.85,0,0,1,2.66,0,4.27,4.27,0,0,1,2.06,1.16,4.58,4.58,0,0,1,1.14,2.17c0,.13-.05.24-.25.31l-1.29.38-.08,0h-.17c-.05,0-.08,0-.08-.07l0-.12a2.8,2.8,0,0,0-1.27-1.87,3,3,0,0,0-2.31-.29,3.06,3.06,0,0,0-2,1.27,2.81,2.81,0,0,0-.34,2.24l1.22,5.3A2.76,2.76,0,0,0,151,41.87a3.39,3.39,0,0,0,4.27-1,2.85,2.85,0,0,0,.33-2.24.18.18,0,0,1,0-.19.26.26,0,0,1,.21-.1l1.33-.22c.21,0,.31,0,.32,0l0,.1a4.57,4.57,0,0,1-.08,2.47,4.27,4.27,0,0,1-1.34,1.95,5.69,5.69,0,0,1-2.41,1.14A5.61,5.61,0,0,1,151.06,43.85Z"/><path class="cls-5" d="M163,41.41A4.21,4.21,0,0,1,161,40a4.73,4.73,0,0,1-1-2.35l-.76-5.24a4.64,4.64,0,0,1,.28-2.51,4.2,4.2,0,0,1,1.5-1.87,5.71,5.71,0,0,1,2.5-.95,5.65,5.65,0,0,1,2.65.19,4.13,4.13,0,0,1,2,1.32,4.36,4.36,0,0,1,1,2.26c0,.13-.07.23-.26.29l-1.33.27h-.08a.31.31,0,0,1-.17,0s-.07,0-.07-.07l0-.12a2.79,2.79,0,0,0-1.11-2,3,3,0,0,0-2.28-.48,3.05,3.05,0,0,0-2.06,1.1,2.83,2.83,0,0,0-.52,2.21l.77,5.38a2.82,2.82,0,0,0,1.12,2,3,3,0,0,0,2.29.48,3,3,0,0,0,2-1.1,2.78,2.78,0,0,0,.51-2.21.21.21,0,0,1,.06-.19.29.29,0,0,1,.22-.07l1.35-.11c.2,0,.31,0,.31,0l0,.11a4.51,4.51,0,0,1-.28,2.44,4.32,4.32,0,0,1-1.5,1.84,5.73,5.73,0,0,1-2.49.94A5.61,5.61,0,0,1,163,41.41Z"/><path class="cls-5" d="M173.22,40.46a.3.3,0,0,1-.1-.21L172,26.59a.3.3,0,0,1,.07-.23.28.28,0,0,1,.21-.1l1.35-.11a.3.3,0,0,1,.23.06.3.3,0,0,1,.1.22l1.15,13.65a.33.33,0,0,1-.07.23.3.3,0,0,1-.21.1l-1.35.12A.35.35,0,0,1,173.22,40.46Z"/><path class="cls-5" d="M180.29,39.63a4.36,4.36,0,0,1-1.82-1.69,5.16,5.16,0,0,1-.7-2.55l-.11-4.86a5,5,0,0,1,.57-2.58A4.4,4.4,0,0,1,180,26.19a6,6,0,0,1,5.29-.12,4.45,4.45,0,0,1,1.82,1.67,5.12,5.12,0,0,1,.7,2.54l.11,4.87a5,5,0,0,1-.57,2.58,4.4,4.4,0,0,1-1.73,1.77,5.63,5.63,0,0,1-2.65.68A5.55,5.55,0,0,1,180.29,39.63Zm4.84-2.06a3,3,0,0,0,.8-2.29l-.12-5A3.08,3.08,0,0,0,184.9,28a3.32,3.32,0,0,0-4.49.11,3.16,3.16,0,0,0-.79,2.32l.12,5a3.08,3.08,0,0,0,.9,2.25,3,3,0,0,0,2.26.8A3.06,3.06,0,0,0,185.13,37.57ZM181.57,24l0-.17,1-2a.37.37,0,0,1,.36-.23l1.27,0a.4.4,0,0,1,.2,0,.16.16,0,0,1,.07.14.49.49,0,0,1,0,.18l-1.26,2.06a.39.39,0,0,1-.37.21l-1,0C181.66,24.17,181.57,24.1,181.57,24Z"/><path class="cls-5" d="M190.75,39.84a.33.33,0,0,1-.07-.23l.85-13.68a.32.32,0,0,1,.1-.22.29.29,0,0,1,.23-.06l1.3.08a.39.39,0,0,1,.36.22l5.62,10.5s.05.06.08,0,0,0,0-.09l.62-10a.32.32,0,0,1,.1-.22.32.32,0,0,1,.23-.07l1.34.09a.3.3,0,0,1,.22.09.3.3,0,0,1,.07.23L201,40.25a.29.29,0,0,1-.32.29l-1.33-.09a.42.42,0,0,1-.36-.22l-5.61-10.56s-.05-.06-.08-.05,0,0,0,.09l-.6,10a.3.3,0,0,1-.09.22.35.35,0,0,1-.23.07L191,39.93A.27.27,0,0,1,190.75,39.84Z"/><path class="cls-5" d="M211.35,41.78l-1.86-14.27a.24.24,0,0,1,0-.12c0-.15.13-.21.32-.17l1.43.25a.36.36,0,0,1,.21.11.25.25,0,0,1,.08.21l1.36,11.56c0,.06,0,.09,0,.1s0,0,.08-.07L218.24,29a.27.27,0,0,1,.16-.17.37.37,0,0,1,.23,0L220,29c.24,0,.31.17.2.39l-6.71,12.75a.34.34,0,0,1-.39.18l-1.47-.26A.36.36,0,0,1,211.35,41.78Z"/><path class="cls-5" d="M221.33,43.73A4,4,0,0,1,220,41.94a3.58,3.58,0,0,1-.07-2.2l.12-.47a.3.3,0,0,1,.14-.2.29.29,0,0,1,.23,0l1.27.33a.33.33,0,0,1,.2.14.31.31,0,0,1,0,.24l-.1.37a2.08,2.08,0,0,0,.44,1.89,3.84,3.84,0,0,0,2.14,1.26,3.21,3.21,0,0,0,2.21,0,1.94,1.94,0,0,0,1.09-1.32,1.64,1.64,0,0,0-.09-1.14,3.44,3.44,0,0,0-.82-1.07,20.66,20.66,0,0,0-1.76-1.4,19.93,19.93,0,0,1-2-1.61,4.29,4.29,0,0,1-1.09-1.56,3.14,3.14,0,0,1-.06-2,3.31,3.31,0,0,1,1.91-2.35,5.36,5.36,0,0,1,3.55-.11,6.53,6.53,0,0,1,2.44,1.17,4,4,0,0,1,1.35,1.83,3.72,3.72,0,0,1,.07,2.22l-.08.29a.3.3,0,0,1-.13.2.28.28,0,0,1-.24,0l-1.29-.33a.37.37,0,0,1-.2-.13.25.25,0,0,1,0-.21l.06-.24a2.19,2.19,0,0,0-.37-1.92,3.53,3.53,0,0,0-2.09-1.28,3.23,3.23,0,0,0-2,0,1.75,1.75,0,0,0-1.05,1.28,1.63,1.63,0,0,0,.06,1.16,3.06,3.06,0,0,0,.8,1c.39.33,1,.79,1.81,1.37a25,25,0,0,1,2,1.61,4.55,4.55,0,0,1,1.12,1.61,3.13,3.13,0,0,1,.08,2,3.55,3.55,0,0,1-1.09,1.83,3.87,3.87,0,0,1-2,.89,6.55,6.55,0,0,1-2.67-.19A6.74,6.74,0,0,1,221.33,43.73Z"/><path class="cls-5" d="M230.87,46.33a1.36,1.36,0,0,1-.08-1.1,1.26,1.26,0,0,1,.73-.8,1.45,1.45,0,0,1,1.1-.07,1.51,1.51,0,0,1,.85.71,1.24,1.24,0,0,1,.14,1.07,1.35,1.35,0,0,1-.72.83,1.57,1.57,0,0,1-2-.64Z"/><path class="cls-5" d="M239.68,49.67a.3.3,0,0,1,0-.24l5.43-12.58a.27.27,0,0,1,.16-.17.29.29,0,0,1,.24,0l1.26.54a.42.42,0,0,1,.26.34L248,44c0,.09,0,.11.11,0l5.35-3.66a.4.4,0,0,1,.42,0l1.25.54a.32.32,0,0,1,.18.16.29.29,0,0,1,0,.24l-5.43,12.58a.32.32,0,0,1-.16.18.29.29,0,0,1-.24,0l-1.24-.53a.3.3,0,0,1-.18-.17.34.34,0,0,1,0-.24l4.12-9.53c0-.05,0-.09,0-.1a.08.08,0,0,0-.1,0l-4.35,3.07a.42.42,0,0,1-.42,0l-.6-.26a.42.42,0,0,1-.26-.34l-.73-5.26s0-.07-.06-.08-.05,0-.07.07l-4.12,9.54a.31.31,0,0,1-.17.17.29.29,0,0,1-.24,0l-1.23-.54A.32.32,0,0,1,239.68,49.67Z"/><path class="cls-5" d="M260,59.29l.47-2.35a.14.14,0,0,0-.05-.13l-5-2.73s-.08,0-.13,0l-1.73,1.66a.32.32,0,0,1-.42,0l-1.27-.69c-.21-.11-.22-.25-.05-.42l10.45-9.94a.33.33,0,0,1,.42-.05l1.65.9a.35.35,0,0,1,.19.38l-2.66,14.19a.24.24,0,0,1,0,.12c-.07.13-.18.15-.34.07l-1.29-.71A.33.33,0,0,1,260,59.29ZM256.58,53l4.11,2.25c.07,0,.12,0,.13-.07l1.57-7.84s0-.09,0-.1-.06,0-.1,0l-5.71,5.58C256.52,52.88,256.52,52.93,256.58,53Z"/><path class="cls-5" d="M263.59,61.59a.28.28,0,0,1,.05-.23L271.24,50a.28.28,0,0,1,.2-.14.26.26,0,0,1,.23.06l1.09.72A.41.41,0,0,1,273,51l-.41,11.89a.1.1,0,0,0,0,.09s.06,0,.09-.05l5.53-8.31a.3.3,0,0,1,.2-.14.29.29,0,0,1,.23,0l1.12.75a.3.3,0,0,1,.14.2.29.29,0,0,1-.05.23l-7.6,11.4a.28.28,0,0,1-.19.14.3.3,0,0,1-.24,0l-1.1-.74a.42.42,0,0,1-.2-.37l.44-12s0-.08,0-.09-.05,0-.08.06l-5.55,8.36a.36.36,0,0,1-.2.15.35.35,0,0,1-.23-.06l-1.12-.75A.28.28,0,0,1,263.59,61.59Z"/><path class="cls-5" d="M276.3,70.08a4.22,4.22,0,0,1-.34-2.39A5,5,0,0,1,277,65.37l3.31-4.14a4.77,4.77,0,0,1,2-1.52,4.34,4.34,0,0,1,2.4-.18,5.61,5.61,0,0,1,2.4,1.18,5.67,5.67,0,0,1,1.68,2.06,4.13,4.13,0,0,1,.37,2.33,4.46,4.46,0,0,1-1,2.24c-.08.11-.22.11-.39,0l-1.11-.78-.06,0a.29.29,0,0,1-.1-.13.11.11,0,0,1,0-.11l.08-.09a2.8,2.8,0,0,0,.67-2.16,3.41,3.41,0,0,0-3.42-2.74,2.81,2.81,0,0,0-2,1.13l-3.39,4.25a2.76,2.76,0,0,0-.67,2.16,3,3,0,0,0,1.22,2,3,3,0,0,0,2.21.74,2.79,2.79,0,0,0,1.95-1.13.18.18,0,0,1,.18-.09.28.28,0,0,1,.2.1l1,.91q.23.23.18.27l-.06.08a4.5,4.5,0,0,1-2,1.47,4.22,4.22,0,0,1-2.37.17,6.23,6.23,0,0,1-4.06-3.26Z"/><path class="cls-5" d="M299.55,72a.32.32,0,0,1,.22.1l1,.93a.3.3,0,0,1,.1.21.33.33,0,0,1-.09.22l-9.44,9.94a.31.31,0,0,1-.21.11.3.3,0,0,1-.22-.1l-1-.93a.31.31,0,0,1-.11-.21.3.3,0,0,1,.1-.22l4.1-4.32a.09.09,0,0,0,0-.14l-4.2-4c-.05,0-.09,0-.14,0L285.55,78a.28.28,0,0,1-.21.11.3.3,0,0,1-.22-.1l-1-.93a.28.28,0,0,1-.11-.21.3.3,0,0,1,.1-.22l9.43-9.94a.36.36,0,0,1,.22-.11.32.32,0,0,1,.22.1l1,.93a.29.29,0,0,1,.11.21A.33.33,0,0,1,295,68l-4,4.24a.09.09,0,0,0,0,.15l4.2,4a.09.09,0,0,0,.15,0l4-4.24A.31.31,0,0,1,299.55,72Z"/><path class="cls-5" d="M299,92,300.27,90a.12.12,0,0,0,0-.13l-3.78-4.27a.12.12,0,0,0-.13,0l-2.19,1a.33.33,0,0,1-.41-.1l-1-1.09c-.16-.17-.13-.31.09-.41l13.21-5.79a.34.34,0,0,1,.41.1l1.25,1.41a.33.33,0,0,1,.05.42l-7.33,12.44a.22.22,0,0,1-.08.09c-.11.1-.22.09-.34,0l-1-1.1A.33.33,0,0,1,299,92Zm-1-7.11,3.11,3.51c.05.06.1,0,.14,0l4.14-6.83s0-.08,0-.1-.06,0-.11,0L298,84.79C298,84.83,297.94,84.88,298,84.93Z"/><path class="cls-5" d="M302.32,96a4.08,4.08,0,0,1,0-2.25A3.68,3.68,0,0,1,303.67,92l.39-.29a.3.3,0,0,1,.23-.07.28.28,0,0,1,.2.13l.79,1a.31.31,0,0,1,.07.23.27.27,0,0,1-.13.2l-.31.24a2.05,2.05,0,0,0-.83,1.75,3.89,3.89,0,0,0,.9,2.32,3.34,3.34,0,0,0,1.76,1.34,1.92,1.92,0,0,0,1.67-.37,1.68,1.68,0,0,0,.65-1,3.56,3.56,0,0,0,0-1.35,19.53,19.53,0,0,0-.51-2.19,20.28,20.28,0,0,1-.6-2.52,4.29,4.29,0,0,1,.12-1.89,3.13,3.13,0,0,1,1.2-1.62,3.31,3.31,0,0,1,3-.66,5.27,5.27,0,0,1,2.85,2.11,6.41,6.41,0,0,1,1.2,2.43,4,4,0,0,1-.08,2.27,3.7,3.7,0,0,1-1.32,1.78l-.24.19a.31.31,0,0,1-.23.07.3.3,0,0,1-.2-.13L313.41,95a.35.35,0,0,1-.07-.23.24.24,0,0,1,.1-.18l.2-.15a2.21,2.21,0,0,0,.9-1.74,3.57,3.57,0,0,0-.85-2.29,3.2,3.2,0,0,0-1.6-1.26,1.76,1.76,0,0,0-1.62.36,1.68,1.68,0,0,0-.67.94,3,3,0,0,0,0,1.29q.15.75.57,2.19a24,24,0,0,1,.58,2.51,4.6,4.6,0,0,1-.11,2,3.24,3.24,0,0,1-1.21,1.65,3.56,3.56,0,0,1-2,.76,3.78,3.78,0,0,1-2.13-.55,6.53,6.53,0,0,1-2-1.8A6.9,6.9,0,0,1,302.32,96Z"/><path class="cls-5" d="M319.92,124.92l4.19-5.2a.14.14,0,0,0,0-.15L322.86,117a.09.09,0,0,0-.14,0l-5.34,2.62a.29.29,0,0,1-.41-.14l-.59-1.21a.27.27,0,0,1,0-.24.26.26,0,0,1,.17-.17l12.32-6a.32.32,0,0,1,.23,0,.33.33,0,0,1,.18.17l2.37,4.85a4.32,4.32,0,0,1,.5,2.16,3.62,3.62,0,0,1-.65,1.92,4.36,4.36,0,0,1-1.69,1.4,3.87,3.87,0,0,1-2.49.38,3.68,3.68,0,0,1-2.1-1.25.12.12,0,0,0-.14,0l-4.14,5.27-.12.11c-.13.06-.23,0-.31-.15l-.61-1.25A.36.36,0,0,1,319.92,124.92Zm8.44-10.75-4.08,2c-.06,0-.07.07,0,.14l1.49,3a2.42,2.42,0,0,0,1.35,1.27,2.37,2.37,0,0,0,2.91-3.36l-1.49-3A.09.09,0,0,0,328.36,114.17Z"/><path class="cls-5" d="M336.8,133.19a.28.28,0,0,1-.15-.18L334,126.36c0-.06-.06-.08-.13,0l-4.05,1.58c-.07,0-.09.07-.06.14l1.77,4.53a.29.29,0,0,1,0,.24.32.32,0,0,1-.18.16l-1,.39a.28.28,0,0,1-.4-.17l-1.77-4.54a.09.09,0,0,0-.14,0l-4.15,1.62a.1.1,0,0,0-.06.13l2.6,6.65a.29.29,0,0,1,0,.24.32.32,0,0,1-.18.16l-1,.39a.29.29,0,0,1-.24,0,.32.32,0,0,1-.16-.18l-3.24-8.29a.29.29,0,0,1,0-.24.28.28,0,0,1,.18-.15l12.76-5a.33.33,0,0,1,.24,0,.28.28,0,0,1,.15.18l3.25,8.28a.33.33,0,0,1,0,.24.29.29,0,0,1-.18.16l-1,.39A.29.29,0,0,1,336.8,133.19Z"/><path class="cls-5" d="M326.59,141.79a4,4,0,0,1,.82-2.1,3.63,3.63,0,0,1,1.84-1.2l.47-.14a.33.33,0,0,1,.24,0,.31.31,0,0,1,.14.19l.38,1.26a.28.28,0,0,1,0,.24.32.32,0,0,1-.19.14l-.37.11a2.06,2.06,0,0,0-1.39,1.36,3.9,3.9,0,0,0,0,2.48,3.3,3.3,0,0,0,1.18,1.87,2,2,0,0,0,1.7.24,1.64,1.64,0,0,0,.93-.67,3.49,3.49,0,0,0,.49-1.26,22.09,22.09,0,0,0,.28-2.23,19.62,19.62,0,0,1,.32-2.56,4.28,4.28,0,0,1,.77-1.74,3.13,3.13,0,0,1,1.68-1.1,3.34,3.34,0,0,1,3,.41,5.3,5.3,0,0,1,1.94,3,6.4,6.4,0,0,1,.27,2.69,4,4,0,0,1-.86,2.11,3.74,3.74,0,0,1-1.86,1.21l-.29.09a.33.33,0,0,1-.24,0,.26.26,0,0,1-.14-.19l-.39-1.27a.39.39,0,0,1,0-.24.24.24,0,0,1,.16-.13l.24-.07a2.26,2.26,0,0,0,1.45-1.32,3.59,3.59,0,0,0,0-2.45,3.22,3.22,0,0,0-1.06-1.73,1.75,1.75,0,0,0-1.64-.23,1.61,1.61,0,0,0-1,.65,2.86,2.86,0,0,0-.44,1.21c-.08.5-.16,1.25-.23,2.25a25.27,25.27,0,0,1-.33,2.56,4.53,4.53,0,0,1-.79,1.79,3.12,3.12,0,0,1-1.7,1.13,3.52,3.52,0,0,1-2.13,0,3.86,3.86,0,0,1-1.8-1.25,7.45,7.45,0,0,1-1.53-5.09Z"/><path class="cls-5" d="M344.81,157.12a.32.32,0,0,1-.21.13l-1.07.23a.31.31,0,0,1-.24,0,.29.29,0,0,1-.13-.2l-.81-3.72c0-.07-.05-.09-.12-.08l-11.91,2.6a.33.33,0,0,1-.24,0,.32.32,0,0,1-.13-.2l-.28-1.32a.33.33,0,0,1,0-.24.31.31,0,0,1,.2-.12l11.91-2.6c.07,0,.09-.05.08-.12l-.77-3.53a.31.31,0,0,1,0-.24.29.29,0,0,1,.2-.13l1.08-.23a.31.31,0,0,1,.24,0,.29.29,0,0,1,.13.2l2,9.37A.32.32,0,0,1,344.81,157.12Z"/><path class="cls-5" d="M332.5,169.54l2.17-1a.1.1,0,0,0,.06-.11l-.79-5.65a.13.13,0,0,0-.1-.09l-2.37-.39a.35.35,0,0,1-.29-.31l-.2-1.44c0-.23.07-.33.31-.29l14.21,2.46a.33.33,0,0,1,.29.31l.26,1.86a.33.33,0,0,1-.19.38l-13,6.33a.34.34,0,0,1-.12,0c-.15,0-.24-.06-.26-.23l-.21-1.46A.34.34,0,0,1,332.5,169.54Zm3.05-6.5.65,4.63c0,.09.06.11.14.07l7.22-3.41c.05,0,.07-.05.07-.08s0,0-.09-.05l-7.88-1.26C335.58,162.94,335.54,163,335.55,163Z"/><path class="cls-5" d="M333.23,175.74a4.3,4.3,0,0,1,1.56-1.86,4.85,4.85,0,0,1,2.43-.77l9.45-.52a.33.33,0,0,1,.23.07.32.32,0,0,1,.1.22l.07,1.35a.33.33,0,0,1-.07.23.28.28,0,0,1-.22.09l-9.5.53a2.85,2.85,0,0,0-2.09,1,3,3,0,0,0-.7,2.26,3,3,0,0,0,.94,2.16,2.84,2.84,0,0,0,2.19.72l9.5-.52a.29.29,0,0,1,.32.29l.07,1.35a.27.27,0,0,1-.07.23.3.3,0,0,1-.22.09l-9.45.52a4.8,4.8,0,0,1-2.5-.49,4.23,4.23,0,0,1-1.75-1.66,5.64,5.64,0,0,1-.72-2.59A5.7,5.7,0,0,1,333.23,175.74Z"/><path class="cls-5" d="M333.25,194.25l6.13-2.64a.14.14,0,0,0,.09-.12l.08-2.89a.09.09,0,0,0-.1-.1l-5.95-.17a.37.37,0,0,1-.22-.09.29.29,0,0,1-.07-.23l0-1.35a.29.29,0,0,1,.08-.22.36.36,0,0,1,.23-.08l13.72.4a.37.37,0,0,1,.22.09.36.36,0,0,1,.08.23l-.16,5.4a4.45,4.45,0,0,1-.58,2.14,3.6,3.6,0,0,1-1.47,1.4,4.37,4.37,0,0,1-2.14.45,3.89,3.89,0,0,1-2.38-.83,3.7,3.7,0,0,1-1.28-2.08.1.1,0,0,0-.12-.07l-6.12,2.73-.16,0c-.14,0-.2-.09-.2-.27l0-1.39A.38.38,0,0,1,333.25,194.25Zm12.48-5.57-4.54-.13c-.07,0-.1,0-.11.1L341,192a2.34,2.34,0,0,0,.6,1.75,2.25,2.25,0,0,0,1.68.71,2.32,2.32,0,0,0,1.75-.6,2.35,2.35,0,0,0,.71-1.72l.1-3.39C345.83,188.72,345.8,188.69,345.73,188.68Z"/><path class="cls-5" d="M332,207.54l2.36-.44s.09,0,.09-.09l.67-5.67a.13.13,0,0,0-.07-.11l-2.19-1a.34.34,0,0,1-.21-.38l.17-1.44c0-.23.15-.3.38-.2l13.11,6a.32.32,0,0,1,.2.37l-.22,1.87a.33.33,0,0,1-.28.32l-14.15,2.82a.25.25,0,0,1-.13,0c-.15,0-.21-.11-.19-.29l.17-1.46A.34.34,0,0,1,332,207.54Zm4.6-5.51-.55,4.65q0,.12.12.09l7.85-1.46c.06,0,.08,0,.09-.05s0,0-.08-.07l-7.3-3.23C336.64,201.94,336.6,202,336.59,202Z"/><path class="cls-5" d="M331.16,213.38a4.18,4.18,0,0,1,2-1.39,4.71,4.71,0,0,1,2.54-.12l5.19,1a4.73,4.73,0,0,1,2.27,1.09,4.22,4.22,0,0,1,1.25,2.05,5.56,5.56,0,0,1,.06,2.67,5.79,5.79,0,0,1-1.07,2.44,4.23,4.23,0,0,1-1.9,1.4,4.47,4.47,0,0,1-2.45.14c-.13,0-.19-.15-.18-.35L339,221l0-.08a.21.21,0,0,1,.07-.15.12.12,0,0,1,.09,0l.12,0a2.82,2.82,0,0,0,2.23-.39,3,3,0,0,0,1.21-2,3,3,0,0,0-.34-2.32,2.84,2.84,0,0,0-1.9-1.23l-5.33-1.08a2.79,2.79,0,0,0-2.23.4,3,3,0,0,0-1.22,2,3,3,0,0,0,.35,2.3,2.81,2.81,0,0,0,1.9,1.22.19.19,0,0,1,.16.12.28.28,0,0,1,0,.22l-.35,1.31c-.07.2-.12.29-.16.28l-.1,0a4.55,4.55,0,0,1-2.21-1.08,4.31,4.31,0,0,1-1.23-2,6.22,6.22,0,0,1,1-5.1Z"/><path class="cls-5" d="M328.6,223.4a.33.33,0,0,1,.24,0l13.25,3.51a.33.33,0,0,1,.2.14.38.38,0,0,1,0,.24l-.35,1.3a.28.28,0,0,1-.14.2.26.26,0,0,1-.23,0l-13.25-3.51a.33.33,0,0,1-.2-.14.31.31,0,0,1,0-.24l.35-1.3A.32.32,0,0,1,328.6,223.4Z"/><path class="cls-5" d="M327,230.28a4.38,4.38,0,0,1,2.2-1.15,5,5,0,0,1,2.64.21l4.62,1.52a5.15,5.15,0,0,1,2.23,1.41,4.47,4.47,0,0,1,1.07,2.23,6,6,0,0,1-1.67,5,4.39,4.39,0,0,1-2.19,1.15,5.06,5.06,0,0,1-2.62-.2L328.69,239a5.19,5.19,0,0,1-2.24-1.41,4.45,4.45,0,0,1-1.08-2.23,5.5,5.5,0,0,1,.25-2.72A5.38,5.38,0,0,1,327,230.28Zm.31,5.25a3.08,3.08,0,0,0,1.89,1.53l4.71,1.56a3.15,3.15,0,0,0,2.46-.09,3.05,3.05,0,0,0,1.53-1.87,3,3,0,0,0-.12-2.4,3.13,3.13,0,0,0-1.92-1.52l-4.72-1.57a3.1,3.1,0,0,0-2.42.1,3,3,0,0,0-1.52,1.85A3.08,3.08,0,0,0,327.34,235.53Zm14,1.23.14.09,1.56,1.66a.38.38,0,0,1,.1.42l-.4,1.2a.32.32,0,0,1-.11.17.17.17,0,0,1-.15,0,.4.4,0,0,1-.15-.12l-1.51-1.88a.39.39,0,0,1-.08-.41l.32-1C341.13,236.77,341.22,236.72,341.35,236.76Z"/><path class="cls-5" d="M323.28,240.1a.34.34,0,0,1,.24,0l12.58,5.44a.27.27,0,0,1,.17.16.29.29,0,0,1,0,.24l-.52,1.2a.42.42,0,0,1-.33.26l-11.78,1.73c-.05,0-.08,0-.08,0s0,.05.07.07l9.16,4a.27.27,0,0,1,.17.16.29.29,0,0,1,0,.24l-.54,1.24a.3.3,0,0,1-.16.17.29.29,0,0,1-.24,0l-12.58-5.44a.29.29,0,0,1-.17-.17.27.27,0,0,1,0-.23l.53-1.22a.39.39,0,0,1,.33-.26L332,246c.05,0,.07,0,.08-.06s0-.05-.07-.07l-9.23-4a.28.28,0,0,1-.16-.4l.54-1.24A.32.32,0,0,1,323.28,240.1Z"/><path class="cls-5" d="M309.05,267.94a4.18,4.18,0,0,1,2.36-.5,4.86,4.86,0,0,1,2.39.88l4.36,3a4.75,4.75,0,0,1,1.65,1.91,4.25,4.25,0,0,1,.35,2.37,5.71,5.71,0,0,1-1,2.48,5.85,5.85,0,0,1-1.94,1.82,4.29,4.29,0,0,1-2.3.54,4.53,4.53,0,0,1-2.31-.84q-.17-.12,0-.39l.7-1.16.05-.07a.33.33,0,0,1,.13-.11s.08,0,.1,0l.1.07a2.78,2.78,0,0,0,2.2.52,3,3,0,0,0,1.9-1.34,3,3,0,0,0,.59-2.27,2.75,2.75,0,0,0-1.26-1.87l-4.48-3.1a2.8,2.8,0,0,0-2.2-.51,3,3,0,0,0-1.91,1.35,3,3,0,0,0-.58,2.26,2.81,2.81,0,0,0,1.26,1.87.2.2,0,0,1,.11.17.29.29,0,0,1-.1.21l-.83,1.06c-.14.15-.22.22-.26.2l-.08-.06a4.55,4.55,0,0,1-1.61-1.87,4.26,4.26,0,0,1-.33-2.35,6.21,6.21,0,0,1,3-4.28Z"/><path class="cls-5" d="M298,282.22l6.47,1.66a.12.12,0,0,0,.14,0l1.83-2.23a.09.09,0,0,0,0-.14l-4.61-3.78a.33.33,0,0,1-.12-.2.34.34,0,0,1,.08-.23l.86-1a.31.31,0,0,1,.2-.13.34.34,0,0,1,.23.08l10.61,8.71a.33.33,0,0,1,.12.21.29.29,0,0,1-.08.22l-3.43,4.18a4.3,4.3,0,0,1-1.76,1.34,3.68,3.68,0,0,1-2,.21,4.36,4.36,0,0,1-2-1,3.84,3.84,0,0,1-1.38-2.11,3.68,3.68,0,0,1,.27-2.43.1.1,0,0,0-.06-.12l-6.51-1.59-.15-.07c-.1-.09-.1-.2,0-.33l.88-1.08A.37.37,0,0,1,298,282.22Zm13.28,3.23-3.51-2.88a.09.09,0,0,0-.14,0l-2.16,2.63a2.34,2.34,0,0,0-.59,1.75,2.28,2.28,0,0,0,.89,1.59,2.25,2.25,0,0,0,3.37-.33l2.15-2.62A.09.09,0,0,0,311.31,285.45Z"/><path class="cls-5" d="M294.86,285.53a.26.26,0,0,1,.22.09l10.06,9.31a.28.28,0,0,1,.11.21.33.33,0,0,1-.09.22l-.92,1a.29.29,0,0,1-.21.11.33.33,0,0,1-.22-.09l-10.06-9.31a.29.29,0,0,1-.11-.21.33.33,0,0,1,.09-.22l.92-1A.31.31,0,0,1,294.86,285.53Z"/><path class="cls-5" d="M290.38,290.6a4.07,4.07,0,0,1,2.24-.23,3.68,3.68,0,0,1,1.91,1.09l.34.35a.33.33,0,0,1,.09.22.3.3,0,0,1-.1.22l-.94.9a.32.32,0,0,1-.22.1.34.34,0,0,1-.22-.1l-.27-.28a2.07,2.07,0,0,0-1.84-.62,4,4,0,0,0-2.19,1.18,3.23,3.23,0,0,0-1.12,1.9,1.93,1.93,0,0,0,.56,1.62,1.68,1.68,0,0,0,1,.52,3.36,3.36,0,0,0,1.35-.15,19.2,19.2,0,0,0,2.11-.77,23,23,0,0,1,2.42-.89,4.38,4.38,0,0,1,1.9-.1,3.07,3.07,0,0,1,1.75,1,3.32,3.32,0,0,1,1,2.86,5.42,5.42,0,0,1-1.76,3.09,6.47,6.47,0,0,1-2.27,1.47,4.07,4.07,0,0,1-2.27.2,3.65,3.65,0,0,1-1.92-1.1l-.22-.22a.29.29,0,0,1-.09-.22.3.3,0,0,1,.1-.22l1-.92a.34.34,0,0,1,.21-.1.21.21,0,0,1,.19.08l.17.18a2.2,2.2,0,0,0,1.84.68,3.53,3.53,0,0,0,2.18-1.11,3.21,3.21,0,0,0,1.05-1.74,1.8,1.8,0,0,0-.54-1.57,1.68,1.68,0,0,0-1-.55,3,3,0,0,0-1.27.16c-.49.16-1.19.43-2.12.83a23.93,23.93,0,0,1-2.42.88,4.66,4.66,0,0,1-2,.12,3.22,3.22,0,0,1-1.78-1,3.52,3.52,0,0,1-1-1.88,3.84,3.84,0,0,1,.29-2.18,6.41,6.41,0,0,1,1.56-2.18A6.62,6.62,0,0,1,290.38,290.6Z"/><path class="cls-5" d="M285,313.86a.33.33,0,0,1-.21-.12l-.7-.85a.31.31,0,0,1-.08-.23.3.3,0,0,1,.12-.2L287.1,310a.09.09,0,0,0,0-.14l-7.76-9.4a.3.3,0,0,1-.08-.23.26.26,0,0,1,.12-.2l1-.86a.29.29,0,0,1,.22-.08.33.33,0,0,1,.21.12l7.76,9.4a.09.09,0,0,0,.15,0l2.79-2.3a.28.28,0,0,1,.43,0l.7.85a.3.3,0,0,1,.08.23.26.26,0,0,1-.12.2l-7.39,6.11A.31.31,0,0,1,285,313.86Z"/><path class="cls-5" d="M268.41,308.58l1.91,1.46a.12.12,0,0,0,.13,0l4.65-3.3a.12.12,0,0,0,0-.13l-.74-2.28a.33.33,0,0,1,.14-.4l1.19-.84c.18-.14.32-.09.4.14L280.46,317a.33.33,0,0,1-.14.4l-1.54,1.09a.33.33,0,0,1-.42,0l-11.58-8.62-.09-.09q-.12-.18.09-.33l1.2-.86A.35.35,0,0,1,268.41,308.58Zm7.17-.27L271.76,311c-.06.05-.06.1,0,.15l6.34,4.85c.05,0,.08.05.1,0s0-.05,0-.1l-2.49-7.59C275.69,308.29,275.64,308.27,275.58,308.31Z"/><path class="cls-5" d="M264.73,310.8a.29.29,0,0,1,.18.15l7,11.79a.28.28,0,0,1,0,.23.31.31,0,0,1-.15.19l-1.16.69a.3.3,0,0,1-.24,0,.32.32,0,0,1-.18-.15L264,313.23c0-.05-.09-.07-.14,0l-6,3.53a.29.29,0,0,1-.23,0,.29.29,0,0,1-.19-.16l-.55-.93a.29.29,0,0,1-.05-.23.29.29,0,0,1,.16-.19l7.47-4.43A.3.3,0,0,1,264.73,310.8Z"/><path class="cls-5" d="M254.76,316.49a.3.3,0,0,1,.18.16l6.3,12.17a.32.32,0,0,1,0,.23.28.28,0,0,1-.16.18l-1.2.62a.26.26,0,0,1-.24,0,.29.29,0,0,1-.17-.16l-6.31-12.17a.32.32,0,0,1,0-.23.28.28,0,0,1,.16-.18l1.2-.62A.3.3,0,0,1,254.76,316.49Z"/><path class="cls-5" d="M251,318.49a.27.27,0,0,1,.16.17l.52,1.15a.64.64,0,0,1,0,.39l-2.14,12.54a.06.06,0,0,0,0,.08.07.07,0,0,0,.09,0l6.25-2.81a.29.29,0,0,1,.24,0,.28.28,0,0,1,.17.17l.44,1a.27.27,0,0,1,0,.23.29.29,0,0,1-.17.17l-8.1,3.64a.27.27,0,0,1-.23,0,.29.29,0,0,1-.17-.17l-.52-1.16a.68.68,0,0,1,0-.38L249.74,321a.08.08,0,0,0,0-.08.09.09,0,0,0-.1,0l-6.28,2.82a.3.3,0,0,1-.24,0,.31.31,0,0,1-.17-.17l-.44-1a.3.3,0,0,1,0-.24.27.27,0,0,1,.17-.16l8.1-3.65A.33.33,0,0,1,251,318.49Z"/><path class="cls-5" d="M232.35,326.2l1.44,1.92c.05,0,.09.06.13,0l5.37-1.91s.06-.05.07-.11l-.09-2.4a.35.35,0,0,1,.24-.35l1.37-.49c.22-.07.34,0,.35.25l.44,14.41a.34.34,0,0,1-.25.35l-1.77.63a.33.33,0,0,1-.41-.12L230.44,327a.36.36,0,0,1-.06-.11c0-.14,0-.24.17-.3l1.39-.49A.33.33,0,0,1,232.35,326.2Zm7,1.68-4.41,1.57c-.08,0-.09.08,0,.15l4.8,6.39c0,.05.06.07.08.06s0-.05,0-.1l-.34-8Q239.44,327.85,239.33,327.88Z"/><path class="cls-5" d="M228.24,327.34a.3.3,0,0,1,.13.19l3.47,13.26a.28.28,0,0,1,0,.24.31.31,0,0,1-.2.14l-4.69,1.22a4.91,4.91,0,0,1-3.56-.22,3.72,3.72,0,0,1-2-2.55l-1.56-5.94a3.78,3.78,0,0,1,.48-3.2,5,5,0,0,1,3-1.94l4.69-1.22A.28.28,0,0,1,228.24,327.34Zm-1.51,2.06-3.07.81a2.52,2.52,0,0,0-1.65,1.18,2.73,2.73,0,0,0-.2,2.07l1.4,5.38a2.69,2.69,0,0,0,1.18,1.71,2.51,2.51,0,0,0,2,.22l3.07-.8a.09.09,0,0,0,.07-.13l-2.71-10.36A.09.09,0,0,0,226.73,329.4Z"/><path class="cls-5" d="M214.39,331a4.34,4.34,0,0,1,2,1.4,5.1,5.1,0,0,1,1.07,2.42l.82,4.8a5,5,0,0,1-.18,2.62,4.42,4.42,0,0,1-1.47,2,6,6,0,0,1-5.22.9,4.32,4.32,0,0,1-2-1.39,5,5,0,0,1-1.06-2.41l-.83-4.8a5.12,5.12,0,0,1,.19-2.63,4.31,4.31,0,0,1,1.46-2,5.66,5.66,0,0,1,2.51-1.06A5.55,5.55,0,0,1,214.39,331Zm-4.49,2.75a3,3,0,0,0-.46,2.38l.85,4.9a3.14,3.14,0,0,0,1.23,2.12,3,3,0,0,0,2.37.47,3,3,0,0,0,2.06-1.24,3.1,3.1,0,0,0,.44-2.41l-.84-4.9a3.12,3.12,0,0,0-1.22-2.09,3.38,3.38,0,0,0-4.43.77Z"/><polygon class="cls-5" points="84.56 66.46 85.69 69.94 89.35 69.94 86.39 72.09 87.52 75.57 84.56 73.42 81.6 75.57 82.73 72.09 79.77 69.94 83.43 69.94 84.56 66.46"/><polygon class="cls-5" points="36.86 215.41 37.99 218.89 41.65 218.89 38.69 221.04 39.82 224.53 36.86 222.37 33.9 224.53 35.03 221.04 32.07 218.89 35.73 218.89 36.86 215.41"/><polygon class="cls-5" points="196.26 335.56 197.39 339.04 201.05 339.04 198.09 341.19 199.22 344.67 196.26 342.52 193.3 344.67 194.43 341.19 191.47 339.04 195.13 339.04 196.26 335.56"/><polygon class="cls-5" points="321.62 256.37 322.75 259.85 326.42 259.85 323.45 262 324.59 265.48 321.62 263.33 318.66 265.48 319.79 262 316.83 259.85 320.49 259.85 321.62 256.37"/><polygon class="cls-5" points="316.78 101.64 317.91 105.12 321.57 105.12 318.61 107.28 319.74 110.76 316.78 108.61 313.82 110.76 314.95 107.28 311.99 105.12 315.65 105.12 316.78 101.64"/></g></g></svg>