<svg xmlns="http://www.w3.org/2000/svg" xmlns:xlink="http://www.w3.org/1999/xlink" viewBox="0 0 93.97 91.04"><defs><style>.cls-1{isolation:isolate;}.cls-2{fill:#005b72;}.cls-3{mix-blend-mode:soft-light;fill:url(#Degradado_sin_nombre_15);}.cls-4{fill:aqua;}</style><linearGradient id="Degradado_sin_nombre_15" x1="23.79" y1="9.27" x2="38.72" y2="50.31" gradientUnits="userSpaceOnUse"><stop offset="0" stop-color="#fff"/><stop offset="0.16" stop-color="#cfe0e5" stop-opacity="0.81"/><stop offset="0.47" stop-color="#77a8b4" stop-opacity="0.47"/><stop offset="0.72" stop-color="#377e90" stop-opacity="0.22"/><stop offset="0.91" stop-color="#0f657a" stop-opacity="0.06"/><stop offset="1" stop-color="#005b72" stop-opacity="0"/></linearGradient></defs><g class="cls-1"><g id="Capa_2" data-name="Capa 2"><g id="Capa_1-2" data-name="Capa 1"><path class="cls-2" d="M67.79,86.3,40.13,90.79a19.29,19.29,0,0,1-18.06-6.86L4.35,62.22A19.33,19.33,0,0,1,1.26,43.15l10-26.2a19.28,19.28,0,0,1,15-12.21L53.84.25A19.3,19.3,0,0,1,71.9,7.11L89.62,28.82a19.33,19.33,0,0,1,3.09,19.07l-9.95,26.2A19.28,19.28,0,0,1,67.79,86.3Z"/><path class="cls-3" d="M14.34,19.86l-9.24,25a6.43,6.43,0,0,0,6.48,8.65l20.26-1.42A18.16,18.16,0,0,0,47.63,40.15l9.43-26a7,7,0,0,0-7.64-9.37l-20,2.91A19,19,0,0,0,14.34,19.86Z"/><path class="cls-4" d="M60.28,69.26c-.56-.09-1.13-.17-1.69-.29a15.72,15.72,0,0,1-8.83-5.6,2.49,2.49,0,0,0-2.31-1.18,1.59,1.59,0,0,0-1.25.57,18.22,18.22,0,0,1-5,4.29A13.78,13.78,0,0,1,28,67.33c-.67-.31-1.29-.73-1.94-1.11a1.64,1.64,0,0,1-.25-.21v-.17c.21,0,.42,0,.62,0,1.23.24,2.45.6,3.69.73a10.85,10.85,0,0,0,8.18-2.63,25.64,25.64,0,0,0,2.46-2.54,3.69,3.69,0,0,0,.44-.67c-6.7-3.54-9.82-9.1-9.34-16.82a25.57,25.57,0,0,0-2.94.16,11.21,11.21,0,0,0-9.56,12.17c0,.21.08.41.08.62a.66.66,0,0,1-.19.46c-1.29-4.8-.86-9.37,2.17-13.42a16,16,0,0,1,12-6.7A16,16,0,0,1,35,22.82c1.58-2.45,5.06-5.21,7.22-5.61a2.85,2.85,0,0,1-.44.41A12,12,0,0,0,37.63,22a11.51,11.51,0,0,0-1.3,6.23,11.09,11.09,0,0,0,1.61,5C44.59,28.65,51.22,28.6,58,33.1c.27-.74.61-1.48.82-2.26a11.42,11.42,0,0,0-.72-8.47,12.89,12.89,0,0,0-4.68-4.93,1.24,1.24,0,0,1-.46-.55c4.22,1.47,7.73,3.83,9.54,8.08s1.35,8.4-.08,12.66l.63.07a16.25,16.25,0,0,1,12.12,7.49,13.9,13.9,0,0,1,2,6.06c0,.19.07.37.11.55v2.76a3.82,3.82,0,0,1-.11.55l-.45,2.57h-.22a2,2,0,0,1-.1-.49,12.08,12.08,0,0,0-.28-4.6,11.13,11.13,0,0,0-5.6-7.08,11,11,0,0,0-4.9-1.26H64.28c.42,7.72-2.79,13.23-9.67,16.63.28.43.52.82.8,1.18C58,65.4,61.33,67.27,65.63,67a31.33,31.33,0,0,0,3.86-.75,2.91,2.91,0,0,1,.59,0v.18a18.06,18.06,0,0,1-5.86,2.47c-.61.13-1.23.23-1.85.34ZM43.82,46A4.21,4.21,0,1,0,48,41.8H48A4.22,4.22,0,0,0,43.82,46Zm-2.7-9.55c4.25,3.31,10.81,1.92,13.58-.19A11.64,11.64,0,0,0,41.12,36.45ZM53.75,56.3c4.09-2.11,6.39-7,6-10.45C56.24,47.64,53.93,52.46,53.75,56.3ZM42,56.11c.32-3.58-3-9.66-5.79-10.5A11.59,11.59,0,0,0,42,56.11Z"/></g></g></g></svg>