<?xml version="1.0" encoding="UTF-8"?>
<svg id="Layer_2" data-name="Layer 2" xmlns="http://www.w3.org/2000/svg" viewBox="0 0 1118.79 300.21">
  <defs>
    <style>
      .cls-1, .cls-2 {
        isolation: isolate;
      }

      .cls-3 {
        fill: #c11718;
      }

      .cls-4, .cls-2 {
        fill: #fff;
      }

      .cls-5 {
        fill: #fbbb0e;
      }
    </style>
  </defs>
  <g id="Capa_1" data-name="Capa 1">
    <g>
      <g>
        <path class="cls-5" d="M843.62,138.94c-1.72-1.99-3.84-3.64-6.38-4.94-2.54-1.3-5.15-2.13-7.82-2.47-.41-.07-.84-.12-1.29-.15-.45-.03-.87-.05-1.29-.05-.76,0-1.53.05-2.32.15-.79.1-1.59.22-2.42.36-1.92.41-3.78,1.08-5.56,2.01-1.79.93-3.23,2.11-4.32,3.55v-23.36h-13.69v76.06h13.69v-30.62c0-.86.03-1.73.1-2.62.14-1.23.36-2.49.67-3.76.31-1.27.77-2.42,1.39-3.45,1.1-1.65,2.45-2.88,4.07-3.7,1.61-.82,3.38-1.23,5.3-1.23,5.08,0,8.27,1.68,9.57,5.04,1.3,3.36,1.99,7.1,2.06,11.22v29.13h13.69v-30.77c0-3.84-.26-7.46-.77-10.86-.51-3.4-2.08-6.57-4.68-9.52Z"/>
        <path class="cls-5" d="M1071.43,140.3c-5.66-5.99-12.57-8.98-20.74-8.98s-15.68,3.02-21.51,9.06c-5.83,6.04-8.75,13.28-8.75,21.72s2.93,15.35,8.8,21.15c5.87,5.8,12.95,8.7,21.25,8.7,6.04,0,11.68-1.77,16.93-5.3,5.25-3.53,8.73-7.87,10.45-13.02l-15.13.1c-1.3,1.51-3.11,2.71-5.4,3.6-2.3.89-4.75,1.34-7.36,1.34-3.43,0-6.54-.99-9.31-2.98-2.78-1.99-4.68-4.67-5.71-8.03h44.26c0-.2.02-.41.05-.61.03-.21.09-.45.15-.72.14-.82.26-1.66.36-2.51.1-.86.15-1.73.15-2.62,0-7.94-2.83-14.9-8.49-20.88ZM1034.74,155.51c.96-3.13,2.88-5.66,5.76-7.6,2.88-1.94,5.97-3.01,9.26-3.21h.82c3.5,0,6.69.96,9.57,2.88,2.88,1.92,4.87,4.56,5.97,7.93h-31.39Z"/>
        <path class="cls-5" d="M909.79,140.33c-5.76-6-12.83-9.04-21.2-9.11v.1c-8.51,0-15.76,2.93-21.77,8.8-6.01,5.87-9.01,13.09-9.01,21.67s2.97,15.4,8.9,21.3c5.93,5.9,13.02,8.85,21.25,8.85s15.54-2.92,21.51-8.75c5.97-5.83,8.95-12.97,8.95-21.41s-2.88-15.45-8.64-21.46ZM900.02,173.81c-3.16,3.24-7.17,4.85-12.04,4.85s-8.58-1.66-11.73-4.99c-3.16-3.33-4.73-7.29-4.73-11.89,0-2.26.39-4.41,1.18-6.43.79-2.02,1.97-3.82,3.55-5.4,1.17-1.24,2.57-2.3,4.22-3.19,1.65-.89,3.33-1.51,5.04-1.85.41-.07.82-.12,1.23-.15.41-.03.82-.09,1.24-.15,4.73,0,8.71,1.69,11.94,5.06,3.22,3.37,4.84,7.4,4.84,12.08s-1.58,8.84-4.73,12.08Z"/>
        <path class="cls-5" d="M1005.82,138.42c-2.26-2.61-4.89-4.44-7.87-5.51-2.98-1.06-6.16-1.6-9.52-1.6h-1.03c-.34,0-.69.04-1.03.1-2.75.21-5.42.89-8.03,2.06-2.61,1.17-4.8,2.81-6.59,4.94-.27.21-.53.46-.77.77-.24.31-.46.64-.67.98-.21-.34-.41-.65-.62-.93-.21-.27-.45-.55-.72-.82-1.78-2.33-4.03-4.1-6.74-5.3-2.71-1.2-5.54-1.8-8.49-1.8-.69,0-1.43.04-2.21.1-.79.07-1.56.17-2.32.31-2.13.41-4.15,1.15-6.07,2.21-1.92,1.06-3.33,2.52-4.22,4.37h-.21v-5.25h-12.56v57.02h13.69v-29.33c0-.75.03-1.51.1-2.26.14-3.43.89-6.59,2.26-9.47,1.37-2.88,4.29-4.32,8.75-4.32,1.78,0,3.48.4,5.09,1.18,1.61.79,2.9,1.94,3.86,3.45,1.1,1.65,1.73,3.34,1.9,5.09.17,1.75.26,3.52.26,5.3v30.36h13.69v-30.46c0-.82.03-1.68.1-2.57.14-1.3.34-2.61.62-3.91.27-1.3.75-2.47,1.44-3.5,1.03-1.65,2.38-2.88,4.06-3.7,1.68-.82,3.48-1.23,5.4-1.23h1.03c1.51.21,2.95.67,4.32,1.39,1.37.72,2.43,1.66,3.19,2.83.55.82.96,1.77,1.23,2.83.27,1.06.48,2.15.62,3.24.07.82.12,1.65.15,2.47.03.82.05,1.58.05,2.26v30.36h13.69v-31.91c0-3.71-.33-7.22-.98-10.55-.65-3.33-2.28-6.4-4.89-9.21Z"/>
        <path class="cls-5" d="M1114.66,105.43l-172.8-53.94c-1.58-.64-3.35-.64-4.94,0l-172.8,53.94c-3.38,1.36-5.02,5.21-3.65,8.59,1.36,3.38,5.21,5.02,8.59,3.65l170.33-52.94,170.33,52.94c.81.33,1.64.48,2.47.48,2.61,0,5.09-1.56,6.12-4.13,1.36-3.38-.27-7.23-3.65-8.59Z"/>
        <path class="cls-5" d="M1026.34,60.27h44.66v11.54c0,2.56,2.07,4.63,4.63,4.63s4.63-2.07,4.63-4.63v-16.17c0-2.56-2.07-4.63-4.63-4.63h-49.28c-2.56,0-4.63,2.07-4.63,4.63s2.07,4.63,4.63,4.63Z"/>
      </g>
      <g>
        <polygon class="cls-3" points="129.47 300.21 128.71 300.21 126.58 215.59 218.34 170.79 210.29 247.17 209.71 249.65 129.47 300.21"/>
        <path class="cls-3" d="M0,26.82l2.07.42,39.88,21.02,11.3,98.4-1.36-.36L15.02,111.16C10.15,85.13,6.05,58.95,1.41,32.87c-.32-1.82-.53-4.11-1.41-5.67v-.38Z"/>
        <polygon class="cls-3" points="749.63 37.92 749.63 207.55 288.05 207.55 325.98 37.92 749.63 37.92"/>
        <path class="cls-3" d="M233.66,57.45c-4.26,35.49-8.43,71.02-13.22,106.44-29.87,13.61-59.29,28.25-89.18,41.81-.68.31-4.59,2.12-4.85,1.85l-2.12-121.39,109.37-28.71Z"/>
        <polygon class="cls-3" points="113.7 86.23 117.59 206.78 115.68 205.45 56.6 150.78 44.83 50.74 113.7 86.23"/>
        <polygon class="cls-3" points="312.95 37.16 292.29 130.03 226.19 160.44 238.82 55.9 312.95 37.16"/>
        <polygon class="cls-3" points="230.6 51.32 119.75 78.4 53.24 45.01 50.95 43.29 148.43 26.4 229.37 50.44 230.6 51.32"/>
        <polygon class="cls-3" points="289.97 136.33 289.87 138.34 274.83 207.53 216.64 244.33 215.28 244.69 223.36 169.88 223.91 167.74 289.97 136.33"/>
        <path class="cls-3" d="M121.81,298.68c-.72-.4-1.35-1.12-1.9-1.73-18.33-20.25-35.02-42.76-53.18-63.24l-7.73-74.78c.66-.17.77.28,1.15.57,1.05.81,2.78,2.46,3.83,3.44,18.13,16.8,35.47,34.53,53.54,51.39l4.29,84.35Z"/>
        <path class="cls-3" d="M308.36,31.03c.18.17.1.98-.53.8l-72.83,18.28c-25.17-8.11-50.84-14.89-75.94-23.2-1.12-.37-2.88-.64-3.54-1.63l69.9-12.29,82.93,18.03Z"/>
        <path class="cls-3" d="M142.88,24.9l-95.53,16.74L4.6,20.88c.37-.59.76-.5,1.33-.58,28.18-3.93,56.48-7.08,84.64-11.11,16.12,4.7,32.34,9.13,48.39,14.08,1.21.37,3.09.69,3.92,1.63Z"/>
        <path class="cls-3" d="M55.81,154.05c.6.74,2.13,16.04,2.41,18.46,2.09,18.42,3.94,36.89,5.75,55.32l-2.29-2.11-33.42-40.87-11.02-66.52c.38-.09.5.03.77.18,1.12.63,4.1,4.19,5.35,5.37,10.73,10.13,21.67,20.08,32.45,30.16Z"/>
        <path class="cls-3" d="M217.19,11.88l-67.2,12.23c-17.59-5.38-35.29-10.38-52.9-15.67-.55-.16-.68.24-.56-.77L161.47,0c17.49,4.56,37.16,6.2,54.4,11.1.52.15,1.19.05,1.32.78Z"/>
        <g>
          <rect class="cls-4" x="367.83" y="179.52" width="4.21" height="18.39"/>
          <rect class="cls-4" x="442.3" y="179.52" width="4.21" height="18.39"/>
          <rect class="cls-4" x="676.51" y="179.52" width="4.21" height="18.39"/>
          <rect class="cls-4" x="409.72" y="179.52" width="4.06" height="18.39"/>
          <path class="cls-4" d="M384.06,196.07c-.31.61-.9,1.11-1.77,1.52-.88.41-1.9.61-3.06.61-1.28,0-2.37-.24-3.27-.71-.9-.47-1.49-1.07-1.77-1.81-.28-.73-.42-1.77-.42-3.11v-1.17h4.43v2.18c0,.67.06,1.1.19,1.3.12.19.35.29.66.29s.55-.12.71-.37c.15-.24.23-.61.23-1.09,0-1.06-.15-1.75-.44-2.07-.3-.33-1.05-.87-2.23-1.63-1.19-.77-1.97-1.33-2.36-1.67s-.7-.83-.96-1.44c-.25-.61-.38-1.4-.38-2.35,0-1.37.18-2.38.54-3.01.36-.64.94-1.13,1.74-1.49.8-.36,1.77-.54,2.9-.54,1.24,0,2.29.2,3.17.59.87.39,1.45.88,1.73,1.48.28.6.42,1.61.42,3.03v.71h-4.43v-1.33c0-.62-.06-1.02-.17-1.19-.11-.17-.3-.25-.57-.25-.29,0-.5.11-.65.34-.15.23-.22.58-.22,1.04,0,.6.08,1.05.25,1.35.16.3.61.67,1.35,1.1,2.12,1.23,3.46,2.24,4.01,3.03.55.79.83,2.06.83,3.82,0,1.28-.15,2.22-.46,2.83Z"/>
          <polygon class="cls-4" points="538.4 197.91 529.82 197.91 529.82 179.52 534.17 179.52 534.17 193.85 538.4 193.85 538.4 197.91"/>
          <path class="cls-4" d="M365.95,182.5c-.11-.59-.4-1.13-.85-1.62-.45-.48-1.11-.83-1.98-1.05-.87-.21-2.54-.32-5-.32h-3.82v18.39h6.44c1.22,0,2.14-.06,2.74-.19.61-.12,1.12-.34,1.53-.66.41-.31.7-.75.87-1.31.16-.56.25-1.66.25-3.31v-6.44c0-1.74-.06-2.91-.17-3.51ZM361.5,191.26c0,2.77-1.15,2.62-1.15,2.62h-2.02v-10.35h1.59c1.59,0,1.59,2.11,1.59,2.11v5.61Z"/>
          <path class="cls-4" d="M460.16,182.5c-.11-.59-.4-1.13-.85-1.62-.45-.48-1.11-.83-1.98-1.05-.87-.21-2.54-.32-5-.32h-3.82v18.39h6.44c1.22,0,2.14-.06,2.74-.19.61-.12,1.12-.34,1.53-.66.41-.31.7-.75.87-1.31.16-.56.25-1.66.25-3.31v-6.44c0-1.74-.06-2.91-.17-3.51ZM455.7,191.26c0,2.77-1.15,2.62-1.15,2.62h-2.02v-10.35h1.59c1.59,0,1.59,2.11,1.59,2.11v5.61Z"/>
          <path class="cls-4" d="M616.87,182.5c-.11-.59-.4-1.13-.85-1.62-.45-.48-1.11-.83-1.98-1.05-.87-.21-2.54-.32-5-.32h-3.82v18.39h6.44c1.22,0,2.14-.06,2.74-.19.61-.12,1.12-.34,1.53-.66.41-.31.7-.75.87-1.31.16-.56.25-1.66.25-3.31v-6.44c0-1.74-.06-2.91-.17-3.51ZM612.42,191.26c0,2.77-1.15,2.62-1.15,2.62h-2.02v-10.35h1.59c1.59,0,1.59,2.11,1.59,2.11v5.61Z"/>
          <polygon class="cls-4" points="385.17 179.52 385.17 183.43 387.82 183.43 387.82 197.91 392.52 197.91 392.52 183.43 395.1 183.43 395.1 179.52 385.17 179.52"/>
          <path class="cls-2" d="M404.59,188.71s3.23-.24,3.11-4.65-3.33-4.54-4.17-4.54h-6.66v18.39h4.45v-6.7s1.79.24,1.79,2.26v4.43h4.59v-4.79s.3-3.69-3.1-4.41ZM400.77,186.25v-3.64s2.76-.36,2.75,1.82c-.01,1.89-2.75,1.82-2.75,1.82Z"/>
          <path class="cls-2" d="M482.43,188.71s3.23-.24,3.11-4.65c-.13-4.41-3.33-4.54-4.17-4.54h-6.66v18.39h4.45v-6.7s1.79.24,1.79,2.26v4.43h4.59v-4.79s.3-3.69-3.1-4.41ZM478.61,186.25v-3.64s2.76-.36,2.75,1.82c-.01,1.89-2.75,1.82-2.75,1.82Z"/>
          <path class="cls-2" d="M581.37,188.71s3.29-.24,3.16-4.65-3.4-4.54-4.25-4.54h-6.78v18.39h4.53v-6.7s1.82.24,1.82,2.26v4.43h4.68v-4.79s.3-3.69-3.16-4.41ZM577.48,186.25v-3.64s2.81-.36,2.8,1.82c-.01,1.89-2.8,1.82-2.8,1.82Z"/>
          <path class="cls-4" d="M472.89,183.46c-.09-.72-.38-1.38-.86-1.99-.48-.61-1.12-1.06-1.92-1.37-.8-.3-1.69-.46-2.69-.46-1.05,0-1.97.16-2.77.48-.79.32-1.42.78-1.88,1.39-.46.6-.74,1.27-.83,1.99-.09.73-.13,1.96-.13,3.71v2.98c0,1.79.05,3.04.14,3.76.09.72.38,1.38.86,1.99.48.61,1.12,1.07,1.92,1.37.8.3,1.69.46,2.69.46,1.05,0,1.97-.16,2.77-.48.79-.32,1.42-.78,1.88-1.39.47-.6.74-1.27.83-1.99s.13-1.96.13-3.71v-2.98c0-1.79-.05-3.04-.14-3.76ZM468.45,186.71v4c0,1.78-.46,2.4-.77,2.62-.15.11-.46.08-.6-.04-.8-.64-.7-2.58-.7-2.58v-4c0-1.78.46-2.4.77-2.62.15-.11.32-.08.51-.05.82.15.8,2.66.8,2.66Z"/>
          <path class="cls-4" d="M597.4,183.46c-.09-.72-.38-1.38-.86-1.99-.48-.61-1.12-1.06-1.92-1.37-.8-.3-1.69-.46-2.69-.46-1.05,0-1.97.16-2.77.48-.79.32-1.42.78-1.88,1.39-.46.6-.74,1.27-.83,1.99-.09.73-.13,1.96-.13,3.71v2.98c0,1.79.05,3.04.14,3.76.09.72.38,1.38.86,1.99.48.61,1.12,1.07,1.92,1.37.8.3,1.69.46,2.69.46,1.05,0,1.97-.16,2.77-.48.79-.32,1.42-.78,1.88-1.39.47-.6.74-1.27.83-1.99s.13-1.96.13-3.71v-2.98c0-1.79-.05-3.04-.14-3.76ZM592.96,186.71v4c0,1.78-.46,2.4-.77,2.62-.15.11-.46.08-.6-.04-.8-.64-.7-2.58-.7-2.58v-4c0-1.78.46-2.4.77-2.62.15-.11.32-.08.51-.05.82.15.8,2.66.8,2.66Z"/>
          <path class="cls-4" d="M707.29,183.46c-.09-.72-.38-1.38-.86-1.99-.48-.61-1.12-1.06-1.92-1.37-.8-.3-1.69-.46-2.69-.46-1.05,0-1.97.16-2.77.48-.79.32-1.42.78-1.88,1.39-.46.6-.74,1.27-.83,1.99-.09.73-.13,1.96-.13,3.71v2.98c0,1.79.05,3.04.14,3.76.09.72.38,1.38.86,1.99.48.61,1.12,1.07,1.92,1.37.8.3,1.69.46,2.69.46,1.05,0,1.97-.16,2.77-.48.79-.32,1.42-.78,1.88-1.39.47-.6.74-1.27.83-1.99s.13-1.96.13-3.71v-2.98c0-1.79-.05-3.04-.14-3.76ZM702.85,186.71v4c0,1.78-.46,2.4-.77,2.62-.15.11-.46.08-.6-.04-.8-.64-.7-2.58-.7-2.58v-4c0-1.78.46-2.4.77-2.62.15-.11.32-.08.51-.05.82.15.8,2.66.8,2.66Z"/>
          <path class="cls-4" d="M435.63,179.51v13.6s.02.71-.97.71-.97-.71-.97-.71v-13.6h-4.35v14.13c0,4.49,5.32,4.26,5.32,4.26,0,0,5.32.29,5.32-4.26v-14.13h-4.35Z"/>
          <path class="cls-4" d="M523.14,179.51v13.6s.02.71-.97.71-.97-.71-.97-.71v-13.6h-4.35v14.13c0,4.49,5.32,4.26,5.32,4.26,0,0,5.32.29,5.32-4.26v-14.13h-4.35Z"/>
          <path class="cls-4" d="M500.76,179.52h-6.07l-3,18.38h4.34l.71-4.02h2.49l.67,4.02h4.39l-3.52-18.38ZM497.08,190.85l.91-5.64.91,5.64h-1.82Z"/>
          <polygon class="cls-4" points="540.51 179.51 549.05 179.51 549.05 183.69 544.76 183.69 544.76 186.32 549.05 186.32 549.05 190.49 544.76 190.49 544.76 193.74 549.05 193.74 549.05 197.91 540.51 197.91 540.51 179.51"/>
          <polygon class="cls-4" points="562.97 179.51 571.52 179.51 571.52 183.69 567.22 183.69 567.22 186.32 571.52 186.32 571.52 190.49 567.22 190.49 567.22 193.74 571.52 193.74 571.52 197.91 562.97 197.91 562.97 179.51"/>
          <polygon class="cls-4" points="619.22 179.51 627.71 179.51 627.67 183.6 623.42 183.6 623.42 186.16 627.67 186.16 627.67 190.52 623.42 190.52 623.42 193.67 627.67 193.67 627.67 197.91 619.17 197.91 619.22 179.51"/>
          <polygon class="cls-4" points="653.69 179.51 662.19 179.51 662.14 183.6 657.89 183.6 657.89 186.16 662.14 186.16 662.14 190.52 657.89 190.52 657.89 193.67 662.14 193.67 662.14 197.91 653.65 197.91 653.69 179.51"/>
          <polygon class="cls-4" points="635.83 179.46 641 179.46 643.25 187.74 645.51 179.46 650.56 179.46 650.56 197.96 647.27 197.96 647.27 188.95 645.08 197.96 641.85 197.96 639.48 188.95 639.48 197.96 635.83 197.96 635.83 179.46"/>
          <path class="cls-4" d="M658.35,174.56s3.53,0,3.39,0-2.37,3.1-2.37,3.1h-2.23l1.21-3.1Z"/>
          <polygon class="cls-4" points="671.81 188.3 675.55 179.49 671.12 179.49 669.39 184.12 667.66 179.49 663.23 179.49 666.97 188.3 662.88 197.92 667.66 197.92 669.39 194 671.12 197.92 675.89 197.92 671.81 188.3"/>
          <path class="cls-4" d="M427.28,191.34c-.15-.95-.51-1.89-1.16-2.6-.31-.34-.7-.67-1.19-.93,0,0,2.8-1.05,2.1-5.25,0,0-.26-2.4-2.2-2.91-1.24-.33-8.35-.12-8.35-.12v18.38h7.81s4.08.3,3-6.57ZM420.03,193.75v-3.68s2.77-.59,2.77,1.84-2.77,1.84-2.77,1.84ZM420.03,186.33v-3.68s2.77-.59,2.77,1.84-2.77,1.84-2.77,1.84Z"/>
          <polygon class="cls-2" points="515 179.47 515 184.24 509.66 193.75 515 193.75 515 197.96 505.27 197.96 505.27 193.12 510.62 183.39 505.27 183.39 505.27 179.47 515 179.47"/>
          <path class="cls-2" d="M555.96,179.49h4.32v14.66s0,3.78-3.77,3.78c-4.09,0-1.86,0-1.86,0,0,0-3.77.4-3.96-2.49-.16-2.53,0-4.22,0-4.22h3.43v2.53s.03.65.94.65.97-.97.97-.97l-.07-13.94Z"/>
          <path class="cls-4" d="M689.58,190.01h4.58v2.12s.53,5.79-5.61,5.79-5.61-5.84-5.61-5.84v-8.71s.06-3.84,3.38-3.84h4.13s3.76-.34,3.76,3.27v4.18h-4.62v-2.86s.11-.92-1.03-.92-1.15.8-1.15,1.09v8.02s-.16,1.3,1.15,1.31c1.09,0,1.01-1.14,1.01-1.14l.03-2.46Z"/>
        </g>
        <g>
          <polygon class="cls-4" points="575.5 56.38 624.46 56.38 643.59 122.51 662.73 56.38 710.46 56.38 710.46 166.93 676.91 166.93 676.91 102.15 656.45 166.92 656.45 166.93 630.74 166.93 630.74 166.92 609.05 98.25 609.05 166.93 575.5 166.93 575.5 56.38"/>
          <path class="cls-4" d="M415.93,56.38h-61.97v110.55h37v-.07h24.97s33.05-.48,33.05-29.16v-52.16c0-28.68-33.05-29.16-33.05-29.16ZM402.28,144.6h-11.32v-65.97h11.32c12.37,0,10.24,12.13,10.24,12.13v41.71s2.13,12.13-10.24,12.13Z"/>
          <path class="cls-2" d="M532.47,56.85h-42.44l-32.32,110.05h37.17l4.08-20.36h25.66l4.2,20.36h37.17l-33.51-110.05ZM502.96,124.88l8.73-41.05,8.73,41.05h-17.45Z"/>
        </g>
        <g class="cls-1">
          <polygon class="cls-4" points="717.43 58.24 719.67 58.24 721.77 66.87 723.91 58.24 726.15 58.24 726.15 70.52 724.46 70.52 724.46 62.9 722.77 70.52 721.04 70.52 719.12 62.85 719.12 70.52 717.43 70.52 717.43 58.24"/>
          <rect class="cls-4" x="728.25" y="68.7" width="1.51" height="1.83"/>
          <rect class="cls-4" x="741.3" y="68.7" width="1.51" height="1.83"/>
          <path class="cls-4" d="M737.47,65s1.61-.62,1.87-2.56c.29-2.13-.54-4.2-2.72-4.2h-4.77s-.09,12.28,0,12.28h1.6v-5.29s1.96,0,1.96,0l2.69,5.29h1.96s-2.2-4.92-2.6-5.52ZM736.24,63.41h-2.71v-3.56h2.38s1.71-.04,1.71,1.71-1.38,1.84-1.38,1.84Z"/>
        </g>
      </g>
    </g>
  </g>
</svg>